<svg width="57" height="56" viewBox="0 0 57 56" fill="none" xmlns="http://www.w3.org/2000/svg"><g clip-path="url(#a)" fill-rule="evenodd" clip-rule="evenodd"><path d="M8.582 10.1c0-.345.28-.625.625-.625h22.857c.345 0 .625.28.625.625v32.907c0 .345-.28.625-.625.625H9.207a.625.625 0 0 1-.625-.625zm1.25.625v31.657h21.607V10.725z" fill="#000091"/><path d="M36.364 38.075c.346 0 .625.28.625.625v8.586c0 .345-.28.625-.625.625h-8.571a.625.625 0 1 1 0-1.25h7.946V38.7c0-.346.28-.626.625-.626" fill="#000091"/><path d="M12.875 14.436c0-.345.28-.625.625-.625h14.286a.625.625 0 1 1 0 1.25H13.5a.625.625 0 0 1-.625-.625m0 2.857c0-.345.28-.625.625-.625h12.143a.625.625 0 0 1 0 1.25H13.5a.625.625 0 0 1-.625-.625m0 2.85c0-.345.28-.625.625-.625h10.186a.625.625 0 0 1 0 1.25H13.5a.625.625 0 0 1-.625-.625" fill="#E1000F"/><path d="M12.868 25.857c0-.345.28-.625.625-.625H27.6a.625.625 0 1 1 0 1.25H13.493a.625.625 0 0 1-.625-.625m24.292 2.864c0-.345.28-.625.625-.625H42.1a.625.625 0 0 1 0 1.25h-4.314a.625.625 0 0 1-.625-.625m-24.293 2.865c0-.345.28-.625.625-.625h12.55a.625.625 0 0 1 0 1.25h-12.55a.625.625 0 0 1-.625-.625m0 5.7c0-.345.28-.625.625-.625h9.414a.625.625 0 0 1 0 1.25h-9.414a.625.625 0 0 1-.625-.625" fill="#000091"/><path d="M34.304 18.729c0-.345.28-.625.625-.625h12.85c.345 0 .625.28.625.625v14.278c0 .346-.28.625-.625.625h-12.85a.625.625 0 0 1-.625-.625zm1.25.625v13.028h11.6V19.354z" fill="#000091"/><path d="M44.55 17.033a.804.804 0 0 0-1.016-.512l-8.408 2.8a.625.625 0 0 1-.395-1.185l8.407-2.8a2.054 2.054 0 0 1 2.598 1.301l.636 1.9a.625.625 0 0 1-1.186.397z" fill="#000091"/><path d="M37.16 23.007c0-.345.28-.625.625-.625h5.693a.625.625 0 1 1 0 1.25h-5.693a.625.625 0 0 1-.625-.625" fill="#E1000F"/><path d="M44.928 28.625a.09.09 0 1 0 0 .179.09.09 0 0 0 0-.179m-1.34.09a1.34 1.34 0 1 1 2.68 0 1.34 1.34 0 0 1-2.68 0" fill="#000091"/></g><defs><clipPath id="a"><path fill="#fff" d="M.5 0h56v56H.5z"/></clipPath></defs></svg>
