<svg width="56" height="56" viewBox="0 0 56 56" fill="none" xmlns="http://www.w3.org/2000/svg"><rect width="56" height="56" rx="8" fill="#F5F5FE"/><path fill-rule="evenodd" clip-rule="evenodd" d="M28 38.238c-5.523 0-10-4.477-10-10s4.477-10 10-10 10 4.477 10 10-4.477 10-10 10m-4.987-3.744A7.97 7.97 0 0 0 28 36.238a7.97 7.97 0 0 0 5.167-1.892 6.98 6.98 0 0 0-5.007-2.108 6.98 6.98 0 0 0-5.147 2.256m-1.397-1.436a8.98 8.98 0 0 1 6.544-2.82 8.97 8.97 0 0 1 6.362 2.634 8 8 0 1 0-12.906.187M28 29.238a4 4 0 1 1 0-8 4 4 0 0 1 0 8m0-2a2 2 0 1 0 0-4 2 2 0 0 0 0 4" fill="#000091"/></svg>