<svg width="57" height="56" viewBox="0 0 57 56" fill="none" xmlns="http://www.w3.org/2000/svg">
    <path d="M39.1341 18.4724C38.2941 18.4724 37.4541 18.1224 36.8241 17.5624C36.1941 16.9324 35.9141 16.1624 35.9141 15.2524C35.9141 14.4124 36.2641 13.5724 36.8241 12.9424C37.4541 12.3124 38.2241 12.0324 39.1341 11.9624C39.9741 11.9624 40.8141 12.3124 41.4441 12.8724C42.0741 13.5024 42.3541 14.2724 42.3541 15.1824C42.3541 16.0224 42.0041 16.8624 41.4441 17.4924C40.8141 18.1924 39.9741 18.4724 39.1341 18.4724ZM37.3141 15.2524C37.3141 15.7424 37.5241 16.1624 37.8741 16.5124C38.5741 17.2124 39.7641 17.2124 40.4641 16.5124C40.8141 16.1624 41.0241 15.7424 41.0241 15.2524C41.0241 14.7624 40.8141 14.2724 40.4641 13.9924C39.7641 13.2924 38.5741 13.2924 37.8741 13.9924C37.5241 14.3424 37.3141 14.7624 37.3141 15.2524Z" fill="#000091"/>
    <path d="M21.074 40.9425C20.934 40.9425 20.794 40.9425 20.654 40.8725C19.954 40.7325 19.324 40.2425 19.114 39.5425C18.904 38.8425 19.044 38.0725 19.534 37.5126L29.124 26.1725L32.694 20.5725L31.854 20.1525L28.774 22.8825C28.494 23.1625 28.074 23.0926 27.794 22.8126C27.514 22.5325 27.584 22.1125 27.864 21.8325L31.294 18.8225C31.504 18.6125 31.784 18.6125 32.064 18.7525L34.024 19.7325C34.234 19.8025 34.304 20.0125 34.374 20.1525C34.444 20.2925 34.374 20.5725 34.304 20.7125L30.314 26.9425L30.244 27.0126L20.584 38.4226C20.444 38.6325 20.374 38.8425 20.444 39.1225C20.514 39.3325 20.724 39.5425 20.934 39.5425C21.144 39.6125 21.424 39.4725 21.564 39.3325L30.804 28.6925C30.944 28.4825 31.224 28.4125 31.504 28.4825L34.934 29.2525C35.144 29.3225 35.354 29.4625 35.424 29.6725C35.494 29.8825 35.494 30.0925 35.354 30.3025L32.834 34.2925C32.764 34.4325 32.694 34.6425 32.764 34.7825C32.834 34.9225 32.904 35.1325 33.044 35.2025C33.184 35.2725 33.394 35.3425 33.534 35.2725C33.674 35.2025 33.884 35.1325 33.954 34.9925L37.524 29.3925C37.664 29.1825 37.664 28.9726 37.594 28.7626C37.524 28.5526 37.314 28.4125 37.104 28.3425L34.444 27.7126C34.234 27.6425 34.024 27.5025 33.954 27.2925C33.884 27.0825 33.884 26.8726 34.024 26.6625L36.334 23.0225C36.474 22.8125 36.684 22.6725 36.894 22.6725C37.104 22.6725 37.384 22.8125 37.454 23.0225L38.994 25.3325C39.064 25.4025 39.134 25.4725 39.274 25.5425C39.414 25.5425 39.484 25.5425 39.624 25.4725L43.614 23.0925C43.684 23.0225 43.824 22.8825 43.824 22.7425C43.824 22.6025 43.754 22.4625 43.614 22.3925C43.474 22.3225 43.334 22.3225 43.194 22.3925L40.184 24.1425C40.044 24.2125 39.834 24.2825 39.624 24.2126C39.414 24.1425 39.274 24.0026 39.204 23.8626L37.804 21.1325C37.384 20.7125 36.964 20.2925 36.474 19.9425L31.784 17.6325C31.714 17.5625 31.644 17.5625 31.504 17.5625C31.434 17.5625 31.364 17.6325 31.294 17.7025L27.304 21.2725C27.024 21.5525 26.604 21.4825 26.324 21.2025C26.044 20.9225 26.114 20.5025 26.394 20.2225L30.384 16.6525C30.664 16.3725 31.014 16.2325 31.364 16.2325C31.714 16.1625 32.134 16.2325 32.414 16.4425L37.174 18.8225C37.244 18.8225 37.244 18.8925 37.314 18.8925C37.874 19.3125 38.434 19.8025 38.924 20.2925C38.994 20.3625 38.994 20.3625 38.994 20.4325C38.994 20.4325 38.994 20.5025 39.064 20.5025L40.184 22.6725L42.564 21.2725C43.124 20.9225 43.824 20.9925 44.384 21.2725C44.944 21.6225 45.294 22.1825 45.294 22.8126C45.294 23.4426 45.014 24.0725 44.454 24.4225L40.464 26.8025C40.044 27.0825 39.554 27.1525 39.134 27.0126C38.644 26.8726 38.294 26.5925 38.014 26.2425L37.104 24.8425L35.914 26.7325L37.664 27.1525C38.294 27.2925 38.854 27.7825 39.134 28.4125C39.414 29.0426 39.344 29.7425 38.994 30.3025L35.424 35.9025C35.144 36.3925 34.654 36.6726 34.094 36.8125C33.534 36.9525 32.974 36.8125 32.554 36.5325C32.064 36.2525 31.784 35.7625 31.644 35.2025C31.504 34.6425 31.644 34.0826 31.924 33.6625L33.884 30.5126L31.644 29.8825L22.684 40.2425C22.264 40.7325 21.704 40.9425 21.074 40.9425Z" fill="#000091"/>
    <path d="M27.5838 23.3724C27.5138 23.3724 27.5138 23.3724 27.4438 23.3724C26.9538 23.3724 26.5338 23.0924 26.1838 22.7424C25.8338 22.3924 25.6938 21.9024 25.6938 21.4124C25.6938 20.9224 25.9738 20.4324 26.3238 20.1524C26.6038 19.8724 27.0238 19.9424 27.3038 20.2224C27.5838 20.5024 27.5138 20.9224 27.2338 21.2024C27.1638 21.2724 27.0938 21.4124 27.0938 21.4824C27.0938 21.6224 27.0938 21.6924 27.2338 21.7624C27.3038 21.8324 27.4438 21.9024 27.5138 21.9024C27.6538 21.9024 27.7238 21.9024 27.8638 21.7624C28.1438 21.4824 28.5638 21.5524 28.8438 21.8324C29.1238 22.1124 29.0538 22.5324 28.7738 22.8124C28.4938 23.2324 28.0038 23.3724 27.5838 23.3724Z" fill="#000091"/>
    <path d="M25.134 26.6625H20.094C19.674 26.6625 19.394 26.3825 19.394 25.9625C19.394 25.5425 19.674 25.2625 20.094 25.2625H25.134C25.554 25.2625 25.834 25.5425 25.834 25.9625C25.834 26.3825 25.554 26.6625 25.134 26.6625Z" fill="#E1000F"/>
    <path d="M23.0341 29.8824H15.4041C14.9841 29.8824 14.7041 29.6024 14.7041 29.1824C14.7041 28.7624 14.9841 28.4824 15.4041 28.4824H23.0341C23.4541 28.4824 23.7341 28.7624 23.7341 29.1824C23.7341 29.6024 23.3841 29.8824 23.0341 29.8824Z" fill="#E1000F"/>
    <path d="M20.654 33.3124H13.094C12.674 33.3124 12.394 33.0324 12.394 32.6124C12.394 32.1924 12.674 31.9124 13.094 31.9124H20.654C21.074 31.9124 21.354 32.1924 21.354 32.6124C21.354 33.0324 21.074 33.3124 20.654 33.3124Z" fill="#E1000F"/>
    <path d="M41.7939 40.8725C41.5139 40.8725 41.2339 40.6625 41.0939 40.3825C40.9539 40.0325 41.2339 39.6125 41.5839 39.5425L50.1939 37.0925C50.5439 36.9525 50.9639 37.2325 51.0339 37.5825C51.1739 37.9325 50.8939 38.3525 50.5439 38.4225L41.9339 40.8725C41.9339 40.8725 41.8639 40.8725 41.7939 40.8725Z" fill="#E1000F"/>
    <path d="M39.4142 50.6725C39.1342 50.6725 38.7842 50.6025 38.5042 50.5325C37.4542 50.2525 36.5442 49.4825 36.1242 48.4325C35.8442 47.8025 35.7742 47.1025 35.9142 46.4025C36.0542 45.7025 36.4042 45.0725 36.8942 44.5825C37.8042 43.6725 38.9242 43.3225 40.1842 43.6025V36.8125C40.1842 36.6025 40.1842 35.9025 40.9542 35.6925C43.1942 35.0625 45.4342 34.4325 47.6742 33.8025L50.3342 33.0325C50.4042 33.0325 50.4742 33.0325 50.5442 32.9625H50.6142C50.8242 32.8925 51.0342 32.9625 51.1742 33.1025C51.3142 33.2425 51.4542 33.3825 51.4542 33.5925V33.6625C51.4542 33.7325 51.4542 33.8025 51.4542 33.8725V37.4425C51.4542 39.8225 51.4542 42.2025 51.4542 44.5825C51.4542 45.4925 51.1042 46.4025 50.4042 47.0325C49.7042 47.7325 48.7242 48.0825 47.7442 48.0125C46.6942 47.9425 45.7142 47.4525 45.0842 46.6825C44.4542 45.8425 44.1742 44.7925 44.4542 43.8125C44.6642 42.7625 45.2942 41.9225 46.2042 41.4325C47.1142 40.9425 48.2342 40.8725 49.1442 41.2925L49.5642 41.5025C49.7742 41.5725 49.9142 41.7825 49.9842 41.9225C49.9842 40.4525 49.9842 38.9125 49.9842 37.4425V34.5025L47.9542 35.0625C45.7842 35.6925 43.6142 36.3225 41.5142 36.8825V44.5125C41.5142 44.7225 41.3742 44.9325 41.2342 45.0725C41.0242 45.2125 40.8142 45.2125 40.6042 45.1425L40.4642 45.2825C40.3942 45.2125 40.3242 45.2125 40.1842 45.1425C39.2742 44.8625 38.5742 45.0025 37.8742 45.6325C37.5942 45.9125 37.3842 46.2625 37.3142 46.6825C37.2442 47.1025 37.2442 47.5225 37.4542 47.8725C37.7342 48.5025 38.2242 48.9225 38.8542 49.1325C39.4842 49.2725 40.1842 49.1325 40.6742 48.7825C41.1642 48.3625 41.5142 47.7325 41.5142 47.1025C41.5142 46.6825 41.7942 46.4025 42.2142 46.4025C42.5642 46.4025 42.9142 46.6825 42.9142 47.1025C42.9142 48.2225 42.4242 49.2725 41.5842 49.9025C41.0242 50.3925 40.1842 50.6725 39.4142 50.6725ZM48.0242 42.5525C47.6742 42.5525 47.3242 42.6225 47.0442 42.8325C46.4842 43.1125 46.1342 43.6725 45.9942 44.2325C45.8542 44.8625 45.9942 45.4925 46.4142 45.9825C46.7642 46.4725 47.3942 46.7525 48.0242 46.8225C48.6542 46.8225 49.2142 46.6125 49.6342 46.1925C50.0542 45.7725 50.2642 45.2825 50.2642 44.7225C50.2642 43.9525 50.2642 43.1825 50.2642 42.4125V42.4825C50.1242 42.8325 49.7042 42.9725 49.3542 42.8325L48.9342 42.6225C48.5142 42.6225 48.2342 42.5525 48.0242 42.5525Z" fill="#000091"/>
    <path d="M13.9341 23.0224C13.8641 23.0224 13.8641 23.0224 13.9341 23.0224C11.2741 22.8824 9.17406 21.9724 7.77406 20.3624C5.46406 17.7024 5.74406 14.0624 5.74406 13.9224L6.44406 6.57244C6.51406 5.80244 6.79406 5.31244 7.28406 5.03244C7.70406 4.82244 8.19406 4.89244 8.47406 5.03244C13.0241 6.29244 22.2641 6.43244 22.4041 6.43244C22.8941 6.43244 23.3141 6.64244 23.5241 6.99244C23.9441 7.55244 23.8041 8.32244 23.6641 8.60244L23.0341 14.6924C22.9641 15.0424 22.6841 15.3924 22.2641 15.3224C21.9141 15.2524 21.5641 14.9724 21.6341 14.5524L22.2641 8.39244C22.2641 8.32244 22.2641 8.32244 22.2641 8.25244C22.3341 8.11244 22.3341 7.97244 22.3341 7.90244C21.4241 7.90244 12.6041 7.76244 7.98406 6.43244C7.91406 6.43244 7.91406 6.43244 7.84406 6.36244C7.84406 6.43244 7.77406 6.57244 7.77406 6.78244L7.07406 14.1324C7.07406 14.1324 6.86406 17.3524 8.75406 19.5224C9.94406 20.8524 11.6241 21.5524 13.8641 21.6924C14.2841 21.6924 14.5641 22.0424 14.4941 22.3924C14.5641 22.7424 14.2841 23.0224 13.9341 23.0224Z" fill="#000091"/>
    <path d="M12.8142 13.4323C12.3942 13.4323 12.1142 13.0823 12.1142 12.7323C12.1142 12.5923 12.1142 11.4023 11.1342 11.3323C10.0842 11.1923 9.87418 12.5223 9.87418 12.5223C9.80418 12.8723 9.45418 13.1523 9.03418 13.0823C8.68418 13.0123 8.40418 12.6623 8.47418 12.2423C8.61418 11.3323 9.38418 9.72232 11.2742 9.86232C13.0942 10.0723 13.5142 11.8223 13.4442 12.7323C13.5142 13.1523 13.2342 13.4323 12.8142 13.4323Z" fill="#000091"/>
    <path d="M19.674 14.1325C19.254 14.1325 18.974 13.7825 18.974 13.4325C18.974 13.2925 18.974 12.1025 17.994 12.0325C17.014 11.9625 16.734 13.0825 16.734 13.2225C16.664 13.5725 16.314 13.8525 15.894 13.7825C15.544 13.7125 15.264 13.3625 15.334 12.9425C15.474 12.0325 16.244 10.4225 18.134 10.5625C19.954 10.7725 20.374 12.5225 20.304 13.4325C20.374 13.8525 20.094 14.1325 19.674 14.1325Z" fill="#000091"/>
    <path d="M14.284 20.0125C14.144 20.0125 14.004 20.0125 13.864 20.0125C11.274 19.7325 10.504 17.3525 10.434 17.2825C10.294 16.9325 10.504 16.5125 10.854 16.3725C11.204 16.2325 11.624 16.4425 11.764 16.7925C11.764 16.8625 12.324 18.4025 14.004 18.6125C15.614 18.7525 16.384 17.3525 16.454 17.2825C16.664 16.9325 17.084 16.7925 17.434 17.0025C17.784 17.2125 17.924 17.6325 17.714 17.9125C17.644 18.0525 16.594 20.0125 14.284 20.0125Z" fill="#000091"/>
    <path d="M16.7339 23.5125C17.2939 23.5125 17.7139 23.0925 17.7139 22.5325C17.7139 21.9725 17.2939 21.5525 16.7339 21.5525C16.1739 21.5525 15.7539 21.9725 15.7539 22.5325C15.7539 23.0925 16.1739 23.5125 16.7339 23.5125Z" fill="#E1000F"/>
</svg>
