<svg width="82" height="88" viewBox="0 0 82 88" fill="none" xmlns="http://www.w3.org/2000/svg"><g clip-path="url(#a)"><path d="M40.984 88c22.42 0 40.595-18.175 40.595-40.595S63.404 6.81 40.984 6.81.389 24.985.389 47.405 18.564 88 40.984 88" fill="#0C008A"/><path d="M40.984 81.253c22.42 0 40.595-18.175 40.595-40.595S63.404.063 40.984.063.389 18.238.389 40.658s18.175 40.595 40.595 40.595" fill="url(#b)"/><path d="m48.36 39.389 10.773-10.773c.82-.82.82-2.148 0-2.967l-4.73-4.73a2.097 2.097 0 0 0-2.966 0L40.664 31.693 29.89 20.92a2.097 2.097 0 0 0-2.967 0l-4.729 4.729c-.82.82-.82 2.148 0 2.967l10.773 10.773L22.195 50.16c-.82.82-.82 2.148 0 2.967l4.73 4.73c.82.82 2.147.82 2.966 0l10.773-10.774 10.773 10.773c.82.82 2.148.82 2.966 0l4.73-4.729c.82-.82.82-2.148 0-2.967z" fill="#fff"/></g><defs><linearGradient id="b" x1="9.743" y1="57.753" x2="80.982" y2="18.772" gradientUnits="userSpaceOnUse"><stop stop-color="#DC000F"/><stop offset="1" stop-color="#F4849A"/></linearGradient><clipPath id="a"><path fill="#fff" d="M.316 0h81.366v88H.316z"/></clipPath></defs></svg>