<svg width="404" height="430.074" viewBox="0 0 404 430.074" fill="none" xmlns="http://www.w3.org/2000/svg"><mask id="a" maskUnits="userSpaceOnUse" x="157.492" y="148.274" width="16" height="31" fill="#000"><path fill="#fff" d="M157.492 148.274h16v31h-16z"/><path fill-rule="evenodd" clip-rule="evenodd" d="M160.43 168.447h-.235v-.233h-.234v-.233h.469-.235.704v-.233h.234a.235.235 0 0 0-.234-.233v-.233l.234-.233h.469v-.233h.234-.234.234a.234.234 0 0 0 .235-.233h-.235.235l-.235-.233h-.234v-.233h-.235c0-.128.106-.233.235-.233l-.235-.233h-.468v.233-.233a.235.235 0 0 0-.235-.233h-.234v-.233h-.235v.233-.233l-.234.233v-.233.233-.233.233-.233l.068-.067a.097.097 0 0 0-.068-.166h-.234.234v-.466.233-.233.233h-.234v-.233h.234v-.466h-.234v-.233.233-.233.233h.234v-.233h-.234v-.233h-.235.235l.234-.233h.469v-.233.233h.234v-.233h.703v-.232l-.234-.233v.233-.233.233-.301a.069.069 0 0 0-.117-.049.069.069 0 0 1-.117-.049v-.067h-.469v-.233.233h-.235v-.466h.235v-.233h-.235v-.233h-.234v.233h-.234.234-.234v.233h-.235v-.233h.235-.235v-.233.233-.233h.235-.235.235-.235.235-.235.235-.235v-.233.233-.466.233h.469v-.233h-.234.468v-.466h.235v-.233.233-.233l.234.233h.235v-.233.233-.466h-.235.235-.235.235l.234-.233h-.234.234-.234.234v-.466h-.234v.115a.12.12 0 0 1-.118.118.117.117 0 1 1 0-.233h.118v-.466l.234-.233v.233-.233h.469v-.233.233-.932h.234-.234.234v.233h.469-.234c0 .128.105.233.234.233l.234-.233h.235v-.233h-.235.235v-.466h.703l.234-.233h-.234.234v-.233h1.172c0-.086.104-.13.166-.069l.069.069v-.233.233-.233.233-.233h.234v.233-.233h.235v-.233.233l.234-.233h.234-.234v-.699l.234.233v-.233h.235v-.233h.234v-.233h1.641v.233h.234v.233h.235v.466h.234v-.233h.235v-.466h.234v-.233h.234v-.233l-.234-.233v-.466a.234.234 0 0 0 .234-.233h-.234v-.233a.234.234 0 0 1-.234-.233v-.466h.234v-.699h-.234.234v-.233h.234v-.233h.235-.235v-.932h-.234.234v-.233h-.234.234-.234l.234-.233h.704l.234-.233v.233h.234v.233h.235v.233h-.235.235v.233h-.235.235v.932l.234.233h-.234.234-.234.234v.233h-.234l.234.233v.932h.235v.233h-.235v.466h-.234v1.165h-.235.235-.235v.233-.233.815c0 .064.053.117.118.117.064 0 .117.052.117.117v.116l.234.233v.233h.235v.233c.128 0 .234.104.234.233v.233l.234.233v3.961h.235v3.494l-.235.233a.233.233 0 0 1-.234.233v.233l-.234.233a.234.234 0 0 1-.235.233v.233a.234.234 0 0 0-.234.233.234.234 0 0 1-.235.233v.233h-.234v.233l-.234.233v1.165l-.235.233c.129 0 .235.105.235.233v.932h-.235.235-.235v.233h.235-.235.235v.233h-.235.235v1.398h-.235a.233.233 0 0 0-.234.233c0 .086.104.13.165.069l.069-.069v.466-.233.233h-.234v.233h-.235v.233h-.468.234-.234v-.233.233h-.235.235-.235.235-.235v.233h-.234l.234.233h-.234.234v.233-.233h.235v-.233h.234v.233h.469-.235v.466h-.234a.234.234 0 0 1-.234.233v.233-.233h-.235v.233c0 .086-.104.13-.165.069l-.069-.069v.233-.233.699h.234-.234.234-.234v.233h.234-.234v.233h-.235.235-.235v.233h-.234v.233h-.234v.466h-.235.469v-.233h.234v.233l-.234.233v.233h-.234V178h-.469v-.233h-.235.235-.469.234v-.233.233-.233l-.234.233v-.233.233-.233h-.234.234-.703v-.233h.234v-.466h.235-.235v-.233.233h-.234v-.233.233h-.235v-.699.233h-.234v.233-.233.233h-.234v-.233h-.235.235-.235v-.233h-.703v-.233h-.469v-.233h-.469v-.233h-.468v-.233h.234-.234v-.233.233-.233h-.704v-.233l.235-.233h-.235v-.233.233-.233.233-.233h-.234.234v-.699h.704v-.233h.468v-.466h.469v-.233h-.937a.234.234 0 0 0-.235-.233l-.234-.233v.233h-.469v-.233.233-.233a.097.097 0 0 0 .068-.165l-.068-.068h.234-.234v-.233.233h-.469l-.234.233h-.235v-.233h.235-.235v-.233h-.468v.233-.233h.468v-.233h.235v-.233h.234v-.233h-.234v-.233h.469v-.233.233-.233.233l.234-.233v.233-.466h.234-.234v-.233h-.234.468v-.699h-.234.469v-.233h-.235v-.233a.234.234 0 0 0-.234-.233v.233l-.234-.233.234.233v-.233h-.469v.233h-.703v.233h-.234v-.233h-.235l-.234.233h-.235.235l-.235-.233v.233-.233h.235z"/></mask><path fill-rule="evenodd" clip-rule="evenodd" d="M372.515 403.848h-.57v-.566h-.569v-.566h1.139-.57 1.709v-.565h.568a.57.57 0 0 0-.568-.566v-.566l.568-.566h1.138v-.565h.568-.568.568a.57.57 0 0 0 .571-.566h-.57.57l-.57-.566h-.569v-.565h-.57a.57.57 0 0 1 .57-.566l-.57-.566h-1.136v.566-.566a.57.57 0 0 0-.571-.565h-.568v-.566h-.57v.566-.566l-.569.566v-.566.566-.566.566-.566l.165-.163a.236.236 0 0 0-.165-.403h-.568.568v-1.131.565-.565.565h-.568v-.565h.568v-1.132h-.568v-.565.565-.565.565h.568v-.565h-.568v-.566h-.57.57l.568-.566h1.139v-.565.565h.568v-.565h1.707v-.564l-.568-.565v.565-.565.565-.73a.168.168 0 0 0-.284-.12.168.168 0 0 1-.284-.119v-.162h-1.14v-.566.566h-.57v-1.132h.57v-.565h-.57v-.566h-.568v.566h-.568.568-.568v.565h-.57v-.565h.57-.57v-.566.566-.566h.57-.57.57-.57.57-.57.57-.57v-.566.566-1.131.565h1.138v-.565h-.568 1.136v-1.132h.57v-.566.566-.566l.569.566h.57v-.566.566-1.131h-.57.57-.57.57l.569-.566h-.568.568-.568.568v-1.131h-.568v.279a.29.29 0 0 1-.287.286.283.283 0 1 1 0-.565h.287v-1.132l.568-.565v.565-.565h1.138v-.566.566-2.263h.568-.568.568v.565h1.14-.569c0 .311.255.566.568.566l.568-.566h.57v-.565h-.57.57v-1.132h1.708l.568-.565h-.568.568v-.566h2.845c0-.209.253-.316.403-.168l.168.168v-.566.566-.566.566-.566h.568v.566-.566h.57v-.565.565l.569-.565h.568-.568v-1.698l.568.566v-.566h.57v-.565h.569v-.566h3.984v.566h.568v.565h.57v1.132h.569v-.566h.57v-1.131h.568v-.566h.568v-.566l-.568-.565v-1.132a.57.57 0 0 0 .568-.566h-.568v-.565a.57.57 0 0 1-.568-.566v-1.131h.568v-1.697h-.568.568v-.566h.568v-.566h.57-.57v-2.263h-.568.568v-.565h-.568.568-.568l.568-.566h1.71l.568-.566v.566h.568v.566h.57v.565h-.57.57v.566h-.57.57v2.263l.569.566h-.569.569-.569.569v.565h-.569l.569.566v2.263h.57v.565h-.57v1.132h-.569v2.828h-.57.57-.57v.566-.566 1.98c0 .155.129.283.286.283s.284.126.284.284v.282l.569.566v.565h.57v.566a.57.57 0 0 1 .568.566v.565l.568.566v9.617h.571v8.483l-.57.566a.566.566 0 0 1-.569.566v.565l-.568.566a.57.57 0 0 1-.57.566v.565a.57.57 0 0 0-.569.566.57.57 0 0 1-.57.566v.566h-.568v.565l-.568.566v2.829l-.57.565a.57.57 0 0 1 .57.566v2.263h-.57.57-.57v.565h.57-.57.57v.566h-.57.57v3.394h-.57a.566.566 0 0 0-.57.566c0 .209.253.316.402.168l.167-.168v1.131-.565.565h-.568v.566h-.57v.566h-1.137.568-.568v-.566.566h-.57.57-.57.57-.57v.566h-.569l.569.565h-.569.569v.566-.566h.57v-.565h.568v.565h1.139-.57v1.132h-.569a.57.57 0 0 1-.568.565v.566-.566h-.57v.566a.235.235 0 0 1-.401.168l-.168-.168v.566-.566 1.697h.569-.569.569-.569v.566h.569-.569v.566h-.57.57-.57v.565h-.568v.566h-.568v1.131h-.571 1.139v-.565h.568v.565l-.568.566v.566h-.568v.566h-1.14v-.566h-.57.57-1.138.568v-.566.566-.566l-.568.566v-.566.566-.566h-.568.568-1.707v-.566h.569v-1.131h.57-.57v-.566.566h-.569v-.566.566h-.57v-1.697.566h-.568v.565-.565.565h-.568v-.565h-.571.57-.57v-.566h-1.707v-.566h-1.139v-.565h-1.138v-.566h-1.136v-.566h.568-.568v-.566.566-.566h-1.71v-.565l.57-.566h-.57v-.566.566-.566.566-.566h-.568.568v-1.697h1.71v-.566h1.136v-1.13h1.138v-.567h-2.274a.57.57 0 0 0-.571-.565l-.568-.566v.566h-1.139v-.566.566-.566a.236.236 0 0 0 .165-.4l-.165-.166h.568-.568v-.565.565h-1.139l-.568.566h-.57v-.566h.57-.57v-.565h-1.136v.565-.565h1.136v-.566h.57v-.566h.568v-.566h-.568v-.565h1.139v-.566.566-.566.566l.568-.566v.566-1.132h.568-.568v-.565h-.568 1.136v-1.697h-.568 1.139v-.566h-.57v-.566a.57.57 0 0 0-.569-.566v.566l-.568-.566.568.566v-.566h-1.139v.566h-1.706v.566h-.568v-.566h-.571l-.568.566h-.57.57l-.57-.566v.566-.566h.57z" fill="#c9c9fc" style="stroke-width:2.42791"/><path d="M159.727 164.328a.625.625 0 0 0 0 1.249zm0-.308h-.625c0 .345.28.625.625.625zm-.235-1.09a.625.625 0 0 0 0 1.249zm0-1.239h-.624c0 .344.279.624.624.624zm1.407-2.489a.625.625 0 0 0 0 1.249zm8.204-7.455a.624.624 0 1 0 0 1.248zm.234-1.631a.624.624 0 1 0 0 1.248zm1.406.466a.624.624 0 0 0 0 1.248zm0 5.051v-.625a.625.625 0 0 0-.624.625zm-.703 14.52a.625.625 0 1 0 0 1.249zm0 .466a.625.625 0 1 0 0 1.249zm-1.406 3.029a.624.624 0 1 0 0 1.248zm-.235 2.097a.624.624 0 0 0 0 1.248zm-1.406 2.022h-.624c0 .345.279.624.624.624zm-.234-.857a.624.624 0 1 0 0 1.248zm-1.407-1.165a.624.624 0 1 0 0 1.248zm-3.047-2.097a.624.624 0 1 0 0 1.248zm-1.406-1.939v-.624a.624.624 0 0 0-.625.624zm1.172-2.255a.625.625 0 1 0 0 1.249zm.234-.699a.625.625 0 1 0 0 1.249zm0 .158-.44.443a.624.624 0 0 0 1.064-.443zm-2.11.233h-.624c0 .345.28.625.624.625zm0-.54h.235v-1.249h-.235zm1.407-1.165h.234v-1.249h-.234zm.469-1.482h-.235v1.249h.235zm-1.797-.308v.233h1.249v-.233zm-.703-.466v.233h1.249v-.233zm1.014.233v-.233h-1.248v.233zm-.624-1.09h-.234v1.249h.234zm.624.391v-.233h-1.248v.233zm-.624-1.323h-.234v1.249h.234zm.39.624v-.233h-1.249v.233zm-.624-1.09h-.235v1.249h.235zm1.327.391v-.233h-1.249v.233zm-.545-.698v.233h1.248v-.233zm.545-.233v-.233h-1.249v.233zm-1.093-1.324h-.234v1.249h.234zm-.469 1.249h.235v-1.249h-.235zm.625-.624v-.233h-1.249v.233zm-.625.391h.235v-1.249h-.235zm.625-.624v-.233h-1.249v.233zm0-.233v-.233h-1.249v.233zm-.156-.858h-.234v1.249h.234zm1.093.159v-.233h-1.249v.233zm.469 0v-.233h-1.249v.233zm-.624-1.091h-.235v1.249h.235zm.234-.233h-.234v1.249h.234zm-.624-.54v.233h1.248v-.233zm1.717 0v-.233h-1.249v.233zm-.624-.308h.234v-1.249h-.234zm.469.233h.234v-1.249h-.234zm.703-1.482h-.235v1.249h.235zm.937-.699h-.234v1.249h.234zm2.031.392v-.233h-1.249v.233zm-1.014-.233v.233h1.249v-.233zm1.483 0v-.233h-1.249v.233zm-.39.391h.234v-1.249h-.234zm3.516-5.209h-.234v1.248h.234zm.234.782h.235v-1.248h-.235zm0-2.18h-.234v1.248h.234zm0-.233h-.234v1.248h.234zm1.407.233h-.235v1.248h.235zm0 .233h-.235v1.248h.235zm.234 1.165h-.234v1.248h.234zm-.234 3.261h-.235v1.249h.235zm-.859.625v.233h1.249v-.233zm.156 14.52h-.235v1.249h.235zm-.235 1.482h.235v-1.249h-.235zm.235-1.016h-.235v1.249h.235zm-.859 2.488v.233h1.248v-.233zm-.079.075h-.234v1.248h.234zm.39.624v-.233h-1.249v.233zm-.624-.624h-.235v1.248h.235zm-.235.466h-.234v1.248h.234zm-.624.624v.233h1.249v-.233zm1.327.624h.235v-1.248h-.235zm-1.093.075v.233h1.249v-.233zm-.469.233v.233h1.249v-.233zm.625 1.323h.234v-1.248h-.234zm0 .233h.234v-1.248h-.234zm0-1.015h-.235v1.248h.235zm-.703.932h-.235v1.248h.235zm-.469.466h-.235v1.248h.235zm-.235 0h-.234v1.248h.234zm.625.624v-.233h-1.249v.233zm-.235 0v-.233h-1.248v.233zm-.624-.857h-.234v1.248h.234zm-.469.549h.235v-1.248h-.235zm.625-.624v-.233H165.9v.233zm-.235 0v-.233h-1.249v.233zm-.234-.466v-.233h-1.249v.233zm-1.483 0v.233h1.248v-.233zm.39-.624h-.235v1.248h.235zm-2.344.083h.234v-1.248h-.234zm.624-.624v-.233h-1.249v.233zm-.703-.699v-.233h-1.249v.233zm-.625-.857h-.234v1.248h.234zm.39-1.24v-.233h-1.248v.233zm-.624.159h.234v-1.249h-.234zm.624-.625v-.233h-1.248v.233zm-1.562.625h.235v-1.249h-.235zm0-1.482h-.234v1.249h.234zm-.234 0h-.234v1.249h.234zm-.859.624v.233h1.249v-.233zm2.421-.932v-.233h-1.249v.233zm-1.014-.233v.233h1.248v-.233zm.624.392h.234v-1.249h-.234zm0-1.482h-.234v1.249h.234zm.234-.699h-.234v1.249h.234zm-.858-.075v.233h1.248v-.233zm1.064-.21-.234-.233-.881.886.235.233zm-2.315.052h-.235v1.249h.235zm-.859.391v.233h1.249v-.233zm.859-.466h1.248c0-.689-.559-1.248-1.248-1.248zm-.235 0h-1.248c0 .69.559 1.249 1.248 1.249zm0-.233h1.249c0-.689-.559-1.248-1.249-1.248zm-.234 0h-1.249c0 .69.559 1.249 1.249 1.249zm0-.233v-1.248c-.69 0-1.249.559-1.249 1.248zm.938 0v1.249c.689 0 1.248-.559 1.248-1.249zm0-.233V166.5c-.69 0-1.249.559-1.249 1.248zm0-.466-.881-.885a1.25 1.25 0 0 0-.368.885zm.234-.233v-1.248c-.33 0-.646.13-.88.363zm.469 0v1.249c.689 0 1.248-.559 1.248-1.249zm.234-.699.88-.885a1.24 1.24 0 0 0-.88-.363zm-.234 0h-1.249c0 .69.559 1.249 1.249 1.249zm0-.233h1.248c0-.689-.559-1.248-1.248-1.248zm-.235-1.248a1.249 1.249 0 0 0 0 2.497zm0 .782.881-.885a1.25 1.25 0 0 0-.881-.363zm-.468-1.248a1.249 1.249 0 1 0 0 2.497zm-.469 1.015h-1.249c0 .69.559 1.249 1.249 1.249zm0-.233h1.248c0-.689-.559-1.248-1.248-1.248zm-.235 0v-1.248c-.329 0-.646.13-.88.363zm-.234-.466h1.249c0-.689-.559-1.248-1.249-1.248zm0-.233v1.249c.69 0 1.249-.559 1.249-1.249zm-.234.233h-1.249c0 .69.559 1.249 1.249 1.249zm0-.233v-1.248c-.69 0-1.249.559-1.249 1.248zm0-.699h-1.249c0 .69.559 1.249 1.249 1.249zm.234 0h1.249c0-.689-.559-1.248-1.249-1.248zm-.234-.233-.881-.885a1.25 1.25 0 0 0-.368.885zm.234-.233v-1.248c-.33 0-.646.13-.88.363zm.703 0v1.249c.69 0 1.249-.559 1.249-1.249zm0-.233v-1.248a1.25 1.25 0 0 0-1.249 1.248zm.703 0v1.249c.69 0 1.249-.559 1.249-1.249zm0-.232h1.249c0-.333-.133-.652-.368-.886zm-.234-.233h-1.249c0 .332.133.651.369.885zm-.234-.233h1.248c0-.69-.559-1.249-1.248-1.249zm-.704 0h-1.248c0 .689.559 1.248 1.248 1.248zm.235-.466v1.248c.689 0 1.248-.559 1.248-1.248zm0-.233h1.248c0-.69-.559-1.249-1.248-1.249zm-.235 0h-1.248c0 .689.559 1.248 1.248 1.248zm0-.233h1.249c0-.69-.559-1.249-1.249-1.249zm-.234 0v-1.249c-.69 0-1.249.559-1.249 1.249zm-.234.466v1.248c.689 0 1.248-.559 1.248-1.248zm-.235 0h-1.249c0 .689.56 1.248 1.249 1.248zm.469-.699v1.248c.69 0 1.249-.559 1.249-1.248zm0-.233v-1.249c-.69 0-1.249.559-1.249 1.249zm.234 0v1.248c.69 0 1.249-.559 1.249-1.248zm0-.466v-1.249c-.689 0-1.248.559-1.248 1.249zm.469 0-.88.885c.234.233.55.363.88.363zm.235-.466-.881-.886a1.25 1.25 0 0 0-.368.886zm.234-.233.88.885c.236-.234.369-.553.369-.885zm0-.466h1.249c0-.69-.559-1.249-1.249-1.249zm-.234-.466-.881-.886a1.25 1.25 0 0 0-.368.886zm.234-.233v-1.249c-.33 0-.646.13-.88.363zm.703-.699h-1.249c0 .689.56 1.248 1.249 1.248zm.703 0v-1.249c-.329 0-.646.13-.88.363zm.235-.699v-1.249c-.69 0-1.249.559-1.249 1.249zm.703 0v1.248c.33 0 .646-.13.88-.363zm.234-.233.881.885a1.25 1.25 0 0 0 .368-.885zm0-.233v-1.249c-.689 0-1.248.559-1.248 1.249zm1.876-.233v1.248c.329 0 .646-.13.88-.363zm.234-.233.88.885c.236-.234.369-.553.369-.885zm.234-.466-.88.885a1.25 1.25 0 0 0 2.129-.885zm0-.233v-1.249c-.689 0-1.248.559-1.248 1.249zm.235 0v1.248c.689 0 1.248-.559 1.248-1.248zm0-.233v-1.249c-.69 0-1.249.559-1.249 1.249zm.234 0v1.248c.69 0 1.249-.559 1.249-1.248zm0-.233v-1.249a1.25 1.25 0 0 0-1.249 1.249zm1.641.233h-1.249c0 .689.559 1.248 1.249 1.248zm.234 0h1.249c0-.69-.559-1.249-1.249-1.249zm0 .233h-1.248c0 .689.559 1.248 1.248 1.248zm.235 0h1.248c0-.69-.559-1.249-1.248-1.249zm0 .466h-1.249c0 .689.559 1.248 1.249 1.248zm.234 0v1.248c.69 0 1.249-.559 1.249-1.248zm0-.233v-1.249a1.25 1.25 0 0 0-1.249 1.249zm.235 0v1.248c.689 0 1.248-.559 1.248-1.248zm0-.466v-1.249c-.69 0-1.249.559-1.249 1.249zm.234 0v1.248c.69 0 1.249-.559 1.249-1.248zm0-.233v-1.249c-.69 0-1.249.559-1.249 1.249zm.234 0v1.248c.69 0 1.249-.559 1.249-1.248zm0-.233h1.249c0-.333-.133-.651-.368-.886zm-.234-.233h-1.249c0 .332.133.651.369.885zm0-.699h-1.249a1.25 1.25 0 0 0 1.249 1.249zm0-.932v1.249c.69 0 1.249-.56 1.249-1.249zm0-.932v-1.249c-.69 0-1.249.559-1.249 1.249zm.234 0v1.249c.69 0 1.249-.559 1.249-1.249zm0-1.631v-1.249c-.33 0-.646.131-.88.363zm.704 0v1.249c.329 0 .646-.131.88-.363zm.234-.233h1.249a1.25 1.25 0 0 0-2.129-.886zm0 .233h-1.249c0 .69.559 1.249 1.249 1.249zm.234 0h1.249c0-.69-.559-1.249-1.249-1.249zm0 .233h-1.248c0 .69.559 1.249 1.248 1.249zm.235 0h1.248c0-.69-.559-1.249-1.248-1.249zm0 1.398h-1.249c0 .332.133.651.368.885zm.234.233h1.249a1.25 1.25 0 0 0-.369-.886zm0 .233v1.249c.69 0 1.249-.56 1.249-1.249zm-.234 0v-1.249a1.25 1.25 0 0 0-.881 2.134zm.234.233h1.249a1.25 1.25 0 0 0-.369-.886zm0 .932h-1.249c0 .689.56 1.249 1.249 1.249zm0 .233v-1.249a1.25 1.25 0 0 0-1.249 1.249zm0 .466v1.248c.69 0 1.249-.559 1.249-1.248zm-.234 0v-1.249c-.69 0-1.249.559-1.249 1.249zm0 2.33h-1.249c0 .332.133.651.368.885zm.234.233h1.249c0-.333-.133-.652-.369-.886zm.235.233h1.248c0-.69-.559-1.249-1.248-1.249zm.234.699h-1.249c0 .332.133.651.369.885zm.234.233h1.249c0-.333-.133-.652-.368-.886zm-1.406 9.552V166.5c-.69 0-1.249.559-1.249 1.248zm0 .233.88.886c.236-.234.369-.553.369-.886zm-.234.233-.881-.885a1.25 1.25 0 0 0-.368.885zm0 1.165.88.886c.236-.234.368-.553.368-.886zm0 3.262v1.249c.689 0 1.248-.559 1.248-1.249zm-.235-1.249a1.25 1.25 0 0 0 0 2.498zm0 1.482h1.249a1.25 1.25 0 0 0-2.129-.885zm-.234.466v-1.249c-.69 0-1.249.56-1.249 1.249zm0 .233v1.249c.689 0 1.248-.559 1.248-1.249zm-.235 0v-1.249a1.25 1.25 0 0 0-1.248 1.249zm0 .233v1.249c.69 0 1.249-.559 1.249-1.249zm-.703.233v1.249c.69 0 1.249-.559 1.249-1.249zm-.234 0v-1.249a1.25 1.25 0 0 0-.881 2.135zm.234.233-.88.886c.234.232.55.363.88.363zm.235 0v1.249c.689 0 1.248-.559 1.248-1.249zm0-.233v-1.249c-.69 0-1.249.559-1.249 1.249zm.234 0h1.249c0-.69-.559-1.249-1.249-1.249zm0 .233h-1.249c0 .69.559 1.249 1.249 1.249zm.234 0h1.249c0-.69-.559-1.249-1.249-1.249zm0 .466v1.249c.69 0 1.249-.559 1.249-1.249zm-.234-1.249a1.249 1.249 0 1 0 0 2.498zm-.469 1.482v-1.249a1.25 1.25 0 0 0-1.249 1.249zm-.469 1.631v1.249c.69 0 1.249-.559 1.249-1.249zm-.234 0v-1.249c-.69 0-1.249.559-1.249 1.249zm0 .233v1.249c.69 0 1.249-.559 1.249-1.249zm-.234 0v-1.249c-.69 0-1.249.559-1.249 1.249zm0 .466h-1.249c0 .69.559 1.249 1.249 1.249zm.234 0v1.249c.69 0 1.249-.559 1.249-1.249zm0-.233v-1.249c-.69 0-1.249.559-1.249 1.249zm.234 0h1.249c0-.69-.559-1.249-1.249-1.249zm0 .233.881.886c.235-.235.368-.554.368-.886zm-.234.233-.88-.886a1.25 1.25 0 0 0-.369.886zm0 .233v1.249c.69 0 1.249-.559 1.249-1.249zm-.234 0v-1.249c-.69 0-1.249.559-1.249 1.249zm0 .233v1.249c.689 0 1.248-.559 1.248-1.249zm-.469 0h-1.249c0 .69.559 1.249 1.249 1.249zm-1.172-.466h-1.249c0 .69.559 1.249 1.249 1.249zm0-.233v-1.249c-.69 0-1.249.559-1.249 1.249zm.234 0v1.249c.69 0 1.249-.559 1.249-1.249zm0-.466h1.249c0-.69-.559-1.249-1.249-1.249zm-.469 0h-1.248c0 .69.559 1.249 1.248 1.249zm0-.466h1.249c0-.69-.559-1.249-1.249-1.249zm-.468.233h-1.249c0 .69.559 1.249 1.249 1.249zm-.235-.466h1.249c0-.69-.559-1.249-1.249-1.249zm-.703 0H163.4c0 .69.559 1.249 1.249 1.249zm0-.233h1.249c0-.69-.559-1.249-1.249-1.249zm-.469 0h-1.249c0 .69.56 1.249 1.249 1.249zm0-.233h1.249c0-.69-.559-1.249-1.249-1.249zm-.469 0h-1.248c0 .69.559 1.249 1.248 1.249zm0-.233h1.249c0-.69-.559-1.249-1.249-1.249zm-.468 0h-1.249c0 .69.559 1.249 1.249 1.249zm-.704-.466h-1.248c0 .69.559 1.249 1.248 1.249zm0-.233-.88-.886a1.25 1.25 0 0 0-.368.886zm.235-.233.88.886a1.248 1.248 0 0 0-.88-2.135zm-.235-.932v-1.249a1.25 1.25 0 0 0-1.248 1.249zm.704-.233v-1.249c-.69 0-1.249.56-1.249 1.249zm.468 0v1.249c.69 0 1.249-.559 1.249-1.249zm0-.466v-1.249a1.25 1.25 0 0 0-1.248 1.249zm.469 0v1.249c.69 0 1.249-.559 1.249-1.249zm0-.233h1.249a1.25 1.25 0 0 0-1.249-1.249zm-.937-1.249a1.25 1.25 0 0 0 0 2.498zm-.469.783.88-.885a1.25 1.25 0 0 0-2.129.885zm0 .233v1.249c.689 0 1.248-.559 1.248-1.249zm-.469-.466.88-.885a1.25 1.25 0 0 0-.88-.364zm-.469 0v-1.249c-.33 0-.646.131-.88.364zm-.234.233v1.249c.33 0 .646-.131.88-.363zm-.235 0h-1.248c0 .69.559 1.249 1.248 1.249zm0-.699v-1.248c-.689 0-1.248.559-1.248 1.248zm.235 0v1.249c.689 0 1.248-.559 1.248-1.249zm0-.233v-1.248c-.69 0-1.249.559-1.249 1.248zm.234 0v1.249c.69 0 1.249-.559 1.249-1.249zm0-.233h1.249c0-.689-.559-1.248-1.249-1.248zm-.234 0h-1.249c0 .69.559 1.249 1.249 1.249zm0-.233v-1.248c-.69 0-1.249.559-1.249 1.248zm.469 0v1.249c.329 0 .646-.131.88-.363zm.234-.233.88.886a1.25 1.25 0 0 0 .369-.886zm0-.466v-1.248c-.69 0-1.249.559-1.249 1.248zm.234 0v1.249c.69 0 1.249-.559 1.249-1.249zm0-.699v-1.248c-.689 0-1.248.559-1.248 1.248zm.235-.233h1.248c0-.689-.559-1.248-1.248-1.248zm-.235 0h-1.248c0 .69.559 1.249 1.248 1.249zm-.703-.466v-1.248a1.25 1.25 0 0 0-1.249 1.248zm0 .233v1.249c.69 0 1.249-.559 1.249-1.249zm-.703 0v-1.248c-.69 0-1.249.559-1.249 1.248zm0 .233v1.249c.69 0 1.249-.559 1.249-1.249zm-.234 0h-1.249c0 .69.559 1.249 1.249 1.249zm0-.233h1.248c0-.689-.559-1.248-1.248-1.248zm-.235 0v-1.248c-.33 0-.646.13-.88.363zm-.234.233-.881.886a1.25 1.25 0 0 0 1.761 0zm-.235-.233v-1.248a1.25 1.25 0 0 0-.88 2.134zm2.178 3.097.88-.886zm7.598.933.88.886zm-4.922-16.214.88-.886zm3.654 18.544-.88.885zm-8.674-10.155-.88-.886zm.401 2.081h-.235v2.497h.235zm1.014 1.248v-.233h-2.497v.233zm-1.249-1.481h-.234v2.497h.234zm1.015 1.248v-.233h-2.498v.233zm-1.249 1.016h.234v-2.497h-.234zm.469 0h.234v-2.497h-.234zm.234 0h.235v-2.497h-.235zm1.483-1.249v-.233h-2.497v.233zm-1.248 1.016h.234V166.5h-.234zm1.248-1.482v-.233h-2.497v.233zm-.368.653.234-.233-1.76-1.771-.235.233zm-.646.13h.234v-2.497h-.234zm.234 0h.235v-2.497h-.235zm1.483-1.249v-.233h-2.497v.233zm.101-1.351-.235-.233-1.76 1.771.234.233zm-1.115-.596h-.234v2.497h.234zm1.014 1.248v-.233h-2.497v.233zm-1.248-1.481h-.235v2.497h.235zm.88.13-.234-.233-1.761 1.771.234.233zm-1.115-.596h-.234v2.497h.234zm-.234 0h-.234v2.497h.234zm-.469-.233h-.234v2.497h.234zm1.014 1.248v-.233h-2.497v.233zm-1.248-1.481h-.235v2.497h.235zm-1.115.363-.234.233 1.76 1.771.235-.233zm1.526 1.771.068-.068-1.76-1.771-.068.068zm.369-1.119v-.233h-2.498v.233zm-1.249-1.481h-.234v2.497h.234zm1.014 1.248v-.233h-2.497v.233zm-1.248 1.016h.234v-2.497h-.234zm1.483-1.249v-.233h-2.498v.233zm0-.233v-.233h-2.498v.233zm0-.233v-.233h-2.498v.233zm-1.249-1.481h-.234v2.497h.234zm1.014 1.248v-.233h-2.497v.233zm-.368.653.234-.233-1.76-1.771-.235.233zm-.646.13h.234v-2.497h-.234zm.234 0h.235v-2.497h-.235zm.235 0h.234v-2.497h-.234zm1.483-1.249v-.233h-2.498v.233zm-1.249 1.016h.235v-2.497h-.235zm.235 0h.234v-2.497h-.234zm.234 0h.234v-2.497h-.234zm1.483-1.249v-.232h-2.497v.232zm-.368-1.118-.235-.233-1.76 1.771.234.233zm.134.653v-.068h-2.498v.068zm-.235-.166v-.067h-2.497v.067zm-1.248-1.316h-.235v2.497h.235zm-.235 0h-.234v2.497h.234zm-.234 0h-.235v2.497h.235zm1.014 1.249v-.233h-2.497v.233zm0-.233v-.233h-2.497v.233zm-1.249 1.015h.235v-2.497h-.235zm1.483-1.248v-.233h-2.497v.233zm-1.248-1.482h-.235v2.497h.235zm1.014 1.249v-.233h-2.497v.233zm-1.249-1.482h-.234v2.497h.234zm-1.483 1.249v.233h2.498v-.233zm-.234.233v.233h2.497v-.233zm1.249-1.016h-.235v2.497h.235zm1.014 1.249v-.233h-2.498v.233zm-1.249.549h.235v-2.497h-.235zm.235 0h.234v-2.497h-.234zm1.483-1.248v-.233h-2.498v.233zm-1.249 1.015h.234v-2.497h-.234zm1.483-1.248v-.233h-2.497v.233zm0-.233v-.233h-2.497v.233zm-1.249 1.015h.235v-2.497h-.235zm-.646-.596.235.233 1.76-1.771-.234-.233zm1.115.596h.235v-2.497h-.235zm1.483-1.481v-.233h-2.497v.233zm-.368.652.234-.233-1.76-1.771-.235.233zm.603-1.118v-.233h-2.498v.233zm0-.233v-.233h-2.498v.233zm-1.249-1.482h-.234v2.497h.234zm-1.483 1.249v.115h2.497v-.115zm1.131 1.248h.118v-2.497h-.118zm1.366-1.248v-.233h-2.497v.233zm0-.233v-.233h-2.497v.233zm-.368.652.234-.233-1.76-1.771-.235.233zm-.646.13h.234v-2.497h-.234zm.234 0h.235v-2.497h-.235zm1.483-1.481v-.233h-2.497v.233zm0-.233v-.233h-2.497v.233zm0-.233v-.233h-2.497v.233zm-2.263-.233v.233h2.498v-.233zm1.249 1.481h.235v-2.497h-.235zm1.349-.13.235-.233-1.761-1.771-.234.233zm-.646.13h.235v-2.497h-.235zm1.483-1.248v-.233h-2.497v.233zm0-.233v-.233h-2.497v.233zm0-.233v-.233h-2.497v.233zm-1.248 1.015h.234v-2.497h-.234zm.234 0h.235v-2.497h-.235zm.235 0h.234v-2.497h-.234zm1.114-.363.235-.233-1.761-1.771-.234.233zm.603-1.118v-.233h-2.497v.233zm-1.249 1.015h.235v-2.497h-.235zm.235 0h.234v-2.497h-.234zm.234 0h.235v-2.497h-.235zm.235 0h.234v-2.497h-.234zm.234 0h.234v-2.497h-.234zm-.481-.431.069.068 1.761-1.771-.069-.069zm.95.198h.234v-2.497h-.234zm.234 0h.235v-2.497h-.235zm1.115-.363.234-.233-1.76-1.771-.235.233zm.603-1.118v-.233h-2.498v.233zm0-.233v-.233h-2.498v.233zm0-.233v-.233h-2.498v.233zm-2.129.652.234.233 1.761-1.771-.235-.233zm2.363-.652v-.233h-2.497v.233zm-1.249 1.015h.235v-2.497h-.235zm1.483-1.248v-.233h-2.497v.233zm-1.248 1.015h.234v-2.497h-.234zm1.483-1.248v-.233h-2.498v.233zm-1.249 1.015h.235v-2.497h-.235zm.235 0h.234v-2.497h-.234zm.234 0h.234v-2.497h-.234zm.234 0h.235v-2.497h-.235zm.235 0h.234v-2.497h-.234zm.234 0h.235v-2.497h-.235zm.235 0h.234v-2.497h-.234zm-1.015-1.248v.233h2.498v-.233zm1.249 1.481h.234v-2.497h-.234zm-1.014-1.248v.233h2.497v-.233Zm1.248 1.481h.235v-2.497h-.235zm-1.014-1.248v.233h2.497v-.233zm0 .233v.233h2.497v-.233zm1.249 1.481h.234v-2.497h-.234zm1.483-1.248v-.233h-2.498v.233zm-1.249 1.015h.235v-2.497h-.235zm1.483-1.248v-.233h-2.497v.233zm0-.233v-.233h-2.497v.233zm-1.248 1.015h.234v-2.497h-.234zm1.483-1.248v-.233h-2.498v.233zm-1.249 1.015h.234v-2.497h-.234zm1.483-1.248v-.233h-2.497v.233zm-.368-1.119-.235-.233-1.76 1.771.234.233zm.134.653v-.233h-2.498v.233zm0-.233v-.233h-2.498v.233zm-1.015-1.715h-.234v2.498h.234zm1.015 1.249v-.233h-2.498v.233zm-.235-.466v-.233h-2.497v.233zm0-.233v-.233h-2.497v.233zm-1.248 1.016h.234v-2.498h-.234zm1.483-1.249v-.233h-2.498v.233zm0-.233v-.233h-2.498v.233zm0-.233v-.233h-2.498v.233zm0-.233v-.233h-2.498v.233zm-1.249 1.016h.234v-2.498h-.234zm1.483-1.249v-.233h-2.497v.233zm0-.233v-.233h-2.497v.233zm0-.233v-.233h-2.497v.233zm0-.233v-.233h-2.497v.233zm0-.233v-.233h-2.497v.233zm0-.233v-.233h-2.497v.233zm-.603.653.235-.233-1.761-1.772-.234.233zm-.646.13h.235v-2.498h-.235zm.235 0h.234v-2.498h-.234zm.234 0h.235v-2.498h-.235zm1.115-.363.234-.233-1.76-1.772-.235.233zm-1.895-1.119v.233h2.498v-.233zm1.249 1.482h.234v-2.498h-.234zm-1.014-1.249v.233h2.497v-.233zm1.248 1.482h.235v-2.498h-.235zm-1.014-1.249v.233h2.497v-.233zm0 .233v.233h2.497v-.233zm0 .233v.233h2.497v-.233zm0 .233v.233h2.497v-.233zm0 .233v.233h2.497v-.233zm0 .233v.233h2.497v-.233zm.368 1.118.235.233 1.76-1.771-.234-.233zm-.134-.652v.233h2.498v-.233zm1.249-1.016h-.234v2.498h.234zm-1.115 2.134.235.233 1.76-1.771-.234-.233zm-.134-.652v.233h2.498v-.233zm0 .233v.233h2.498v-.233zm0 .233v.233h2.498v-.233zm0 .233v.233h2.498v-.233zm1.249 1.482h.235v-2.498h-.235zm-1.014-1.249v.233h2.497v-.233zm1.249-1.016h-.235v2.498h.235zm-1.484 1.249v.233h2.498v-.233zm0 .233v.233h2.498v-.233zm1.249-1.016h-.234v2.497h.234zm-1.483 1.249v.233h2.497v-.233zm0 .233v.233h2.497v-.233zm0 .233v.233h2.497v-.233zm0 .233v.233h2.497v-.233zm0 .233v.233h2.497v-.233Zm-.234.466v.233h2.497v-.233zm0 .233v.233h2.497v-.233zm0 .233v.116h2.497v-.116zm.234.35v.116h2.497v-.116zm.368 1.001.235.233 1.76-1.771-.234-.233zm-.134-.652v.233h2.498v-.233zm1.249 1.481h.235v-2.497h-.235zm-1.014-1.248v.233h2.497v-.233zm.234.466v.233h2.498v-.233zm.369 1.118.234.233 1.761-1.771-.235-.233zm-.134-.652v.233h2.497v-.233zm0 .233v.233h2.497v-.233zm0 .233v.233h2.497v-.233zm0 .233v.233h2.497v-.233zm0 .233v.233h2.497v-.233zm0 .233v.233h2.497v-.233zm0 .233v.233h2.497v-.233zm0 .233v.233h2.497v-.233zm0 .233v.233h2.497v-.233zm0 .233v.233h2.497v-.233zm0 .233v.233h2.497v-.233zm0 .233v.233h2.497v-.233zm0 .233v.233h2.497v-.233zm0 .233v.233h2.497v-.233zm0 .233v.233h2.497v-.233zm0 .233v.233h2.497v-.233zm0 .233v.233h2.497v-.233zm1.248 1.481h.235v-2.497h-.235zm-1.014-1.248v.233h2.497v-.233zm0 .233v.233h2.497v-.233zm0 .233v.233h2.497v-.233zm0 .233v.232h2.497v-.232zm0 .232v.233h2.497v-.233zm0 .233v.233h2.497v-.233zm0 .233v.233h2.497v-.233zm0 .233v.233h2.497v-.233zm0 .233v.233h2.497v-.233zm0 .233v.233h2.497v-.233zm0 .233v.233h2.497v-.233zm0 .233v.233h2.497v-.233zm0 .233v.233h2.497v-.233zm0 .233v.233h2.497v-.233zm0 .233v.233h2.497v-.233zm.368-.652-.234.233 1.761 1.771.234-.233zm-.837 1.351v.233h2.498v-.233zm.369-.652-.235.233 1.761 1.771.234-.233zm-.838 1.351v.233h2.498v-.233zm-.468.699v.233h2.497v-.233zm1.248-1.015h-.234v2.497h.234zm-1.483 1.248v.233h2.498v-.233zm.369-.652-.235.233 1.761 1.771.234-.233zm-.603 1.118v.233h2.497v-.233zm0 .233v.233h2.497v-.233zm0 .233v.233h2.497v-.233zm0 .233v.233h2.497v-.233zm0 .233v.233h2.497v-.233zm.368-.652-.234.233 1.76 1.771.235-.233zm-.368 1.351v.233h2.497v-.233zm0 .233v.233h2.497v-.233zm0 .233v.233h2.497v-.233zm0 .233v.233h2.497v-.233zm-.235.233v.233h2.498v-.233zm.235.233v.233h2.497v-.233zm0 .233v.233h2.497v-.233zm0 .233v.233h2.497v-.233zm0 .233v.233h2.497v-.233zm0 .233v.233h2.497v-.233zm0 .233v.233h2.497v-.233zm0 .233v.233h2.497v-.233zm1.249-1.016h-.235v2.498h.235zm.576 2.437.069-.069-1.76-1.771-.069.068zm-2.06-.955v.233h2.498v-.233zm1.249-.783h-.234v2.498h.234zm-1.483 1.249v.233h2.497v-.233zm1.249-1.016h-.235v2.498h.235zm-1.483 1.249v.233h2.497v-.233zm1.248-1.016h-.234v2.498h.234zm-1.952 1.249v.233h2.498v-.233zm1.249-1.016h-.234v2.498h.234zm-1.115 2.135.235.233 1.76-1.771-.234-.233zm1.115.596h.235v-2.498h-.235zm1.483-1.249v-.233h-2.497v.233zm-1.248 1.016h.234v-2.498h-.234zm-1.015-1.249v.233h2.498v-.233zm1.249 1.482h.234v-2.498h-.234zm-1.014-1.249v.233h2.497v-.233zm0 .233v.233h2.497v-.233zm1.248-1.016h-.234v2.498h.234zm-.468.233h-.235v2.498h.235zm-1.484 1.249v.233h2.498v-.233zm1.964-.584-.069-.069-1.761 1.772.07.068zm-2.198 1.05v.233h2.497v-.233zm0 .233v.233h2.497v-.233zm0 .233v.233h2.497v-.233zm0 .233v.233h2.497v-.233zm-.234.233v.233h2.497v-.233zm1.248-1.016h-.234v2.498h.234zm-1.483 1.249v.233h2.498v-.233zm1.249-1.016h-.234v2.498h.234zm-1.483 1.249v.233h2.497v-.233zm0 .233v.233h2.497v-.233zm1.249 1.482h.234v-2.498h-.234zm1.483-1.249v-.233h-2.498v.233zm-1.249 1.016h.234v-2.498h-.234zm-1.014-1.249v.233h2.497v-.233zm.368-.653-.234.233 1.76 1.772.235-.233zm-.603 1.119v.233h2.498v-.233zm1.249-1.016h-.234v2.498h.234zm-1.483 1.249V178h2.497v-.233zm1.249-1.016h-.235v2.498h.235zm-.235 0h-.234v2.498h.234zM168.71 178v-.233h-2.497V178Zm-2.363-1.352-.234.233 1.76 1.772.235-.233zm.412-.363h-.235v2.498h.235zm-.235 0h-.234v2.498h.234zm1.014 1.249v-.233h-2.497v.233zm-1.248 1.016h.234v-2.498h-.234zm1.483-1.249v-.233h-2.498v.233zm0-.233v-.233h-2.498v.233zm-1.249-1.482h-.234v2.498h.234zm-.234 0h-.235v2.498h.235zm1.014 1.249v-.233h-2.497v.233zm0-.233v-.233h-2.497v.233zm-1.249-1.482h-.234v2.498h.234zm-.234.233h-.234v2.498h.234zm1.014 1.249v-.233h-2.497v.233zm-.234-.233v-.233h-2.498v.233zm-1.249-1.482h-.234v2.498h.234zm-.234 0h-.235v2.498h.235zm-.235 0h-.234v2.498h.234zm1.015 1.249v-.233H163.4v.233zm-1.249-1.482h-.234v2.498h.234zm-.234 0h-.235v2.498h.235zm1.014 1.249v-.233h-2.498v.233zm-1.249-1.482h-.234v2.498h.234zm-.234 0h-.235v2.498h.235zm1.014 1.249v-.233h-2.497v.233zm-1.249-1.482h-.234v2.498h.234zm-.234 0h-.234v2.498h.234zm1.014 1.249v-.233h-2.497v.233zm-1.248-1.715h-.235v2.498h.235zm-.235 0h-.234v2.498h.234zm-.234 0h-.235v2.498h.235zm1.014 1.249v-.233h-2.497v.233zm-.368.653.234-.233-1.761-1.772-.234.233zm-.646-2.368h-.235v2.498h.235zm1.014 1.016v-.233h-2.497v.233zm0-.233v-.233h-2.497v.233zm0-.233v-.233h-2.497v.233zm-1.249 1.016h.235v-2.498h-.235zm.235 0h.234v-2.498h-.234zm.234 0h.235v-2.498h-.235zm1.483-1.249v-.233h-2.497v.233zm-1.248 1.016h.234v-2.498h-.234zm.234 0h.234v-2.498h-.234zm1.483-1.249v-.233h-2.497v.233zm0-.233v-.233h-2.497v.233zm-1.249 1.016h.235v-2.498h-.235zm.235 0h.234v-2.498h-.234zm1.483-1.249v-.233h-2.498v.233zm-1.249-1.482h-.234v2.498h.234zm-.234 0h-.235v2.498h.235zm-.235 0h-.234v2.498h.234zm-.234 0h-.234v2.498h.234zm.411.131-.234-.233-1.761 1.771.235.233zm-2.363.652v.233h2.497v-.233zm1.249-1.016h-.235v2.498h.235zm-.235 0h-.234v2.498h.234zm.714-.035-.068-.067-1.76 1.771.068.068zm-.948-.431h-.234v2.498h.234zm-.234 0h-.235v2.498h.235zm-1.115.364-.235.233 1.761 1.771.234-.233zm.646-.131h-.235v2.498h.235zm1.014 1.249v-.233h-2.497v.233zm0-.233v-.233h-2.497v.233zm0-.233v-.233h-2.497v.233zm-1.249 1.016h.235v-2.497h-.235zm1.483-1.249v-.233h-2.497v.233zm-1.248 1.016h.234v-2.497h-.234zm1.483-1.249v-.233h-2.498v.233zm-1.249-1.481h-.234v2.497h.234zm1.014 1.248v-.233h-2.497v.233zm-1.248 1.016h.234v-2.497h-.234zm.234 0h.235v-2.497h-.235zm1.115-.363.234-.233-1.76-1.771-.235.233zm.603-1.119v-.233h-2.498v.233zm0-.233v-.233h-2.498v.233zm-1.249 1.016h.234v-2.497h-.234zm1.483-1.249v-.233h-2.497v.233zm0-.233v-.233h-2.497v.233zm0-.233v-.233h-2.497v.233zm-1.249 1.016h.235v-2.497h-.235zm1.483-1.249v-.233h-2.497v.233zm-1.248-1.481h-.235v2.497h.235zm1.014 1.248v-.233h-2.497v.233zm-1.483-1.714h-.234v2.497h.234zm-.234 0h-.235v2.497h.235zm-1.484 1.248v.233h2.498v-.233zm1.249-1.015h-.234v2.497h.234zm-.234 0h-.235v2.497h.235zm-.235 0h-.234v2.497h.234zm-1.483 1.248v.233h2.498v-.233zm1.249-1.015h-.234v2.497h.234zm1.014 1.248v-.233h-2.497v.233zm-1.248-1.481h-.235v2.497h.235zm-1.115.363-.235.233 1.761 1.771.234-.233zm1.526.233-.234-.233-1.761 1.771.234.233zm-1.115 1.901h.235v-2.497h-.235zm1.483-1.249v-.233h-2.497v.233zm0-.233v-.233h-2.497v.233zm2.11.233c0-.828-.675-1.481-1.483-1.481v2.497a1.014 1.014 0 0 1-1.014-1.016zm-1.483 4.511c1.201 0 1.8-1.453.948-2.3l-1.76 1.772c-.729-.725-.216-1.97.812-1.97zm5.783 1.314c0-.571.463-1.016 1.015-1.016v2.498c.808 0 1.483-.654 1.483-1.482zm.469-1.864c0 1.197 1.445 1.798 2.294.955l-1.76-1.772c.726-.722 1.963-.207 1.963.817zm1.483-1.482c-.808 0-1.483.654-1.483 1.482h2.497c0 .571-.463 1.016-1.014 1.016zm1.172-5.591c-.808 0-1.483.653-1.483 1.481h2.497c0 .571-.463 1.016-1.014 1.016zm-8.83-3.246c0-1.172-1.415-1.761-2.247-.935l1.761 1.772c-.744.74-2.012.212-2.012-.837zm-.546 5.51c.809 0 1.483-.654 1.483-1.482h-2.497c0-.57.463-1.015 1.014-1.015zm8.362-1.482c0-.57.463-1.015 1.014-1.015v2.497c.809 0 1.483-.654 1.483-1.482zm.663-8.77a1.13 1.13 0 0 1-1.132-1.131h2.497c0-.754-.611-1.366-1.365-1.366zm-1.366-1.365c0 .754.611 1.365 1.366 1.365v-2.497c.624 0 1.131.507 1.131 1.132zm1.952 2.297a1.014 1.014 0 0 1-1.015-1.015h2.498c0-.828-.675-1.482-1.483-1.482zm-1.718 8.537c0-.57.463-1.015 1.014-1.015v2.497c.809 0 1.483-.654 1.483-1.482zm-.392-14.762c.551 0 1.014.445 1.014 1.016h-2.497c0 .828.674 1.482 1.483 1.482zm-3.205 4.278c0 1.024-1.237 1.539-1.964.817l1.761-1.772c-.849-.843-2.294-.242-2.294.955zm-6.482 2.678c0-.629.511-1.131 1.131-1.131v2.497c.75 0 1.366-.606 1.366-1.366zm1.131-1.131c.62 0 1.132.502 1.132 1.132h-2.498c0 .759.617 1.365 1.366 1.365zm9.886 7.539c0-.57.463-1.015 1.014-1.015v2.497c.808 0 1.483-.654 1.483-1.482zm-10.532-4.264c.745-.739 2.012-.212 2.012.837h-2.497c0 1.172 1.415 1.761 2.246.935zm4.356 11.021c0-.828-.674-1.482-1.483-1.482v2.498a1.014 1.014 0 0 1-1.014-1.016zm3.128 2.563c0-1.024 1.238-1.539 1.964-.817l-1.76 1.771c.848.844 2.294.243 2.294-.954zm-6.71-9.201c.852-.846.253-2.299-.948-2.299v2.497c-1.028 0-1.541-1.244-.812-1.969zm1.238-.352c0-.828-.674-1.481-1.483-1.481v2.497a1.014 1.014 0 0 1-1.014-1.016zm7.893 5.21a1.014 1.014 0 0 1-1.014-1.016h2.497c0-.828-.674-1.481-1.483-1.481zm-9.218-12.898c0 .828.674 1.481 1.483 1.481v-2.497c.551 0 1.014.445 1.014 1.016zm8.515-2.48c.808 0 1.483-.653 1.483-1.481h-2.497c0-.571.463-1.016 1.014-1.016zm-6.721 10.634c0 .571-.463 1.016-1.014 1.016v-2.497c-.809 0-1.483.653-1.483 1.481zm-.703-6.64c0 .625-.507 1.132-1.132 1.132v-2.497c-.754 0-1.366.611-1.366 1.365zm.469 8.271c0-.828-.675-1.481-1.483-1.481v2.497a1.015 1.015 0 0 1-1.015-1.016z" fill="#fff" mask="url(#a)" transform="translate(-16.995 -5.127)scale(2.42791)"/><path fill-rule="evenodd" clip-rule="evenodd" d="M272.618 341.108c-3.137-.65-3.836-3.608-2.828-2.265.111-1.175-1.069-2.615-2.994-2.098-2.654 1.061-2.03.248-6.055 3.797-2.739 3.03-3.65 1.61-3.96 2.829-.58.19-2.452.629-4.135 3.375-1.512 3.634-4.151-.226-6.61 2.287-4.201 2.03-7.503 6.188-8.486 10.758-.404 3.821-.943 9.74-.566 12.453-1.675 3.899 1.238 9.039 2.828 7.361-1.697 1.379 2.338 3.627 0 3.397-2.816.495-6.307-2.81-7.917-.566-1.124.825-5.657 1.163-6.223 2.83-.303 1.929-4.542 2.455-6.62.967-.795-2.304-4.954-1.925-6.389-3.231-2.823.332-3.884 3.297-6.786 3.396-1.624.617-2.396-5.654-3.96-3.962-2.338-2.304-6.642-.291-4.52-4.53 3.404-.828-3.74-2.598-3.96-2.832-2.074-2.913-5.633 3.96-6.223-1.697-1.231-1.942-3.919-2.855-6.786-1.133-1.207-2.972-3.57-3.06-6.645-4.181-1.603.837-5.07-2.239-7.495-2.045-2.032.32-1.947 3.776-1.132 5.633-.335 2.268-3.576-.282-5.657 1.16-1.347.292-4.401-2.743-5.654.566-.333-1.078-3.496-3.34-4.526-1.7-3.916.496-6.657 2.188-8.483-1.696-.74-2.321-3.154-1.578-5.091-3.397-1.464 1.938-6.597.597-7.352 2.263-1.372-.816-2.222-2.914-5.256-4.363.024-4.65-5.046-2.226-7.163-2.43-1.687-2.22-5.351-2.647-6.786-3.397-4.746.316-2.248-4.24-5.115-2.831 2.228 5.572-6.604 1.063-2.829-.566 1.114-.446 2.651-5.234 1.131-6.793-4.248-2.122-5.317 3.161-6.788-1.105-2.532-.643-3.618.784-4.526-2.857 1.253-.704 4.152-.53 5.655-2.831 1.82-3.368 2.425-4.02 4.36-8.328.236-4.047 1.117-7.279 2.428-11.487.012-2.457 1.275-8.854 2.263-12.455.418-5.324.889-9.808 1.697-15.286 1.071-5.698 3.438-2.321 4.524-3.397-.102 1.052.725-.558 1.697.566 1.74-.772-2.739-3.355 0-2.265-2.404-2.768-4.638-4.067-5.655-1.131-.81 5.38-1.525 4.494-.566-1.698.534-9.796 2.467-18.835 2.26-28.872.071-3.001 2.72-7.056 3.395-5.097-.772.389-.466 2.737 3.394 4.529.573 1.495 4.446 3.816 5.655 7.361-.039 4.43 1.34 7.046 2.263 8.49 3.192 3.62 1.595 2.355 1.131.566 1.695 2.688-.286-1.287-1.131-3.933-.292-4.043-.96-7.78-2.096-10.785-1.22-2.843-1.435-2.986-3.559-4.53-.461-.697-1.828-2.273-3.394-2.263-1.272-3.477-2.176-2.491-3.96-3.397-3.99-4.482-2.768.471-3.958-2.804-1.456-6.502 4.298-3.334 6.22-1.16 1.642 2.267 2.805.611-.565 0-1.843-1.421-3.127-5.83-3.394-5.66 4.013-.046 1.937-4.132 1.697-4.53 3.525-.938 4.169 3.714 2.828 1.133 2.673-1.068-6.42-2.124-1.723-2.265 1.352-2.008-1.668-4.64-1.67-5.096-2.742-2.724.752-1.527-3.393-2.263 2.661-1.384 4.273-9.792 1.132-5.123-.862 1.238-5.907-5.147-2.829-1.67 2.093 4.176-2.037-3.48-5.492-1.3-.575-4.127-5.802-2.286-6.385-4.362-.801-.981-4.565-1.217-4.526-5.662-1.284-3.365-3.797-4.948-4.525-6.793-1.132-1.613-6.143-3.358-5.09-7.362 1.965-1.085 4.985-4.936 4.524-7.359-1.372-2.855-6.793-1.843-6.786-3.962 2.753-.219 1.418-3.081 1.93-5.33-.374-3.972-1.984 3.366-4.759.802-.437-.748-2.918-.6-4.523-1.134-4.593-1.326 2.346-.33-1.131-2.236-3.47-3.562 2.471-2.472 1.697-5.689-5.623-.199 6.393-2.823.024-2.265-.315-1.923-6.327-.15-4.55 0-1.085-1.391 2.598-1.287.593-2.265 1.53-1.97-.889 2.284-1.158 0 .606 1.23-2.32.517-1.132.568.945 1.556-.024 1.165-2.828 2.263-3.735.842-3.35-3.018-5.063-2.263.391-.947.979-1.394 1.668 0 1.603-.663 2.414.036 3.395 0 1.947-2.85 1.036-1.69 2.262-3.965-1.884-.447-.437 1.294-1.131 1.7-2.736-.882.369-2.394-1.697-1.7.3-2.627-3.455 2.258-3.392 1.7-1.326.364-1.99-.122-1.935-1.037-.942-3.093-.893.306.238 2.734-1.12-.71-1.525.048-2.829-2.829-.478-3.273.913 3.754-.565 1.697-2.821-.06-2.584-1.415-1.697 3.963 1.6 2.884-2.775-.899-1.132-1.697 1.272-2.574-3.593-6.112-1.415-6.153 2.195-1.556.735-1.52 1.415-1.775 1.445-1.5-.413-.031-.539-1.131.913-1.01-1.796-.444-.026 1.131-1.797 1.032-.668-.242-1.698 2.266.972.002-6.052-2.338-3.957-1.7 5.315.253-2.79.23 1.131-2.263 1.239-3.059 1.872-3.824-.565-.565-.576 1.74-3.04-6.667-1.132 0 1.258 1.852-3.426 4.542-3.96.592-1.534-1.418-.728-3.8-.565-2.292.427 1.7-3.725 1.785-3.96.024-.498 1.676-3.57-1.537-.566-1.155-.49.704-3.375-1.649-2.26-.568 1.357 1.667-4.274 3.073-4.526-.566-.457-.039-.702-1.952-2.263-2.831-.908-1.03.942 4.353-3.394 2.265 1.075.593-3.54-2.998-.566-3.397.498-.21-.442-3.957-1.129.566-2.632.71 1.95 1.66-.565 2.831-1.54-1.36-2.428.255 0 1.132-1.275 2.4-.892-.032-3.91 1.7.642.273-4.727-.402-1.748-2.805-1.36-3.56-2.444-5.64-5.657-6.82 2.865-2.5-1.28-1.481 0-.566-1.32 1.828-3.6-1.034-4.244-.284-2.578.874-.954-2.576-.847-1.415 5.269-1.3 4.152-1.491 8.43-1.698 2.088.311 5.7.214 3.447-2.83 2.135-1.55-3.367-2.69-4.6-3.681-2.025-.384-2.394 5.317-3.32 1.415 1.474-2.114-3.156-3.088-.563-3.396 1.22-4.172.7-.918 2.26-.566-.274-.155 3.752 1.335 7.355 0-1.044 2.07 1.16 1.549 3.957 2.83 2.368 1.586-.403-1.393-3.391-1.133-.743-2.08 2.993-1.845 0-2.263-1.044.136.449-1.379-2.829 0 3.054-2.865.155-1.52 0-2.265-2.348 2.185-2.54 1.578-2.828 0 1.092-1.938 7.38-4.47 4.525-3.96-.64 2.234-7.687 3.12-6.223 2.265-1.14 2.127-4.63 2.598-3.955 2.829-2.428-1.302-4.676.165-5.091-1.697 2.04-.833-1.806-5.424 2.263-4.53-.364.771-3.526-3.587.539-3.966.13-2.5 2.848.566 5.064 0 1.957.219-2.313.464-2.209-2.262 1.056.638 7.243 2.5 1.129 0-.075-2.43 1.916-.702 3.96-1.134-.352-.423 3.387-3.475 3.96-1.132.129 2.453 3.205-1.364 3.957-1.134 4.65-.111 2.72-.585 5.092-1.697 2.63-.412.371 3.674 2.263 5.662-1.853-.18 1.383-6.128.565-2.833 2.435 2.598 2.472 3.358 1.697.024.08-1.143-.182-3.56 2.829-2.29 3.455-1.507 2.972 5.02 3.957.596 2.375 2.1 1.579-1.945 2.263-2.86-1.54-.486-1.197-1.367.566-2.83.451-.939 1.165-1.407 2.263-.001 1.262.685 3.586-.381 5.091-1.131 3.246-2.642 3.409 1.789 1.129 2.265.937 2.01-.194 3.03 1.53-.731 2.068-3.836 5.14-3.222 3.561-2.666-.208 2.156.134.996 0 2.831-1.7 1.362-1.665 4.892-.565 3.962-2.494-1.53 2.736-4.685 2.262-5.096 1.397 2.416-2.058 1.909 1.67 2.831 1.632-.243 1.662 4.006 3.42 3.963 2.18 1.415.395 4.952 3.96 5.096.228 2.656 1.4 2.91 2.828 2.265.39-.333 2.01-4.426 4.244-4.035 1.299-3.23 1.707-.874 4.212-2.19 2.414-3.217 1.943.767 1.158 2.263 1.36-3.4 3.97.383 2.829 1.7.437.643 1.085-1.084 2.828-2.269-1.291.03 2.489-1.983 2.26-.565 1.458.607 1.397 1.767 1.698 3.396 2.076.384-1.326 3.938 1.697 1.702-.765-1.48-.961-3.476-.566-2.83-2.71.237-1.388-5.893.566-4.533-.16-1.312 1.809-.04 3.394-1.698.292.972-3.224 4.011 1.67 5.094 5.427-.604 9.23-.546 12.47-1.697.561-.097-1.828-1.554-2.828-1.7-2.472-.383-3.11-3.61-3.96-6.793-1.224 1.042.906-4.722 1.697-5.094-2.53-3.595 2.792-5.943-1.131-3.394-1.275.665-.583-5.106-1.132-7.927 2.744-3.04-3.248-1.396-1.694-5.094-1.715-.124-.272-3.51-1.698-1.7-.038-1.456-2.559-1.492-2.828-3.37-.221-3.714-.86-3.845-2.263-6.253 5.135-4.058-2.952-5.968-1.697-9.059 3.045.748 4.234 2.173 8.459 2.83 1.527 1.132.078.948 4.496.567 1.241-2.698 6.932-3.225 8.54 0 .473 4.678-4.252 3.064-.566 8.208 2.442 2.13 3.6 5.196 1.697 7.078 1.748-1.428 2.445-1.35 6.22-2.831.617-1.435 6.633 3.329 8.483 1.7 5.206.847 9.564.32 13.832 2.83 4.788 2.05 9.816-3.862 13.883-6.227 8.507-.253 1.554-.62-2.685-1.627-1.885-2.867-1.02-4.159.257-6.466 1.493-4.294-.515-1.74 1.296-4.336 1.59-1.31 7.107-3.074 7.92-4.557 2.54-1.078 4.922-3.525 8.483-3.962 1.98 1.352 6.969-3.103 9.615-1.7 3.763-1.9 5.601-3.195 6.788-3.962 2.975-3.55 3.725-2.491 5.655-5.094.437-2.43 4.183-7.425 3.96-4.53 4.987 3.02 2.112-1.746 1.622-.85-.192-.156-4.22-3.215-2.188-7.075 4.237 1.131 1.979.403.566-1.134-.03-4.098-.413-9.246 2.802-5.657 3.428 1.974-2.414-.879-1.748-1.984-2.253-1.36-.416-9.39-1.054-8.21 2.66.902-.889-7.945 1.131-7.36 1.399.379 4.167-4.443 7.352-4.528.007-.085 1.772-.738 3.397-.566 2.6-2.687 6.176.811 4.525-1.133.697-1.508 1.659-.17 2.26-.564-2.36-1.134 4.638-1.48 6.762-1.7 4.521-3.826 4.118.98 6.25 3.397-.054 2.016-.219 4.725-.568 6.228 2.452 1.267 4.795 3.909 5.555 4.776.566 2.316 4.132 3.782 5.193.883-1.386-1.022 3.346-1.585 5.089-2.828 1.408.833 3.028 4.142 3.96 5.662-.26 2.275 1.12 5.518 1.131 6.227.146 2.266 4.519 2.907 6.76.566-2.419 4.298 6.3-.449 4.552 6.228-.267-.158.881 5.972 1.131 3.964 1.401 1.069.598-3.042 4.526-1.699 1.602 2.702 5.754-2.09 6.786 1.7 1.634 1.417 1.862 3.156 3.933 2.262.593 2.13-2.704 3.613-2.236 6.767 2.418-1.047 2.64.68 2.263 3.423-3.409.933-1.653 4.072-.566 4.53 4.39-1.094 4.817 1.169 8.906.637 2.816-1.02 7.711-2.836 6.366-5.732-.138-3.696 7.956-5.65 5.089-2.266.752.996-1.617 2.195-1.132 5.662-2.355 2.268 4.315 4.492 1.132 6.228-1.2 3.375.976 3.435 4.525 3.396 3.162 1.819 3.565 4.002 6.22 5.097 2.385-2.894 2.975 4.97 3.96 2.265 4.097.728 2.339 6.531 3.96 5.66 4.213.2 5.488-2.582 8.484-1.132 1.99-2.707 2.146 2.622 6.222 2.265 1.193 4.067 4.776-.279 5.823-.068 2.755-2.906 3.554.886 6.594 1.2.199-.66 3.795-.2 5.115 1.7-.662-1.523 2.03 4.282 1.462 3.301-2.617.65 3.12 3.203 1.933 4.057 1.864 1.35.874 5.342 5.064 5.094.996-1.675 1.384-4.37 5.116-1.697 1.57 2.027 2.306 3.168 3.394 2.804 2.387.121 1.79.9 5.655.592.192-.102 4.892-4.278 4.525-2.265 2.249-.49 1.2 4.169 5.092 4.53 3.044 2.176 3.307.05 7.325 1.132 2.12-.014 3.29-.282 6.25 2.265 2.279 1.858 6.933.267 3.474 2.914-1.384 3.076-2.501 6.298-4.606 7.842-1.467.284-4.116 4.734-5.657 6.793-2.093 2.314-1.056 6.121-2.545 8.49-.495 4.046-1.498 7.08-3.676 11.322-2.767 2.413-1.653 7.604-.284 9.624-2.136 2.46-2.447 7.782-2.379 10.926-2.27 3.314 4.56 6.941-1.297 8.325 1.819.406.034 3.798-2.262 2.263 2.195 3.205-3.761 1.93-5.257 3.23-2.962-.375-.961-4.534-4.358-3.23-4.38-1.712-3.258 1.284-5.091 3.936-4.135 2.806 1.058 1.813 3.394 1.726.704 3.588-4.49 1.95-2.829 5.096-.454.852-3.697 3.664-3.957 5.094-4.91 1.454-2.066 2.979-5.657 5.662-1.899 1.724-8.245 1.903-5.091 5.662-.755 3.17-1.413 6.771-3.392 6.793-1.896 2.09-6.327 4.759-7.354 6.793 2.36 1.833-1.865 4.225-1.697 6.794 5.82 1.498.359 4.938 1.697 7.332-.8.993-4.327-.323-3.958 2.858-1.59 3.72.913.876 4.523 2.265 2.2-3.766 3.764-1.87 5.092-5.067-3.38.51-.833-8.07 2.828-3.992 2.955-2.717 5.565-3.02 11.18-2.83 1.169 1.687.316 3.729 2.958 6.227-3.982 3.35-.694 6.25.566 7.361-1.229 4.147 1.847-.898 2.828 3.934 2.843.764 1.173 4.229 1.132 5.122-2.076 2.29-4.62 1.853-6.22 2.831-.787 4.594.939 5.454 3.957 7.362 2.806-1.287-.163 6.912 3.367 6.793.568 1.928 6.35 4.094 2.29 6.793-.338 2.263 1.163 3.302-1.207 5.378-3.715-.791-3.909 1.183-6.147 3.113-.333.19-6.383-.923-7.352 1.134-1.236 3.166 3.404 3.443 3.394 5.662.478 1.874-.745 3.559 2.263 4.528 3.212 1.432 7.063 1.255 5.655 4.528 2.899 4.013-.182 1.886-1.698 6.174.86 1.112-5.084 4.477-1.697 6.847 2.603 2.345-2.294 4.151 1.132 6.227 1.826 2.664 3.649 4.468 6.788 4.53 2.535 2.162 5.88 4.84 9.022 3.397 3.115.1 6.022-3.95 6.415-.636 2.078 2.581.415 4.8-.73 7.43-3.062 1.03-5.757 4.897-3.395 7.924-2.071-.157-3.596 2.574-4.499 2.266-2.076 1.432-1.819 1.57-2.29 1.7-1.546-1.72-3.173 1.762-5.088 2.262-1.003 3.8.505 4.02-1.132 2.265-.789 1.309-6.691 1.68-4.525 2.831-1.154 1.685-1.627 4.528-5.655 3.963-1.547-.277-2.496 4.991-4.499 4.53-2.97 2.632 2.124.267 2.236 2.236-1.498 1.481-1.515 5.633-3.96 2.292-1.748 3.472-5.181.112-6.22 3.397.473 1.748-1.107.68-2.263 0-3.433-1.977-5.62 6.256-4.526 2.83-.677-2.621-5.113-.873-4.523-2.83-1.906 1.287-1.078-1.117-2.263 0-1.02-.716-.505 1.592.566 1.7 1.078-.807-4.637 1.779-3.678.075.476-1.705-1.58-3.341-1.979-2.34-1.96-.477-.692-2.679-3.96-2.266-1.797.823-2.53-1.962-5.089-1.132-2.005.938-3.642-1.102-2.263-4.5-1.14-.824-.966-3.225-3.394-.596-6.652-.245-6.8 1.41-7.917-2.802-1.146-1.607-4.19-.361-3.394-.594-.697-2.725-1.224.815-1.132 1.133-.573.683 3.207.127.966 1.53-1.682 1.238-9.973.002-9.449-1.53 4.084-2.721-5.71-3.29-4.526-2.83-.61.456-3.367-.268-5.654 0m-68.438 41.327c2.734 2.51.335-4.326 0 0" fill="#c9c9fc" style="stroke-width:2.42791"/><mask id="b" fill="#fff"><path fill-rule="evenodd" clip-rule="evenodd" d="M61.703 61.61a4 4 0 0 0-4 4v13.57a4 4 0 0 0 4 4h8.661l4.37 5.675 4.368-5.675h7.52a4 4 0 0 0 4-4V65.61a4 4 0 0 0-4-4z"/></mask><path fill-rule="evenodd" clip-rule="evenodd" d="M132.814 144.457a9.71 9.71 0 0 0-9.711 9.711v32.947a9.71 9.71 0 0 0 9.711 9.712h21.028l10.61 13.778 10.605-13.778h18.258a9.71 9.71 0 0 0 9.712-9.712v-32.947a9.71 9.71 0 0 0-9.712-9.711z" fill="#c7c7fa" style="stroke-width:2.42791"/><path d="m70.364 83.179.793-.61-.3-.39h-.493zm4.37 5.675-.793.61.792 1.03.793-1.03zm4.368-5.675v-1h-.492l-.3.39zM58.703 65.61a3 3 0 0 1 3-3v-2a5 5 0 0 0-5 5zm0 13.568V65.61h-2v13.568zm3 3a3 3 0 0 1-3-3h-2a5 5 0 0 0 5 5zm8.661 0h-8.66v2h8.66zm5.162 6.065-4.37-5.675-1.584 1.22 4.369 5.675zm2.784-5.675-4.37 5.675 1.586 1.22 4.369-5.675zm8.313-.39h-7.52v2h7.52zm3-3a3 3 0 0 1-3 3v2a5 5 0 0 0 5-5zm0-13.568v13.568h2V65.61Zm-3-3a3 3 0 0 1 3 3h2a5 5 0 0 0-5-5zm-24.92 0h24.92v-2h-24.92z" fill="#fefefe" mask="url(#b)" transform="translate(-16.995 -5.127)scale(2.42791)"/><path fill="#fff" d="M136.893 152.726h52.365V185.8h-52.365z" style="stroke-width:2.42791"/><path fill="#fff" d="M136.893 152.726h52.365V185.8h-52.365z" style="stroke-width:2.42791"/><path fill="#fff" d="M136.893 152.726h52.365V185.8h-52.365z" style="stroke-width:2.42791"/><path fill="#fff" d="M136.893 152.726h52.365V185.8h-52.365z" style="stroke-width:2.42791"/><path fill="#fff" d="M136.893 152.726h52.365V185.8h-52.365z" style="stroke-width:2.42791"/><path d="M136.893 152.726h52.363v8.267h-52.363z" fill="#000091" style="stroke-width:2.42791"/><circle cx="143.771" cy="156.861" fill="#ce0500" r="1.379" style="stroke-width:2.42791"/><circle cx="149.234" cy="156.861" fill="#b34000" r="1.379" style="stroke-width:2.42791"/><circle cx="154.811" cy="156.861" fill="#169b62" r="1.379" style="stroke-width:2.42791"/><path d="M164.426 178.909s-5.512-5.512-5.512-6.89c0-.848.551-2.756 2.756-2.756s2.756 2.296 2.756 2.755c0-.461.553-2.755 2.758-2.755 1.772 0 2.755 1.233 2.755 2.755 0 1.38-5.511 6.89-5.511 6.89" fill="#ff5655" stroke="#ff5655" stroke-width=".5" stroke-linecap="round" stroke-linejoin="round"/><rect x="153.432" y="163.751" width="22.048" height="19.292" rx="2.428" stroke="#8585f6" stroke-width=".3" stroke-linecap="round" stroke-linejoin="round" stroke-dasharray="0.6, 0.6"/><path d="m179.615 177.532-6.89-2.756m0 0 2.755 6.89m-2.756-6.89 6.888 6.89" stroke="#000091" stroke-width="1.214" stroke-linecap="round" stroke-linejoin="round"/><mask id="c" fill="#fff"><path fill-rule="evenodd" clip-rule="evenodd" d="M100 98.089a4 4 0 0 0-4 4v13.568a4 4 0 0 0 4 4h8.661l4.369 5.676 4.369-5.676h7.521a4 4 0 0 0 4-4v-13.568a4 4 0 0 0-4-4z"/></mask><path fill-rule="evenodd" clip-rule="evenodd" d="M225.796 233.025a9.71 9.71 0 0 0-9.712 9.711v32.942a9.71 9.71 0 0 0 9.712 9.712h21.028l10.608 13.78 10.607-13.78h18.26a9.71 9.71 0 0 0 9.712-9.712v-32.942a9.71 9.71 0 0 0-9.711-9.711z" fill="#c7c7fa" style="stroke-width:2.42791"/><path d="m108.661 119.657.792-.61-.3-.39h-.492zm4.369 5.676-.792.61.792 1.029.793-1.029zm4.369-5.676v-1h-.492l-.3.39zM97 102.089a3 3 0 0 1 3-3v-2a5 5 0 0 0-5 5zm0 13.568v-13.568h-2v13.568zm3 3a3 3 0 0 1-3-3h-2a5 5 0 0 0 5 5zm8.661 0H100v2h8.661zm5.162 6.066-4.37-5.676-1.584 1.22 4.369 5.676zm2.784-5.676-4.369 5.676 1.585 1.22 4.369-5.676zm8.313-.39h-7.521v2h7.521zm3-3a3 3 0 0 1-3 3v2a5 5 0 0 0 5-5zm0-13.568v13.568h2v-13.568zm-3-3a3 3 0 0 1 3 3h2a5 5 0 0 0-5-5zm-24.92 0h24.92v-2H100Z" fill="#fefefe" mask="url(#c)" transform="translate(-16.995 -5.127)scale(2.42791)"/><path fill="#fff" d="M229.875 241.292h52.365v33.073h-52.365z" style="stroke-width:2.42791"/><path fill="#fff" d="M229.875 241.292h52.365v33.073h-52.365z" style="stroke-width:2.42791"/><path fill="#fff" d="M229.875 241.292h52.365v33.073h-52.365z" style="stroke-width:2.42791"/><path fill="#fff" d="M229.875 241.292h52.365v33.073h-52.365z" style="stroke-width:2.42791"/><path fill="#fff" d="M229.875 241.292h52.365v33.073h-52.365z" style="stroke-width:2.42791"/><path d="M229.875 241.292h52.365v8.27h-52.365z" fill="#000091" style="stroke-width:2.42791"/><circle cx="236.714" cy="245.426" fill="#ce0500" r="1.379" style="stroke-width:2.42791"/><circle cx="242.235" cy="245.426" fill="#b34000" r="1.379" style="stroke-width:2.42791"/><circle cx="247.773" cy="245.426" fill="#169b62" r="1.379" style="stroke-width:2.42791"/><path d="M257.39 267.474s-5.513-5.511-5.513-6.89c0-.845.55-2.756 2.755-2.756s2.758 2.297 2.758 2.756c0-.46.552-2.756 2.756-2.756 1.772 0 2.756 1.233 2.756 2.756 0 1.379-5.512 6.89-5.512 6.89" fill="#ff5655" stroke="#ff5655" stroke-width=".5" stroke-linecap="round" stroke-linejoin="round"/><rect x="246.394" y="252.317" width="22.048" height="19.292" rx="2.428" stroke="#8585f6" stroke-width=".3" stroke-linecap="round" stroke-linejoin="round" stroke-dasharray="0.6, 0.6"/><path d="m272.577 266.098-6.89-2.756m0 0 2.755 6.89m-2.755-6.89 6.89 6.89" stroke="#000091" stroke-width="1.214" stroke-linecap="round" stroke-linejoin="round"/><mask id="d" fill="#fff"><path fill-rule="evenodd" clip-rule="evenodd" d="M107.109 38.479a4 4 0 0 0-4 4v13.568a4 4 0 0 0 4 4h8.662l4.369 5.675 4.368-5.675h7.521a4 4 0 0 0 4-4V42.479a4 4 0 0 0-4-4z"/></mask><path fill-rule="evenodd" clip-rule="evenodd" d="M243.056 88.297a9.71 9.71 0 0 0-9.712 9.711v32.942a9.71 9.71 0 0 0 9.712 9.712h21.03l10.608 13.778 10.605-13.778h18.26a9.71 9.71 0 0 0 9.712-9.712V98.008a9.71 9.71 0 0 0-9.711-9.711z" fill="#c7c7fa" style="stroke-width:2.42791"/><path d="m115.771 60.047.792-.61-.3-.39h-.492zm4.369 5.675-.793.61.793 1.03.792-1.03zm4.368-5.675v-1h-.492l-.3.39zm-20.399-17.568a3 3 0 0 1 3-3v-2a5 5 0 0 0-5 5zm0 13.568V42.479h-2v13.568zm3 3a3 3 0 0 1-3-3h-2a5 5 0 0 0 5 5zm8.662 0h-8.662v2h8.662zm5.161 6.065-4.369-5.675-1.585 1.22 4.369 5.675zm2.784-5.675-4.369 5.675 1.585 1.22 4.369-5.675zm8.313-.39h-7.521v2h7.521zm3-3a3 3 0 0 1-3 3v2a5 5 0 0 0 5-5zm0-13.568v13.568h2V42.479Zm-3-3a3 3 0 0 1 3 3h2a5 5 0 0 0-5-5zm-24.92 0h24.92v-2h-24.92z" fill="#fefefe" mask="url(#d)" transform="translate(-16.995 -5.127)scale(2.42791)"/><path fill="#fff" d="M247.135 96.564H299.5v33.073h-52.365z" style="stroke-width:2.42791"/><path fill="#fff" d="M247.135 96.564H299.5v33.073h-52.365z" style="stroke-width:2.42791"/><path fill="#fff" d="M247.135 96.564H299.5v33.073h-52.365z" style="stroke-width:2.42791"/><path fill="#fff" d="M247.135 96.564H299.5v33.073h-52.365z" style="stroke-width:2.42791"/><path fill="#fff" d="M247.135 96.564H299.5v33.073h-52.365z" style="stroke-width:2.42791"/><path d="M247.135 96.564H299.5v8.267h-52.365z" fill="#000091" style="stroke-width:2.42791"/><circle cx="253.977" cy="100.696" fill="#ce0500" r="1.379" style="stroke-width:2.42791"/><circle cx="259.476" cy="100.696" fill="#b34000" r="1.379" style="stroke-width:2.42791"/><circle cx="265.017" cy="100.696" fill="#169b62" r="1.379" style="stroke-width:2.42791"/><path d="M274.65 122.746s-5.51-5.511-5.51-6.89c0-.847.55-2.756 2.755-2.756s2.755 2.297 2.755 2.756c0-.461.552-2.756 2.756-2.756 1.775 0 2.756 1.234 2.756 2.756 0 1.376-5.512 6.89-5.512 6.89" fill="#ff5655" stroke="#ff5655" stroke-width=".5" stroke-linecap="round" stroke-linejoin="round"/><rect x="263.637" y="107.586" width="22.048" height="19.292" rx="2.428" stroke="#8585f6" stroke-width=".3" stroke-linecap="round" stroke-linejoin="round" stroke-dasharray="0.6, 0.6"/><path d="m289.818 121.367-6.89-2.755m0 0 2.755 6.888m-2.756-6.888 6.89 6.888" stroke="#000091" stroke-width="1.214" stroke-linecap="round" stroke-linejoin="round"/></svg>