<svg width="572" height="756" viewBox="0 0 920 1213" fill="none" xmlns="http://www.w3.org/2000/svg"><path fill="#fff" d="M0 0h920v1213H0z"/><path d="M69 55v16h16v2H67V55zm15.293 3.293 1.414 1.414L80 65.414l-3-2.999-4.293 4.292-1.414-1.414L77 59.586l3 2.999zM96.8 71.06l2.06-1.9c.84 1.08 1.96 1.72 3.1 1.72 1.12 0 1.8-.6 1.8-1.6 0-2.58-6.36-1.88-6.36-6.62 0-2.22 1.84-4.06 4.52-4.06 2.1 0 3.7.94 4.9 2.36l-2.08 1.88c-.82-1.06-1.74-1.76-2.8-1.76-1 0-1.66.64-1.66 1.48 0 2.54 6.36 1.82 6.36 6.62-.04 2.64-2.08 4.22-4.66 4.22-2.36 0-3.94-.86-5.18-2.34m12.786-1.74V65.2h-1.88v-2.28h1.88V60.4h2.56v2.52h3.08v2.28h-3.08v4.12c0 1.12.6 1.56 1.6 1.56.7 0 1.16-.08 1.5-.22v2.22c-.5.22-1.1.32-1.94.32-2.52 0-3.72-1.42-3.72-3.88m10.754 3.98c-2.02 0-3.4-1.16-3.4-3.02 0-1.52 1.18-2.66 3.34-3.02l3.08-.52v-.26c0-1.06-.8-1.74-1.96-1.74-.98 0-1.74.46-2.28 1.2l-1.86-1.42c.9-1.24 2.38-2 4.22-2 2.92 0 4.42 1.74 4.42 3.96V73h-2.54v-.98c-.64.78-1.84 1.28-3.02 1.28m-.88-3.14c0 .68.54 1.12 1.4 1.12 1.16 0 2-.54 2.5-1.34v-1.42l-2.4.4c-1.06.18-1.5.62-1.5 1.24m9.989-.84V65.2h-1.88v-2.28h1.88V60.4h2.56v2.52h3.08v2.28h-3.08v4.12c0 1.12.6 1.56 1.6 1.56.7 0 1.16-.08 1.5-.22v2.22c-.5.22-1.1.32-1.94.32-2.52 0-3.72-1.42-3.72-3.88m9.195-8.16c-.9 0-1.66-.76-1.66-1.66s.76-1.66 1.66-1.66 1.64.76 1.64 1.66-.74 1.66-1.64 1.66M137.364 73V62.92h2.54V73zm4.569-1.46 1.68-1.52c.62.78 1.36 1.34 2.32 1.34.82 0 1.24-.48 1.24-1.08 0-1.76-4.82-1.1-4.82-4.64 0-1.78 1.5-3.12 3.6-3.12 1.54 0 2.94.74 3.66 1.72l-1.68 1.48c-.52-.64-1.18-1.16-1.96-1.16-.8 0-1.18.44-1.18.96 0 1.72 4.82 1.12 4.82 4.6-.04 2.12-1.74 3.28-3.64 3.28-1.8 0-3.08-.72-4.04-1.86m10.817-2.22V65.2h-1.88v-2.28h1.88V60.4h2.56v2.52h3.08v2.28h-3.08v4.12c0 1.12.6 1.56 1.6 1.56.7 0 1.16-.08 1.5-.22v2.22c-.5.22-1.1.32-1.94.32-2.52 0-3.72-1.42-3.72-3.88m9.195-8.16c-.9 0-1.66-.76-1.66-1.66s.76-1.66 1.66-1.66 1.64.76 1.64 1.66-.74 1.66-1.64 1.66M160.665 73V62.92h2.54V73zm4.865-5.04c0-2.94 1.92-5.44 5.12-5.44 1.36 0 2.34.44 3.12 1.22v-.82h2.56v15h-2.56v-5.74c-.78.78-1.76 1.22-3.12 1.22-3.2 0-5.12-2.5-5.12-5.44m2.64 0c0 1.76 1.1 3.04 2.82 3.04 1.18 0 2.16-.52 2.78-1.44v-3.2c-.68-.94-1.64-1.44-2.78-1.44-1.72 0-2.82 1.28-2.82 3.04m17.845.68v-5.72h2.56v5.6c0 3.02-1.76 4.88-4.72 4.88s-4.7-1.86-4.7-4.88v-5.6h2.56v5.72c0 1.46.76 2.36 2.16 2.36 1.38 0 2.14-.9 2.14-2.36m14.652 2.72c-.94 1.26-2.5 2.04-4.4 2.04-3.58 0-5.6-2.5-5.6-5.44 0-2.98 1.88-5.44 5.18-5.44 2.8 0 4.64 1.9 4.64 4.54 0 .56-.08 1.08-.16 1.42h-7.06c.24 1.88 1.4 2.64 2.98 2.64 1.1 0 2.06-.48 2.6-1.2zm-4.88-6.76c-1.3 0-2.16.72-2.44 2.04h4.64c-.04-1.02-.78-2.04-2.2-2.04m6.166 6.94 1.68-1.52c.619.78 1.36 1.34 2.32 1.34.82 0 1.239-.48 1.239-1.08 0-1.76-4.819-1.1-4.819-4.64 0-1.78 1.5-3.12 3.6-3.12 1.54 0 2.94.74 3.66 1.72l-1.68 1.48c-.52-.64-1.18-1.16-1.96-1.16-.8 0-1.18.44-1.18.96 0 1.72 4.82 1.12 4.82 4.6-.04 2.12-1.74 3.28-3.64 3.28-1.8 0-3.08-.72-4.04-1.86m14.411 3.22c0-1 .5-1.8 1.4-2.46-.4-.4-.62-.94-.62-1.46 0-.8.34-1.44 1.1-2-.88-.66-1.36-1.66-1.36-2.78 0-1.96 1.52-3.54 4.04-3.54.78 0 1.46.14 2.04.4h3.68v2.16h-1.78c.1.32.14.64.14.98 0 1.98-1.48 3.58-4.08 3.58-.34 0-.66-.02-.96-.08-.22.2-.34.42-.34.64 0 .4.22.6.68.6h2.54c2.54 0 3.92 1.36 3.92 3.24 0 2.24-2.14 3.96-5.28 3.96-3.22 0-5.12-1.12-5.12-3.24m4.6-7.04c1.06 0 1.74-.66 1.74-1.66s-.68-1.64-1.74-1.64c-1.1 0-1.76.66-1.76 1.64 0 1 .66 1.66 1.76 1.66m-2.2 6.68c0 .96.92 1.56 2.7 1.56 1.84 0 2.78-.68 2.78-1.68 0-.76-.46-1.3-1.68-1.3h-3.12c-.38.36-.68.8-.68 1.42m15.124-13.08h-2.44l2.08-3.32h2.76zm3.42 10.04c-.94 1.26-2.5 2.04-4.4 2.04-3.58 0-5.6-2.5-5.6-5.44 0-2.98 1.88-5.44 5.18-5.44 2.8 0 4.64 1.9 4.64 4.54 0 .56-.08 1.08-.16 1.42h-7.06c.24 1.88 1.4 2.64 2.98 2.64 1.1 0 2.06-.48 2.6-1.2zm-4.88-6.76c-1.3 0-2.16.72-2.44 2.04h4.64c-.04-1.02-.78-2.04-2.2-2.04m7.182 8.4V62.92h2.54v.8c.7-.68 1.64-1.2 2.98-1.2 2.18 0 3.92 1.5 3.92 4.48v6h-2.56v-5.9c0-1.34-.76-2.18-2-2.18-1.28 0-1.96.86-2.34 1.5V73zm18.184-11.68h-2.44l2.08-3.32h2.76zm3.42 10.04c-.94 1.26-2.5 2.04-4.4 2.04-3.58 0-5.6-2.5-5.6-5.44 0-2.98 1.88-5.44 5.18-5.44 2.8 0 4.64 1.9 4.64 4.54 0 .56-.08 1.08-.16 1.42h-7.06c.24 1.88 1.4 2.64 2.98 2.64 1.1 0 2.06-.48 2.6-1.2zm-4.88-6.76c-1.3 0-2.16.72-2.44 2.04h4.64c-.04-1.02-.78-2.04-2.2-2.04m7.182 8.4V62.92h2.54v1c.66-.68 1.52-1.2 2.66-1.2.34 0 .64.06.88.14v2.5c-.32-.08-.66-.14-1.12-.14-1.24 0-2.04.68-2.42 1.32V73zm10.477.3c-2.02 0-3.4-1.16-3.4-3.02 0-1.52 1.18-2.66 3.34-3.02l3.08-.52v-.26c0-1.06-.8-1.74-1.96-1.74-.98 0-1.74.46-2.28 1.2l-1.86-1.42c.9-1.24 2.38-2 4.22-2 2.92 0 4.42 1.74 4.42 3.96V73h-2.54v-.98c-.64.78-1.84 1.28-3.02 1.28m-.88-3.14c0 .68.54 1.12 1.4 1.12 1.16 0 2-.54 2.5-1.34v-1.42l-2.4.4c-1.06.18-1.5.62-1.5 1.24m9.348 2.84V58h2.54v15zm14.866-1.64c-.94 1.26-2.5 2.04-4.4 2.04-3.58 0-5.6-2.5-5.6-5.44 0-2.98 1.88-5.44 5.18-5.44 2.8 0 4.64 1.9 4.64 4.54 0 .56-.08 1.08-.16 1.42h-7.06c.24 1.88 1.4 2.64 2.98 2.64 1.1 0 2.06-.48 2.6-1.2zm-4.88-6.76c-1.3 0-2.16.72-2.44 2.04h4.64c-.04-1.02-.78-2.04-2.2-2.04m6.166 6.94 1.68-1.52c.62.78 1.36 1.34 2.32 1.34.82 0 1.24-.48 1.24-1.08 0-1.76-4.82-1.1-4.82-4.64 0-1.78 1.5-3.12 3.6-3.12 1.54 0 2.94.74 3.66 1.72l-1.68 1.48c-.52-.64-1.18-1.16-1.96-1.16-.8 0-1.18.44-1.18.96 0 1.72 4.82 1.12 4.82 4.6-.04 2.12-1.74 3.28-3.64 3.28-1.8 0-3.08-.72-4.04-1.86m14.531 0 1.68-1.52c.62.78 1.36 1.34 2.32 1.34.82 0 1.24-.48 1.24-1.08 0-1.76-4.82-1.1-4.82-4.64 0-1.78 1.5-3.12 3.6-3.12 1.54 0 2.94.74 3.66 1.72l-1.68 1.48c-.52-.64-1.18-1.16-1.96-1.16-.8 0-1.18.44-1.18.96 0 1.72 4.82 1.12 4.82 4.6-.04 2.12-1.74 3.28-3.64 3.28-1.8 0-3.08-.72-4.04-1.86m16.661-2.9v-5.72h2.56v5.6c0 3.02-1.76 4.88-4.72 4.88s-4.7-1.86-4.7-4.88v-5.6h2.56v5.72c0 1.46.76 2.36 2.16 2.36 1.38 0 2.14-.9 2.14-2.36m5.371 4.36V62.92h2.54v1c.66-.68 1.52-1.2 2.66-1.2.34 0 .64.06.88.14v2.5c-.32-.08-.66-.14-1.12-.14-1.24 0-2.04.68-2.42 1.32V73zm12.076-10.08h2.72l2.62 7.2 2.6-7.2h2.74L354.252 73h-3.34zm16.963-.4c3.28 0 5.52 2.42 5.52 5.44s-2.24 5.44-5.52 5.44-5.52-2.42-5.52-5.44 2.24-5.44 5.52-5.44m.04 8.48c1.62 0 2.84-1.3 2.84-3.04 0-1.76-1.22-3.04-2.84-3.04-1.68 0-2.92 1.28-2.92 3.04s1.24 3.04 2.92 3.04m6.584.54 1.68-1.52c.62.78 1.36 1.34 2.32 1.34.82 0 1.24-.48 1.24-1.08 0-1.76-4.82-1.1-4.82-4.64 0-1.78 1.5-3.12 3.6-3.12 1.54 0 2.94.74 3.66 1.72l-1.68 1.48c-.52-.64-1.18-1.16-1.96-1.16-.8 0-1.18.44-1.18.96 0 1.72 4.82 1.12 4.82 4.6-.04 2.12-1.74 3.28-3.64 3.28-1.8 0-3.08-.72-4.04-1.86m18.251 1.76c-2.02 0-3.4-1.16-3.4-3.02 0-1.52 1.18-2.66 3.34-3.02l3.08-.52v-.26c0-1.06-.8-1.74-1.96-1.74-.98 0-1.74.46-2.28 1.2l-1.86-1.42c.9-1.24 2.38-2 4.22-2 2.92 0 4.42 1.74 4.42 3.96V73h-2.54v-.98c-.64.78-1.84 1.28-3.02 1.28m-.88-3.14c0 .68.54 1.12 1.4 1.12 1.16 0 2-.54 2.5-1.34v-1.42l-2.4.4c-1.06.18-1.5.62-1.5 1.24m14.189.84c1 0 1.8-.46 2.28-1.16l1.98 1.52c-.94 1.24-2.42 2.04-4.26 2.04-3.48 0-5.56-2.5-5.56-5.44s2.08-5.44 5.56-5.44c1.84 0 3.32.8 4.26 2.04l-1.98 1.52c-.48-.7-1.28-1.16-2.32-1.16-1.66 0-2.88 1.28-2.88 3.04 0 1.78 1.22 3.04 2.92 3.04m10.606 0c1 0 1.8-.46 2.28-1.16l1.98 1.52c-.94 1.24-2.42 2.04-4.26 2.04-3.48 0-5.56-2.5-5.56-5.44s2.08-5.44 5.56-5.44c1.84 0 3.32.8 4.26 2.04l-1.98 1.52c-.48-.7-1.28-1.16-2.32-1.16-1.66 0-2.88 1.28-2.88 3.04 0 1.78 1.22 3.04 2.92 3.04m10.565-8.48c3.28 0 5.52 2.42 5.52 5.44s-2.24 5.44-5.52 5.44-5.52-2.42-5.52-5.44 2.24-5.44 5.52-5.44m.04 8.48c1.62 0 2.84-1.3 2.84-3.04 0-1.76-1.22-3.04-2.84-3.04-1.68 0-2.92 1.28-2.92 3.04s1.24 3.04 2.92 3.04m7.797 2V62.92h2.54v.76c.68-.66 1.54-1.16 2.78-1.16 1.28 0 2.4.56 3.06 1.64.72-.88 1.68-1.64 3.38-1.64 2.08 0 3.72 1.44 3.72 4.28V73h-2.56v-6.1c0-1.22-.66-1.98-1.8-1.98-1.1 0-1.7.76-2.1 1.44.02.14.02.28.02.44V73h-2.56v-6.1c0-1.22-.66-1.98-1.8-1.98-1.16 0-1.76.86-2.14 1.5V73zm18.379 4.92v-15h2.54v.82c.78-.78 1.76-1.22 3.14-1.22 3.2 0 5.12 2.5 5.12 5.44s-1.92 5.44-5.12 5.44c-1.38 0-2.36-.44-3.14-1.22v5.74zm5.32-13c-1.18 0-2.14.52-2.78 1.46v3.16c.68.96 1.62 1.46 2.78 1.46 1.72 0 2.84-1.28 2.84-3.04s-1.12-3.04-2.84-3.04m10.41 8.38c-2.02 0-3.4-1.16-3.4-3.02 0-1.52 1.18-2.66 3.34-3.02l3.08-.52v-.26c0-1.06-.8-1.74-1.96-1.74-.98 0-1.74.46-2.28 1.2l-1.86-1.42c.9-1.24 2.38-2 4.22-2 2.92 0 4.42 1.74 4.42 3.96V73h-2.54v-.98c-.64.78-1.84 1.28-3.02 1.28m-.88-3.14c0 .68.54 1.12 1.4 1.12 1.16 0 2-.54 2.5-1.34v-1.42l-2.4.4c-1.06.18-1.5.62-1.5 1.24m8.349 4.6c0-1 .5-1.8 1.4-2.46-.4-.4-.62-.94-.62-1.46 0-.8.34-1.44 1.1-2-.88-.66-1.36-1.66-1.36-2.78 0-1.96 1.52-3.54 4.04-3.54.78 0 1.46.14 2.04.4h3.68v2.16h-1.78c.1.32.14.64.14.98 0 1.98-1.48 3.58-4.08 3.58-.34 0-.66-.02-.96-.08-.22.2-.34.42-.34.64 0 .4.22.6.68.6h2.54c2.54 0 3.92 1.36 3.92 3.24 0 2.24-2.14 3.96-5.28 3.96-3.22 0-5.12-1.12-5.12-3.24m4.6-7.04c1.06 0 1.74-.66 1.74-1.66s-.68-1.64-1.74-1.64c-1.1 0-1.76.66-1.76 1.64 0 1 .66 1.66 1.76 1.66m-2.2 6.68c0 .96.92 1.56 2.7 1.56 1.84 0 2.78-.68 2.78-1.68 0-.76-.46-1.3-1.68-1.3h-3.12c-.38.36-.68.8-.68 1.42m9.752-1.4V62.92h2.54v.8c.7-.68 1.64-1.2 2.98-1.2 2.18 0 3.92 1.5 3.92 4.48v6h-2.56v-5.9c0-1.34-.76-2.18-2-2.18-1.28 0-1.96.86-2.34 1.5V73zm21.604-1.64c-.94 1.26-2.5 2.04-4.4 2.04-3.58 0-5.6-2.5-5.6-5.44 0-2.98 1.88-5.44 5.18-5.44 2.8 0 4.64 1.9 4.64 4.54 0 .56-.08 1.08-.16 1.42h-7.06c.24 1.88 1.4 2.64 2.98 2.64 1.1 0 2.06-.48 2.6-1.2zm-4.88-6.76c-1.3 0-2.16.72-2.44 2.04h4.64c-.04-1.02-.78-2.04-2.2-2.04m7.182 8.4V62.92h2.54v.76c.68-.66 1.54-1.16 2.78-1.16 1.28 0 2.4.56 3.06 1.64.72-.88 1.68-1.64 3.38-1.64 2.08 0 3.72 1.44 3.72 4.28V73h-2.56v-6.1c0-1.22-.66-1.98-1.8-1.98-1.1 0-1.7.76-2.1 1.44.02.14.02.28.02.44V73h-2.56v-6.1c0-1.22-.66-1.98-1.8-1.98-1.16 0-1.76.86-2.14 1.5V73zm27.659-1.64c-.94 1.26-2.5 2.04-4.4 2.04-3.58 0-5.6-2.5-5.6-5.44 0-2.98 1.88-5.44 5.18-5.44 2.8 0 4.64 1.9 4.64 4.54 0 .56-.08 1.08-.16 1.42h-7.06c.24 1.88 1.4 2.64 2.98 2.64 1.1 0 2.06-.48 2.6-1.2zm-4.88-6.76c-1.3 0-2.16.72-2.44 2.04h4.64c-.04-1.02-.78-2.04-2.2-2.04m7.182 8.4V62.92h2.54v.8c.7-.68 1.64-1.2 2.98-1.2 2.18 0 3.92 1.5 3.92 4.48v6h-2.56v-5.9c0-1.34-.76-2.18-2-2.18-1.28 0-1.96.86-2.34 1.5V73zm12.965-3.68V65.2h-1.88v-2.28h1.88V60.4h2.56v2.52h3.08v2.28h-3.08v4.12c0 1.12.6 1.56 1.6 1.56.7 0 1.16-.08 1.5-.22v2.22c-.5.22-1.1.32-1.94.32-2.52 0-3.72-1.42-3.72-3.88m7.034 2.22 1.68-1.52c.62.78 1.36 1.34 2.32 1.34.82 0 1.24-.48 1.24-1.08 0-1.76-4.82-1.1-4.82-4.64 0-1.78 1.5-3.12 3.6-3.12 1.54 0 2.94.74 3.66 1.72l-1.68 1.48c-.52-.64-1.18-1.16-1.96-1.16-.8 0-1.18.44-1.18.96 0 1.72 4.82 1.12 4.82 4.6-.04 2.12-1.74 3.28-3.64 3.28-1.8 0-3.08-.72-4.04-1.86" fill="#666"/><g clip-path="url(#a)"><path d="M314.161 104.28H81.032c-9.406 0-17.032 7.646-17.032 17.078v111.143c0 9.432 7.626 17.077 17.032 17.077h233.129c9.407 0 17.033-7.645 17.033-17.077V121.358c0-9.432-7.626-17.078-17.033-17.078" fill="#FBF5F2"/><path d="M99.756 159.833v-4.166l10.22-13.389h5.382v13.389h2.418v4.166h-2.418v6.353h-4.599v-6.353zm4.735-4.166h6.268v-8.163zm24.617-14.072c5.348 0 8.074 3.074 8.074 6.455 0 2.186-1.056 4.064-3.134 5.192 2.725 1.127 4.19 3.347 4.19 6.25 0 4.167-3.203 7.377-9.13 7.377-5.893 0-9.129-3.21-9.129-7.377 0-2.903 1.465-5.123 4.224-6.25-2.112-1.128-3.168-3.006-3.168-5.192 0-3.381 2.759-6.455 8.073-6.455m.068 9.905c1.976 0 3.271-1.162 3.271-2.938 0-1.81-1.295-3.005-3.271-3.005-2.146 0-3.406 1.195-3.406 3.005 0 1.776 1.294 2.938 3.406 2.938m-.034 11.373c2.691 0 4.361-1.434 4.361-3.62 0-2.254-1.67-3.791-4.361-3.791-2.725 0-4.428 1.537-4.428 3.791 0 2.22 1.703 3.62 4.428 3.62m19.992-21.278c6.268 0 9.198 5.465 9.198 12.637s-2.93 12.637-9.198 12.637c-6.267 0-9.197-5.464-9.197-12.637 0-7.172 2.93-12.637 9.197-12.637m0 4.269c-3.031 0-4.496 3.347-4.496 8.368 0 5.055 1.465 8.368 4.496 8.368 2.998 0 4.463-3.347 4.463-8.368 0-5.055-1.465-8.368-4.463-8.368" fill="#161616"/><path d="M267.551 140.526a9.21 9.21 0 0 1 12.547-.467 9.205 9.205 0 0 1 12.544.467c3.434 3.443 3.595 8.926.482 12.56l-11.021 11.088a2.83 2.83 0 0 1-3.858.144l-.156-.144-11.02-11.088c-3.112-3.634-2.952-9.117.482-12.56m2.007 2.012a6.42 6.42 0 0 0-.208 8.839l.208.218 10.539 10.566 7.526-7.548-5.017-5.031-1.505 1.51a4.25 4.25 0 0 1-6.022 0 4.277 4.277 0 0 1 0-6.038l2.981-2.992a6.375 6.375 0 0 0-8.284.268zm12.044 4.026a1.417 1.417 0 0 1 2.008 0l6.021 6.036 1.003-1.005a6.415 6.415 0 0 0 0-9.057 6.375 6.375 0 0 0-8.815-.208l-.217.208-4.517 4.529a1.425 1.425 0 0 0-.109 1.888l.109.124a1.42 1.42 0 0 0 1.884.111l.124-.111z" fill="#BB8568"/><path d="m98.384 203.543 5.642-14.942h3.96l5.642 14.942h-3.215l-1.427-3.885h-5.961l-1.426 3.885zm5.578-6.468h4.088l-2.044-5.614zm16.965 4.334c1.065 0 1.916-.491 2.427-1.238l2.108 1.622c-1.001 1.323-2.576 2.177-4.535 2.177-3.704 0-5.918-2.668-5.918-5.806s2.214-5.806 5.918-5.806c1.959 0 3.534.853 4.535 2.177l-2.108 1.622c-.511-.747-1.362-1.238-2.469-1.238-1.767 0-3.066 1.366-3.066 3.245 0 1.9 1.299 3.245 3.108 3.245m11.29 0c1.065 0 1.916-.491 2.427-1.238l2.108 1.622c-1.001 1.323-2.576 2.177-4.535 2.177-3.705 0-5.919-2.668-5.919-5.806s2.214-5.806 5.919-5.806c1.959 0 3.534.853 4.535 2.177l-2.108 1.622c-.511-.747-1.362-1.238-2.47-1.238-1.767 0-3.065 1.366-3.065 3.245 0 1.9 1.298 3.245 3.108 3.245m11.247-9.051c3.492 0 5.876 2.583 5.876 5.806s-2.384 5.806-5.876 5.806-5.876-2.583-5.876-5.806 2.384-5.806 5.876-5.806m.043 9.051c1.724 0 3.023-1.388 3.023-3.245 0-1.879-1.299-3.245-3.023-3.245-1.789 0-3.109 1.366-3.109 3.245 0 1.878 1.32 3.245 3.109 3.245m8.299 2.134v-10.758h2.704v.811c.724-.705 1.64-1.238 2.96-1.238 1.362 0 2.554.597 3.257 1.75.766-.939 1.788-1.75 3.598-1.75 2.214 0 3.96 1.537 3.96 4.568v6.617h-2.725v-6.51c0-1.303-.703-2.114-1.916-2.114-1.171 0-1.81.811-2.236 1.537.022.15.022.299.022.47v6.617h-2.726v-6.51c0-1.303-.702-2.114-1.916-2.114-1.235 0-1.873.918-2.278 1.601v7.023zm19.565 5.252v-16.01h2.704v.875c.83-.833 1.874-1.302 3.343-1.302 3.406 0 5.45 2.668 5.45 5.806s-2.044 5.806-5.45 5.806c-1.469 0-2.513-.469-3.343-1.302v6.127zm5.664-13.876c-1.257 0-2.279.555-2.96 1.559v3.372c.724 1.025 1.725 1.559 2.96 1.559 1.83 0 3.023-1.367 3.023-3.245s-1.193-3.245-3.023-3.245m11.081 8.945c-2.15 0-3.619-1.239-3.619-3.224 0-1.622 1.256-2.839 3.555-3.223l3.279-.555v-.278c0-1.131-.852-1.857-2.087-1.857-1.043 0-1.852.491-2.427 1.281l-1.98-1.516c.958-1.323 2.534-2.134 4.493-2.134 3.108 0 4.705 1.857 4.705 4.226v6.959h-2.704v-1.046c-.681.833-1.959 1.367-3.215 1.367m-.937-3.352c0 .726.575 1.196 1.491 1.196 1.234 0 2.129-.577 2.661-1.431v-1.515l-2.555.427c-1.128.192-1.597.661-1.597 1.323m8.888 4.91c0-1.067.532-1.921 1.49-2.626a2.24 2.24 0 0 1-.66-1.558c0-.854.362-1.537 1.171-2.135-.936-.704-1.447-1.772-1.447-2.967 0-2.092 1.618-3.778 4.3-3.778.83 0 1.554.149 2.172.427h3.917v2.305h-1.895c.107.342.149.683.149 1.046 0 2.113-1.575 3.821-4.343 3.821-.362 0-.702-.021-1.022-.085-.234.213-.362.448-.362.683 0 .427.234.64.724.64h2.704c2.704 0 4.173 1.452 4.173 3.458 0 2.391-2.278 4.227-5.621 4.227-3.427 0-5.45-1.195-5.45-3.458m4.897-7.514c1.128 0 1.852-.705 1.852-1.772s-.724-1.75-1.852-1.75c-1.171 0-1.874.704-1.874 1.75 0 1.067.703 1.772 1.874 1.772m-2.342 7.13c0 1.024.979 1.665 2.874 1.665 1.959 0 2.959-.726 2.959-1.793 0-.812-.489-1.388-1.788-1.388h-3.321c-.405.384-.724.854-.724 1.516m10.381-1.495v-10.758h2.704v.853c.745-.725 1.746-1.28 3.172-1.28 2.321 0 4.173 1.601 4.173 4.781v6.404h-2.725v-6.297c0-1.43-.809-2.327-2.129-2.327-1.363 0-2.087.918-2.491 1.601v7.023zm22.999-1.75c-1.001 1.345-2.661 2.177-4.684 2.177-3.811 0-5.961-2.668-5.961-5.806 0-3.181 2.001-5.806 5.514-5.806 2.981 0 4.939 2.028 4.939 4.845 0 .598-.085 1.153-.17 1.516h-7.516c.256 2.007 1.491 2.818 3.173 2.818 1.171 0 2.193-.513 2.767-1.281zm-5.195-7.215c-1.384 0-2.299.768-2.597 2.177h4.939c-.043-1.089-.83-2.177-2.342-2.177m7.645 8.965v-10.758h2.704v.811c.724-.705 1.64-1.238 2.96-1.238 1.362 0 2.554.597 3.257 1.75.766-.939 1.788-1.75 3.598-1.75 2.214 0 3.96 1.537 3.96 4.568v6.617h-2.725v-6.51c0-1.303-.703-2.114-1.916-2.114-1.171 0-1.81.811-2.236 1.537.022.15.022.299.022.47v6.617h-2.726v-6.51c0-1.303-.702-2.114-1.916-2.114-1.235 0-1.873.918-2.278 1.601v7.023zm29.443-1.75c-1.001 1.345-2.662 2.177-4.684 2.177-3.811 0-5.961-2.668-5.961-5.806 0-3.181 2.001-5.806 5.514-5.806 2.98 0 4.939 2.028 4.939 4.845 0 .598-.085 1.153-.17 1.516h-7.516c.256 2.007 1.491 2.818 3.173 2.818 1.171 0 2.192-.513 2.767-1.281zm-5.195-7.215c-1.384 0-2.299.768-2.598 2.177h4.94c-.043-1.089-.83-2.177-2.342-2.177m7.646 8.965v-10.758h2.704v.853c.745-.725 1.746-1.28 3.172-1.28 2.321 0 4.173 1.601 4.173 4.781v6.404h-2.725v-6.297c0-1.43-.809-2.327-2.129-2.327-1.362 0-2.086.918-2.491 1.601v7.023zm13.801-3.927v-4.398h-2.002v-2.433h2.002v-2.69h2.725v2.69h3.279v2.433h-3.279v4.398c0 1.195.639 1.665 1.703 1.665.745 0 1.235-.086 1.597-.235v2.369c-.532.235-1.171.342-2.065.342-2.683 0-3.96-1.516-3.96-4.141m7.488 2.369 1.788-1.622c.66.832 1.448 1.43 2.47 1.43.872 0 1.32-.512 1.32-1.153 0-1.878-5.131-1.174-5.131-4.952 0-1.9 1.596-3.33 3.832-3.33 1.639 0 3.13.789 3.896 1.835l-1.788 1.58c-.554-.683-1.257-1.238-2.087-1.238-.851 0-1.256.47-1.256 1.025 0 1.835 5.131 1.195 5.131 4.909-.043 2.263-1.852 3.501-3.875 3.501-1.916 0-3.279-.768-4.3-1.985" fill="#3A3A3A"/><path d="M314.161 275.195H81.032c-9.406 0-17.032 7.646-17.032 17.078v111.143c0 9.432 7.626 17.077 17.032 17.077h233.129c9.407 0 17.033-7.645 17.033-17.077V292.273c0-9.432-7.626-17.078-17.033-17.078" fill="#FBF5F2"/><path d="M105.521 337.066v-19.161l-4.94 2.801-2.282-3.279 7.358-4.269h4.462v23.908zm10.254.034v-4.167l8.175-8.06c1.84-1.879 2.998-3.177 2.998-5.123 0-1.981-1.362-3.143-3.236-3.143-2.282 0-3.679 1.401-4.939 3.518l-3.747-2.288c2.009-3.279 4.973-5.328 9.129-5.328s7.494 2.664 7.494 6.762c0 3.279-2.146 5.807-4.496 8.095l-5.757 5.567h10.866v4.167zm28.336-24.591c5.348 0 8.074 3.074 8.074 6.455 0 2.186-1.056 4.064-3.134 5.192 2.725 1.127 4.19 3.347 4.19 6.25 0 4.167-3.202 7.377-9.13 7.377-5.893 0-9.129-3.21-9.129-7.377 0-2.903 1.465-5.123 4.224-6.25-2.112-1.128-3.168-3.006-3.168-5.192 0-3.381 2.759-6.455 8.073-6.455m.068 9.905c1.976 0 3.271-1.162 3.271-2.938 0-1.81-1.295-3.005-3.271-3.005-2.146 0-3.406 1.195-3.406 3.005 0 1.776 1.294 2.938 3.406 2.938m-.034 11.373c2.692 0 4.361-1.434 4.361-3.62 0-2.254-1.669-3.791-4.361-3.791-2.725 0-4.428 1.537-4.428 3.791 0 2.22 1.703 3.62 4.428 3.62" fill="#161616"/><path fill-rule="evenodd" clip-rule="evenodd" d="m288.387 327.365.25.252.253-.252a3.188 3.188 0 0 1 5.342 1.436 3.2 3.2 0 0 1-.826 3.092l-4.769 4.78-4.767-4.78a3.21 3.21 0 0 1 0-4.528 3.187 3.187 0 0 1 4.517 0m-8.29-2.361v2.846c-4.703 0-8.516 3.823-8.516 8.538h-2.84c0-6.148 4.871-11.186 11.001-11.378zm0-18.501c4.705 0 8.516 3.821 8.516 8.539.002 4.592-3.621 8.362-8.197 8.533l-.319.005c-4.706 0-8.516-3.821-8.516-8.538-.002-4.592 3.62-8.362 8.196-8.533zm0 2.847c-3.137 0-5.677 2.547-5.677 5.692s2.54 5.693 5.677 5.693 5.677-2.548 5.677-5.693-2.54-5.692-5.677-5.692" fill="#BB8568"/><path d="M100.257 378.727v-14.943h4.386c3.109 0 5.003 1.537 5.003 4.056 0 1.217-.553 2.263-1.596 2.946 1.575.704 2.448 1.985 2.448 3.543 0 2.733-2.108 4.398-5.536 4.398zm4.45-12.424h-1.426v3.373h1.426c1.15 0 1.831-.619 1.831-1.708 0-1.046-.681-1.665-1.831-1.665m.426 5.892h-1.852v4.013h1.852c1.405 0 2.257-.747 2.257-2.007 0-1.281-.852-2.006-2.257-2.006m14.427-5.935h-2.598l2.214-3.543h2.939zm3.64 10.716c-1 1.345-2.661 2.178-4.684 2.178-3.811 0-5.961-2.669-5.961-5.807 0-3.18 2.001-5.806 5.514-5.806 2.981 0 4.94 2.028 4.94 4.846 0 .597-.085 1.153-.171 1.515h-7.515c.255 2.007 1.49 2.818 3.172 2.818 1.171 0 2.193-.512 2.768-1.281zm-5.195-7.215c-1.383 0-2.299.769-2.597 2.177h4.939c-.042-1.088-.83-2.177-2.342-2.177m7.646 8.966v-10.759h2.704v.854c.745-.726 1.746-1.281 3.172-1.281 2.321 0 4.173 1.601 4.173 4.782v6.404h-2.725v-6.298c0-1.43-.809-2.326-2.129-2.326-1.363 0-2.087.918-2.491 1.601v7.023zm19.357-12.467h-2.597l2.214-3.543h2.938zm3.641 10.716c-1.001 1.345-2.661 2.178-4.684 2.178-3.811 0-5.961-2.669-5.961-5.807 0-3.18 2.001-5.806 5.514-5.806 2.981 0 4.939 2.028 4.939 4.846 0 .597-.085 1.153-.17 1.515h-7.515c.255 2.007 1.49 2.818 3.172 2.818 1.171 0 2.193-.512 2.768-1.281zm-5.195-7.215c-1.384 0-2.299.769-2.597 2.177h4.939c-.043-1.088-.83-2.177-2.342-2.177m6.325-1.793h2.002v-1.131c0-2.284 1.511-4.12 4.194-4.12.979 0 1.81.234 2.491.597l-1.15 2.263a2.14 2.14 0 0 0-1.298-.427c-.916 0-1.512.641-1.512 1.623v1.195h3.279v2.434h-3.279v8.325h-2.725v-8.325h-2.002zm11.395-1.879c-.958 0-1.767-.811-1.767-1.771 0-.961.809-1.772 1.767-1.772s1.745.811 1.745 1.772c0 .96-.787 1.771-1.745 1.771m-1.363 12.638v-10.759h2.704v10.759zm11.098-2.135c1.065 0 1.916-.491 2.427-1.238l2.108 1.622c-1.001 1.324-2.576 2.178-4.535 2.178-3.704 0-5.918-2.669-5.918-5.807s2.214-5.806 5.918-5.806c1.959 0 3.534.854 4.535 2.177l-2.108 1.623c-.511-.747-1.362-1.238-2.469-1.238-1.767 0-3.066 1.366-3.066 3.244 0 1.9 1.299 3.245 3.108 3.245m7.916-10.503c-.958 0-1.767-.811-1.767-1.771 0-.961.809-1.772 1.767-1.772s1.746.811 1.746 1.772c0 .96-.788 1.771-1.746 1.771m-1.363 12.638v-10.759h2.704v10.759zm8.97.32c-2.15 0-3.619-1.238-3.619-3.223 0-1.623 1.256-2.84 3.555-3.224l3.279-.555v-.277c0-1.132-.852-1.857-2.087-1.857-1.043 0-1.852.491-2.427 1.28l-1.98-1.515c.958-1.324 2.534-2.135 4.493-2.135 3.108 0 4.705 1.857 4.705 4.227v6.959h-2.704v-1.046c-.681.832-1.959 1.366-3.215 1.366m-.937-3.351c0 .725.575 1.195 1.491 1.195 1.234 0 2.129-.576 2.661-1.43v-1.516l-2.555.427c-1.128.192-1.597.662-1.597 1.324m11.315-9.607c-.958 0-1.767-.811-1.767-1.771 0-.961.809-1.772 1.767-1.772s1.746.811 1.746 1.772c0 .96-.788 1.771-1.746 1.771m-1.363 12.638v-10.759h2.704v10.759zm5.947 0v-10.759h2.704v1.067c.702-.725 1.618-1.28 2.831-1.28.362 0 .682.064.937.149v2.668a4.7 4.7 0 0 0-1.192-.149c-1.32 0-2.172.726-2.576 1.409v6.895zm18.07-1.751c-1.001 1.345-2.661 2.178-4.684 2.178-3.811 0-5.961-2.669-5.961-5.807 0-3.18 2.001-5.806 5.514-5.806 2.981 0 4.939 2.028 4.939 4.846 0 .597-.085 1.153-.17 1.515h-7.515c.255 2.007 1.49 2.818 3.172 2.818 1.171 0 2.193-.512 2.768-1.281zm-5.195-7.215c-1.384 0-2.299.769-2.597 2.177h4.939c-.043-1.088-.83-2.177-2.342-2.177m6.564 7.407 1.788-1.622c.659.833 1.448 1.43 2.47 1.43.873 0 1.319-.512 1.319-1.152 0-1.879-5.13-1.174-5.13-4.953 0-1.9 1.597-3.33 3.832-3.33 1.64 0 3.13.79 3.896 1.836l-1.788 1.58c-.554-.684-1.256-1.239-2.086-1.239-.852 0-1.257.47-1.257 1.025 0 1.836 5.131 1.196 5.131 4.91-.042 2.263-1.852 3.501-3.874 3.501-1.917 0-3.279-.769-4.301-1.986" fill="#3A3A3A"/><path d="M838.968 104.814H373.774c-9.113 0-16.5 7.407-16.5 16.544v282.059c0 9.137 7.387 16.543 16.5 16.543h465.194c9.112 0 16.5-7.406 16.5-16.543V121.358c0-9.137-7.388-16.544-16.5-16.544" fill="#fff"/><path d="M838.968 104.814H373.774c-9.113 0-16.5 7.407-16.5 16.544v282.059c0 9.137 7.387 16.543 16.5 16.543h465.194c9.112 0 16.5-7.406 16.5-16.543V121.358c0-9.137-7.388-16.544-16.5-16.544Z" stroke="#DDD"/><path d="M392.78 153.378v-13.449h3.487l5.998 9.722v-9.722h2.721v13.449h-3.488l-5.997-9.721v9.721zm20.099-10.067c3.143 0 5.289 2.324 5.289 5.225s-2.146 5.226-5.289 5.226-5.288-2.325-5.288-5.226 2.146-5.225 5.288-5.225m.038 8.146c1.553 0 2.721-1.249 2.721-2.921 0-1.69-1.168-2.92-2.721-2.92-1.609 0-2.797 1.23-2.797 2.92 0 1.691 1.188 2.921 2.797 2.921m7.47 1.921v-9.683h2.434v.73c.651-.634 1.475-1.114 2.663-1.114 1.226 0 2.299.538 2.932 1.575.69-.845 1.609-1.575 3.238-1.575 1.993 0 3.564 1.383 3.564 4.111v5.956h-2.453v-5.86c0-1.172-.632-1.902-1.724-1.902-1.054 0-1.629.73-2.012 1.383.019.135.019.269.019.423v5.956h-2.453v-5.86c0-1.172-.632-1.902-1.724-1.902-1.111 0-1.686.826-2.05 1.441v6.321zm27.955-4.842c0 2.825-1.839 5.226-4.905 5.226-1.322 0-2.261-.423-3.008-1.172v.788h-2.434v-14.409h2.434v5.514c.747-.75 1.686-1.172 3.008-1.172 3.066 0 4.905 2.401 4.905 5.225m-5.25-2.92c-1.13 0-2.069.5-2.663 1.383v3.074c.651.903 1.571 1.384 2.663 1.384 1.648 0 2.721-1.23 2.721-2.921s-1.073-2.92-2.721-2.92m7.477 7.762v-9.683h2.434v.961c.632-.654 1.456-1.153 2.548-1.153.326 0 .614.057.843.134v2.402a4.2 4.2 0 0 0-1.073-.135c-1.188 0-1.954.654-2.318 1.268v6.206zm16.264-1.576c-.9 1.211-2.395 1.96-4.215 1.96-3.43 0-5.366-2.401-5.366-5.226 0-2.862 1.802-5.225 4.963-5.225 2.683 0 4.446 1.825 4.446 4.361 0 .538-.077 1.037-.154 1.364h-6.764c.23 1.806 1.342 2.536 2.855 2.536 1.054 0 1.974-.461 2.491-1.153zm-4.675-6.493c-1.246 0-2.07.691-2.338 1.959h4.445c-.038-.979-.747-1.959-2.107-1.959m11.356 3.227c0-2.824 1.859-5.225 4.905-5.225 1.303 0 2.242.403 2.989 1.152v-5.494h2.453v14.409h-2.453v-.769c-.747.75-1.686 1.153-2.989 1.153-3.046 0-4.905-2.401-4.905-5.226m2.548 0c0 1.691 1.054 2.921 2.702 2.921 1.092 0 1.993-.461 2.644-1.345v-3.151c-.651-.884-1.552-1.345-2.644-1.345-1.648 0-2.702 1.23-2.702 2.92m12.016-3.074h-2.261l1.724-5.533h2.759zm5.968 8.204c-1.935 0-3.257-1.114-3.257-2.901 0-1.46 1.13-2.555 3.2-2.901l2.951-.5v-.249c0-1.019-.767-1.672-1.878-1.672-.939 0-1.667.442-2.184 1.153l-1.782-1.364c.862-1.191 2.28-1.921 4.043-1.921 2.797 0 4.234 1.671 4.234 3.804v6.263h-2.433v-.942c-.613.75-1.763 1.23-2.894 1.23m-.843-3.016c0 .653.518 1.076 1.342 1.076 1.111 0 1.916-.519 2.395-1.288v-1.364l-2.3.385c-1.015.172-1.437.595-1.437 1.191m13.593.807c.958 0 1.725-.442 2.184-1.115l1.897 1.46c-.9 1.192-2.318 1.96-4.081 1.96-3.334 0-5.327-2.401-5.327-5.226 0-2.824 1.993-5.225 5.327-5.225 1.763 0 3.181.768 4.081 1.959l-1.897 1.46c-.459-.672-1.226-1.114-2.222-1.114-1.591 0-2.759 1.23-2.759 2.92 0 1.71 1.168 2.921 2.797 2.921m10.161 0c.958 0 1.724-.442 2.184-1.115l1.897 1.46c-.9 1.192-2.318 1.96-4.081 1.96-3.334 0-5.327-2.401-5.327-5.226 0-2.824 1.993-5.225 5.327-5.225 1.763 0 3.181.768 4.081 1.959l-1.897 1.46c-.46-.672-1.226-1.114-2.222-1.114-1.591 0-2.76 1.23-2.76 2.92 0 1.71 1.169 2.921 2.798 2.921m10.122-8.146c3.143 0 5.289 2.324 5.289 5.225s-2.146 5.226-5.289 5.226-5.288-2.325-5.288-5.226 2.146-5.225 5.288-5.225m.039 8.146c1.552 0 2.721-1.249 2.721-2.921 0-1.69-1.169-2.92-2.721-2.92-1.61 0-2.798 1.23-2.798 2.92 0 1.691 1.188 2.921 2.798 2.921m7.469 1.921v-9.683h2.434v.73c.651-.634 1.475-1.114 2.663-1.114 1.227 0 2.3.538 2.932 1.575.69-.845 1.61-1.575 3.238-1.575 1.993 0 3.564 1.383 3.564 4.111v5.956h-2.452v-5.86c0-1.172-.633-1.902-1.725-1.902-1.054 0-1.629.73-2.012 1.383.019.135.019.269.019.423v5.956h-2.452v-5.86c0-1.172-.633-1.902-1.725-1.902-1.111 0-1.686.826-2.05 1.441v6.321zm17.609 4.726v-14.409h2.433v.788c.747-.75 1.686-1.172 3.008-1.172 3.066 0 4.906 2.401 4.906 5.225 0 2.825-1.84 5.226-4.906 5.226-1.322 0-2.261-.423-3.008-1.172v5.514zm5.096-12.488c-1.13 0-2.05.5-2.663 1.403v3.035c.652.922 1.552 1.403 2.663 1.403 1.648 0 2.721-1.23 2.721-2.921s-1.073-2.92-2.721-2.92m9.975 8.05c-1.935 0-3.257-1.114-3.257-2.901 0-1.46 1.13-2.555 3.2-2.901l2.95-.5v-.249c0-1.019-.766-1.672-1.877-1.672-.939 0-1.668.442-2.185 1.153l-1.782-1.364c.862-1.191 2.28-1.921 4.043-1.921 2.798 0 4.235 1.671 4.235 3.804v6.263h-2.434v-.942c-.613.75-1.763 1.23-2.893 1.23m-.843-3.016c0 .653.517 1.076 1.341 1.076 1.112 0 1.916-.519 2.395-1.288v-1.364l-2.299.385c-1.016.172-1.437.595-1.437 1.191m7.999 4.419c0-.961.479-1.73 1.341-2.364a2.02 2.02 0 0 1-.594-1.402c0-.769.326-1.383 1.054-1.921-.843-.634-1.303-1.595-1.303-2.671 0-1.883 1.456-3.4 3.87-3.4.748 0 1.399.134 1.955.384h3.526v2.075h-1.706a3.1 3.1 0 0 1 .134.941c0 1.902-1.418 3.439-3.909 3.439-.325 0-.632-.019-.919-.077-.211.192-.326.404-.326.615 0 .384.211.577.651.577h2.434c2.433 0 3.756 1.306 3.756 3.112 0 2.152-2.051 3.804-5.059 3.804-3.085 0-4.905-1.076-4.905-3.112m4.407-6.763c1.015 0 1.667-.634 1.667-1.595 0-.96-.652-1.575-1.667-1.575-1.054 0-1.686.634-1.686 1.575 0 .961.632 1.595 1.686 1.595m-2.108 6.417c0 .922.881 1.498 2.587 1.498 1.763 0 2.663-.653 2.663-1.614 0-.73-.441-1.248-1.609-1.248h-2.989c-.365.345-.652.768-.652 1.364m9.343-1.345v-9.683h2.434v.768c.67-.653 1.571-1.152 2.855-1.152 2.088 0 3.755 1.441 3.755 4.303v5.764h-2.452v-5.668c0-1.287-.728-2.094-1.916-2.094-1.227 0-1.878.826-2.242 1.441v6.321zm20.698-1.576c-.901 1.211-2.396 1.96-4.216 1.96-3.43 0-5.365-2.401-5.365-5.226 0-2.862 1.801-5.225 4.963-5.225 2.682 0 4.445 1.825 4.445 4.361a6.2 6.2 0 0 1-.153 1.364h-6.764c.23 1.806 1.341 2.536 2.855 2.536 1.054 0 1.974-.461 2.491-1.153zm-4.676-6.493c-1.245 0-2.069.691-2.337 1.959h4.445c-.038-.979-.747-1.959-2.108-1.959m6.881 8.069v-9.683h2.434v.73c.651-.634 1.475-1.114 2.663-1.114 1.227 0 2.3.538 2.932 1.575.69-.845 1.609-1.575 3.238-1.575 1.993 0 3.564 1.383 3.564 4.111v5.956h-2.452v-5.86c0-1.172-.633-1.902-1.725-1.902-1.054 0-1.629.73-2.012 1.383.019.135.019.269.019.423v5.956h-2.452v-5.86c0-1.172-.633-1.902-1.725-1.902-1.111 0-1.686.826-2.05 1.441v6.321zm26.499-1.576c-.9 1.211-2.395 1.96-4.215 1.96-3.43 0-5.365-2.401-5.365-5.226 0-2.862 1.801-5.225 4.962-5.225 2.683 0 4.446 1.825 4.446 4.361 0 .538-.077 1.037-.153 1.364h-6.764c.23 1.806 1.341 2.536 2.855 2.536 1.054 0 1.973-.461 2.491-1.153zm-4.675-6.493c-1.246 0-2.069.691-2.338 1.959h4.446c-.039-.979-.748-1.959-2.108-1.959m6.881 8.069v-9.683h2.433v.768c.671-.653 1.572-1.152 2.856-1.152 2.088 0 3.755 1.441 3.755 4.303v5.764h-2.453v-5.668c0-1.287-.728-2.094-1.916-2.094-1.226 0-1.877.826-2.242 1.441v6.321zm12.421-3.535v-3.958h-1.801v-2.19h1.801v-2.421h2.452v2.421h2.951v2.19h-2.951v3.958c0 1.076.575 1.498 1.533 1.498.671 0 1.112-.076 1.437-.211v2.133c-.479.211-1.053.307-1.858.307-2.415 0-3.564-1.364-3.564-3.727m6.739 2.132 1.61-1.46c.594.75 1.303 1.287 2.223 1.287.785 0 1.187-.461 1.187-1.037 0-1.691-4.617-1.057-4.617-4.457 0-1.71 1.437-2.997 3.449-2.997 1.475 0 2.816.711 3.506 1.652l-1.609 1.422c-.499-.615-1.131-1.115-1.878-1.115-.767 0-1.131.423-1.131.923 0 1.652 4.618 1.075 4.618 4.418-.038 2.037-1.667 3.151-3.487 3.151-1.725 0-2.951-.692-3.871-1.787" fill="#161616"/><path fill-rule="evenodd" clip-rule="evenodd" d="M405.107 345.325h17.005v-34.122c0-4.708-3.807-8.525-8.503-8.525s-8.502 3.817-8.502 8.525z" fill="#009099"/><path d="m399.249 385.675-3.802-8.869 1.138-1.142 8.841 3.815-.903.905-2.592-1.132-2.907 2.917 1.128 2.6zm-.678-4.52 2.348-2.356-4.163-1.821zm2.429-6.368.831-.834 5.202 2.302-2.294-5.219.83-.833 2.773 6.351-1.012 1.013zm10.062-.963-4.552-4.565.768-.77.569.571c-.064-.734.09-1.413.668-1.993a1.8 1.8 0 0 1 .443-.335l.749.751a2.4 2.4 0 0 0-.506.399c-.596.598-.677 1.295-.497 2.038l3.126 3.135zm-1.757-9.742c-.298.3-.786.3-1.084 0a.77.77 0 0 1 .01-1.078.75.75 0 0 1 1.065 0c.298.3.307.779.009 1.078m5.346 6.142-4.551-4.566.767-.769 4.551 4.566zm2.389-2.397-6.772-6.795.768-.769 6.772 6.793z" fill="#161616"/><path fill-rule="evenodd" clip-rule="evenodd" d="M452.933 345.326h17.004V193.923c0-4.708-3.805-8.525-8.502-8.525-4.696 0-8.502 3.817-8.502 8.525z" fill="#009099"/><path d="m450.676 380.9-6.322-6.342 1.083-1.087 5.121 1.26-1.255-5.137 1.083-1.087 6.321 6.341-.848.852-5.183-5.2 1.173 4.873-.649.652-4.859-1.177 5.183 5.2zm9.163-8.94c-.894.898-1.996 1.006-2.773.227-.685-.688-.649-1.703.155-2.836l1.281-1.794-.316-.317c-.631-.634-1.444-.543-2.095.109a2.1 2.1 0 0 0-.596 1.867l-1.02.135c-.145-.942.163-1.92.957-2.717 1.156-1.16 2.52-1.169 3.522-.163l3.053 3.062-.768.769-.578-.579c.099.788-.235 1.649-.822 2.237m-2.022-.58c.387.39.983.354 1.517-.181.604-.606.812-1.395.622-2.183l-.894-.896-1.12 1.576c-.514.733-.514 1.295-.125 1.684m.383-9.534a.767.767 0 0 1-1.084 0 .77.77 0 0 1 .01-1.078.75.75 0 0 1 1.065 0 .76.76 0 0 1 .009 1.078m5.346 6.141-4.551-4.565.768-.77 4.55 4.566z" fill="#161616"/><path fill-rule="evenodd" clip-rule="evenodd" d="M501.822 345.326h17.004v-47.984c0-4.708-3.807-8.525-8.502-8.525s-8.502 3.817-8.502 8.525z" fill="#009099"/><path d="M499.904 380.246c1.364 1.368 1.247 2.609.136 3.723a3 3 0 0 1-.478.408l-.759-.761c.135-.081.262-.172.388-.299.605-.606.786-1.295-.1-2.183l-5.905-5.925.849-.851zm3.443-6.462-2.601-2.608.768-.77 2.573 2.582c1.364 1.367 1.373 2.953.136 4.194-1.228 1.232-2.809 1.223-4.172-.144l-2.574-2.582.768-.771 2.6 2.61c.895.896 1.888.933 2.665.153.758-.761.731-1.766-.163-2.664m-1.116-6.472a.766.766 0 0 1-1.083 0 .77.77 0 0 1 .009-1.078.754.754 0 0 1 1.066 0 .76.76 0 0 1 .008 1.078m5.346 6.143-4.55-4.567.767-.77 4.551 4.566zm2.39-2.399-4.55-4.565.767-.77.514.516c-.036-.779.145-1.54.822-2.219 1.021-1.024 2.465-1.096 3.757.199l2.755 2.763-.768.77-2.727-2.736c-.813-.815-1.744-.824-2.447-.117-.659.66-.696 1.458-.506 2.228l3.151 3.162z" fill="#161616"/><path fill-rule="evenodd" clip-rule="evenodd" d="M549.647 345.326h17.005V220.579c0-4.708-3.806-8.525-8.502-8.525s-8.503 3.817-8.503 8.525z" fill="#009099"/><path d="M538.248 388.455c1.364 1.368 1.246 2.608.135 3.722a2.8 2.8 0 0 1-.479.408l-.757-.761c.135-.081.261-.172.388-.299.605-.606.786-1.294-.1-2.182l-5.906-5.925.85-.852zm3.443-6.461-2.602-2.61.769-.769 2.573 2.582c1.363 1.367 1.373 2.953.135 4.193-1.227 1.233-2.808 1.223-4.172-.144l-2.573-2.582.768-.77 2.6 2.609c.895.897 1.888.933 2.664.154.759-.761.731-1.766-.162-2.663m-1.116-6.473a.77.77 0 0 1-1.083 0 .77.77 0 0 1 .009-1.078.762.762 0 0 1 1.074 1.078m5.346 6.142-4.551-4.566.768-.77 4.551 4.565zm2.39-2.398-6.772-6.794.767-.77 6.773 6.794zm2.39-2.397-6.772-6.794.767-.771 6.772 6.795zm5.686-7.208c.144.997-.172 2.038-1.02 2.89-1.535 1.54-3.612 1.359-4.94.027-1.381-1.386-1.571-3.352-.162-4.765 1.237-1.241 2.907-1.178 4.027-.054.181.181.325.38.424.535l-3.494 3.505c1.119 1.069 2.473 1.033 3.45.054.586-.589.812-1.359.703-2.065zm-5.49-1.177c-.75.751-.832 1.72-.208 2.672l2.727-2.737c-.696-.642-1.715-.742-2.519.065m6.151-1.043-2.331-2.338-.858.861-.695-.697.858-.862-1.138-1.141.777-.779 1.137 1.141 1.581-1.585.695.698-1.579 1.585 2.329 2.338c.713.715 1.273.551 1.824 0 .298-.299.47-.545.569-.789l.686.688c-.126.309-.334.589-.659.916-1.011 1.014-2.086 1.078-3.196-.036" fill="#161616"/><path fill-rule="evenodd" clip-rule="evenodd" d="M598.005 345.58h17.004V233.625c0-4.708-3.806-8.524-8.502-8.524-4.695 0-8.502 3.816-8.502 8.524z" fill="#009099"/><path d="m587.666 387.763-3.801-8.87 1.138-1.141 8.84 3.814-.903.906-2.591-1.132-2.908 2.917 1.128 2.6zm-.677-4.521 2.348-2.355-4.163-1.821zm5.232-9.542c1.463-1.468 3.594-1.341 4.922-.009 1.327 1.331 1.454 3.469-.01 4.937-1.471 1.477-3.594 1.34-4.921.009s-1.463-3.46.009-4.937m4.199 4.194c.948-.951.849-2.446-.091-3.388-.947-.951-2.429-1.042-3.376-.09-.976.978-.886 2.463.063 3.414.948.952 2.429 1.042 3.404.064m5.451-8.295-2.6-2.609.767-.77 2.573 2.582c1.364 1.368 1.373 2.953.136 4.194-1.228 1.232-2.808 1.223-4.171-.145l-2.574-2.582.767-.769 2.601 2.608c.894.898 1.887.933 2.664.155.758-.761.731-1.767-.163-2.664m3.002-2.159-2.33-2.338-.858.861-.695-.697.858-.862-1.138-1.141.777-.779 1.138 1.141 1.58-1.585.695.698-1.58 1.585 2.329 2.338c.715.715 1.273.551 1.825 0 .298-.299.469-.545.568-.789l.687.688c-.127.309-.334.589-.659.916-1.011 1.014-2.087 1.078-3.197-.036" fill="#161616"/><path fill-rule="evenodd" clip-rule="evenodd" d="M647.159 345.58h17.006v-90.63c0-4.709-3.807-8.525-8.504-8.525-4.695 0-8.502 3.816-8.502 8.525z" fill="#009099"/><path d="m634.884 387.7.054-1.213c.994.127 1.797-.082 2.384-.67.705-.707.686-1.541.108-2.12-1.426-1.431-4.117 1.884-6.204-.208-.938-.943-.93-2.493.172-3.597.886-.888 1.942-1.133 3.035-.979l-.082 1.205c-.903-.163-1.644-.018-2.186.525-.622.626-.631 1.413-.089 1.958 1.417 1.421 4.081-1.903 6.185.208 1.093 1.096.948 2.636-.172 3.759-.929.933-1.968 1.269-3.205 1.132m9.707-9.502c.145.996-.171 2.037-1.019 2.889-1.535 1.54-3.612 1.359-4.94.028-1.381-1.387-1.572-3.353-.163-4.766 1.237-1.241 2.908-1.177 4.027-.054.181.181.326.381.425.535l-3.495 3.506c1.12 1.068 2.474 1.032 3.451.054.586-.589.812-1.36.703-2.066zm-5.489-1.178c-.75.752-.832 1.721-.208 2.672l2.726-2.735c-.695-.644-1.715-.743-2.518.063m9.662 2.953-6.772-6.795.767-.769.542.543c-.054-.87.216-1.667.894-2.347 1.427-1.431 3.468-1.214 4.795.118 1.328 1.332 1.545 3.379.117 4.811-.677.679-1.471.951-2.339.896l2.764 2.772zm-3.937-8.553c-.632.635-.876 1.496-.677 2.384l1.77 1.775c.903.199 1.752-.055 2.375-.679.966-.97.858-2.402-.109-3.371-.966-.969-2.393-1.078-3.359-.109m6.342-1.38-2.329-2.336-.858.86-.695-.698.858-.86-1.138-1.141.776-.779 1.138 1.141 1.581-1.585.695.697-1.581 1.586 2.33 2.336c.713.716 1.273.553 1.824 0 .298-.299.47-.543.569-.788l.687.689c-.127.308-.334.589-.66.914-1.011 1.016-2.086 1.079-3.197-.036m5.73-2.486a.814.814 0 0 1-1.156.019.83.83 0 0 1 .009-1.169.812.812 0 1 1 1.147 1.15" fill="#161616"/><path fill-rule="evenodd" clip-rule="evenodd" d="M696.18 345.58h17.005V213.369c0-4.708-3.807-8.525-8.503-8.525s-8.502 3.817-8.502 8.525z" fill="#009099"/><path d="M685.145 375.018c1.968-1.975 4.849-1.785 6.655.027s1.996 4.702.027 6.676c-1.978 1.984-4.858 1.794-6.664-.018-1.806-1.811-1.996-4.702-.018-6.685m5.888 5.906c1.418-1.422 1.3-3.587-.109-5.001-1.408-1.413-3.567-1.53-4.985-.108-1.426 1.431-1.309 3.596.1 5.01s3.566 1.53 4.994.099m6.806-6.683c.56-.562.75-1.296.633-1.975l1.065-.146c.145.997-.153 2.021-.984 2.855-1.508 1.512-3.604 1.35-4.931.018-1.328-1.332-1.49-3.434.018-4.946.822-.825 1.861-1.124 2.845-.988l-.144 1.069a2.22 2.22 0 0 0-1.978.643c-.975.978-.903 2.446.062 3.416.977.977 2.43 1.042 3.414.054m2.219-4.2-2.33-2.337-.858.86-.696-.697.858-.861-1.137-1.141.776-.779 1.138 1.141 1.58-1.585.695.698-1.579 1.585 2.329 2.337c.713.715 1.273.552 1.824 0 .299-.299.47-.544.569-.789l.686.689c-.126.308-.334.589-.658.916-1.012 1.014-2.087 1.078-3.197-.037m5.729-2.487a.814.814 0 0 1-1.156.019.83.83 0 0 1 .01-1.169.812.812 0 1 1 1.146 1.15" fill="#161616"/><path fill-rule="evenodd" clip-rule="evenodd" d="M743.54 345.579h17.006v-149.27c0-4.708-3.807-8.525-8.502-8.525-4.697 0-8.504 3.817-8.504 8.525z" fill="#009099"/><path d="m735.915 385.109-6.321-6.341 1.111-1.115 8.859 1.713-5.283-5.3.848-.852 6.323 6.342-1.112 1.114-8.859-1.712 5.284 5.299zm4.661-14.169c1.462-1.468 3.593-1.341 4.921-.009 1.327 1.331 1.454 3.469-.009 4.937-1.472 1.477-3.594 1.34-4.921.009s-1.464-3.46.009-4.937m4.199 4.195c.947-.951.849-2.447-.09-3.389-.949-.951-2.43-1.042-3.378-.09-.975.978-.885 2.464.064 3.415.947.952 2.429 1.041 3.404.064m-1.076-6.966.83-.833 5.202 2.301-2.294-5.219.831-.832 2.773 6.35-1.011 1.015zm9.915-.615a.814.814 0 0 1-1.156.018.83.83 0 0 1 .008-1.168.812.812 0 1 1 1.148 1.15" fill="#161616"/><path fill-rule="evenodd" clip-rule="evenodd" d="M791.666 345.58h17.005V217.634c0-4.708-3.807-8.526-8.503-8.526s-8.502 3.818-8.502 8.526z" fill="#009099"/><path d="m783.574 385.277-6.322-6.342 2.43-2.437c1.978-1.984 4.777-1.875 6.484-.163s1.815 4.521-.163 6.504zm-3.097-8.018-1.599 1.603 4.768 4.784 1.599-1.603c1.408-1.414 1.363-3.506.045-4.828-1.328-1.333-3.405-1.369-4.813.044m13.479-3.901c.145.996-.172 2.039-1.021 2.89-1.535 1.54-3.612 1.358-4.939.027-1.382-1.386-1.572-3.352-.163-4.765 1.238-1.241 2.908-1.178 4.028-.055.181.182.324.381.424.535l-3.494 3.506c1.12 1.069 2.474 1.032 3.449.055.587-.59.813-1.359.704-2.066zm-5.491-1.178c-.749.752-.83 1.722-.208 2.672l2.728-2.735c-.695-.644-1.716-.743-2.52.063m8.977-1.903c.56-.562.749-1.296.632-1.975l1.066-.145c.145.997-.153 2.021-.985 2.854-1.507 1.513-3.602 1.349-4.929.018-1.328-1.332-1.491-3.433.018-4.947.821-.824 1.859-1.123 2.844-.987l-.145 1.069a2.23 2.23 0 0 0-1.978.643c-.975.979-.902 2.446.064 3.415.975.979 2.429 1.042 3.413.055m3.997-2.723a.814.814 0 0 1-1.156.018.83.83 0 0 1 .01-1.169.812.812 0 1 1 1.146 1.151" fill="#161616"/></g><path d="M67.161 469.469a6.5 6.5 0 0 1 8.84-.328 6.5 6.5 0 0 1 9.178 9.154l-7.765 7.791a2 2 0 0 1-2.719.102l-.11-.102-7.764-7.791a6.5 6.5 0 0 1 .34-8.826m1.414 1.414a4.5 4.5 0 0 0-.146 6.211l.146.153L76 484.672l5.303-5.304-3.535-3.535-1.06 1.061a3.001 3.001 0 0 1-4.244-4.243l2.102-2.102a4.5 4.5 0 0 0-5.837.188zm8.486 2.829a1 1 0 0 1 1.414 0l4.242 4.242.708-.707a4.5 4.5 0 0 0-6.211-6.51l-.153.146-3.182 3.182a1 1 0 0 0-.078 1.327l.078.088a1 1 0 0 0 1.327.077l.087-.077zM96.8 484.06l2.06-1.9c.84 1.08 1.96 1.72 3.1 1.72 1.12 0 1.8-.6 1.8-1.6 0-2.58-6.36-1.88-6.36-6.62 0-2.22 1.84-4.06 4.52-4.06 2.1 0 3.7.94 4.9 2.36l-2.08 1.88c-.82-1.06-1.74-1.76-2.8-1.76-1 0-1.66.64-1.66 1.48 0 2.54 6.36 1.82 6.36 6.62-.04 2.64-2.08 4.22-4.66 4.22-2.36 0-3.94-.86-5.18-2.34m12.786-1.74v-4.12h-1.88v-2.28h1.88v-2.52h2.56v2.52h3.08v2.28h-3.08v4.12c0 1.12.6 1.56 1.6 1.56.7 0 1.16-.08 1.5-.22v2.22c-.5.22-1.1.32-1.94.32-2.52 0-3.72-1.42-3.72-3.88m10.754 3.98c-2.02 0-3.4-1.16-3.4-3.02 0-1.52 1.18-2.66 3.34-3.02l3.08-.52v-.26c0-1.06-.8-1.74-1.96-1.74-.98 0-1.74.46-2.28 1.2l-1.86-1.42c.9-1.24 2.38-2 4.22-2 2.92 0 4.42 1.74 4.42 3.96V486h-2.54v-.98c-.64.78-1.84 1.28-3.02 1.28m-.88-3.14c0 .68.54 1.12 1.4 1.12 1.16 0 2-.54 2.5-1.34v-1.42l-2.4.4c-1.06.18-1.5.62-1.5 1.24m9.989-.84v-4.12h-1.88v-2.28h1.88v-2.52h2.56v2.52h3.08v2.28h-3.08v4.12c0 1.12.6 1.56 1.6 1.56.7 0 1.16-.08 1.5-.22v2.22c-.5.22-1.1.32-1.94.32-2.52 0-3.72-1.42-3.72-3.88m9.195-8.16c-.9 0-1.66-.76-1.66-1.66s.76-1.66 1.66-1.66 1.64.76 1.64 1.66-.74 1.66-1.64 1.66m-1.28 11.84v-10.08h2.54V486zm4.569-1.46 1.68-1.52c.62.78 1.36 1.34 2.32 1.34.82 0 1.24-.48 1.24-1.08 0-1.76-4.82-1.1-4.82-4.64 0-1.78 1.5-3.12 3.6-3.12 1.54 0 2.94.74 3.66 1.72l-1.68 1.48c-.52-.64-1.18-1.16-1.96-1.16-.8 0-1.18.44-1.18.96 0 1.72 4.82 1.12 4.82 4.6-.04 2.12-1.74 3.28-3.64 3.28-1.8 0-3.08-.72-4.04-1.86m10.817-2.22v-4.12h-1.88v-2.28h1.88v-2.52h2.56v2.52h3.08v2.28h-3.08v4.12c0 1.12.6 1.56 1.6 1.56.7 0 1.16-.08 1.5-.22v2.22c-.5.22-1.1.32-1.94.32-2.52 0-3.72-1.42-3.72-3.88m9.195-8.16c-.9 0-1.66-.76-1.66-1.66s.76-1.66 1.66-1.66 1.64.76 1.64 1.66-.74 1.66-1.64 1.66m-1.28 11.84v-10.08h2.54V486zm4.865-5.04c0-2.94 1.92-5.44 5.12-5.44 1.36 0 2.34.44 3.12 1.22v-.82h2.56v15h-2.56v-5.74c-.78.78-1.76 1.22-3.12 1.22-3.2 0-5.12-2.5-5.12-5.44m2.64 0c0 1.76 1.1 3.04 2.82 3.04 1.18 0 2.16-.52 2.78-1.44v-3.2c-.68-.94-1.64-1.44-2.78-1.44-1.72 0-2.82 1.28-2.82 3.04m17.845.68v-5.72h2.56v5.6c0 3.02-1.76 4.88-4.72 4.88s-4.7-1.86-4.7-4.88v-5.6h2.56v5.72c0 1.46.76 2.36 2.16 2.36 1.38 0 2.14-.9 2.14-2.36m14.652 2.72c-.94 1.26-2.5 2.04-4.4 2.04-3.58 0-5.6-2.5-5.6-5.44 0-2.98 1.88-5.44 5.18-5.44 2.8 0 4.64 1.9 4.64 4.54 0 .56-.08 1.08-.16 1.42h-7.06c.24 1.88 1.4 2.64 2.98 2.64 1.1 0 2.06-.48 2.6-1.2zm-4.88-6.76c-1.3 0-2.16.72-2.44 2.04h4.64c-.04-1.02-.78-2.04-2.2-2.04m6.166 6.94 1.68-1.52c.619.78 1.36 1.34 2.32 1.34.82 0 1.239-.48 1.239-1.08 0-1.76-4.819-1.1-4.819-4.64 0-1.78 1.5-3.12 3.6-3.12 1.54 0 2.94.74 3.66 1.72l-1.68 1.48c-.52-.64-1.18-1.16-1.96-1.16-.8 0-1.18.44-1.18.96 0 1.72 4.82 1.12 4.82 4.6-.04 2.12-1.74 3.28-3.64 3.28-1.8 0-3.08-.72-4.04-1.86m14.531 0 1.68-1.52c.62.78 1.36 1.34 2.32 1.34.82 0 1.24-.48 1.24-1.08 0-1.76-4.82-1.1-4.82-4.64 0-1.78 1.5-3.12 3.6-3.12 1.54 0 2.94.74 3.66 1.72l-1.68 1.48c-.52-.64-1.18-1.16-1.96-1.16-.8 0-1.18.44-1.18.96 0 1.72 4.82 1.12 4.82 4.6-.04 2.12-1.74 3.28-3.64 3.28-1.8 0-3.08-.72-4.04-1.86m16.66-2.9v-5.72h2.56v5.6c0 3.02-1.76 4.88-4.72 4.88s-4.7-1.86-4.7-4.88v-5.6h2.56v5.72c0 1.46.76 2.36 2.16 2.36 1.38 0 2.14-.9 2.14-2.36m5.372 4.36v-10.08h2.54v1c.66-.68 1.52-1.2 2.66-1.2.34 0 .64.06.88.14v2.5c-.32-.08-.66-.14-1.12-.14-1.24 0-2.04.68-2.42 1.32V486zm12.076-10.08h2.72l2.62 7.2 2.6-7.2h2.74l-3.68 10.08h-3.34zm16.962-.4c3.28 0 5.52 2.42 5.52 5.44s-2.24 5.44-5.52 5.44-5.52-2.42-5.52-5.44 2.24-5.44 5.52-5.44m.04 8.48c1.62 0 2.84-1.3 2.84-3.04 0-1.76-1.22-3.04-2.84-3.04-1.68 0-2.92 1.28-2.92 3.04s1.24 3.04 2.92 3.04m6.585.54 1.68-1.52c.62.78 1.36 1.34 2.32 1.34.82 0 1.24-.48 1.24-1.08 0-1.76-4.82-1.1-4.82-4.64 0-1.78 1.5-3.12 3.6-3.12 1.54 0 2.94.74 3.66 1.72l-1.68 1.48c-.52-.64-1.18-1.16-1.96-1.16-.8 0-1.18.44-1.18.96 0 1.72 4.82 1.12 4.82 4.6-.04 2.12-1.74 3.28-3.64 3.28-1.8 0-3.08-.72-4.04-1.86m18.251 1.76c-2.02 0-3.4-1.16-3.4-3.02 0-1.52 1.18-2.66 3.34-3.02l3.08-.52v-.26c0-1.06-.8-1.74-1.96-1.74-.98 0-1.74.46-2.28 1.2l-1.86-1.42c.9-1.24 2.38-2 4.22-2 2.92 0 4.42 1.74 4.42 3.96V486h-2.54v-.98c-.64.78-1.84 1.28-3.02 1.28m-.88-3.14c0 .68.54 1.12 1.4 1.12 1.16 0 2-.54 2.5-1.34v-1.42l-2.4.4c-1.06.18-1.5.62-1.5 1.24m14.189.84c1 0 1.8-.46 2.28-1.16l1.98 1.52c-.94 1.24-2.42 2.04-4.26 2.04-3.48 0-5.56-2.5-5.56-5.44s2.08-5.44 5.56-5.44c1.84 0 3.32.8 4.26 2.04l-1.98 1.52c-.48-.7-1.28-1.16-2.32-1.16-1.66 0-2.88 1.28-2.88 3.04 0 1.78 1.22 3.04 2.92 3.04m6.894-1.68v-4.12h-1.88v-2.28h1.88v-2.52h2.56v2.52h3.08v2.28h-3.08v4.12c0 1.12.6 1.56 1.6 1.56.7 0 1.16-.08 1.5-.22v2.22c-.5.22-1.1.32-1.94.32-2.52 0-3.72-1.42-3.72-3.88m9.194-8.16c-.9 0-1.66-.76-1.66-1.66s.76-1.66 1.66-1.66 1.64.76 1.64 1.66-.74 1.66-1.64 1.66m-1.28 11.84v-10.08h2.54V486zm4.146-10.08h2.72l2.62 7.2 2.6-7.2h2.74l-3.68 10.08h-3.34zm13.56-1.76c-.9 0-1.66-.76-1.66-1.66s.76-1.66 1.66-1.66 1.64.76 1.64 1.66-.74 1.66-1.64 1.66m-1.28 11.84v-10.08h2.54V486zm6.226-3.68v-4.12h-1.88v-2.28h1.88v-2.52h2.56v2.52h3.08v2.28h-3.08v4.12c0 1.12.6 1.56 1.6 1.56.7 0 1.16-.08 1.5-.22v2.22c-.5.22-1.1.32-1.94.32-2.52 0-3.72-1.42-3.72-3.88m13.579-8h-2.44l2.08-3.32h2.76zm3.42 10.04c-.94 1.26-2.5 2.04-4.4 2.04-3.58 0-5.6-2.5-5.6-5.44 0-2.98 1.88-5.44 5.18-5.44 2.8 0 4.64 1.9 4.64 4.54 0 .56-.08 1.08-.16 1.42h-7.06c.24 1.88 1.4 2.64 2.98 2.64 1.1 0 2.06-.48 2.6-1.2zm-4.88-6.76c-1.3 0-2.16.72-2.44 2.04h4.64c-.04-1.02-.78-2.04-2.2-2.04m6.166 6.94 1.68-1.52c.62.78 1.36 1.34 2.32 1.34.82 0 1.24-.48 1.24-1.08 0-1.76-4.82-1.1-4.82-4.64 0-1.78 1.5-3.12 3.6-3.12 1.54 0 2.94.74 3.66 1.72l-1.68 1.48c-.52-.64-1.18-1.16-1.96-1.16-.8 0-1.18.44-1.18.96 0 1.72 4.82 1.12 4.82 4.6-.04 2.12-1.74 3.28-3.64 3.28-1.8 0-3.08-.72-4.04-1.86" fill="#666"/><rect x="64" y="517" width="792" height="104" rx="16" fill="#F5F5FE"/><rect x="96" y="541" width="56" height="56" rx="8" fill="#fff"/><path fill-rule="evenodd" clip-rule="evenodd" d="M110.986 554.105a3.43 3.43 0 0 0-3.429 3.43 3.429 3.429 0 0 0 6.124 2.122.684.684 0 1 1 1.073.85 4.797 4.797 0 0 1-8.566-2.972 4.798 4.798 0 1 1 9.597 0 .685.685 0 1 1-1.369 0 3.43 3.43 0 0 0-3.43-3.43m26.022 0a3.43 3.43 0 0 0-3.43 3.43.685.685 0 0 1-1.369 0 4.798 4.798 0 1 1 9.597 0 4.798 4.798 0 0 1-8.591 2.939.685.685 0 0 1 1.082-.839 3.429 3.429 0 0 0 6.14-2.1 3.43 3.43 0 0 0-3.429-3.43" fill="#E1000F"/><path fill-rule="evenodd" clip-rule="evenodd" d="M116.47 568.503c0-.378.307-.685.685-.685h13.691a.685.685 0 0 1 0 1.37h-13.691a.685.685 0 0 1-.685-.685m7.53 2.024c.379 0 .685.307.685.685v15.102a.684.684 0 1 1-1.369 0v-15.102c0-.378.306-.685.684-.685m-19.161-2.715a4.097 4.097 0 0 1 4.101-4.101c2.267 0 4.1 1.833 4.1 4.101v4.093h3.471a3.376 3.376 0 0 1 3.375 3.375v.013a1 1 0 0 1 .007.097l.003.613v.003l.004.63v6.962a3.376 3.376 0 0 1-3.375 3.375h-.096a3.376 3.376 0 0 1-3.375-3.375v-4.833h-4.84a3.376 3.376 0 0 1-3.375-3.375zm13.685 7.677a1 1 0 0 1-.007-.099v-.11a2.006 2.006 0 0 0-2.006-2.006h-4.155a.685.685 0 0 1-.685-.684v-4.778a2.73 2.73 0 0 0-2.731-2.732 2.73 2.73 0 0 0-2.732 2.732v7.578c0 1.107.899 2.006 2.006 2.006h5.525c.378 0 .684.306.684.684v5.518c0 1.107.899 2.006 2.006 2.006h.096a2.007 2.007 0 0 0 2.006-2.006v-6.962l-.004-.621v-.011zm20.544-10.417a2.73 2.73 0 0 0-2.732 2.732v4.785a.684.684 0 0 1-.684.684h-4.155a2.006 2.006 0 0 0-2.006 2.006v.11a1 1 0 0 1-.007.099l-.003.509-.001.01-.003.621v6.962c0 1.107.898 2.006 2.006 2.006h.096a2.007 2.007 0 0 0 2.006-2.006v-5.518c0-.378.306-.684.684-.684h5.525a2.006 2.006 0 0 0 2.005-2.006v-7.578a2.73 2.73 0 0 0-2.731-2.732m-10.946 10.213v-.006a3.376 3.376 0 0 1 3.375-3.375h3.47v-4.1a4.097 4.097 0 0 1 4.101-4.101 4.1 4.1 0 0 1 4.101 4.101v7.578a3.376 3.376 0 0 1-3.375 3.375h-4.84v4.833a3.376 3.376 0 0 1-3.375 3.375h-.096a3.375 3.375 0 0 1-3.375-3.375v-6.962l.003-.63v-.002l.004-.614q0-.05.007-.097" fill="#000091"/><path d="M177.136 567.976v-13.464l-3.48 1.968-1.608-2.304 5.184-3h3.144v16.8zm7.225.024v-2.928l5.76-5.664c1.296-1.32 2.112-2.232 2.112-3.6 0-1.392-.96-2.208-2.28-2.208-1.608 0-2.592.984-3.48 2.472l-2.64-1.608c1.416-2.304 3.504-3.744 6.432-3.744s5.28 1.872 5.28 4.752c0 2.304-1.512 4.08-3.168 5.688l-4.056 3.912h7.656V568zm17.783-.024v-13.464l-3.48 1.968-1.608-2.304 5.184-3h3.144v16.8z" fill="#161616"/><path d="m172.378 591 3.906-9.8h1.764l3.906 9.8h-1.4l-1.134-2.884h-4.508L173.778 591zm2.968-4.018h3.64l-1.82-4.634zm11.457 3.178c.868 0 1.582-.42 2.016-1.036l.938.714c-.658.882-1.68 1.442-2.968 1.442-2.338 0-3.836-1.75-3.836-3.808s1.498-3.808 3.836-3.808c1.274 0 2.31.574 2.968 1.442l-.938.714a2.44 2.44 0 0 0-2.03-1.036c-1.512 0-2.59 1.19-2.59 2.688 0 1.512 1.078 2.688 2.604 2.688m7.56 0c.868 0 1.582-.42 2.016-1.036l.938.714c-.658.882-1.68 1.442-2.968 1.442-2.338 0-3.836-1.75-3.836-3.808s1.498-3.808 3.836-3.808c1.274 0 2.31.574 2.968 1.442l-.938.714a2.44 2.44 0 0 0-2.03-1.036c-1.512 0-2.59 1.19-2.59 2.688 0 1.512 1.078 2.688 2.604 2.688m7.533-6.496c2.268 0 3.822 1.75 3.822 3.808s-1.554 3.808-3.822 3.808c-2.282 0-3.822-1.75-3.822-3.808s1.54-3.808 3.822-3.808m.014 6.496c1.47 0 2.548-1.232 2.548-2.688 0-1.47-1.078-2.688-2.548-2.688-1.512 0-2.59 1.218-2.59 2.688s1.078 2.688 2.59 2.688m5.721.84v-7.056h1.19v.77c.532-.616 1.232-1.05 2.212-1.05 1.022 0 1.862.462 2.296 1.358.56-.77 1.302-1.358 2.52-1.358 1.512 0 2.618 1.008 2.618 2.926V591h-1.19v-4.368c0-1.176-.658-1.848-1.666-1.848-.896 0-1.526.504-1.988 1.33.014.154.028.308.028.476V591h-1.19v-4.368c0-1.176-.644-1.848-1.666-1.848-.966 0-1.568.602-1.974 1.33V591zm13.234 3.444v-10.5h1.19v.84c.63-.714 1.456-1.12 2.506-1.12 2.212 0 3.626 1.75 3.626 3.808s-1.414 3.808-3.626 3.808c-1.05 0-1.876-.406-2.506-1.12v4.284zm3.556-9.66c-.98 0-1.834.476-2.366 1.316v2.744c.546.854 1.4 1.316 2.366 1.316 1.498 0 2.52-1.19 2.52-2.688s-1.022-2.688-2.52-2.688m7.482 6.412c-1.386 0-2.324-.77-2.324-1.974 0-1.064.812-1.82 2.31-2.072l2.38-.392v-.49c0-.98-.7-1.54-1.708-1.54a2.29 2.29 0 0 0-1.904.98l-.896-.686c.616-.84 1.61-1.358 2.842-1.358 1.792 0 2.856 1.05 2.856 2.604V591h-1.19v-.896c-.532.686-1.456 1.092-2.366 1.092m-1.12-2.016c0 .602.49 1.036 1.316 1.036.938 0 1.708-.448 2.17-1.204v-1.386l-2.086.35c-.966.168-1.4.602-1.4 1.204m6.251 3.094c0-.714.35-1.288 1.05-1.778a1.28 1.28 0 0 1-.49-1.008c0-.56.294-1.022.84-1.372a2.43 2.43 0 0 1-.98-1.96c0-1.358 1.064-2.506 2.744-2.506.518 0 .98.112 1.358.294h2.618v1.036h-1.526c.196.35.294.756.294 1.176 0 1.344-1.05 2.492-2.744 2.492a3.6 3.6 0 0 1-.98-.14c-.294.21-.462.462-.462.728 0 .294.154.504.588.504h2.016c1.862 0 2.73.91 2.73 2.17 0 1.484-1.484 2.59-3.598 2.59-2.086 0-3.458-.812-3.458-2.226m3.178-4.564c1.022 0 1.61-.7 1.61-1.554 0-.868-.588-1.568-1.61-1.568-1.05 0-1.624.7-1.624 1.568s.574 1.554 1.624 1.554m-2.016 4.424c0 .854.882 1.372 2.282 1.372 1.484 0 2.422-.588 2.422-1.512 0-.672-.378-1.204-1.638-1.204h-2.282c-.49.364-.784.784-.784 1.344m7.429-1.134v-7.056h1.19v.798c.574-.63 1.302-1.078 2.352-1.078 1.582 0 2.758 1.064 2.758 3.066V591h-1.19v-4.228c0-1.26-.714-1.988-1.806-1.988-1.022 0-1.666.588-2.114 1.33V591zm14.968-1.162c-.658.882-1.708 1.442-3.024 1.442-2.38 0-3.85-1.75-3.85-3.808 0-2.142 1.372-3.808 3.556-3.808 1.918 0 3.164 1.344 3.164 3.08 0 .28-.042.546-.084.742h-5.418c.042 1.694 1.12 2.716 2.632 2.716.91 0 1.68-.42 2.142-1.05zm-3.346-5.166c-1.162 0-1.974.686-2.226 1.904h4.228c-.042-1.036-.756-1.904-2.002-1.904m5.208 6.328v-7.056h1.19v.77c.532-.616 1.232-1.05 2.212-1.05 1.022 0 1.862.462 2.296 1.358.56-.77 1.302-1.358 2.52-1.358 1.512 0 2.618 1.008 2.618 2.926V591h-1.19v-4.368c0-1.176-.658-1.848-1.666-1.848-.896 0-1.526.504-1.988 1.33.014.154.028.308.028.476V591h-1.19v-4.368c0-1.176-.644-1.848-1.666-1.848-.966 0-1.568.602-1.974 1.33V591zm19.507-1.162c-.658.882-1.708 1.442-3.024 1.442-2.38 0-3.85-1.75-3.85-3.808 0-2.142 1.372-3.808 3.556-3.808 1.918 0 3.164 1.344 3.164 3.08 0 .28-.042.546-.084.742h-5.418c.042 1.694 1.12 2.716 2.632 2.716.91 0 1.68-.42 2.142-1.05zm-3.346-5.166c-1.162 0-1.974.686-2.226 1.904h4.228c-.042-1.036-.756-1.904-2.002-1.904m5.208 6.328v-7.056h1.19v.798c.574-.63 1.302-1.078 2.352-1.078 1.582 0 2.758 1.064 2.758 3.066V591h-1.19v-4.228c0-1.26-.714-1.988-1.806-1.988-1.022 0-1.666.588-2.114 1.33V591zm9.102-2.366v-3.612h-1.33v-1.078h1.33v-1.764h1.204v1.764h2.45v1.078h-2.45v3.612c0 1.106.56 1.414 1.414 1.414.462 0 .784-.056 1.05-.168v1.064c-.336.14-.714.196-1.218.196-1.568 0-2.45-.784-2.45-2.506m4.717 1.4.84-.714c.49.616 1.078.966 1.792.966.784 0 1.232-.476 1.232-1.092 0-1.582-3.528-1.022-3.528-3.514 0-1.106.938-2.016 2.296-2.016 1.008 0 1.876.476 2.366 1.162l-.826.7c-.378-.532-.91-.868-1.526-.868-.756 0-1.162.448-1.162.994 0 1.582 3.542 1.078 3.542 3.486-.014 1.316-1.064 2.142-2.38 2.142-1.12 0-2.002-.448-2.646-1.246m11.338-7.924a.84.84 0 0 1-.84-.84.84.84 0 0 1 .84-.826c.462 0 .826.378.826.826a.83.83 0 0 1-.826.84m-.602 8.89v-7.056h1.19V591zm3.705 0v-7.056h1.19v.798c.574-.63 1.302-1.078 2.352-1.078 1.582 0 2.758 1.064 2.758 3.066V591h-1.19v-4.228c0-1.26-.714-1.988-1.806-1.988-1.022 0-1.666.588-2.114 1.33V591zm8.094-3.528c0-2.058 1.414-3.808 3.626-3.808 1.05 0 1.876.406 2.506 1.12V580.5h1.19V591h-1.19v-.84c-.63.714-1.456 1.12-2.506 1.12-2.212 0-3.626-1.75-3.626-3.808m1.26 0c0 1.498 1.008 2.688 2.506 2.688.98 0 1.848-.476 2.366-1.302v-2.772c-.546-.84-1.4-1.302-2.366-1.302-1.498 0-2.506 1.19-2.506 2.688m9.172-5.362a.84.84 0 0 1-.84-.84.84.84 0 0 1 .84-.826c.462 0 .826.378.826.826a.83.83 0 0 1-.826.84m-.602 8.89v-7.056h1.19V591zm2.641-7.056h1.288l2.254 5.81 2.254-5.81h1.288L336.975 591h-1.568zm9.145-1.834a.84.84 0 0 1-.84-.84.84.84 0 0 1 .84-.826c.462 0 .826.378.826.826a.83.83 0 0 1-.826.84m-.602 8.89v-7.056h1.19V591zm3.103-3.528c0-2.058 1.414-3.808 3.626-3.808 1.05 0 1.876.406 2.506 1.12V580.5h1.19V591h-1.19v-.84c-.63.714-1.456 1.12-2.506 1.12-2.212 0-3.626-1.75-3.626-3.808m1.26 0c0 1.498 1.008 2.688 2.506 2.688.98 0 1.848-.476 2.366-1.302v-2.772c-.546-.84-1.4-1.302-2.366-1.302-1.498 0-2.506 1.19-2.506 2.688m13.484.504v-4.032h1.19v3.99c0 2.114-1.218 3.346-3.136 3.346-1.904 0-3.122-1.232-3.122-3.346v-3.99h1.19v4.032c0 1.386.742 2.184 1.946 2.184 1.176 0 1.932-.798 1.932-2.184m9.807 1.862c-.658.882-1.708 1.442-3.024 1.442-2.38 0-3.85-1.75-3.85-3.808 0-2.142 1.372-3.808 3.556-3.808 1.918 0 3.164 1.344 3.164 3.08 0 .28-.042.546-.084.742h-5.418c.042 1.694 1.12 2.716 2.632 2.716.91 0 1.68-.42 2.142-1.05zm-3.346-5.166c-1.162 0-1.974.686-2.226 1.904h4.228c-.042-1.036-.756-1.904-2.002-1.904m5.209 6.328v-10.5h1.19V591zm2.895-.966.84-.714c.49.616 1.078.966 1.792.966.784 0 1.232-.476 1.232-1.092 0-1.582-3.528-1.022-3.528-3.514 0-1.106.938-2.016 2.296-2.016 1.008 0 1.876.476 2.366 1.162l-.826.7c-.378-.532-.91-.868-1.526-.868-.756 0-1.162.448-1.162.994 0 1.582 3.542 1.078 3.542 3.486-.014 1.316-1.064 2.142-2.38 2.142-1.12 0-2.002-.448-2.646-1.246" fill="#3A3A3A"/><rect x="472" y="541" width="56" height="56" rx="8" fill="#fff"/><g clip-path="url(#b)" fill-rule="evenodd" clip-rule="evenodd"><path d="m495.974 559.185-.334-.515a.613.613 0 0 0 .667 1.03m0 0 .003-.003.013-.008.051-.033.198-.124c.173-.107.42-.259.721-.435a31 31 0 0 1 2.238-1.201c.839-.4 1.662-.724 2.305-.849.325-.063.554-.066.698-.035.121.025.139.061.146.076l.001.002c.087.17.092.356-.13.66-.242.33-.697.702-1.346 1.1-1.289.79-3.109 1.547-4.803 2.245a.614.614 0 0 0-.361.716c.116.463.355 2.023.562 3.514.103.735.195 1.437.259 1.955l.029.24a2.7 2.7 0 0 0-.492.146 1.7 1.7 0 0 0-.677.477c-.209.255-.321.58-.292.954.024.322.198 1.73.396 3.321.115.926.237 1.913.342 2.783a.614.614 0 0 0 1.218-.146c-.111-.918-.238-1.944-.356-2.888-.191-1.542-.356-2.869-.378-3.162v-.002c-.004-.055.008-.07.017-.081l.001-.001a.5.5 0 0 1 .192-.12c.236-.097.543-.124.694-.124a.62.62 0 0 0 .546-.333c.041-.08.054-.15.058-.171.01-.053.011-.097.012-.11a5 5 0 0 0-.02-.294 29 29 0 0 0-.073-.639 125 125 0 0 0-.261-1.975 87 87 0 0 0-.48-3.12c1.549-.641 3.247-1.367 4.508-2.14.689-.422 1.309-.895 1.694-1.421.405-.553.592-1.237.234-1.94-.215-.423-.593-.639-.987-.722-.374-.079-.788-.046-1.185.031-.8.156-1.735.535-2.599.946-.873.417-1.713.887-2.332 1.251-.31.182-.567.339-.746.45l-.209.131-.055.036-.015.009-.005.004.333.515m-7.748 5.858c.373-.507.836-1.219 1.309-1.946zm1.309-1.946c.324-.497.652-1.002.96-1.454zm.96-1.454c.392-.576.757-1.076 1.068-1.428zm1.068-1.428q.234-.263.377-.369zm.377-.369q.048-.035.067-.045zm.067-.045a.613.613 0 0 0-.062-1.223c-.313 0-.575.162-.744.29a4 4 0 0 0-.558.536c-.364.412-.764.965-1.162 1.549-.346.507-.687 1.033-1.013 1.534-.449.692-.869 1.338-1.23 1.828-.272.37-.523.818-.582 1.289-.031.245-.011.508.097.763.108.258.29.471.525.639a.613.613 0 0 0 .712-.999c-.075-.053-.098-.094-.107-.115a.3.3 0 0 1-.01-.136c.021-.164.128-.408.353-.713m3.272-3.005a.614.614 0 0 1 .47.729l-1.034 4.78c.255.078.488.192.683.33.33.232.725.664.661 1.219v.005c-.031.248-.417 3.55-.686 6.098a.614.614 0 0 1-1.22-.129c.257-2.428.619-5.536.681-6.058a.6.6 0 0 0-.142-.133 1.27 1.27 0 0 0-.714-.214.613.613 0 0 1-.599-.743l1.171-5.415a.613.613 0 0 1 .729-.469" fill="#000091"/><path d="M493.956 553.973a1.993 1.993 0 1 0 0 3.987 1.993 1.993 0 0 0 0-3.987m-3.219 1.993a3.219 3.219 0 1 1 6.437 0 3.219 3.219 0 0 1-6.437 0" fill="#E1000F"/><path d="M511.034 582.463c0-.339.274-.613.613-.613 2.588 0 4.013.815 4.771 1.763.37.462.556.926.65 1.279a3 3 0 0 1 .097.612l.001.015v.009l-.613.001h.613a.614.614 0 0 1-.613.613h-9.812a.613.613 0 0 1-.613-.613h.613l-.613-.001v-.011l.001-.017.002-.052q.004-.063.016-.167c.018-.136.053-.321.121-.536.135-.432.405-.988.938-1.498a.612.612 0 1 1 .849.885 2.3 2.3 0 0 0-.545.784h8.273a2.3 2.3 0 0 0-.322-.537c-.469-.586-1.497-1.303-3.814-1.303a.613.613 0 0 1-.613-.613m-11.633 0c0-.339.274-.613.613-.613 2.588 0 4.013.815 4.771 1.763.37.462.557.926.651 1.279a3 3 0 0 1 .095.57l.002.042v.024l-.613.001h.613a.614.614 0 0 1-.613.613h-9.811a.614.614 0 0 1-.614-.613h.614l-.614-.001v-.011l.001-.017.002-.052q.004-.063.016-.167c.018-.136.053-.321.121-.536.136-.432.406-.988.938-1.498a.612.612 0 1 1 .849.885 2.4 2.4 0 0 0-.545.784h8.273a2.3 2.3 0 0 0-.322-.537c-.469-.586-1.496-1.303-3.814-1.303a.613.613 0 0 1-.613-.613m-11.687 0c0-.339.274-.613.613-.613 2.588 0 4.013.815 4.771 1.763.37.462.556.926.65 1.279a3 3 0 0 1 .097.612l.001.015v.009l-.614.001h.614a.614.614 0 0 1-.614.613h-9.811a.614.614 0 0 1-.613-.613h.613l-.613-.001v-.011l.001-.017.002-.052q.004-.063.016-.167c.018-.136.053-.321.121-.536.135-.432.405-.988.938-1.498a.612.612 0 1 1 .849.885 2.3 2.3 0 0 0-.545.784h8.272a2.2 2.2 0 0 0-.322-.537c-.468-.586-1.496-1.303-3.813-1.303a.613.613 0 0 1-.613-.613m11.675-19.615c.339 0 .613.274.613.613v.631h9.805a.614.614 0 0 1 0 1.227h-10.418a.613.613 0 0 1-.613-.613v-1.245c0-.339.274-.613.613-.613m-.613-10.401c0-.338.274-.613.613-.613h17.164c.338 0 .613.275.613.613v12.258a.613.613 0 0 1-.613.613h-1.84a.612.612 0 1 1 0-1.226h1.226V553.06h-15.937v1.221a.613.613 0 0 1-1.226 0z" fill="#000091"/><path d="M487.714 577.274c0-.338.274-.613.613-.613 1.78 0 3.219 1.44 3.219 3.219 0 1.78-1.439 3.22-3.219 3.22a3.217 3.217 0 0 1-3.219-3.22.613.613 0 0 1 1.226 0 1.99 1.99 0 0 0 1.993 1.993 1.99 1.99 0 0 0 1.993-1.993 1.99 1.99 0 0 0-1.993-1.992.613.613 0 0 1-.613-.614m12.3.614a1.993 1.993 0 1 0 0 3.986 1.993 1.993 0 0 0 0-3.986m-3.219 1.992a3.219 3.219 0 1 1 6.437 0 3.219 3.219 0 0 1-6.437 0m14.852-1.992a1.99 1.99 0 0 0-1.993 1.992 1.99 1.99 0 0 0 1.993 1.993 1.99 1.99 0 0 0 1.993-1.993.613.613 0 0 1 1.226 0c0 1.78-1.439 3.22-3.219 3.22a3.217 3.217 0 0 1-3.219-3.22 3.217 3.217 0 0 1 3.219-3.219.613.613 0 0 1 0 1.227" fill="#E1000F"/></g><path d="M548.864 563.536v-2.928l7.2-9.408h3.792v9.408h1.704v2.928h-1.704V568h-3.24v-4.464zm3.336-2.928h4.416v-5.736z" fill="#161616"/><path d="m548.378 591 3.906-9.8h1.764l3.906 9.8h-1.4l-1.134-2.884h-4.508L549.778 591zm2.968-4.018h3.64l-1.82-4.634zm8.437 1.652v-3.612h-1.33v-1.078h1.33v-1.764h1.204v1.764h2.45v1.078h-2.45v3.612c0 1.106.56 1.414 1.414 1.414.462 0 .784-.056 1.05-.168v1.064c-.336.14-.714.196-1.218.196-1.568 0-2.45-.784-2.45-2.506m11.608 1.204c-.658.882-1.708 1.442-3.024 1.442-2.38 0-3.85-1.75-3.85-3.808 0-2.142 1.372-3.808 3.556-3.808 1.918 0 3.164 1.344 3.164 3.08 0 .28-.042.546-.084.742h-5.418c.042 1.694 1.12 2.716 2.632 2.716.91 0 1.68-.42 2.142-1.05zm-3.346-5.166c-1.162 0-1.974.686-2.226 1.904h4.228c-.042-1.036-.756-1.904-2.002-1.904m5.209 6.328v-10.5h1.19V591zm4.307-8.89a.84.84 0 0 1-.84-.84.84.84 0 0 1 .84-.826c.462 0 .826.378.826.826a.83.83 0 0 1-.826.84m-.602 8.89v-7.056h1.19V591zm9.977-1.162c-.658.882-1.708 1.442-3.024 1.442-2.38 0-3.85-1.75-3.85-3.808 0-2.142 1.372-3.808 3.556-3.808 1.918 0 3.164 1.344 3.164 3.08 0 .28-.042.546-.084.742h-5.418c.042 1.694 1.12 2.716 2.632 2.716.91 0 1.68-.42 2.142-1.05zm-3.346-5.166c-1.162 0-1.974.686-2.226 1.904h4.228c-.042-1.036-.756-1.904-2.002-1.904m5.209 6.328v-7.056h1.19v.882c.518-.616 1.162-1.022 2.058-1.022.224 0 .434.028.602.084v1.162a2.6 2.6 0 0 0-.7-.084c-.924 0-1.526.476-1.96 1.19V591zm4.809-.966.84-.714c.49.616 1.078.966 1.792.966.784 0 1.232-.476 1.232-1.092 0-1.582-3.528-1.022-3.528-3.514 0-1.106.938-2.016 2.296-2.016 1.008 0 1.876.476 2.366 1.162l-.826.7c-.378-.532-.91-.868-1.526-.868-.756 0-1.162.448-1.162.994 0 1.582 3.542 1.078 3.542 3.486-.014 1.316-1.064 2.142-2.38 2.142-1.12 0-2.002-.448-2.646-1.246m13.984.126c.868 0 1.582-.42 2.016-1.036l.938.714c-.658.882-1.68 1.442-2.968 1.442-2.338 0-3.836-1.75-3.836-3.808s1.498-3.808 3.836-3.808c1.274 0 2.31.574 2.968 1.442l-.938.714a2.44 2.44 0 0 0-2.03-1.036c-1.512 0-2.59 1.19-2.59 2.688 0 1.512 1.078 2.688 2.604 2.688m7.533-6.496c2.268 0 3.822 1.75 3.822 3.808s-1.554 3.808-3.822 3.808c-2.282 0-3.822-1.75-3.822-3.808s1.54-3.808 3.822-3.808m.014 6.496c1.47 0 2.548-1.232 2.548-2.688 0-1.47-1.078-2.688-2.548-2.688-1.512 0-2.59 1.218-2.59 2.688s1.078 2.688 2.59 2.688m5.721.84v-10.5h1.19V591zm3.705 0v-10.5h1.19V591zm9.977-1.162c-.658.882-1.708 1.442-3.024 1.442-2.38 0-3.85-1.75-3.85-3.808 0-2.142 1.372-3.808 3.556-3.808 1.918 0 3.164 1.344 3.164 3.08 0 .28-.042.546-.084.742h-5.418c.042 1.694 1.12 2.716 2.632 2.716.91 0 1.68-.42 2.142-1.05zm-3.346-5.166c-1.162 0-1.974.686-2.226 1.904h4.228c-.042-1.036-.756-1.904-2.002-1.904m8.429 5.488c.868 0 1.582-.42 2.016-1.036l.938.714c-.658.882-1.68 1.442-2.968 1.442-2.338 0-3.836-1.75-3.836-3.808s1.498-3.808 3.836-3.808c1.274 0 2.31.574 2.968 1.442l-.938.714a2.44 2.44 0 0 0-2.03-1.036c-1.512 0-2.59 1.19-2.59 2.688 0 1.512 1.078 2.688 2.604 2.688m4.965-1.526v-3.612h-1.33v-1.078h1.33v-1.764h1.204v1.764h2.45v1.078h-2.45v3.612c0 1.106.56 1.414 1.414 1.414.462 0 .784-.056 1.05-.168v1.064c-.336.14-.714.196-1.218.196-1.568 0-2.45-.784-2.45-2.506m6.075-6.524a.84.84 0 0 1-.84-.84.84.84 0 0 1 .84-.826c.462 0 .826.378.826.826a.83.83 0 0 1-.826.84m-.602 8.89v-7.056h1.19V591zm2.781-7.056h1.33v-.868c0-1.498.966-2.576 2.506-2.576.644 0 1.162.182 1.554.406l-.532.994a1.62 1.62 0 0 0-.994-.322c-.798 0-1.33.546-1.33 1.47v.896h2.45v1.078h-2.45V591h-1.204v-5.978h-1.33zm5.431 6.09.84-.714c.49.616 1.078.966 1.792.966.784 0 1.232-.476 1.232-1.092 0-1.582-3.528-1.022-3.528-3.514 0-1.106.938-2.016 2.296-2.016 1.008 0 1.876.476 2.366 1.162l-.826.7c-.378-.532-.91-.868-1.526-.868-.756 0-1.162.448-1.162.994 0 1.582 3.542 1.078 3.542 3.486-.014 1.316-1.064 2.142-2.38 2.142-1.12 0-2.002-.448-2.646-1.246" fill="#3A3A3A"/><rect x="64.5" y="645.5" width="791" height="283" rx="15.5" fill="#fff"/><rect x="64.5" y="645.5" width="791" height="283" rx="15.5" stroke="#DDD"/><path d="M96.496 686.864V684.8h9.184v2.064h-3.456V696h-2.272v-9.136zM107.404 696v-12h2.032v4.576c.56-.544 1.312-.96 2.384-.96 1.744 0 3.136 1.2 3.136 3.584v4.8h-2.048v-4.72c0-1.072-.592-1.744-1.6-1.744-1.024 0-1.568.688-1.872 1.2V696zm14.547-9.344h-1.952l1.664-2.656h2.208zm2.736 8.032c-.752 1.008-2 1.632-3.52 1.632-2.864 0-4.48-2-4.48-4.352 0-2.384 1.504-4.352 4.144-4.352 2.24 0 3.712 1.52 3.712 3.632 0 .448-.064.864-.128 1.136h-5.648c.192 1.504 1.12 2.112 2.384 2.112.88 0 1.648-.384 2.08-.96zm-3.904-5.408c-1.04 0-1.728.576-1.952 1.632h3.712c-.032-.816-.624-1.632-1.76-1.632m5.746 6.72v-8.064h2.032v.608c.544-.528 1.232-.928 2.224-.928 1.024 0 1.92.448 2.448 1.312.576-.704 1.344-1.312 2.704-1.312 1.664 0 2.976 1.152 2.976 3.424V696h-2.048v-4.88c0-.976-.528-1.584-1.44-1.584-.88 0-1.36.608-1.68 1.152.015.112.015.224.015.352V696h-2.047v-4.88c0-.976-.528-1.584-1.44-1.584-.928 0-1.408.688-1.712 1.2V696zm16.975.24c-1.616 0-2.72-.928-2.72-2.416 0-1.216.944-2.128 2.672-2.416l2.464-.416v-.208c0-.848-.64-1.392-1.568-1.392-.784 0-1.392.368-1.824.96l-1.488-1.136c.72-.992 1.904-1.6 3.376-1.6 2.336 0 3.536 1.392 3.536 3.168V696h-2.032v-.784c-.512.624-1.472 1.024-2.416 1.024m-.704-2.512c0 .544.432.896 1.12.896.928 0 1.6-.432 2-1.072v-1.136l-1.92.32c-.848.144-1.2.496-1.2.992m7.991-.672v-3.296h-1.504v-1.824h1.504v-2.016h2.048v2.016h2.464v1.824h-2.464v3.296c0 .896.48 1.248 1.28 1.248.56 0 .928-.064 1.2-.176v1.776c-.4.176-.88.256-1.553.256-2.015 0-2.975-1.136-2.975-3.104m7.355-6.528c-.72 0-1.328-.608-1.328-1.328s.608-1.328 1.328-1.328 1.312.608 1.312 1.328-.592 1.328-1.312 1.328M157.122 696v-8.064h2.032V696zm3.893-4.032c0-2.352 1.536-4.352 4.096-4.352 1.088 0 1.872.352 2.496.976v-.656h2.048v12h-2.048v-4.592c-.624.624-1.408.976-2.496.976-2.56 0-4.096-2-4.096-4.352m2.112 0c0 1.408.88 2.432 2.256 2.432.944 0 1.728-.416 2.224-1.152v-2.56c-.544-.752-1.312-1.152-2.224-1.152-1.376 0-2.256 1.024-2.256 2.432m14.276.544v-4.576h2.048v4.48c0 2.416-1.408 3.904-3.776 3.904s-3.76-1.488-3.76-3.904v-4.48h2.048v4.576c0 1.168.608 1.888 1.728 1.888 1.104 0 1.712-.72 1.712-1.888m11.721 2.176c-.752 1.008-2 1.632-3.52 1.632-2.864 0-4.48-2-4.48-4.352 0-2.384 1.504-4.352 4.144-4.352 2.24 0 3.712 1.52 3.712 3.632 0 .448-.064.864-.128 1.136h-5.648c.192 1.504 1.12 2.112 2.384 2.112.88 0 1.648-.384 2.08-.96zm-3.904-5.408c-1.04 0-1.728.576-1.952 1.632h3.712c-.032-.816-.624-1.632-1.76-1.632m4.933 5.552 1.344-1.216c.496.624 1.088 1.072 1.856 1.072.656 0 .992-.384.992-.864 0-1.408-3.856-.88-3.856-3.712 0-1.424 1.2-2.496 2.88-2.496 1.232 0 2.352.592 2.928 1.376l-1.344 1.184c-.416-.512-.944-.928-1.568-.928-.64 0-.944.352-.944.768 0 1.376 3.856.896 3.856 3.68-.032 1.696-1.392 2.624-2.912 2.624-1.44 0-2.464-.576-3.232-1.488m11.753-2.864c0-2.352 1.552-4.352 4.096-4.352 1.088 0 1.872.336 2.496.96V684h2.048v12h-2.048v-.64c-.624.624-1.408.96-2.496.96-2.544 0-4.096-2-4.096-4.352m2.128 0c0 1.408.88 2.432 2.256 2.432.912 0 1.664-.384 2.208-1.12v-2.624c-.544-.736-1.296-1.12-2.208-1.12-1.376 0-2.256 1.024-2.256 2.432m16.372 2.72c-.752 1.008-2 1.632-3.52 1.632-2.864 0-4.48-2-4.48-4.352 0-2.384 1.504-4.352 4.144-4.352 2.24 0 3.712 1.52 3.712 3.632 0 .448-.064.864-.128 1.136h-5.648c.192 1.504 1.12 2.112 2.384 2.112.88 0 1.648-.384 2.08-.96zm-3.904-5.408c-1.04 0-1.728.576-1.952 1.632h3.712c-.032-.816-.624-1.632-1.76-1.632m4.932 5.552 1.344-1.216c.496.624 1.088 1.072 1.856 1.072.656 0 .992-.384.992-.864 0-1.408-3.856-.88-3.856-3.712 0-1.424 1.2-2.496 2.88-2.496 1.232 0 2.352.592 2.928 1.376l-1.344 1.184c-.416-.512-.944-.928-1.568-.928-.64 0-.944.352-.944.768 0 1.376 3.856.896 3.856 3.68-.032 1.696-1.392 2.624-2.912 2.624-1.44 0-2.464-.576-3.232-1.488m14.601 1.408c-1.616 0-2.72-.928-2.72-2.416 0-1.216.944-2.128 2.672-2.416l2.464-.416v-.208c0-.848-.64-1.392-1.568-1.392-.784 0-1.392.368-1.824.96l-1.488-1.136c.72-.992 1.904-1.6 3.376-1.6 2.336 0 3.536 1.392 3.536 3.168V696h-2.032v-.784c-.512.624-1.472 1.024-2.416 1.024m-.704-2.512c0 .544.432.896 1.12.896.928 0 1.6-.432 2-1.072v-1.136l-1.92.32c-.848.144-1.2.496-1.2.992m11.351.672c.8 0 1.44-.368 1.824-.928l1.584 1.216c-.752.992-1.936 1.632-3.408 1.632-2.784 0-4.448-2-4.448-4.352s1.664-4.352 4.448-4.352c1.472 0 2.656.64 3.408 1.632l-1.584 1.216c-.384-.56-1.024-.928-1.856-.928-1.328 0-2.304 1.024-2.304 2.432 0 1.424.976 2.432 2.336 2.432m5.515-1.344v-3.296h-1.504v-1.824h1.504v-2.016h2.048v2.016h2.464v1.824h-2.464v3.296c0 .896.48 1.248 1.28 1.248.56 0 .928-.064 1.2-.176v1.776c-.4.176-.88.256-1.552.256-2.016 0-2.976-1.136-2.976-3.104m7.356-6.528c-.72 0-1.328-.608-1.328-1.328s.608-1.328 1.328-1.328 1.312.608 1.312 1.328-.592 1.328-1.312 1.328M258.529 696v-8.064h2.032V696zm3.316-8.064h2.176l2.096 5.76 2.08-5.76h2.192L267.445 696h-2.672zm10.848-1.408c-.72 0-1.328-.608-1.328-1.328s.608-1.328 1.328-1.328 1.312.608 1.312 1.328-.592 1.328-1.312 1.328M271.669 696v-8.064h2.032V696zm4.981-2.944v-3.296h-1.504v-1.824h1.504v-2.016h2.048v2.016h2.464v1.824h-2.464v3.296c0 .896.48 1.248 1.28 1.248.56 0 .928-.064 1.2-.176v1.776c-.4.176-.88.256-1.552.256-2.016 0-2.976-1.136-2.976-3.104m10.863-6.4h-1.952l1.664-2.656h2.208zm2.736 8.032c-.752 1.008-2 1.632-3.52 1.632-2.864 0-4.48-2-4.48-4.352 0-2.384 1.504-4.352 4.144-4.352 2.24 0 3.712 1.52 3.712 3.632 0 .448-.064.864-.128 1.136h-5.648c.192 1.504 1.12 2.112 2.384 2.112.88 0 1.648-.384 2.08-.96zm-3.904-5.408c-1.04 0-1.728.576-1.952 1.632h3.712c-.032-.816-.624-1.632-1.76-1.632m4.933 5.552 1.344-1.216c.496.624 1.088 1.072 1.856 1.072.656 0 .992-.384.992-.864 0-1.408-3.856-.88-3.856-3.712 0-1.424 1.2-2.496 2.88-2.496 1.232 0 2.352.592 2.928 1.376l-1.344 1.184c-.416-.512-.944-.928-1.568-.928-.64 0-.944.352-.944.768 0 1.376 3.856.896 3.856 3.68-.032 1.696-1.392 2.624-2.912 2.624-1.44 0-2.464-.576-3.232-1.488" fill="#3A3A3A"/><rect x="422.5" y="677.5" width="377" height="31" rx="3.5" stroke="#DDD"/><rect x="422.5" y="677.5" width="169" height="31" rx="3.5" stroke="#000091"/><path d="M435.518 699v-9.8h2.03l2.716 4.592 2.744-4.592h2.03v9.8h-1.61v-7.588l-2.562 4.228h-1.176l-2.576-4.256V699zm15.9-8.176h-1.4l1.456-2.324h1.596zm2.562 7.028c-.658.882-1.736 1.428-3.052 1.428-2.436 0-3.878-1.75-3.878-3.808 0-2.114 1.344-3.808 3.584-3.808 1.946 0 3.206 1.33 3.206 3.122 0 .322-.042.644-.098.854h-5.208c.098 1.54 1.036 2.338 2.394 2.338.854 0 1.568-.378 2.002-.966zm-3.374-4.984c-1.05 0-1.778.602-2.002 1.694h3.794c-.028-.882-.658-1.694-1.792-1.694m4.524 2.604c0-2.058 1.386-3.808 3.612-3.808 1.008 0 1.764.364 2.352.994V688.5h1.47V699h-1.47v-.714c-.588.63-1.344.994-2.352.994-2.226 0-3.612-1.75-3.612-3.808m1.526 0c0 1.386.91 2.45 2.268 2.45.91 0 1.694-.434 2.17-1.176v-2.548c-.518-.77-1.288-1.176-2.17-1.176-1.358 0-2.268 1.064-2.268 2.45m8.963-5.096a.99.99 0 0 1-.98-.98c0-.532.448-.98.98-.98s.98.448.98.98-.448.98-.98.98m-.728 8.624v-7.056h1.442V699zm5.747.21c-1.4 0-2.352-.798-2.352-2.044 0-1.064.826-1.834 2.324-2.086l2.282-.378v-.364c0-.868-.644-1.4-1.554-1.4-.77 0-1.372.35-1.778.924l-1.078-.826c.63-.84 1.638-1.372 2.898-1.372 1.904 0 2.954 1.12 2.954 2.674V699h-1.442v-.798c-.504.616-1.386 1.008-2.254 1.008m-.896-2.1c0 .546.434.924 1.162.924.882 0 1.568-.42 1.988-1.092v-1.218l-1.904.322c-.882.154-1.246.532-1.246 1.064m7.272-.56v-3.304h-1.33v-1.302h1.33v-1.764h1.456v1.764h2.338v1.302h-2.338v3.304c0 .952.504 1.26 1.288 1.26.476 0 .798-.056 1.05-.154v1.274c-.336.14-.728.21-1.274.21-1.652 0-2.52-.868-2.52-2.59m6.242-6.174a.99.99 0 0 1-.98-.98c0-.532.448-.98.98-.98s.98.448.98.98-.448.98-.98.98m-.728 8.624v-7.056h1.442V699zm7.076-7.336c2.296 0 3.836 1.722 3.836 3.808s-1.54 3.808-3.836 3.808c-2.282 0-3.836-1.722-3.836-3.808s1.554-3.808 3.836-3.808m.014 6.258c1.33 0 2.31-1.106 2.31-2.45 0-1.372-.98-2.45-2.31-2.45-1.358 0-2.338 1.092-2.338 2.45s.98 2.45 2.338 2.45m5.624 1.078v-7.056h1.442v.686c.532-.56 1.232-.966 2.24-.966 1.554 0 2.744 1.05 2.744 3.094V699h-1.456v-4.186c0-1.12-.616-1.792-1.624-1.792-.966 0-1.54.602-1.904 1.218V699zm12.442 0v-7.056h1.442v.686c.532-.56 1.232-.966 2.24-.966 1.554 0 2.744 1.05 2.744 3.094V699h-1.456v-4.186c0-1.12-.616-1.792-1.624-1.792-.966 0-1.54.602-1.904 1.218V699zm13.456-3.024v-4.032h1.456v3.962c0 2.114-1.218 3.374-3.192 3.374-1.988 0-3.206-1.26-3.206-3.374v-3.962h1.456v4.032c0 1.218.644 1.946 1.75 1.946 1.078 0 1.736-.728 1.736-1.946m3.647 3.024v-7.056h1.442v.658c.504-.546 1.162-.938 2.1-.938.966 0 1.778.434 2.226 1.274.546-.7 1.246-1.274 2.464-1.274 1.47 0 2.604 1.008 2.604 2.954V699h-1.456v-4.326c0-1.036-.574-1.652-1.484-1.652-.84 0-1.386.532-1.764 1.204.014.126.014.252.014.392V699h-1.456v-4.326c0-1.036-.56-1.652-1.484-1.652-.896 0-1.428.616-1.764 1.218V699zm16.879-8.176h-1.4l1.456-2.324h1.596zm2.562 7.028c-.658.882-1.736 1.428-3.052 1.428-2.436 0-3.878-1.75-3.878-3.808 0-2.114 1.344-3.808 3.584-3.808 1.946 0 3.206 1.33 3.206 3.122 0 .322-.042.644-.098.854h-5.208c.098 1.54 1.036 2.338 2.394 2.338.854 0 1.568-.378 2.002-.966zm-3.374-4.984c-1.05 0-1.778.602-2.002 1.694h3.794c-.028-.882-.658-1.694-1.792-1.694m5.125 6.132v-7.056h1.442v.798c.49-.546 1.106-.938 1.974-.938.224 0 .434.042.616.098v1.414a3 3 0 0 0-.742-.098c-.896 0-1.484.476-1.848 1.078V699zm6.347-8.624a.99.99 0 0 1-.98-.98c0-.532.448-.98.98-.98s.98.448.98.98-.448.98-.98.98m-.728 8.624v-7.056h1.442V699zm3.241-3.528c0-2.058 1.386-3.808 3.598-3.808 1.022 0 1.778.364 2.366 1.008v-.728h1.47v10.5h-1.47v-4.172c-.588.644-1.344 1.008-2.366 1.008-2.212 0-3.598-1.75-3.598-3.808m1.512 0c0 1.386.91 2.45 2.268 2.45.924 0 1.708-.434 2.184-1.176v-2.548c-.518-.77-1.288-1.176-2.184-1.176-1.358 0-2.268 1.064-2.268 2.45m13.051.504v-4.032h1.456v3.962c0 2.114-1.218 3.374-3.192 3.374-1.988 0-3.206-1.26-3.206-3.374v-3.962h1.456v4.032c0 1.218.644 1.946 1.75 1.946 1.078 0 1.736-.728 1.736-1.946m10.017 1.876c-.658.882-1.736 1.428-3.052 1.428-2.436 0-3.878-1.75-3.878-3.808 0-2.114 1.344-3.808 3.584-3.808 1.946 0 3.206 1.33 3.206 3.122 0 .322-.042.644-.098.854h-5.208c.098 1.54 1.036 2.338 2.394 2.338.854 0 1.568-.378 2.002-.966zm-3.374-4.984c-1.05 0-1.778.602-2.002 1.694h3.794c-.028-.882-.658-1.694-1.792-1.694" fill="#000091"/><path d="M605.787 699v-9.8h3.808c3.08 0 5.166 2.254 5.166 4.9s-2.086 4.9-5.166 4.9zm3.822-8.33h-2.226v6.86h2.226c2.03 0 3.486-1.526 3.486-3.43 0-1.918-1.456-3.43-3.486-3.43m10.861.154h-1.4l1.456-2.324h1.596zm2.562 7.028c-.658.882-1.736 1.428-3.052 1.428-2.436 0-3.878-1.75-3.878-3.808 0-2.114 1.344-3.808 3.584-3.808 1.946 0 3.206 1.33 3.206 3.122 0 .322-.042.644-.098.854h-5.208c.098 1.54 1.036 2.338 2.394 2.338.854 0 1.568-.378 2.002-.966zm-3.374-4.984c-1.05 0-1.778.602-2.002 1.694h3.794c-.028-.882-.658-1.694-1.792-1.694m5.125 6.132v-7.056h1.442v.658c.504-.546 1.162-.938 2.1-.938.966 0 1.778.434 2.226 1.274.546-.7 1.246-1.274 2.464-1.274 1.47 0 2.604 1.008 2.604 2.954V699h-1.456v-4.326c0-1.036-.574-1.652-1.484-1.652-.84 0-1.386.532-1.764 1.204.014.126.014.252.014.392V699h-1.456v-4.326c0-1.036-.56-1.652-1.484-1.652-.896 0-1.428.616-1.764 1.218V699zm15.017.21c-1.4 0-2.352-.798-2.352-2.044 0-1.064.826-1.834 2.324-2.086l2.282-.378v-.364c0-.868-.644-1.4-1.554-1.4-.77 0-1.372.35-1.778.924l-1.078-.826c.63-.84 1.638-1.372 2.898-1.372 1.904 0 2.954 1.12 2.954 2.674V699h-1.442v-.798c-.504.616-1.386 1.008-2.254 1.008m-.896-2.1c0 .546.434.924 1.162.924.882 0 1.568-.42 1.988-1.092v-1.218l-1.904.322c-.882.154-1.246.532-1.246 1.064m6.852 1.89v-7.056h1.442v.798c.49-.546 1.106-.938 1.974-.938.224 0 .434.042.616.098v1.414a3 3 0 0 0-.742-.098c-.896 0-1.484.476-1.848 1.078V699zm8.554-1.078a2.23 2.23 0 0 0 1.834-.938l1.134.868c-.644.868-1.68 1.428-2.982 1.428-2.366 0-3.85-1.75-3.85-3.808s1.484-3.808 3.85-3.808c1.288 0 2.338.56 2.982 1.428l-1.134.868a2.24 2.24 0 0 0-1.848-.938c-1.358 0-2.338 1.064-2.338 2.45 0 1.4.98 2.45 2.352 2.45m4.475 1.078v-10.5h1.442v4.13c.532-.56 1.232-.966 2.24-.966 1.568 0 2.744 1.05 2.744 3.094V699h-1.456v-4.186c0-1.12-.616-1.792-1.624-1.792-.966 0-1.526.602-1.904 1.218V699zm15.038-1.148c-.658.882-1.736 1.428-3.052 1.428-2.436 0-3.878-1.75-3.878-3.808 0-2.114 1.344-3.808 3.584-3.808 1.946 0 3.206 1.33 3.206 3.122 0 .322-.042.644-.098.854h-5.208c.098 1.54 1.036 2.338 2.394 2.338.854 0 1.568-.378 2.002-.966zm-3.374-4.984c-1.05 0-1.778.602-2.002 1.694h3.794c-.028-.882-.658-1.694-1.792-1.694m4.343 5.138.994-.868c.462.588 1.022.966 1.722.966.686 0 1.064-.42 1.064-.952 0-1.428-3.458-.91-3.458-3.402 0-1.162.98-2.086 2.394-2.086 1.036 0 1.946.504 2.45 1.176l-.98.854c-.378-.504-.868-.854-1.456-.854-.672 0-1.008.392-1.008.868 0 1.414 3.458.938 3.458 3.36-.014 1.386-1.134 2.212-2.45 2.212-1.19 0-2.072-.476-2.73-1.274m12.709 1.204c-1.4 0-2.352-.798-2.352-2.044 0-1.064.826-1.834 2.324-2.086l2.282-.378v-.364c0-.868-.644-1.4-1.554-1.4-.77 0-1.372.35-1.778.924l-1.078-.826c.63-.84 1.638-1.372 2.898-1.372 1.904 0 2.954 1.12 2.954 2.674V699h-1.442v-.798c-.504.616-1.386 1.008-2.254 1.008m-.896-2.1c0 .546.434.924 1.162.924.882 0 1.568-.42 1.988-1.092v-1.218l-1.904.322c-.882.154-1.246.532-1.246 1.064m6.292-1.638c0-2.058 1.386-3.808 3.612-3.808 1.008 0 1.764.364 2.352.994V688.5h1.47V699h-1.47v-.714c-.588.63-1.344.994-2.352.994-2.226 0-3.612-1.75-3.612-3.808m1.526 0c0 1.386.91 2.45 2.268 2.45.91 0 1.694-.434 2.17-1.176v-2.548c-.518-.77-1.288-1.176-2.17-1.176-1.358 0-2.268 1.064-2.268 2.45m8.235 3.528v-7.056h1.442v.658c.504-.546 1.162-.938 2.1-.938.966 0 1.778.434 2.226 1.274.546-.7 1.246-1.274 2.464-1.274 1.47 0 2.604 1.008 2.604 2.954V699h-1.456v-4.326c0-1.036-.574-1.652-1.484-1.652-.84 0-1.386.532-1.764 1.204.014.126.014.252.014.392V699h-1.456v-4.326c0-1.036-.56-1.652-1.484-1.652-.896 0-1.428.616-1.764 1.218V699zm13.799-8.624a.99.99 0 0 1-.98-.98c0-.532.448-.98.98-.98s.98.448.98.98-.448.98-.98.98m-.728 8.624v-7.056h1.442V699zm3.801 0v-7.056h1.442v.686c.532-.56 1.232-.966 2.24-.966 1.554 0 2.744 1.05 2.744 3.094V699H724.5v-4.186c0-1.12-.616-1.792-1.624-1.792-.966 0-1.54.602-1.904 1.218V699zm9.395-8.624a.99.99 0 0 1-.98-.98c0-.532.448-.98.98-.98s.98.448.98.98-.448.98-.98.98m-.728 8.624v-7.056h1.442V699zm3.019-.994.994-.868c.462.588 1.022.966 1.722.966.686 0 1.064-.42 1.064-.952 0-1.428-3.458-.91-3.458-3.402 0-1.162.98-2.086 2.394-2.086 1.036 0 1.946.504 2.45 1.176l-.98.854c-.378-.504-.868-.854-1.456-.854-.672 0-1.008.392-1.008.868 0 1.414 3.458.938 3.458 3.36-.014 1.386-1.134 2.212-2.45 2.212-1.19 0-2.072-.476-2.73-1.274m7.491-1.456v-3.304h-1.33v-1.302h1.33v-1.764h1.456v1.764h2.338v1.302h-2.338v3.304c0 .952.504 1.26 1.288 1.26.476 0 .798-.056 1.05-.154v1.274c-.336.14-.728.21-1.274.21-1.652 0-2.52-.868-2.52-2.59m5.514 2.45v-7.056h1.442v.798c.49-.546 1.106-.938 1.974-.938.224 0 .434.042.616.098v1.414a3 3 0 0 0-.742-.098c-.896 0-1.484.476-1.848 1.078V699zm7.237.21c-1.4 0-2.352-.798-2.352-2.044 0-1.064.826-1.834 2.324-2.086l2.282-.378v-.364c0-.868-.644-1.4-1.554-1.4-.77 0-1.372.35-1.778.924l-1.078-.826c.63-.84 1.638-1.372 2.898-1.372 1.904 0 2.954 1.12 2.954 2.674V699h-1.442v-.798c-.504.616-1.386 1.008-2.254 1.008m-.896-2.1c0 .546.434.924 1.162.924.882 0 1.568-.42 1.988-1.092v-1.218l-1.904.322c-.882.154-1.246.532-1.246 1.064m7.272-.56v-3.304h-1.33v-1.302h1.33v-1.764h1.456v1.764h2.338v1.302h-2.338v3.304c0 .952.504 1.26 1.288 1.26.476 0 .798-.056 1.05-.154v1.274c-.336.14-.728.21-1.274.21-1.652 0-2.52-.868-2.52-2.59m6.242-6.174a.99.99 0 0 1-.98-.98c0-.532.448-.98.98-.98s.98.448.98.98-.448.98-.98.98m-.728 8.624v-7.056h1.442V699zm2.765-7.056h1.554l2.072 5.488 2.058-5.488h1.568L770.691 699h-1.918zm14.829 5.908c-.658.882-1.736 1.428-3.052 1.428-2.436 0-3.878-1.75-3.878-3.808 0-2.114 1.344-3.808 3.584-3.808 1.946 0 3.206 1.33 3.206 3.122 0 .322-.042.644-.098.854h-5.208c.098 1.54 1.036 2.338 2.394 2.338.854 0 1.568-.378 2.002-.966zm-3.374-4.984c-1.05 0-1.778.602-2.002 1.694h3.794c-.028-.882-.658-1.694-1.792-1.694m4.344 5.138.994-.868c.462.588 1.022.966 1.722.966.686 0 1.064-.42 1.064-.952 0-1.428-3.458-.91-3.458-3.402 0-1.162.98-2.086 2.394-2.086 1.036 0 1.946.504 2.45 1.176l-.98.854c-.378-.504-.868-.854-1.456-.854-.672 0-1.008.392-1.008.868 0 1.414 3.458.938 3.458 3.36-.014 1.386-1.134 2.212-2.45 2.212-1.19 0-2.072-.476-2.73-1.274" fill="#161616"/><rect x="96" y="733" width="248" height="16" rx="8" fill="#F6F6F6"/><path d="M359.731 734.504c1.818 0 3.06 1.314 3.06 3.006s-1.242 3.006-3.06 3.006c-1.836 0-3.096-1.314-3.096-3.006s1.26-3.006 3.096-3.006m-2.034 12.978 9.252-12.6h2.34l-9.252 12.6zm2.034-8.496c.792 0 1.368-.612 1.368-1.476 0-.882-.576-1.476-1.368-1.476-.81 0-1.386.594-1.386 1.476s.576 1.476 1.386 1.476m7.596 2.844c1.818 0 3.06 1.314 3.06 3.006s-1.242 3.006-3.06 3.006c-1.836 0-3.096-1.314-3.096-3.006s1.26-3.006 3.096-3.006m0 4.482c.792 0 1.368-.612 1.368-1.476 0-.882-.576-1.476-1.368-1.476-.81 0-1.386.594-1.386 1.476s.576 1.476 1.386 1.476" fill="#666"/><g clip-path="url(#c)"><rect x="419" y="735" width="405" height="12" rx="6" fill="#F5F5FE"/><rect x="419" y="735" width="375" height="12" rx="6" fill="#68A532"/><path fill="#F5F5FE" d="M794 735h30v12h-30z"/></g><rect x="96" y="761" width="248" height="16" rx="8" fill="#F6F6F6"/><path d="M359.731 762.504c1.818 0 3.06 1.314 3.06 3.006s-1.242 3.006-3.06 3.006c-1.836 0-3.096-1.314-3.096-3.006s1.26-3.006 3.096-3.006m-2.034 12.978 9.252-12.6h2.34l-9.252 12.6zm2.034-8.496c.792 0 1.368-.612 1.368-1.476 0-.882-.576-1.476-1.368-1.476-.81 0-1.386.594-1.386 1.476s.576 1.476 1.386 1.476m7.596 2.844c1.818 0 3.06 1.314 3.06 3.006s-1.242 3.006-3.06 3.006c-1.836 0-3.096-1.314-3.096-3.006s1.26-3.006 3.096-3.006m0 4.482c.792 0 1.368-.612 1.368-1.476 0-.882-.576-1.476-1.368-1.476-.81 0-1.386.594-1.386 1.476s.576 1.476 1.386 1.476" fill="#666"/><g clip-path="url(#d)"><rect x="419" y="763" width="405" height="12" rx="6" fill="#F5F5FE"/><rect x="419" y="763" width="489" height="12" rx="6" fill="#465F9D"/></g><rect x="96" y="789" width="248" height="16" rx="8" fill="#F6F6F6"/><path d="M359.731 790.504c1.818 0 3.06 1.314 3.06 3.006s-1.242 3.006-3.06 3.006c-1.836 0-3.096-1.314-3.096-3.006s1.26-3.006 3.096-3.006m-2.034 12.978 9.252-12.6h2.34l-9.252 12.6zm2.034-8.496c.792 0 1.368-.612 1.368-1.476 0-.882-.576-1.476-1.368-1.476-.81 0-1.386.594-1.386 1.476s.576 1.476 1.386 1.476m7.596 2.844c1.818 0 3.06 1.314 3.06 3.006s-1.242 3.006-3.06 3.006c-1.836 0-3.096-1.314-3.096-3.006s1.26-3.006 3.096-3.006m0 4.482c.792 0 1.368-.612 1.368-1.476 0-.882-.576-1.476-1.368-1.476-.81 0-1.386.594-1.386 1.476s.576 1.476 1.386 1.476" fill="#666"/><g clip-path="url(#e)"><rect x="419" y="791" width="405" height="12" rx="6" fill="#F5F5FE"/><rect x="419" y="791" width="280" height="12" rx="6" fill="#A558A0"/><path fill="#F5F5FE" d="M699 791h125v12H699z"/></g><rect x="96" y="817" width="248" height="16" rx="8" fill="#F6F6F6"/><path d="M359.731 818.504c1.818 0 3.06 1.314 3.06 3.006s-1.242 3.006-3.06 3.006c-1.836 0-3.096-1.314-3.096-3.006s1.26-3.006 3.096-3.006m-2.034 12.978 9.252-12.6h2.34l-9.252 12.6zm2.034-8.496c.792 0 1.368-.612 1.368-1.476 0-.882-.576-1.476-1.368-1.476-.81 0-1.386.594-1.386 1.476s.576 1.476 1.386 1.476m7.596 2.844c1.818 0 3.06 1.314 3.06 3.006s-1.242 3.006-3.06 3.006c-1.836 0-3.096-1.314-3.096-3.006s1.26-3.006 3.096-3.006m0 4.482c.792 0 1.368-.612 1.368-1.476 0-.882-.576-1.476-1.368-1.476-.81 0-1.386.594-1.386 1.476s.576 1.476 1.386 1.476" fill="#666"/><g clip-path="url(#f)"><rect x="419" y="819" width="405" height="12" rx="6" fill="#F5F5FE"/><rect x="419" y="819" width="362" height="12" rx="6" fill="#E18B76"/><path fill="#F5F5FE" d="M781 819h43v12h-43z"/></g><rect x="96" y="845" width="248" height="16" rx="8" fill="#F6F6F6"/><path d="M359.731 846.504c1.818 0 3.06 1.314 3.06 3.006s-1.242 3.006-3.06 3.006c-1.836 0-3.096-1.314-3.096-3.006s1.26-3.006 3.096-3.006m-2.034 12.978 9.252-12.6h2.34l-9.252 12.6zm2.034-8.496c.792 0 1.368-.612 1.368-1.476 0-.882-.576-1.476-1.368-1.476-.81 0-1.386.594-1.386 1.476s.576 1.476 1.386 1.476m7.596 2.844c1.818 0 3.06 1.314 3.06 3.006s-1.242 3.006-3.06 3.006c-1.836 0-3.096-1.314-3.096-3.006s1.26-3.006 3.096-3.006m0 4.482c.792 0 1.368-.612 1.368-1.476 0-.882-.576-1.476-1.368-1.476-.81 0-1.386.594-1.386 1.476s.576 1.476 1.386 1.476" fill="#666"/><g clip-path="url(#g)"><rect x="419" y="847" width="405" height="12" rx="6" fill="#F5F5FE"/><rect x="419" y="847" width="55" height="12" rx="6" fill="#C8AA39"/><path fill="#F5F5FE" d="M474 847h350v12H474z"/></g><rect x="96" y="873" width="248" height="16" rx="8" fill="#F6F6F6"/><path d="M359.731 874.504c1.818 0 3.06 1.314 3.06 3.006s-1.242 3.006-3.06 3.006c-1.836 0-3.096-1.314-3.096-3.006s1.26-3.006 3.096-3.006m-2.034 12.978 9.252-12.6h2.34l-9.252 12.6zm2.034-8.496c.792 0 1.368-.612 1.368-1.476 0-.882-.576-1.476-1.368-1.476-.81 0-1.386.594-1.386 1.476s.576 1.476 1.386 1.476m7.596 2.844c1.818 0 3.06 1.314 3.06 3.006s-1.242 3.006-3.06 3.006c-1.836 0-3.096-1.314-3.096-3.006s1.26-3.006 3.096-3.006m0 4.482c.792 0 1.368-.612 1.368-1.476 0-.882-.576-1.476-1.368-1.476-.81 0-1.386.594-1.386 1.476s.576 1.476 1.386 1.476" fill="#666"/><g clip-path="url(#h)"><rect x="419" y="875" width="405" height="12" rx="6" fill="#F5F5FE"/><rect x="419" y="875" width="249" height="12" rx="6" fill="#E4794A"/><path fill="#F5F5FE" d="M668 875h156v12H668z"/></g><rect x="64.5" y="953.5" width="791" height="211" rx="15.5" fill="#fff"/><rect x="64.5" y="953.5" width="791" height="211" rx="15.5" stroke="#E5E5E5"/><path d="M102.64 1002.19c1.28 0 2.288-.62 2.928-1.53l1.792 1.37c-1.024 1.39-2.688 2.29-4.72 2.29-3.536 0-5.952-2.72-5.952-5.92s2.416-5.92 5.952-5.92c2.032 0 3.696.912 4.72 2.272l-1.792 1.392c-.64-.912-1.648-1.536-2.928-1.536-2.112 0-3.616 1.648-3.616 3.792 0 2.14 1.504 3.79 3.616 3.79m8.536 2.05c-1.616 0-2.72-.93-2.72-2.42 0-1.21.944-2.124 2.672-2.412l2.464-.416v-.208c0-.848-.64-1.392-1.568-1.392-.784 0-1.392.368-1.824.96l-1.488-1.136c.72-.992 1.904-1.6 3.376-1.6 2.336 0 3.536 1.392 3.536 3.168V1004h-2.032v-.78c-.512.62-1.472 1.02-2.416 1.02m-.704-2.51c0 .54.432.89 1.12.89.928 0 1.6-.43 2-1.07v-1.13l-1.92.32c-.848.14-1.2.49-1.2.99m7.478 2.27v-8.064h2.032v.64c.56-.544 1.312-.96 2.384-.96 1.744 0 3.136 1.2 3.136 3.584v4.8h-2.048v-4.72c0-1.072-.608-1.744-1.6-1.744-1.024 0-1.568.688-1.872 1.2V1004zm12.132.24c-1.616 0-2.72-.93-2.72-2.42 0-1.21.944-2.124 2.672-2.412l2.464-.416v-.208c0-.848-.64-1.392-1.568-1.392-.784 0-1.392.368-1.824.96l-1.488-1.136c.72-.992 1.904-1.6 3.376-1.6 2.336 0 3.536 1.392 3.536 3.168V1004h-2.032v-.78c-.512.62-1.472 1.02-2.416 1.02m-.704-2.51c0 .54.432.89 1.12.89.928 0 1.6-.43 2-1.07v-1.13l-1.92.32c-.848.14-1.2.49-1.2.99m12.791-1.22v-4.574h2.048v4.484c0 2.41-1.408 3.9-3.776 3.9s-3.76-1.49-3.76-3.9v-4.484h2.048v4.574c0 1.17.608 1.89 1.728 1.89 1.104 0 1.712-.72 1.712-1.89m5.519 3.49h-2.336l2.848-4.144-2.688-3.92h2.32l1.664 2.48 1.664-2.48h2.336l-2.704 3.92 2.848 4.144h-2.32l-1.824-2.7zm11.233-4.032c0-2.352 1.552-4.352 4.096-4.352 1.088 0 1.872.336 2.496.96V992h2.048v12h-2.048v-.64c-.624.62-1.408.96-2.496.96-2.544 0-4.096-2-4.096-4.352m2.128 0c0 1.412.88 2.432 2.256 2.432.912 0 1.664-.38 2.208-1.12v-2.624c-.544-.736-1.296-1.12-2.208-1.12-1.376 0-2.256 1.024-2.256 2.432m16.372 2.722c-.752 1.01-2 1.63-3.52 1.63-2.864 0-4.48-2-4.48-4.352 0-2.384 1.504-4.352 4.144-4.352 2.24 0 3.712 1.52 3.712 3.632 0 .448-.064.862-.128 1.132h-5.648c.192 1.51 1.12 2.12 2.384 2.12.88 0 1.648-.39 2.08-.96zm-3.904-5.41c-1.04 0-1.728.576-1.952 1.632h3.712c-.032-.816-.624-1.632-1.76-1.632m4.933 5.55 1.344-1.21c.495.62 1.088 1.07 1.856 1.07.656 0 .991-.39.991-.87 0-1.4-3.855-.88-3.855-3.708 0-1.424 1.2-2.496 2.88-2.496 1.232 0 2.352.592 2.928 1.376l-1.344 1.184c-.416-.512-.944-.928-1.568-.928-.64 0-.944.352-.944.768 0 1.376 3.856.896 3.856 3.684-.032 1.69-1.392 2.62-2.912 2.62-1.44 0-2.464-.58-3.232-1.49m14.601 1.41c-1.616 0-2.72-.93-2.72-2.42 0-1.21.944-2.124 2.672-2.412l2.464-.416v-.208c0-.848-.64-1.392-1.568-1.392-.784 0-1.392.368-1.824.96l-1.488-1.136c.72-.992 1.904-1.6 3.376-1.6 2.336 0 3.536 1.392 3.536 3.168V1004h-2.032v-.78c-.512.62-1.472 1.02-2.416 1.02m-.704-2.51c0 .54.432.89 1.12.89.928 0 1.6-.43 2-1.07v-1.13l-1.92.32c-.848.14-1.2.49-1.2.99m11.35.67c.8 0 1.44-.37 1.824-.93l1.584 1.22c-.752.99-1.936 1.63-3.408 1.63-2.784 0-4.448-2-4.448-4.352s1.664-4.352 4.448-4.352c1.472 0 2.656.64 3.408 1.632l-1.584 1.216c-.384-.56-1.024-.928-1.856-.928-1.328 0-2.304 1.024-2.304 2.432 0 1.422.976 2.432 2.336 2.432m5.515-1.34v-3.3h-1.504v-1.824h1.504v-2.016h2.048v2.016h2.464v1.824h-2.464v3.3c0 .89.48 1.24 1.28 1.24.56 0 .928-.06 1.2-.17v1.77c-.4.18-.88.26-1.552.26-2.016 0-2.976-1.14-2.976-3.1m7.356-6.532c-.72 0-1.328-.608-1.328-1.328s.608-1.328 1.328-1.328 1.312.608 1.312 1.328-.592 1.328-1.312 1.328m-1.024 9.472v-8.064h2.032V1004zm3.317-8.064h2.176l2.096 5.764 2.08-5.764h2.192l-2.944 8.064h-2.672zm10.848-1.408c-.72 0-1.328-.608-1.328-1.328s.608-1.328 1.328-1.328 1.312.608 1.312 1.328-.592 1.328-1.312 1.328m-1.024 9.472v-8.064h2.032V1004zm4.981-2.94v-3.3h-1.504v-1.824h1.504v-2.016h2.048v2.016h2.464v1.824h-2.464v3.3c0 .89.48 1.24 1.28 1.24.56 0 .928-.06 1.2-.17v1.77c-.4.18-.88.26-1.553.26-2.015 0-2.975-1.14-2.975-3.1m10.863-6.404h-1.952l1.664-2.656h2.208zm2.736 8.034c-.752 1.01-2 1.63-3.52 1.63-2.864 0-4.48-2-4.48-4.352 0-2.384 1.504-4.352 4.144-4.352 2.24 0 3.712 1.52 3.712 3.632 0 .448-.064.862-.128 1.132h-5.648c.192 1.51 1.12 2.12 2.384 2.12.88 0 1.648-.39 2.08-.96zm-3.904-5.41c-1.04 0-1.728.576-1.952 1.632h3.712c-.032-.816-.624-1.632-1.76-1.632m4.932 5.55 1.344-1.21c.496.62 1.088 1.07 1.856 1.07.656 0 .992-.39.992-.87 0-1.4-3.856-.88-3.856-3.708 0-1.424 1.2-2.496 2.88-2.496 1.232 0 2.352.592 2.928 1.376l-1.344 1.184c-.416-.512-.944-.928-1.568-.928-.64 0-.944.352-.944.768 0 1.376 3.856.896 3.856 3.684-.032 1.69-1.392 2.62-2.912 2.62-1.44 0-2.464-.58-3.232-1.49" fill="#3A3A3A"/><path d="M167 1075a31.02 31.02 0 0 1-19.137 28.64 30.94 30.94 0 0 1-17.911 1.76" stroke="#009099" stroke-width="18"/><path d="M105 1075a31 31 0 0 1 19.137-28.64 30.93 30.93 0 0 1 17.91-1.76 30.9 30.9 0 0 1 15.873 8.48 30.99 30.99 0 0 1 6.72 33.78" stroke="#006A6F" stroke-width="18"/><path d="M136 1106a31.05 31.05 0 0 1-17.223-5.22 31 31 0 0 1-11.417-13.92 31 31 0 0 1-1.764-17.91 31 31 0 0 1 8.484-15.87 30.9 30.9 0 0 1 15.872-8.48" stroke="#C7F6FC" stroke-width="18"/><path d="M142.048 1105.4a30.94 30.94 0 0 1-17.911-1.76A31 31 0 0 1 105 1075" stroke="#60E0EB" stroke-width="18"/><circle cx="214" cy="1033" r="6" fill="#C7F6FC"/><rect x="232" y="1025" width="169" height="16" rx="8" fill="#F6F6F6"/><path d="M416.731 1026.5c1.818 0 3.06 1.32 3.06 3.01s-1.242 3.01-3.06 3.01c-1.836 0-3.096-1.32-3.096-3.01s1.26-3.01 3.096-3.01m-2.034 12.98 9.252-12.6h2.34l-9.252 12.6zm2.034-8.49c.792 0 1.368-.62 1.368-1.48 0-.88-.576-1.48-1.368-1.48-.81 0-1.386.6-1.386 1.48s.576 1.48 1.386 1.48m7.596 2.84c1.818 0 3.06 1.31 3.06 3.01 0 1.69-1.242 3-3.06 3-1.836 0-3.096-1.31-3.096-3 0-1.7 1.26-3.01 3.096-3.01m0 4.48c.792 0 1.368-.61 1.368-1.47 0-.89-.576-1.48-1.368-1.48-.81 0-1.386.59-1.386 1.48 0 .88.576 1.47 1.386 1.47" fill="#666"/><circle cx="214" cy="1061" r="6" fill="#60E0EB"/><rect x="232" y="1053" width="169" height="16" rx="8" fill="#F6F6F6"/><path d="M416.731 1054.5c1.818 0 3.06 1.32 3.06 3.01s-1.242 3.01-3.06 3.01c-1.836 0-3.096-1.32-3.096-3.01s1.26-3.01 3.096-3.01m-2.034 12.98 9.252-12.6h2.34l-9.252 12.6zm2.034-8.49c.792 0 1.368-.62 1.368-1.48 0-.88-.576-1.48-1.368-1.48-.81 0-1.386.6-1.386 1.48s.576 1.48 1.386 1.48m7.596 2.84c1.818 0 3.06 1.31 3.06 3.01 0 1.69-1.242 3-3.06 3-1.836 0-3.096-1.31-3.096-3 0-1.7 1.26-3.01 3.096-3.01m0 4.48c.792 0 1.368-.61 1.368-1.47 0-.89-.576-1.48-1.368-1.48-.81 0-1.386.59-1.386 1.48 0 .88.576 1.47 1.386 1.47" fill="#666"/><circle cx="214" cy="1089" r="6" fill="#009099"/><rect x="232" y="1081" width="169" height="16" rx="8" fill="#F6F6F6"/><path d="M416.731 1082.5c1.818 0 3.06 1.32 3.06 3.01s-1.242 3.01-3.06 3.01c-1.836 0-3.096-1.32-3.096-3.01s1.26-3.01 3.096-3.01m-2.034 12.98 9.252-12.6h2.34l-9.252 12.6zm2.034-8.49c.792 0 1.368-.62 1.368-1.48 0-.88-.576-1.48-1.368-1.48-.81 0-1.386.6-1.386 1.48s.576 1.48 1.386 1.48m7.596 2.84c1.818 0 3.06 1.31 3.06 3.01 0 1.69-1.242 3-3.06 3-1.836 0-3.096-1.31-3.096-3 0-1.7 1.26-3.01 3.096-3.01m0 4.48c.792 0 1.368-.61 1.368-1.47 0-.89-.576-1.48-1.368-1.48-.81 0-1.386.59-1.386 1.48 0 .88.576 1.47 1.386 1.47" fill="#666"/><circle cx="214" cy="1117" r="6" fill="#006A6F"/><rect x="232" y="1109" width="169" height="16" rx="8" fill="#F6F6F6"/><path d="M416.731 1110.5c1.818 0 3.06 1.32 3.06 3.01s-1.242 3.01-3.06 3.01c-1.836 0-3.096-1.32-3.096-3.01s1.26-3.01 3.096-3.01m-2.034 12.98 9.252-12.6h2.34l-9.252 12.6zm2.034-8.49c.792 0 1.368-.62 1.368-1.48 0-.88-.576-1.48-1.368-1.48-.81 0-1.386.6-1.386 1.48s.576 1.48 1.386 1.48m7.596 2.84c1.818 0 3.06 1.31 3.06 3.01 0 1.69-1.242 3-3.06 3-1.836 0-3.096-1.31-3.096-3 0-1.7 1.26-3.01 3.096-3.01m0 4.48c.792 0 1.368-.61 1.368-1.47 0-.89-.576-1.48-1.368-1.48-.81 0-1.386.59-1.386 1.48 0 .88.576 1.47 1.386 1.47" fill="#666"/><path d="M493.648 1004v-11.2h4.4c3.552 0 5.952 2.576 5.952 5.6 0 3.02-2.4 5.6-5.952 5.6zm4.432-9.136h-2.16v7.076h2.16c2.08 0 3.584-1.56 3.584-3.54 0-2-1.504-3.536-3.584-3.536m13.151 5.646v-4.574h2.048v4.484c0 2.41-1.408 3.9-3.776 3.9s-3.76-1.49-3.76-3.9v-4.484h2.048v4.574c0 1.17.608 1.89 1.728 1.89 1.104 0 1.712-.72 1.712-1.89m4.298 3.49v-8.064h2.032v.8c.528-.544 1.216-.96 2.128-.96.272 0 .512.048.704.112v2a3.5 3.5 0 0 0-.896-.112c-.992 0-1.632.544-1.936 1.056V1004zm10.844-9.344h-1.952l1.664-2.656h2.208zm2.736 8.034c-.752 1.01-2 1.63-3.52 1.63-2.864 0-4.48-2-4.48-4.352 0-2.384 1.504-4.352 4.144-4.352 2.24 0 3.712 1.52 3.712 3.632 0 .448-.064.862-.128 1.132h-5.648c.192 1.51 1.12 2.12 2.384 2.12.88 0 1.648-.39 2.08-.96zm-3.904-5.41c-1.04 0-1.728.576-1.952 1.632h3.712c-.032-.816-.624-1.632-1.76-1.632m13.107 5.41c-.752 1.01-2 1.63-3.52 1.63-2.864 0-4.48-2-4.48-4.352 0-2.384 1.504-4.352 4.144-4.352 2.24 0 3.712 1.52 3.712 3.632 0 .448-.064.862-.128 1.132h-5.648c.192 1.51 1.12 2.12 2.384 2.12.88 0 1.648-.39 2.08-.96zm-3.904-5.41c-1.04 0-1.728.576-1.952 1.632h3.712c-.032-.816-.624-1.632-1.76-1.632m4.932 5.55 1.344-1.21c.496.62 1.088 1.07 1.856 1.07.656 0 .992-.39.992-.87 0-1.4-3.856-.88-3.856-3.708 0-1.424 1.2-2.496 2.88-2.496 1.232 0 2.352.592 2.928 1.376l-1.344 1.184c-.416-.512-.944-.928-1.568-.928-.64 0-.944.352-.944.768 0 1.376 3.856.896 3.856 3.684-.032 1.69-1.392 2.62-2.912 2.62-1.44 0-2.464-.58-3.232-1.49m11.753-2.862c0-2.352 1.552-4.352 4.096-4.352 1.088 0 1.872.336 2.496.96V992h2.048v12h-2.048v-.64c-.624.62-1.408.96-2.496.96-2.544 0-4.096-2-4.096-4.352m2.128 0c0 1.412.88 2.432 2.256 2.432.912 0 1.664-.38 2.208-1.12v-2.624c-.544-.736-1.296-1.12-2.208-1.12-1.376 0-2.256 1.024-2.256 2.432m16.372 2.722c-.752 1.01-2 1.63-3.52 1.63-2.864 0-4.48-2-4.48-4.352 0-2.384 1.504-4.352 4.144-4.352 2.24 0 3.712 1.52 3.712 3.632 0 .448-.064.862-.128 1.132h-5.648c.192 1.51 1.12 2.12 2.384 2.12.88 0 1.648-.39 2.08-.96zm-3.904-5.41c-1.04 0-1.728.576-1.952 1.632h3.712c-.032-.816-.624-1.632-1.76-1.632m4.932 5.55 1.344-1.21c.496.62 1.088 1.07 1.856 1.07.656 0 .992-.39.992-.87 0-1.4-3.856-.88-3.856-3.708 0-1.424 1.2-2.496 2.88-2.496 1.232 0 2.352.592 2.928 1.376l-1.344 1.184c-.416-.512-.944-.928-1.568-.928-.64 0-.944.352-.944.768 0 1.376 3.856.896 3.856 3.684-.032 1.69-1.392 2.62-2.912 2.62-1.44 0-2.464-.58-3.232-1.49m14.601 1.41c-1.616 0-2.72-.93-2.72-2.42 0-1.21.944-2.124 2.672-2.412l2.464-.416v-.208c0-.848-.64-1.392-1.568-1.392-.784 0-1.392.368-1.824.96l-1.488-1.136c.72-.992 1.904-1.6 3.376-1.6 2.336 0 3.536 1.392 3.536 3.168V1004h-2.032v-.78c-.512.62-1.472 1.02-2.416 1.02m-.704-2.51c0 .54.432.89 1.12.89.928 0 1.6-.43 2-1.07v-1.13l-1.92.32c-.848.14-1.2.49-1.2.99m11.351.67c.8 0 1.44-.37 1.824-.93l1.584 1.22c-.752.99-1.936 1.63-3.408 1.63-2.784 0-4.448-2-4.448-4.352s1.664-4.352 4.448-4.352c1.472 0 2.656.64 3.408 1.632l-1.584 1.216c-.384-.56-1.024-.928-1.856-.928-1.328 0-2.304 1.024-2.304 2.432 0 1.422.976 2.432 2.336 2.432m5.515-1.34v-3.3h-1.504v-1.824h1.504v-2.016h2.048v2.016h2.464v1.824h-2.464v3.3c0 .89.48 1.24 1.28 1.24.56 0 .928-.06 1.2-.17v1.77c-.4.18-.88.26-1.552.26-2.016 0-2.976-1.14-2.976-3.1m7.356-6.532c-.72 0-1.328-.608-1.328-1.328s.608-1.328 1.328-1.328 1.312.608 1.312 1.328-.592 1.328-1.312 1.328m-1.024 9.472v-8.064h2.032V1004zm3.317-8.064h2.176l2.096 5.764 2.08-5.764h2.192l-2.944 8.064h-2.672zm10.848-1.408c-.72 0-1.328-.608-1.328-1.328s.608-1.328 1.328-1.328 1.312.608 1.312 1.328-.592 1.328-1.312 1.328m-1.024 9.472v-8.064h2.032V1004zm4.98-2.94v-3.3h-1.504v-1.824h1.504v-2.016h2.048v2.016h2.464v1.824h-2.464v3.3c0 .89.48 1.24 1.28 1.24.56 0 .928-.06 1.2-.17v1.77c-.4.18-.88.26-1.552.26-2.016 0-2.976-1.14-2.976-3.1m10.864-6.404h-1.952l1.664-2.656h2.208zm2.736 8.034c-.752 1.01-2 1.63-3.52 1.63-2.864 0-4.48-2-4.48-4.352 0-2.384 1.504-4.352 4.144-4.352 2.24 0 3.712 1.52 3.712 3.632 0 .448-.064.862-.128 1.132h-5.648c.192 1.51 1.12 2.12 2.384 2.12.88 0 1.648-.39 2.08-.96zm-3.904-5.41c-1.04 0-1.728.576-1.952 1.632h3.712c-.032-.816-.624-1.632-1.76-1.632m4.932 5.55 1.344-1.21c.496.62 1.088 1.07 1.856 1.07.656 0 .992-.39.992-.87 0-1.4-3.856-.88-3.856-3.708 0-1.424 1.2-2.496 2.88-2.496 1.232 0 2.352.592 2.928 1.376l-1.344 1.184c-.416-.512-.944-.928-1.568-.928-.64 0-.944.352-.944.768 0 1.376 3.856.896 3.856 3.684-.032 1.69-1.392 2.62-2.912 2.62-1.44 0-2.464-.58-3.232-1.49" fill="#3A3A3A"/><path d="M563 1075a31.02 31.02 0 0 1-19.137 28.64 30.94 30.94 0 0 1-17.911 1.76" stroke="#C08C65" stroke-width="18"/><path d="M501 1075a31 31 0 0 1 19.137-28.64 30.93 30.93 0 0 1 17.91-1.76 30.9 30.9 0 0 1 15.873 8.48 30.99 30.99 0 0 1 6.72 33.78" stroke="#855D48" stroke-width="18"/><path d="M532 1106a31.05 31.05 0 0 1-17.223-5.22 31 31 0 0 1-11.417-13.92 31 31 0 0 1-1.764-17.91 31 31 0 0 1 8.484-15.87 30.9 30.9 0 0 1 15.872-8.48" stroke="#F7EBE5" stroke-width="18"/><path d="M538.048 1105.4a30.94 30.94 0 0 1-17.911-1.76A31 31 0 0 1 501 1075" stroke="#EAC7B2" stroke-width="18"/><circle cx="610" cy="1033" r="6" fill="#F7EBE5"/><rect x="628" y="1025" width="169" height="16" rx="8" fill="#F6F6F6"/><path d="M812.731 1026.5c1.818 0 3.06 1.32 3.06 3.01s-1.242 3.01-3.06 3.01c-1.836 0-3.096-1.32-3.096-3.01s1.26-3.01 3.096-3.01m-2.034 12.98 9.252-12.6h2.34l-9.252 12.6zm2.034-8.49c.792 0 1.368-.62 1.368-1.48 0-.88-.576-1.48-1.368-1.48-.81 0-1.386.6-1.386 1.48s.576 1.48 1.386 1.48m7.596 2.84c1.818 0 3.06 1.31 3.06 3.01 0 1.69-1.242 3-3.06 3-1.836 0-3.096-1.31-3.096-3 0-1.7 1.26-3.01 3.096-3.01m0 4.48c.792 0 1.368-.61 1.368-1.47 0-.89-.576-1.48-1.368-1.48-.81 0-1.386.59-1.386 1.48 0 .88.576 1.47 1.386 1.47" fill="#666"/><circle cx="610" cy="1061" r="6" fill="#EAC7B2"/><rect x="628" y="1053" width="169" height="16" rx="8" fill="#F6F6F6"/><path d="M812.731 1054.5c1.818 0 3.06 1.32 3.06 3.01s-1.242 3.01-3.06 3.01c-1.836 0-3.096-1.32-3.096-3.01s1.26-3.01 3.096-3.01m-2.034 12.98 9.252-12.6h2.34l-9.252 12.6zm2.034-8.49c.792 0 1.368-.62 1.368-1.48 0-.88-.576-1.48-1.368-1.48-.81 0-1.386.6-1.386 1.48s.576 1.48 1.386 1.48m7.596 2.84c1.818 0 3.06 1.31 3.06 3.01 0 1.69-1.242 3-3.06 3-1.836 0-3.096-1.31-3.096-3 0-1.7 1.26-3.01 3.096-3.01m0 4.48c.792 0 1.368-.61 1.368-1.47 0-.89-.576-1.48-1.368-1.48-.81 0-1.386.59-1.386 1.48 0 .88.576 1.47 1.386 1.47" fill="#666"/><circle cx="610" cy="1089" r="6" fill="#C08C65"/><rect x="628" y="1081" width="169" height="16" rx="8" fill="#F6F6F6"/><path d="M812.731 1082.5c1.818 0 3.06 1.32 3.06 3.01s-1.242 3.01-3.06 3.01c-1.836 0-3.096-1.32-3.096-3.01s1.26-3.01 3.096-3.01m-2.034 12.98 9.252-12.6h2.34l-9.252 12.6zm2.034-8.49c.792 0 1.368-.62 1.368-1.48 0-.88-.576-1.48-1.368-1.48-.81 0-1.386.6-1.386 1.48s.576 1.48 1.386 1.48m7.596 2.84c1.818 0 3.06 1.31 3.06 3.01 0 1.69-1.242 3-3.06 3-1.836 0-3.096-1.31-3.096-3 0-1.7 1.26-3.01 3.096-3.01m0 4.48c.792 0 1.368-.61 1.368-1.47 0-.89-.576-1.48-1.368-1.48-.81 0-1.386.59-1.386 1.48 0 .88.576 1.47 1.386 1.47" fill="#666"/><circle cx="610" cy="1117" r="6" fill="#855D48"/><rect x="628" y="1109" width="169" height="16" rx="8" fill="#F6F6F6"/><path d="M812.731 1110.5c1.818 0 3.06 1.32 3.06 3.01s-1.242 3.01-3.06 3.01c-1.836 0-3.096-1.32-3.096-3.01s1.26-3.01 3.096-3.01m-2.034 12.98 9.252-12.6h2.34l-9.252 12.6zm2.034-8.49c.792 0 1.368-.62 1.368-1.48 0-.88-.576-1.48-1.368-1.48-.81 0-1.386.6-1.386 1.48s.576 1.48 1.386 1.48m7.596 2.84c1.818 0 3.06 1.31 3.06 3.01 0 1.69-1.242 3-3.06 3-1.836 0-3.096-1.31-3.096-3 0-1.7 1.26-3.01 3.096-3.01m0 4.48c.792 0 1.368-.61 1.368-1.47 0-.89-.576-1.48-1.368-1.48-.81 0-1.386.59-1.386 1.48 0 .88.576 1.47 1.386 1.47" fill="#666"/><defs><clipPath id="a"><path fill="#fff" d="M64 104h792v317H64z"/></clipPath><clipPath id="b"><path fill="#fff" d="M476 545h48v48h-48z"/></clipPath><clipPath id="c"><rect x="419" y="735" width="405" height="12" rx="6" fill="#fff"/></clipPath><clipPath id="d"><rect x="419" y="763" width="405" height="12" rx="6" fill="#fff"/></clipPath><clipPath id="e"><rect x="419" y="791" width="405" height="12" rx="6" fill="#fff"/></clipPath><clipPath id="f"><rect x="419" y="819" width="405" height="12" rx="6" fill="#fff"/></clipPath><clipPath id="g"><rect x="419" y="847" width="405" height="12" rx="6" fill="#fff"/></clipPath><clipPath id="h"><rect x="419" y="875" width="405" height="12" rx="6" fill="#fff"/></clipPath></defs></svg>