<svg width="588" height="421" viewBox="0 0 588 421" fill="none" xmlns="http://www.w3.org/2000/svg"><rect y=".251" width="588" height="420" rx="16" fill="#D1D1FF"/><rect x="77.5" y="56.751" width="408" height="283" rx="15.5" fill="#F5F5FE"/><rect x="77.5" y="56.751" width="408" height="283" rx="15.5" stroke="#DDD"/><rect x="89.5" y="68.751" width="408" height="283" rx="15.5" fill="#F5F5FE"/><rect x="89.5" y="68.751" width="408" height="283" rx="15.5" stroke="#DDD"/><rect x="101.5" y="80.751" width="408" height="283" rx="15.5" fill="#fff"/><rect x="101.5" y="80.751" width="408" height="283" rx="15.5" stroke="#DDD"/><rect x="125" y="104.251" width="40" height="40" rx="20" fill="#E8EDFF"/><path fill-rule="evenodd" clip-rule="evenodd" d="m149.868 127.3.147.147.148-.147a1.873 1.873 0 1 1 2.652 2.651l-2.8 2.8-2.799-2.8a1.875 1.875 0 1 1 2.652-2.651m-4.867-1.383v1.667a5 5 0 0 0-5 5h-1.667a6.666 6.666 0 0 1 6.458-6.663zm0-10.833c2.762 0 5 2.237 5 5a5 5 0 0 1-4.813 4.997l-.187.003c-2.763 0-5-2.238-5-5a5 5 0 0 1 4.812-4.997zm0 1.667a3.332 3.332 0 1 0 0 6.666 3.33 3.33 0 0 0 3.333-3.333 3.33 3.33 0 0 0-3.333-3.333" fill="#6A6AF4"/><path d="M182.854 132.251v-12.6h3.708c2.628 0 4.23 1.296 4.23 3.42 0 1.026-.468 1.908-1.35 2.484 1.332.594 2.07 1.674 2.07 2.988 0 2.304-1.782 3.708-4.68 3.708zm3.762-10.476h-1.206v2.844h1.206c.972 0 1.548-.522 1.548-1.44 0-.882-.576-1.404-1.548-1.404m.36 4.968h-1.566v3.384h1.566c1.188 0 1.908-.63 1.908-1.692 0-1.08-.72-1.692-1.908-1.692m12.197-5.004h-2.196l1.872-2.988h2.484zm3.078 9.036c-.846 1.134-2.25 1.836-3.96 1.836-3.222 0-5.04-2.25-5.04-4.896 0-2.682 1.692-4.896 4.662-4.896 2.52 0 4.176 1.71 4.176 4.086 0 .504-.072.972-.144 1.278h-6.354c.216 1.692 1.26 2.376 2.682 2.376.99 0 1.854-.432 2.34-1.08zm-4.392-6.084c-1.17 0-1.944.648-2.196 1.836h4.176c-.036-.918-.702-1.836-1.98-1.836m6.464 7.56v-9.072h2.286v.72c.63-.612 1.476-1.08 2.682-1.08 1.962 0 3.528 1.35 3.528 4.032v5.4h-2.304v-5.31c0-1.206-.684-1.962-1.8-1.962-1.152 0-1.764.774-2.106 1.35v5.922zm16.366-10.512h-2.196l1.872-2.988h2.484zm3.078 9.036c-.846 1.134-2.25 1.836-3.96 1.836-3.222 0-5.04-2.25-5.04-4.896 0-2.682 1.692-4.896 4.662-4.896 2.52 0 4.176 1.71 4.176 4.086 0 .504-.072.972-.144 1.278h-6.354c.216 1.692 1.26 2.376 2.682 2.376.99 0 1.854-.432 2.34-1.08zm-4.392-6.084c-1.17 0-1.944.648-2.196 1.836h4.176c-.036-.918-.702-1.836-1.98-1.836m5.348-1.512h1.692v-.954c0-1.926 1.278-3.474 3.546-3.474.828 0 1.53.198 2.106.504l-.972 1.908c-.27-.198-.63-.36-1.098-.36-.774 0-1.278.54-1.278 1.368v1.008h2.772v2.052h-2.772v7.02h-2.304v-7.02h-1.692zm9.633-1.584c-.81 0-1.494-.684-1.494-1.494s.684-1.494 1.494-1.494 1.476.684 1.476 1.494-.666 1.494-1.476 1.494m-1.152 10.656v-9.072h2.286v9.072zm9.383-1.8c.9 0 1.62-.414 2.052-1.044l1.782 1.368c-.846 1.116-2.178 1.836-3.834 1.836-3.132 0-5.004-2.25-5.004-4.896s1.872-4.896 5.004-4.896c1.656 0 2.988.72 3.834 1.836l-1.782 1.368c-.432-.63-1.152-1.044-2.088-1.044-1.494 0-2.592 1.152-2.592 2.736 0 1.602 1.098 2.736 2.628 2.736m6.693-8.856c-.81 0-1.494-.684-1.494-1.494s.684-1.494 1.494-1.494 1.476.684 1.476 1.494-.666 1.494-1.476 1.494m-1.152 10.656v-9.072h2.286v9.072zm7.583.27c-1.818 0-3.06-1.044-3.06-2.718 0-1.368 1.062-2.394 3.006-2.718l2.772-.468v-.234c0-.954-.72-1.566-1.764-1.566-.882 0-1.566.414-2.052 1.08l-1.674-1.278c.81-1.116 2.142-1.8 3.798-1.8 2.628 0 3.978 1.566 3.978 3.564v5.868h-2.286v-.882c-.576.702-1.656 1.152-2.718 1.152m-.792-2.826c0 .612.486 1.008 1.26 1.008 1.044 0 1.8-.486 2.25-1.206v-1.278l-2.16.36c-.954.162-1.35.558-1.35 1.116m9.566-8.1c-.81 0-1.494-.684-1.494-1.494s.684-1.494 1.494-1.494 1.476.684 1.476 1.494-.666 1.494-1.476 1.494m-1.152 10.656v-9.072h2.286v9.072zm5.027 0v-9.072h2.286v.9c.594-.612 1.368-1.08 2.394-1.08.306 0 .576.054.792.126v2.25a4 4 0 0 0-1.008-.126c-1.116 0-1.836.612-2.178 1.188v5.814zm15.278-1.476c-.846 1.134-2.25 1.836-3.96 1.836-3.222 0-5.04-2.25-5.04-4.896 0-2.682 1.692-4.896 4.662-4.896 2.52 0 4.176 1.71 4.176 4.086 0 .504-.072.972-.144 1.278h-6.354c.216 1.692 1.26 2.376 2.682 2.376.99 0 1.854-.432 2.34-1.08zm-4.392-6.084c-1.17 0-1.944.648-2.196 1.836h4.176c-.036-.918-.702-1.836-1.98-1.836m10.703 2.484h1.854l.684-2.448h-2.538v-1.854h3.042l.882-3.222h2.052l-.882 3.222h2.52l.882-3.222h2.052l-.882 3.222h1.314v1.854h-1.818l-.684 2.448h2.502v1.854h-3.006l-.882 3.222h-2.052l.882-3.222h-2.52l-.882 3.222h-2.052l.882-3.222h-1.35zm3.906 0h2.52l.684-2.448h-2.52zm11.706 5.058v-10.098l-2.61 1.476-1.206-1.728 3.888-2.25h2.358v12.6z" fill="#000091"/><path d="M125 160.251a8 8 0 0 1 8-8h345a8 8 0 0 1 8 8v44a8 8 0 0 1-8 8H133a8 8 0 0 1-8-8z" fill="#fff"/><rect x="125" y="162.251" width="40" height="40" rx="8" fill="#F5F5FE"/><path fill-rule="evenodd" clip-rule="evenodd" d="M136.324 172.321a2.286 2.286 0 1 0 1.796 3.701.456.456 0 1 1 .716.566 3.199 3.199 0 1 1 .687-1.981.456.456 0 1 1-.912 0 2.286 2.286 0 0 0-2.287-2.286m17.348 0a2.286 2.286 0 0 0-2.287 2.286.456.456 0 1 1-.912 0 3.199 3.199 0 1 1 6.398 0 3.199 3.199 0 0 1-5.728 1.959.456.456 0 0 1 .722-.559 2.286 2.286 0 1 0 1.807-3.686" fill="#E1000F"/><path fill-rule="evenodd" clip-rule="evenodd" d="M139.98 181.919c0-.252.205-.456.457-.456h9.128a.456.456 0 1 1 0 .913h-9.128a.46.46 0 0 1-.457-.457m5.021 1.35c.252 0 .457.204.457.456v10.068a.457.457 0 0 1-.913 0v-10.068c0-.252.204-.456.456-.456m-12.774-1.811a2.73 2.73 0 0 1 2.733-2.733 2.73 2.73 0 0 1 2.734 2.733v2.73h2.314a2.25 2.25 0 0 1 2.25 2.249v.009l.004.065.003.409v.001l.002.42v4.642a2.25 2.25 0 0 1-2.25 2.249h-.064a2.25 2.25 0 0 1-2.25-2.249v-3.223h-3.226a2.25 2.25 0 0 1-2.25-2.249zm9.123 5.119-.005-.066v-.074c0-.738-.599-1.337-1.337-1.337h-2.77a.457.457 0 0 1-.457-.456v-3.186a1.82 1.82 0 0 0-1.821-1.821 1.82 1.82 0 0 0-1.821 1.821v5.053c0 .738.599 1.337 1.338 1.337h3.683c.252 0 .456.204.456.456v3.679c0 .738.599 1.337 1.337 1.337h.064c.738 0 1.337-.599 1.337-1.337v-4.642l-.002-.414v-.007zm13.695-6.945a1.82 1.82 0 0 0-1.821 1.821v3.191a.456.456 0 0 1-.456.456h-2.771c-.738 0-1.337.599-1.337 1.337v.073a.4.4 0 0 1-.005.066l-.002.339v.007l-.002.414v4.642c0 .738.599 1.337 1.337 1.337h.064c.738 0 1.337-.599 1.337-1.337v-3.679c0-.252.205-.456.457-.456h3.683c.738 0 1.337-.599 1.337-1.337v-5.053a1.82 1.82 0 0 0-1.821-1.821m-7.298 6.809v-.004a2.25 2.25 0 0 1 2.25-2.25h2.314v-2.734a2.73 2.73 0 0 1 2.734-2.733 2.73 2.73 0 0 1 2.734 2.733v5.053a2.25 2.25 0 0 1-2.25 2.25h-3.227v3.222a2.25 2.25 0 0 1-2.25 2.25h-.064a2.25 2.25 0 0 1-2.25-2.25v-4.642l.003-.42v-.001l.002-.409q0-.033.004-.065" fill="#000091"/><path d="m181.21 178.251 3.71-9.8h2.604l3.71 9.8h-2.114l-.938-2.548h-3.92l-.938 2.548zm3.668-4.242h2.688l-1.344-3.682zm12.159 2.66c1.12 0 2.002-.546 2.562-1.344l1.568 1.204c-.896 1.218-2.352 2.002-4.13 2.002-3.094 0-5.208-2.38-5.208-5.18s2.114-5.18 5.208-5.18c1.778 0 3.234.798 4.13 1.988l-1.568 1.218c-.56-.798-1.442-1.344-2.562-1.344-1.848 0-3.164 1.442-3.164 3.318s1.316 3.318 3.164 3.318m10.294 0c1.12 0 2.002-.546 2.562-1.344l1.568 1.204c-.896 1.218-2.352 2.002-4.13 2.002-3.094 0-5.208-2.38-5.208-5.18s2.114-5.18 5.208-5.18c1.778 0 3.234.798 4.13 1.988l-1.568 1.218c-.56-.798-1.442-1.344-2.562-1.344-1.848 0-3.164 1.442-3.164 3.318s1.316 3.318 3.164 3.318m10.295-8.498c3.08 0 5.194 2.38 5.194 5.18s-2.114 5.18-5.194 5.18c-3.094 0-5.208-2.38-5.208-5.18s2.114-5.18 5.208-5.18m0 8.498c1.834 0 3.15-1.442 3.15-3.318s-1.316-3.318-3.15-3.318c-1.848 0-3.164 1.442-3.164 3.318s1.316 3.318 3.164 3.318m7.24 1.582v-9.8h2.478l2.394 4.116 2.394-4.116h2.478v9.8h-1.988v-7.028l-2.184 3.668h-1.4l-2.184-3.668v7.028zm12.619 0v-9.8h3.234c2.156 0 3.472 1.106 3.472 2.926 0 1.806-1.316 2.912-3.472 2.912h-1.246v3.962zm3.318-8.148h-1.33v2.534h1.33c.84 0 1.344-.49 1.344-1.288 0-.742-.504-1.246-1.344-1.246m3.106 8.148 3.71-9.8h2.604l3.71 9.8h-2.114l-.938-2.548h-3.92l-.938 2.548zm3.668-4.242h2.688l-1.344-3.682zm12.299 2.66c.924 0 1.722-.322 2.282-.854v-1.708h-2.492v-1.694h4.48v4.116c-.91 1.218-2.436 2.002-4.27 2.002-3.178 0-5.348-2.38-5.348-5.18s2.114-5.18 5.208-5.18c1.778 0 3.234.798 4.13 1.988l-1.568 1.218c-.56-.798-1.442-1.344-2.562-1.344-1.848 0-3.164 1.442-3.164 3.318s1.386 3.318 3.304 3.318m6.621 1.582v-9.8h2.548l4.382 7.084v-7.084h1.988v9.8h-2.548l-4.382-7.084v7.084zm11.799 0v-9.8h5.712v1.652h-3.724v2.324h3.164v1.652h-3.164v2.52h3.724v1.652zm8.162 0v-9.8h2.478l2.394 4.116 2.394-4.116h2.478v9.8h-1.988v-7.028l-2.184 3.668h-1.4l-2.184-3.668v7.028zm12.619 0v-9.8h5.712v1.652h-3.724v2.324h3.164v1.652h-3.164v2.52h3.724v1.652zm8.162 0v-9.8h2.548l4.382 7.084v-7.084h1.988v9.8h-2.548l-4.382-7.084v7.084zm10.791-7.994v-1.806h8.036v1.806h-3.024v7.994h-1.988v-7.994zm13.695 7.994v-9.8h1.988v9.8zm4.867 0v-9.8h2.548l4.382 7.084v-7.084h1.988v9.8h-2.548l-4.382-7.084v7.084zm11.799 0v-9.8h3.85c3.108 0 5.208 2.254 5.208 4.9s-2.1 4.9-5.208 4.9zm3.878-7.994h-1.89v6.188h1.89c1.82 0 3.136-1.358 3.136-3.094 0-1.75-1.316-3.094-3.136-3.094m7.237 7.994v-9.8h1.988v9.8zm3.636-9.8h2.114l2.898 7.658 2.898-7.658h2.114l-3.71 9.8h-2.604zm11.677 9.8v-9.8h1.988v9.8zm4.867 0v-9.8h3.85c3.108 0 5.208 2.254 5.208 4.9s-2.1 4.9-5.208 4.9zm3.878-7.994h-1.89v6.188h1.89c1.82 0 3.136-1.358 3.136-3.094 0-1.75-1.316-3.094-3.136-3.094m13.017 4.326v-6.132h1.988v5.964c0 2.576-1.512 4.116-3.976 4.116-2.45 0-3.962-1.54-3.962-4.116v-5.964h1.988v6.132c0 1.316.742 2.086 1.988 2.086 1.218 0 1.974-.77 1.974-2.086m4.597 3.668v-9.8h5.712v1.652h-3.724v2.324h3.164v1.652h-3.164v2.52h3.724v1.652zm8.162 0v-9.8h1.988v7.994h3.724v1.806z" fill="#666"/><rect x="181" y="188.251" width="150" height="16" rx="8" fill="#F6F6F6"/><path d="M340.904 199.731c-.588 0-1.05-.462-1.05-1.036a1.043 1.043 0 0 1 2.086 0c0 .574-.462 1.036-1.036 1.036" fill="#666"/><g clip-path="url(#a)"><path fill-rule="evenodd" clip-rule="evenodd" d="m358.999 200.424-4.702 2.632 1.05-5.285-3.956-3.659 5.351-.635 2.257-4.893 2.258 4.893 5.351.635-3.957 3.659 1.05 5.285z" fill="#000091"/></g><g clip-path="url(#b)"><path fill-rule="evenodd" clip-rule="evenodd" d="m378.999 200.424-4.702 2.632 1.05-5.285-3.956-3.659 5.351-.635 2.257-4.893 2.258 4.893 5.351.635-3.957 3.659 1.05 5.285z" fill="#000091"/></g><g clip-path="url(#c)"><path fill-rule="evenodd" clip-rule="evenodd" d="m398.999 200.424-4.702 2.632 1.05-5.285-3.956-3.659 5.351-.635 2.257-4.893 2.258 4.893 5.351.635-3.957 3.659 1.05 5.285z" fill="#000091"/></g><path d="M125 224.251a8 8 0 0 1 8-8h345a8 8 0 0 1 8 8v44a8 8 0 0 1-8 8H133a8 8 0 0 1-8-8z" fill="#fff"/><rect x="125" y="226.251" width="40" height="40" rx="8" fill="#F5F5FE"/><g clip-path="url(#d)" fill-rule="evenodd" clip-rule="evenodd"><path d="m142.316 239.708-.222-.343a.409.409 0 0 0 .444.687m0 0 .003-.002.008-.005.034-.022.132-.083c.115-.071.28-.172.481-.29.401-.236.939-.537 1.492-.8.559-.267 1.107-.483 1.537-.567.216-.042.369-.043.465-.023.08.017.092.04.097.051l.001.001c.058.113.061.237-.087.44-.162.22-.464.468-.897.733-.86.527-2.073 1.031-3.202 1.497a.41.41 0 0 0-.241.477c.077.309.236 1.349.375 2.343.068.49.13.958.172 1.303l.02.16c-.107.022-.22.053-.329.097-.15.062-.32.159-.451.319a.88.88 0 0 0-.195.636c.016.214.133 1.153.265 2.214.076.617.158 1.275.228 1.855a.408.408 0 1 0 .811-.098c-.073-.611-.158-1.295-.236-1.925a95 95 0 0 1-.252-2.108v-.001c-.003-.037.005-.047.011-.054v-.001a.3.3 0 0 1 .129-.08c.157-.064.361-.082.462-.082a.41.41 0 0 0 .364-.223c.027-.053.036-.1.039-.113a.5.5 0 0 0 .006-.138l-.011-.132-.049-.425a95 95 0 0 0-.174-1.317 58 58 0 0 0-.32-2.08c1.032-.428 2.164-.912 3.005-1.427.46-.282.872-.596 1.129-.947.27-.369.395-.825.156-1.294a.92.92 0 0 0-.658-.481c-.249-.053-.525-.031-.79.021-.533.104-1.157.356-1.732.631-.582.277-1.142.59-1.555.833-.207.122-.378.226-.497.3l-.139.088-.038.024-.009.006-.004.002.222.343m-5.165 3.906c.249-.338.557-.812.873-1.297zm.873-1.297c.215-.332.434-.669.639-.97zm.639-.97c.262-.383.505-.717.712-.951zm.712-.951q.157-.176.252-.246zm.252-.246.045-.031zm.045-.031a.409.409 0 0 0-.042-.815c-.208 0-.383.108-.496.193a2.7 2.7 0 0 0-.371.357c-.243.275-.51.644-.775 1.033-.231.339-.458.689-.676 1.023-.299.462-.579.892-.819 1.219-.182.246-.349.545-.389.859a1 1 0 0 0 .065.509 1 1 0 0 0 .35.425.408.408 0 1 0 .475-.665c-.05-.036-.065-.063-.071-.077-.007-.016-.013-.042-.007-.09.013-.11.085-.273.235-.476m2.181-2.004a.41.41 0 0 1 .313.486l-.689 3.188c.171.051.325.127.456.219.22.155.483.443.44.813v.003c-.02.166-.277 2.367-.457 4.065a.409.409 0 1 1-.813-.086c.171-1.618.412-3.69.454-4.038a.4.4 0 0 0-.095-.088.84.84 0 0 0-.476-.144.407.407 0 0 1-.399-.495l.78-3.609a.41.41 0 0 1 .486-.314" fill="#000091"/><path d="M140.97 236.234a1.328 1.328 0 1 0 0 2.656 1.328 1.328 0 0 0 0-2.656m-2.146 1.328a2.146 2.146 0 1 1 4.293 0 2.146 2.146 0 0 1-4.293 0" fill="#E1000F"/><path d="M152.356 255.227c0-.226.183-.409.409-.409 1.726 0 2.676.544 3.181 1.176.246.308.371.617.433.852a2 2 0 0 1 .065.409v.015l-.408.001h.408a.41.41 0 0 1-.408.409h-6.541a.4.4 0 0 1-.289-.12.4.4 0 0 1-.12-.289h.409-.409v-.019l.002-.035q.003-.042.011-.111c.012-.09.035-.214.08-.358.09-.288.27-.658.626-.998a.408.408 0 1 1 .565.59 1.6 1.6 0 0 0-.363.522h5.515a1.5 1.5 0 0 0-.214-.357c-.313-.391-.998-.869-2.543-.869a.41.41 0 0 1-.409-.409m-7.756 0c0-.226.183-.409.409-.409 1.726 0 2.676.544 3.181 1.176.247.308.371.617.434.852a2 2 0 0 1 .064.409v.015l-.408.001h.408a.41.41 0 0 1-.408.409h-6.541a.41.41 0 0 1-.409-.409h.409-.409v-.019l.002-.035q.002-.042.011-.111c.012-.09.035-.214.08-.358.091-.287.271-.658.626-.998a.408.408 0 1 1 .566.59 1.6 1.6 0 0 0-.364.522h5.515a1.5 1.5 0 0 0-.214-.357c-.313-.391-.998-.869-2.543-.869a.41.41 0 0 1-.409-.409m-7.791 0c0-.226.183-.409.409-.409 1.726 0 2.676.544 3.181 1.176.247.308.371.617.434.852a2 2 0 0 1 .064.409v.015l-.408.001h.408a.41.41 0 0 1-.408.409h-6.541a.41.41 0 0 1-.409-.409h.409-.409v-.019l.002-.035q.002-.042.011-.111c.012-.09.035-.214.08-.358.091-.287.271-.658.626-.998a.408.408 0 1 1 .566.59 1.6 1.6 0 0 0-.364.522h5.515a1.5 1.5 0 0 0-.214-.357c-.313-.391-.998-.869-2.543-.869a.41.41 0 0 1-.409-.409m7.783-13.077c.226 0 .409.183.409.409v.421h6.537a.409.409 0 1 1 0 .818h-6.946a.41.41 0 0 1-.408-.409v-.83c0-.226.183-.409.408-.409m-.408-6.934c0-.225.183-.408.408-.408h11.443c.225 0 .408.183.408.408v8.172a.41.41 0 0 1-.408.409h-1.227a.41.41 0 0 1 0-.817h.818v-7.355h-10.625v.814a.41.41 0 0 1-.817 0z" fill="#000091"/><path d="M136.81 251.768c0-.226.183-.409.408-.409a2.145 2.145 0 1 1 0 4.293 2.145 2.145 0 0 1-2.146-2.146.409.409 0 1 1 .818 0 1.327 1.327 0 1 0 1.328-1.329.41.41 0 0 1-.408-.409m8.199.409a1.329 1.329 0 1 0 .002 2.658 1.329 1.329 0 0 0-.002-2.658m-2.146 1.329a2.146 2.146 0 1 1 4.293-.001 2.146 2.146 0 0 1-4.293.001m9.902-1.329c-.735 0-1.328.594-1.328 1.329a1.327 1.327 0 1 0 2.657 0 .409.409 0 1 1 .818 0c0 1.186-.96 2.146-2.147 2.146a2.145 2.145 0 0 1-2.146-2.146c0-1.187.96-2.147 2.146-2.147a.409.409 0 1 1 0 .818" fill="#E1000F"/></g><path d="m181.21 242.251 3.71-9.8h2.604l3.71 9.8h-2.114l-.938-2.548h-3.92l-.938 2.548zm3.668-4.242h2.688l-1.344-3.682zm6.017-3.752v-1.806h8.036v1.806h-3.024v7.994h-1.988v-7.994zm9.922 7.994v-9.8h5.712v1.652h-3.724v2.324h3.164v1.652h-3.164v2.52h3.724v1.652zm8.162 0v-9.8h1.988v7.994h3.724v1.806zm7.602 0v-9.8h1.988v9.8zm4.867 0v-9.8h5.712v1.652h-3.724v2.324h3.164v1.652h-3.164v2.52h3.724v1.652zm8.162 0v-9.8h2.996c2.156 0 3.486 1.106 3.486 2.926 0 1.19-.574 2.072-1.582 2.534l3.066 4.34h-2.338l-2.618-3.962h-1.022v3.962zm3.108-8.148h-1.12v2.534h1.12c.84 0 1.33-.49 1.33-1.288 0-.742-.49-1.246-1.33-1.246m14.399 6.566c1.12 0 2.002-.546 2.562-1.344l1.568 1.204c-.896 1.218-2.352 2.002-4.13 2.002-3.094 0-5.208-2.38-5.208-5.18s2.114-5.18 5.208-5.18c1.778 0 3.234.798 4.13 1.988l-1.568 1.218c-.56-.798-1.442-1.344-2.562-1.344-1.848 0-3.164 1.442-3.164 3.318s1.316 3.318 3.164 3.318m10.295-8.498c3.08 0 5.194 2.38 5.194 5.18s-2.114 5.18-5.194 5.18c-3.094 0-5.208-2.38-5.208-5.18s2.114-5.18 5.208-5.18m0 8.498c1.834 0 3.15-1.442 3.15-3.318s-1.316-3.318-3.15-3.318c-1.848 0-3.164 1.442-3.164 3.318s1.316 3.318 3.164 3.318m7.239 1.582v-9.8h1.988v7.994h3.724v1.806zm7.602 0v-9.8h1.988v7.994h3.724v1.806zm7.601 0v-9.8h5.712v1.652h-3.724v2.324h3.164v1.652h-3.164v2.52h3.724v1.652zm12.311-1.582c1.12 0 2.002-.546 2.562-1.344l1.568 1.204c-.896 1.218-2.352 2.002-4.13 2.002-3.094 0-5.208-2.38-5.208-5.18s2.114-5.18 5.208-5.18c1.778 0 3.234.798 4.13 1.988l-1.568 1.218c-.56-.798-1.442-1.344-2.562-1.344-1.848 0-3.164 1.442-3.164 3.318s1.316 3.318 3.164 3.318m4.988-6.412v-1.806h8.036v1.806h-3.024v7.994h-1.988v-7.994zm9.922 7.994v-9.8h1.988v9.8zm4.867 0v-9.8h5.712v1.652h-3.724v2.324h3.164v1.652h-3.164v4.172z" fill="#666"/><rect x="181" y="252.251" width="150" height="16" rx="8" fill="#F6F6F6"/><path d="M340.904 263.731c-.588 0-1.05-.462-1.05-1.036a1.043 1.043 0 0 1 2.086 0c0 .574-.462 1.036-1.036 1.036" fill="#666"/><g clip-path="url(#e)"><path fill-rule="evenodd" clip-rule="evenodd" d="m358.999 264.424-4.702 2.632 1.05-5.285-3.956-3.659 5.351-.635 2.257-4.893 2.258 4.893 5.351.635-3.957 3.659 1.05 5.285z" fill="#000091"/></g><g clip-path="url(#f)"><path fill-rule="evenodd" clip-rule="evenodd" d="m378.999 264.424-4.702 2.632 1.05-5.285-3.956-3.659 5.351-.635 2.257-4.893 2.258 4.893 5.351.635-3.957 3.659 1.05 5.285z" fill="#000091"/></g><g clip-path="url(#g)"><path fill-rule="evenodd" clip-rule="evenodd" d="m398.999 252.584 2.258 4.893 5.351.635-3.957 3.659 1.05 5.285-4.702-2.632-4.702 2.632 1.05-5.285-3.956-3.659 5.351-.635zm0 3.183-1.358 2.947-3.222.381 2.382 2.204-.633 3.182 2.831-1.585 2.832 1.585-.633-3.182 2.382-2.204-3.222-.382z" fill="#000091"/></g><path d="M125 288.251a8 8 0 0 1 8-8h345a8 8 0 0 1 8 8v44a8 8 0 0 1-8 8H133a8 8 0 0 1-8-8z" fill="#fff"/><rect x="125" y="290.251" width="40" height="40" rx="8" fill="#F5F5FE"/><path fill-rule="evenodd" clip-rule="evenodd" d="M136.324 300.321a2.286 2.286 0 1 0 1.796 3.701.456.456 0 1 1 .716.566 3.199 3.199 0 1 1 .687-1.981.456.456 0 1 1-.912 0 2.286 2.286 0 0 0-2.287-2.286m17.348 0a2.286 2.286 0 0 0-2.287 2.286.456.456 0 1 1-.912 0 3.199 3.199 0 1 1 6.398 0 3.199 3.199 0 0 1-5.728 1.959.456.456 0 0 1 .722-.559 2.286 2.286 0 1 0 1.807-3.686" fill="#E1000F"/><path fill-rule="evenodd" clip-rule="evenodd" d="M139.98 309.919c0-.252.205-.456.457-.456h9.128a.456.456 0 1 1 0 .913h-9.128a.46.46 0 0 1-.457-.457m5.021 1.35c.252 0 .457.204.457.456v10.068a.457.457 0 0 1-.913 0v-10.068c0-.252.204-.456.456-.456m-12.774-1.811a2.73 2.73 0 0 1 2.733-2.733 2.73 2.73 0 0 1 2.734 2.733v2.73h2.314a2.25 2.25 0 0 1 2.25 2.249v.009l.004.065.003.409v.001l.002.42v4.642a2.25 2.25 0 0 1-2.25 2.249h-.064a2.25 2.25 0 0 1-2.25-2.249v-3.223h-3.226a2.25 2.25 0 0 1-2.25-2.249zm9.123 5.119-.005-.066v-.074c0-.738-.599-1.337-1.337-1.337h-2.77a.457.457 0 0 1-.457-.456v-3.186a1.82 1.82 0 0 0-1.821-1.821 1.82 1.82 0 0 0-1.821 1.821v5.053c0 .738.599 1.337 1.338 1.337h3.683c.252 0 .456.204.456.456v3.679c0 .738.599 1.337 1.337 1.337h.064c.738 0 1.337-.599 1.337-1.337v-4.642l-.002-.414v-.007zm13.695-6.945a1.82 1.82 0 0 0-1.821 1.821v3.191a.456.456 0 0 1-.456.456h-2.771c-.738 0-1.337.599-1.337 1.337v.073a.4.4 0 0 1-.005.066l-.002.339v.007l-.002.414v4.642c0 .738.599 1.337 1.337 1.337h.064c.738 0 1.337-.599 1.337-1.337v-3.679c0-.252.205-.456.457-.456h3.683c.738 0 1.337-.599 1.337-1.337v-5.053a1.82 1.82 0 0 0-1.821-1.821m-7.298 6.809v-.004a2.25 2.25 0 0 1 2.25-2.25h2.314v-2.734a2.73 2.73 0 0 1 2.734-2.733 2.73 2.73 0 0 1 2.734 2.733v5.053a2.25 2.25 0 0 1-2.25 2.25h-3.227v3.222a2.25 2.25 0 0 1-2.25 2.25h-.064a2.25 2.25 0 0 1-2.25-2.25v-4.642l.003-.42v-.001l.002-.409q0-.033.004-.065" fill="#000091"/><path d="m181.21 306.251 3.71-9.8h2.604l3.71 9.8h-2.114l-.938-2.548h-3.92l-.938 2.548zm3.668-4.242h2.688l-1.344-3.682zm12.159 2.66c1.12 0 2.002-.546 2.562-1.344l1.568 1.204c-.896 1.218-2.352 2.002-4.13 2.002-3.094 0-5.208-2.38-5.208-5.18s2.114-5.18 5.208-5.18c1.778 0 3.234.798 4.13 1.988l-1.568 1.218c-.56-.798-1.442-1.344-2.562-1.344-1.848 0-3.164 1.442-3.164 3.318s1.316 3.318 3.164 3.318m10.294 0c1.12 0 2.002-.546 2.562-1.344l1.568 1.204c-.896 1.218-2.352 2.002-4.13 2.002-3.094 0-5.208-2.38-5.208-5.18s2.114-5.18 5.208-5.18c1.778 0 3.234.798 4.13 1.988l-1.568 1.218c-.56-.798-1.442-1.344-2.562-1.344-1.848 0-3.164 1.442-3.164 3.318s1.316 3.318 3.164 3.318m10.295-8.498c3.08 0 5.194 2.38 5.194 5.18s-2.114 5.18-5.194 5.18c-3.094 0-5.208-2.38-5.208-5.18s2.114-5.18 5.208-5.18m0 8.498c1.834 0 3.15-1.442 3.15-3.318s-1.316-3.318-3.15-3.318c-1.848 0-3.164 1.442-3.164 3.318s1.316 3.318 3.164 3.318m7.24 1.582v-9.8h2.478l2.394 4.116 2.394-4.116h2.478v9.8h-1.988v-7.028l-2.184 3.668h-1.4l-2.184-3.668v7.028zm12.619 0v-9.8h3.234c2.156 0 3.472 1.106 3.472 2.926 0 1.806-1.316 2.912-3.472 2.912h-1.246v3.962zm3.318-8.148h-1.33v2.534h1.33c.84 0 1.344-.49 1.344-1.288 0-.742-.504-1.246-1.344-1.246m3.106 8.148 3.71-9.8h2.604l3.71 9.8h-2.114l-.938-2.548h-3.92l-.938 2.548zm3.668-4.242h2.688l-1.344-3.682zm12.299 2.66c.924 0 1.722-.322 2.282-.854v-1.708h-2.492v-1.694h4.48v4.116c-.91 1.218-2.436 2.002-4.27 2.002-3.178 0-5.348-2.38-5.348-5.18s2.114-5.18 5.208-5.18c1.778 0 3.234.798 4.13 1.988l-1.568 1.218c-.56-.798-1.442-1.344-2.562-1.344-1.848 0-3.164 1.442-3.164 3.318s1.386 3.318 3.304 3.318m6.621 1.582v-9.8h2.548l4.382 7.084v-7.084h1.988v9.8h-2.548l-4.382-7.084v7.084zm11.799 0v-9.8h5.712v1.652h-3.724v2.324h3.164v1.652h-3.164v2.52h3.724v1.652zm8.162 0v-9.8h2.478l2.394 4.116 2.394-4.116h2.478v9.8h-1.988v-7.028l-2.184 3.668h-1.4l-2.184-3.668v7.028zm12.619 0v-9.8h5.712v1.652h-3.724v2.324h3.164v1.652h-3.164v2.52h3.724v1.652zm8.162 0v-9.8h2.548l4.382 7.084v-7.084h1.988v9.8h-2.548l-4.382-7.084v7.084zm10.791-7.994v-1.806h8.036v1.806h-3.024v7.994h-1.988v-7.994zm13.695 7.994v-9.8h1.988v9.8zm4.867 0v-9.8h2.548l4.382 7.084v-7.084h1.988v9.8h-2.548l-4.382-7.084v7.084zm11.799 0v-9.8h3.85c3.108 0 5.208 2.254 5.208 4.9s-2.1 4.9-5.208 4.9zm3.878-7.994h-1.89v6.188h1.89c1.82 0 3.136-1.358 3.136-3.094 0-1.75-1.316-3.094-3.136-3.094m7.237 7.994v-9.8h1.988v9.8zm3.636-9.8h2.114l2.898 7.658 2.898-7.658h2.114l-3.71 9.8h-2.604zm11.677 9.8v-9.8h1.988v9.8zm4.867 0v-9.8h3.85c3.108 0 5.208 2.254 5.208 4.9s-2.1 4.9-5.208 4.9zm3.878-7.994h-1.89v6.188h1.89c1.82 0 3.136-1.358 3.136-3.094 0-1.75-1.316-3.094-3.136-3.094m13.017 4.326v-6.132h1.988v5.964c0 2.576-1.512 4.116-3.976 4.116-2.45 0-3.962-1.54-3.962-4.116v-5.964h1.988v6.132c0 1.316.742 2.086 1.988 2.086 1.218 0 1.974-.77 1.974-2.086m4.597 3.668v-9.8h5.712v1.652h-3.724v2.324h3.164v1.652h-3.164v2.52h3.724v1.652zm8.162 0v-9.8h1.988v7.994h3.724v1.806z" fill="#666"/><rect x="181" y="316.251" width="150" height="16" rx="8" fill="#F6F6F6"/><path d="M340.904 327.731c-.588 0-1.05-.462-1.05-1.036a1.043 1.043 0 0 1 2.086 0c0 .574-.462 1.036-1.036 1.036" fill="#666"/><g clip-path="url(#h)"><path fill-rule="evenodd" clip-rule="evenodd" d="m358.999 328.424-4.702 2.632 1.05-5.285-3.956-3.659 5.351-.635 2.257-4.893 2.258 4.893 5.351.635-3.957 3.659 1.05 5.285z" fill="#000091"/></g><g clip-path="url(#i)"><path fill-rule="evenodd" clip-rule="evenodd" d="m378.999 316.584 2.258 4.893 5.351.635-3.957 3.659 1.05 5.285-4.702-2.632-4.702 2.632 1.05-5.285-3.956-3.659 5.351-.635zm0 3.183-1.358 2.947-3.222.381 2.382 2.204-.633 3.182 2.831-1.585 2.832 1.585-.633-3.182 2.382-2.204-3.222-.382z" fill="#000091"/></g><g clip-path="url(#j)"><path fill-rule="evenodd" clip-rule="evenodd" d="m398.999 316.584 2.258 4.893 5.351.635-3.957 3.659 1.05 5.285-4.702-2.632-4.702 2.632 1.05-5.285-3.956-3.659 5.351-.635zm0 3.183-1.358 2.947-3.222.381 2.382 2.204-.633 3.182 2.831-1.585 2.832 1.585-.633-3.182 2.382-2.204-3.222-.382z" fill="#000091"/></g><defs><clipPath id="a"><path fill="#fff" d="M351 188.251h16v16h-16z"/></clipPath><clipPath id="b"><path fill="#fff" d="M371 188.251h16v16h-16z"/></clipPath><clipPath id="c"><path fill="#fff" d="M391 188.251h16v16h-16z"/></clipPath><clipPath id="d"><path fill="#fff" d="M129 230.251h32v32h-32z"/></clipPath><clipPath id="e"><path fill="#fff" d="M351 252.251h16v16h-16z"/></clipPath><clipPath id="f"><path fill="#fff" d="M371 252.251h16v16h-16z"/></clipPath><clipPath id="g"><path fill="#fff" d="M391 252.251h16v16h-16z"/></clipPath><clipPath id="h"><path fill="#fff" d="M351 316.251h16v16h-16z"/></clipPath><clipPath id="i"><path fill="#fff" d="M371 316.251h16v16h-16z"/></clipPath><clipPath id="j"><path fill="#fff" d="M391 316.251h16v16h-16z"/></clipPath></defs></svg>