<svg width="223" height="67" viewBox="0 0 223 67" xmlns="http://www.w3.org/2000/svg" xmlns:xlink="http://www.w3.org/1999/xlink"><defs><path id="a" d="M0 67h223V0H0z"/></defs><g fill="none" fill-rule="evenodd"><path fill="#234178" d="M23 13.392 39.26 23 42 21.38 26.127 12z"/><path fill="#DC3B3E" d="M17 17.592 33.25 27 36 25.407 19.75 16z"/><path fill="#234178" d="M5 24.768V28l23-14.384L25.416 12z"/><path fill="#DC3B3E" d="M5 19.015V22l19-10.507L21.3 10zM0 45.136 15.848 54 19 52.627 0 42z"/><path fill="#234178" d="M19 56.424 21.589 58 42 45.576 39.411 44z"/><path fill="#DC3B3E" d="m20.775 48.7-.009-.005L13 53.424 15.589 55 36 42.571 33.42 41zM5 18.537V42h3V17z"/><path fill="#234178" d="M0 21.474v17.974L17.495 50 20 48.49 7.613 41.017v-.04l-5.168-3.116V20zm48.504-6.952h.482v37.233h-.482zm18.229 13.047 1.603 1.233c-.916 1.247-2.404 2.05-4.222 2.05-3.164 0-5.325-2.437-5.325-5.304s2.161-5.304 5.325-5.304c1.818 0 3.306.817 4.222 2.035l-1.603 1.248c-.573-.818-1.474-1.377-2.62-1.377-1.889 0-3.234 1.477-3.234 3.398 0 1.92 1.345 3.397 3.235 3.397 1.145 0 2.046-.559 2.62-1.376m11.836-2.021c0-1.921-1.345-3.398-3.22-3.398-1.89 0-3.235 1.477-3.235 3.398 0 1.92 1.345 3.397 3.235 3.397 1.875 0 3.22-1.476 3.22-3.397m2.09 0c0 2.867-2.161 5.304-5.31 5.304-3.163 0-5.325-2.437-5.325-5.304s2.162-5.304 5.325-5.304c3.149 0 5.31 2.437 5.31 5.304m2.805-5.018h2.606l4.48 7.254V20.53h2.032v10.034h-2.605l-4.48-7.254v7.254h-2.033zm13.355 7.283c.6.774 1.402 1.232 2.218 1.232.802 0 1.289-.43 1.289-1.147 0-1.849-4.552-1.347-4.552-4.744 0-1.591 1.317-2.91 3.235-2.91 1.502 0 2.648.674 3.506 1.691l-1.488 1.348c-.587-.76-1.245-1.262-2.004-1.262-.716 0-1.188.46-1.188 1.061 0 1.82 4.552 1.305 4.552 4.745-.029 1.892-1.503 3.025-3.336 3.025-1.688 0-2.82-.617-3.707-1.678zm8.559-7.283h5.84v1.692h-3.808v2.38h3.235v1.691h-3.235v2.58h3.808v1.692h-5.84z"/><mask id="b" fill="#fff"><use xlink:href="#a"/></mask><g/><path fill="#234178" mask="url(#b)" d="M114.44 30.565h2.032V20.53h-2.033zm5.696-10.035h2.032v8.186h3.808v1.849h-5.84zm13.068 0h2.605l4.48 7.254V20.53h2.032v10.034h-2.605l-4.48-7.254v7.254h-2.032zm18.02 5.691-1.374-3.77-1.374 3.77zm-2.705-5.69h2.662l3.793 10.034h-2.16l-.96-2.61h-4.008l-.959 2.61h-2.161zm6.828-.001h8.215v1.85h-3.091v8.185h-2.033v-8.186h-3.091zm10.863 10.035h2.033V20.53h-2.033zm13.383-5.017c0-1.921-1.345-3.398-3.22-3.398-1.89 0-3.235 1.477-3.235 3.398 0 1.92 1.345 3.397 3.235 3.397 1.875 0 3.22-1.476 3.22-3.397m2.09 0c0 2.867-2.161 5.304-5.31 5.304-3.164 0-5.325-2.437-5.325-5.304s2.161-5.304 5.325-5.304c3.149 0 5.31 2.437 5.31 5.304m2.805-5.018h2.606l4.48 7.254V20.53h2.032v10.034h-2.605l-4.48-7.254v7.254h-2.033zm18.021 5.691-1.374-3.77-1.374 3.77zm-2.706-5.69h2.663l3.793 10.034h-2.161l-.96-2.61h-4.007l-.96 2.61h-2.16zm8.86-.001h2.033v8.186h3.807v1.849h-5.84zM61.68 36.835v6.337h1.933c1.86 0 3.206-1.39 3.206-3.168 0-1.792-1.346-3.169-3.206-3.169zm-2.032-1.848h3.936c3.178 0 5.325 2.307 5.325 5.017 0 2.709-2.147 5.017-5.325 5.017h-3.936zm12.08-.001h5.84v1.692h-3.807v2.38h3.235v1.691H73.76v2.58h3.807v1.692h-5.84zm13.641 0H87.4v8.186h3.808v1.849h-5.84zm14.156 5.691-1.374-3.77-1.374 3.77zm-2.706-5.69h2.663l3.793 10.034h-2.161l-.96-2.61h-4.007l-.96 2.61h-2.16zm15.473 1.691v2.595h1.145c.859 0 1.36-.502 1.36-1.32 0-.759-.501-1.275-1.36-1.275zm-2.033-1.692h3.063c2.205 0 3.564 1.133 3.564 2.997 0 1.218-.586 2.121-1.617 2.594l3.135 4.444h-2.39l-2.677-4.057h-1.045v4.057h-2.033zm10.291 0h5.84v1.692h-3.807v2.38h3.235v1.691h-3.235v2.58h3.807v1.692h-5.84zm9.06 0h5.84v1.692h-3.807v2.38h3.235v1.691h-3.235v4.272h-2.032zm16.146 5.018c0-1.921-1.345-3.398-3.22-3.398-1.89 0-3.235 1.477-3.235 3.398 0 1.92 1.345 3.397 3.235 3.397 1.875 0 3.22-1.476 3.22-3.397m2.09 0c0 2.866-2.161 5.304-5.31 5.304-3.163 0-5.325-2.438-5.325-5.304 0-2.868 2.162-5.304 5.325-5.304 3.149 0 5.31 2.436 5.31 5.304m2.805-5.018h2.606l4.48 7.254v-7.254h2.032v10.035h-2.605l-4.48-7.254v7.254h-2.033zm14.815 1.849v6.337h1.932c1.86 0 3.206-1.39 3.206-3.168 0-1.792-1.345-3.169-3.206-3.169zm-2.033-1.848h3.936c3.178 0 5.325 2.307 5.325 5.017 0 2.709-2.147 5.017-5.325 5.017h-3.936zm17.09 5.69-1.374-3.77-1.374 3.77zm-2.705-5.69h2.662l3.794 10.034h-2.162l-.959-2.61h-4.007l-.96 2.61h-2.161zm6.828-.001h8.216v1.85h-3.092v8.185h-2.033v-8.186h-3.091zM195.51 45.02h2.032V34.987h-2.032zm13.382-5.016c0-1.921-1.345-3.398-3.22-3.398-1.89 0-3.235 1.477-3.235 3.398 0 1.92 1.345 3.397 3.235 3.397 1.875 0 3.22-1.476 3.22-3.397m2.09 0c0 2.866-2.16 5.304-5.31 5.304-3.163 0-5.325-2.438-5.325-5.304 0-2.868 2.162-5.304 5.325-5.304 3.15 0 5.31 2.436 5.31 5.304m2.806-5.018h2.605l4.48 7.254v-7.254h2.032v10.035H220.3l-4.48-7.254v7.254h-2.032z"/></g></svg>