<svg width="144" height="36" viewBox="0 0 144 36" fill="none" xmlns="http://www.w3.org/2000/svg"><path d="M.864 10.817c0 3.168 2.095 5.861 5.53 5.861 1.468 0 2.527-.452 3.37-1.293v.862h2.764V.087H9.763v6.162c-.842-.84-1.9-1.293-3.37-1.293C2.96 4.956.865 7.65.865 10.817m2.873 0c0-1.896 1.188-3.275 3.045-3.275 1.232 0 2.247.517 2.981 1.508v3.534c-.734.991-1.75 1.509-2.98 1.509-1.858 0-3.046-1.38-3.046-3.276m14.93 5.753c1.274 0 2.57-.538 3.261-1.379v1.056h2.744V9.223c0-2.392-1.62-4.267-4.774-4.267-1.987 0-3.586.819-4.558 2.155l2.01 1.53c.582-.797 1.403-1.293 2.462-1.293 1.252 0 2.116.733 2.116 1.875v.28l-3.326.56c-2.333.388-3.607 1.616-3.607 3.254 0 2.004 1.49 3.254 3.672 3.254m-.95-3.383c0-.667.475-1.141 1.62-1.335l2.591-.431v1.53c-.54.861-1.447 1.443-2.7 1.443-.928 0-1.512-.474-1.512-1.207m10.573-.905c0 2.65 1.295 4.18 4.017 4.18.907 0 1.555-.108 2.095-.345v-2.392c-.367.151-.864.237-1.62.237-1.08 0-1.728-.474-1.728-1.68v-4.44h3.326V5.388h-3.326V2.672h-2.765v2.715h-2.03v2.457h2.03zm11.398 4.287c1.275 0 2.57-.538 3.262-1.379v1.056h2.743V9.223c0-2.392-1.62-4.267-4.774-4.267-1.987 0-3.585.819-4.557 2.155l2.009 1.53c.583-.797 1.404-1.293 2.462-1.293 1.253 0 2.117.733 2.117 1.875v.28l-3.327.56c-2.332.388-3.607 1.616-3.607 3.254 0 2.004 1.49 3.254 3.672 3.254m-.95-3.383c0-.667.475-1.141 1.62-1.335l2.592-.431v1.53c-.54.861-1.447 1.443-2.7 1.443-.929 0-1.512-.474-1.512-1.207M57.206 2.564a1.28 1.28 0 0 0 1.274-1.293C58.48.581 57.92 0 57.207 0S55.91.582 55.91 1.271c0 .711.583 1.293 1.296 1.293m-.929 13.683h1.836V5.387h-1.836zm5.501 0h1.836v-7.52c.69-1.142 1.685-2.047 3.261-2.047 1.685 0 2.787 1.12 2.787 3.06v6.507h1.836V9.675c0-3.081-1.815-4.719-4.255-4.719-1.62 0-2.744.69-3.63 1.66v-1.23h-1.835zm18.211-1.292c-2.355 0-4.018-1.81-4.018-4.138 0-2.305 1.663-4.137 3.996-4.137 1.36 0 2.462.646 3.132 1.595l1.447-1.1c-1.015-1.335-2.614-2.219-4.58-2.219-3.606 0-5.917 2.694-5.917 5.861 0 3.168 2.31 5.861 5.918 5.861 1.987 0 3.564-.862 4.58-2.22l-1.448-1.098a3.76 3.76 0 0 1-3.11 1.595m6.859 1.292h1.836V.087h-1.836zm13.082-4.654c0 2.133-1.166 3.361-2.98 3.361-1.858 0-3.003-1.228-3.003-3.361V5.387H92.11v6.141c0 3.254 1.88 5.15 4.817 5.15 2.959 0 4.838-1.896 4.838-5.15v-6.14H99.93zm4.03 3.167c.993 1.229 2.354 1.918 4.082 1.918 2.031 0 3.651-1.271 3.672-3.296 0-3.707-5.465-2.931-5.465-5.366 0-.84.627-1.53 1.793-1.53.951 0 1.771.517 2.355 1.336l1.274-1.077c-.756-1.056-2.095-1.789-3.65-1.789-2.096 0-3.543 1.4-3.543 3.103 0 3.836 5.443 2.974 5.443 5.409 0 .948-.691 1.68-1.9 1.68-1.102 0-2.009-.538-2.765-1.486zm11.456-12.196a1.28 1.28 0 0 0 1.274-1.293c0-.69-.562-1.271-1.274-1.271-.713 0-1.296.582-1.296 1.271 0 .711.583 1.293 1.296 1.293m-.929 13.683h1.836V5.387h-1.836zm10.468-11.291c-3.521 0-5.897 2.694-5.897 5.861 0 3.168 2.376 5.861 5.897 5.861 3.499 0 5.897-2.693 5.897-5.86s-2.398-5.862-5.897-5.862m.022 9.999c-2.333 0-3.996-1.875-3.996-4.138s1.663-4.137 3.996-4.137c2.268 0 3.931 1.875 3.931 4.137 0 2.241-1.663 4.137-3.931 4.137m8.611 1.293h1.836v-7.52c.691-1.142 1.684-2.047 3.261-2.047 1.685 0 2.787 1.12 2.787 3.06v6.507h1.836V9.675c0-3.081-1.815-4.719-4.256-4.719-1.62 0-2.743.69-3.628 1.66v-1.23h-1.836z" fill="#000091"/><path d="M50.8 13.425a2.76 2.76 0 0 0 2.786-2.758c0-1.466-1.21-2.672-2.786-2.672s-2.83 1.206-2.83 2.672c0 1.508 1.253 2.758 2.83 2.758" fill="#E1000F"/><rect y="21.634" width="144" height="14.366" rx="1" fill="#000091"/><path d="M9.35 31.974c-1.563 0-2.687-1.228-2.687-2.797 0-1.56 1.124-2.798 2.686-2.798.942 0 1.702.46 2.173 1.132l.985-.758c-.696-.918-1.798-1.527-3.158-1.527-2.354 0-3.949 1.815-3.949 3.95s1.595 3.951 3.95 3.951c1.359 0 2.46-.608 3.157-1.527l-.985-.758a2.6 2.6 0 0 1-2.173 1.132m7.933-6.748c-2.354 0-3.949 1.815-3.949 3.95s1.595 3.951 3.95 3.951c2.343 0 3.948-1.815 3.948-3.95s-1.605-3.95-3.949-3.95m0 6.748c-1.562 0-2.686-1.228-2.686-2.797 0-1.56 1.124-2.798 2.686-2.798 1.563 0 2.676 1.228 2.676 2.798 0 1.558-1.113 2.797-2.676 2.797m5.619.939h1.22v-5.905l3.853 5.905h1.595V25.44h-1.231v5.904l-3.853-5.904h-1.584zm8.165-6.354h2.408v6.354h1.23V26.56h2.409v-1.12h-6.047zm7.565 6.354h1.22v-3.16h1.038l2.087 3.16h1.456l-2.376-3.406c.781-.331 1.23-1.004 1.23-1.912 0-1.324-.962-2.156-2.536-2.156h-2.119zm2.183-6.439c.76 0 1.2.427 1.2 1.1 0 .715-.44 1.143-1.2 1.143h-.963v-2.243zm4.809 6.439h1.22V25.44h-1.22zm3.533 0h2.173c1.648 0 2.665-.833 2.665-2.168 0-.822-.46-1.484-1.295-1.815a1.69 1.69 0 0 0 .856-1.505c0-1.228-.91-1.986-2.398-1.986h-2zm2.023-6.439c.696 0 1.102.363 1.102.983 0 .65-.406 1.025-1.102 1.025h-.803v-2.008zm.214 3.033c.835 0 1.327.427 1.327 1.185 0 .747-.492 1.185-1.327 1.185h-1.017v-2.37zm8.801.63c0 1.174-.675 1.836-1.724 1.836-1.07 0-1.744-.662-1.744-1.837V25.44h-1.22v4.612c0 1.933 1.156 3.075 2.964 3.075 1.81 0 2.954-1.142 2.954-3.075V25.44h-1.23zm2.573-3.578h2.408v6.354h1.23V26.56h2.409v-1.12h-6.047zm7.565 6.354h4.174v-1.036h-2.954v-2.253h2.525v-1.036h-2.525v-2.114h2.954V25.44h-4.174zm10.629-2.776c0 1.174-.674 1.836-1.723 1.836-1.07 0-1.744-.662-1.744-1.837V25.44h-1.22v4.612c0 1.933 1.156 3.075 2.964 3.075s2.954-1.142 2.954-3.075V25.44h-1.23zm3.313 2.776h1.22v-3.16h1.039l2.087 3.16h1.455L87.7 29.508c.782-.331 1.231-1.004 1.231-1.912 0-1.324-.963-2.156-2.537-2.156h-2.119zm2.184-6.439c.76 0 1.198.427 1.198 1.1 0 .715-.438 1.143-1.198 1.143h-.964v-2.243zm11.001-1.249c-2.355 0-3.95 1.815-3.95 3.95s1.595 3.951 3.95 3.951c2.343 0 3.949-1.815 3.949-3.95s-1.606-3.95-3.95-3.95m0 6.748c-1.563 0-2.687-1.228-2.687-2.797 0-1.56 1.124-2.798 2.686-2.798 1.563 0 2.676 1.228 2.676 2.798 0 1.558-1.113 2.797-2.675 2.797m5.619.939h1.22v-3.289h2.526v-1.036h-2.526v-2.114h2.954V25.44h-4.174zm5.696 0h1.221v-3.289h2.525v-1.036h-2.525v-2.114h2.954V25.44h-4.175zm5.697 0h1.22V25.44h-1.22zm6.84-.94c-1.563 0-2.687-1.228-2.687-2.797 0-1.56 1.124-2.798 2.687-2.798.941 0 1.701.46 2.172 1.132l.985-.758c-.696-.918-1.798-1.527-3.157-1.527-2.355 0-3.95 1.815-3.95 3.95s1.595 3.951 3.95 3.951c1.359 0 2.461-.608 3.157-1.527l-.985-.758a2.6 2.6 0 0 1-2.172 1.132m4.719.94h1.221V25.44h-1.221zm3.533 0h4.174v-1.036h-2.954v-2.253h2.526v-1.036h-2.526v-2.114h2.954V25.44h-4.174zm6.125 0h4.174v-1.122h-2.954V25.44h-1.22z" fill="#fff"/></svg>