<svg xml:space="preserve" width="446.176" height="190.302" viewBox="0 0 446.176 190.302" xmlns="http://www.w3.org/2000/svg"><path d="M231.203 90.373c5.315 0 9.45 2.53 11.981 6.58v7.34l-11.473-1.941c-5.317-.929-7.511-3.206-7.511-6.41 0-3.293 2.616-5.57 7.003-5.57m-15.776 5.23c0 6.414 4.976 11.055 14.003 12.572l13.754 2.279v2.191c0 5.234-3.881 8.44-9.367 8.44-4.64 0-8.266-2.11-10.715-5.57l-6.495 4.978c3.796 5.063 9.872 8.268 17.466 8.268 11.471 0 17.801-6.749 17.801-16.116V84.55h-8.69v4.81c-3.037-3.713-8.353-6.075-13.583-6.075-8.437 0-14.174 4.809-14.174 12.317m41.172 31.471h8.69v-4.134c3.205 3.375 7.424 5.822 13.5 5.822 9.363 0 16.534-6.328 16.534-18.646V84.551h-8.774v25.227c0 6.749-3.71 10.8-9.787 10.8-5.822 0-9.281-3.629-11.473-7.34V84.551h-8.69zm-6-81.361 7.001-5.359c-3.977-5.358-10.371-8.813-18.408-8.813-14.605 0-23.767 10.802-23.767 23.505 0 12.704 9.162 23.506 23.767 23.506 7.95 0 14.431-3.457 18.408-8.816l-7.001-5.358c-2.42 3.372-6.396 5.791-11.407 5.791-8.383 0-14.433-6.568-14.433-15.123 0-8.643 6.05-15.124 14.518-15.124 4.926 0 8.902 2.421 11.322 5.791" style="fill:#2c3c88;fill-opacity:1;fill-rule:nonzero;stroke:none;stroke-width:.1" transform="matrix(1.33333 0 0 -1.33333 -268.939 190.821)"/><path d="M271.334 67.902h-9.44v7.846h9.44v10.63h8.773v-10.63h15.217v-7.846h-15.217V47.991c0-5.738 3.039-7.594 7.764-7.594 2.868 0 5.934.337 7.453.928v-7.677c-2.025-.845-5.513-1.267-8.803-1.267-9.956 0-15.187 5.232-15.187 15.61zm29.575 66.699v-5.842h8.138v8.194a5.64 5.64 0 0 1-5.263 5.614l-8.46.549v-8.153zm-91.068 0 5.585.362v8.153l-8.46-.549a5.636 5.636 0 0 1-5.262-5.614v-8.194h8.137zm0-108.902v5.84h-8.137v-8.194a5.64 5.64 0 0 1 5.262-5.614l8.46-.547v8.153z" style="fill:#2c3c88;fill-opacity:1;fill-rule:nonzero;stroke:none;stroke-width:.1" transform="matrix(1.33333 0 0 -1.33333 -268.939 190.821)"/><path d="m308.417 17.948-35.333-.765V7.3l38.069.944c3.992.262 7.128 3.603 7.128 7.61V53.59h-9.864z" style="fill:#7d92cd;fill-opacity:1;fill-rule:nonzero;stroke:none;stroke-width:.1" transform="matrix(1.33333 0 0 -1.33333 -268.939 190.821)"/><path d="M178.116 122.892c2.652 3.016 5.98 4.992 11.024 4.992s9.88-3.016 9.984-8.944c0-9.152-12.116-7.8-12.116-11.18 0-.884.676-1.612 2.132-1.612 1.872 0 3.432 1.404 4.68 2.86l5.408-4.836c-1.976-2.548-5.928-4.576-10.088-4.576-5.772 0-9.984 3.588-9.984 8.58 0 9.204 12.116 7.748 12.116 11.336 0 1.04-.728 1.82-2.236 1.82-2.34 0-4.108-1.56-5.512-3.38zm39.156-23.296c-8.632 0-14.508 6.136-14.508 14.144s5.876 14.144 14.508 14.144c8.58 0 14.456-6.136 14.456-14.144s-5.876-14.144-14.456-14.144m.052 20.54c-3.432 0-5.98-2.496-5.98-6.396s2.548-6.396 5.98-6.396c3.328 0 5.876 2.444 5.876 6.396 0 3.848-2.548 6.396-5.876 6.396m32.916 0c-3.536 0-6.032-2.496-6.032-6.396 0-3.848 2.496-6.396 5.876-6.396 2.288 0 3.9 1.04 4.836 2.392l6.448-4.888c-2.444-3.224-6.344-5.252-11.18-5.252-9.256 0-14.56 6.5-14.56 14.144s5.304 14.144 14.56 14.144c4.836 0 8.736-2.028 11.18-5.252l-6.448-4.888c-.936 1.352-2.6 2.392-4.68 2.392m19.396-22.36c2.756 0 5.146-2.444 5.146-5.252s-2.39-5.2-5.146-5.2c-2.86 0-5.254 2.392-5.254 5.2s2.394 5.252 5.254 5.252m-4.214 29.068h8.27v-26.208h-8.268zm31.72-30.368 6.344-8.632h-8.84l-5.356 8.632zm8.112 26.156-5.824-4.628c-1.196 1.508-3.38 2.496-5.876 2.496-3.12 0-5.408-.936-6.188-4.472h16.952c.26-.936.52-2.6.52-4.368 0-7.124-4.888-12.064-12.324-12.064-8.892 0-13.624 6.552-13.624 14.144 0 7.644 5.096 14.144 14.716 14.144 5.044 0 9.152-1.976 11.648-5.252m-12.948-16.38c3.068 0 4.42 2.184 4.524 3.952h-9.412c.624-2.652 2.236-3.952 4.888-3.952m19.968 10.4c0 6.448 2.964 10.712 10.088 10.712 2.444 0 4.056-.312 5.46-.936v-7.124c-.78.312-2.028.572-3.952.572-2.184 0-3.276-1.144-3.276-3.224v-8.632h7.176v-7.384h-7.176v-6.552h-8.32v6.552h-4.888v7.384h4.888Zm36.92-20.176 6.344-8.632h-8.84l-5.356 8.632zm8.112 26.156-5.824-4.628c-1.196 1.508-3.38 2.496-5.876 2.496-3.12 0-5.408-.936-6.187-4.472h16.951c.26-.936.52-2.6.52-4.368 0-7.124-4.888-12.064-12.324-12.064-8.892 0-13.624 6.552-13.624 14.144 0 7.644 5.096 14.144 14.716 14.144 5.044 0 9.152-1.976 11.648-5.252m-12.947-16.38c3.067 0 4.42 2.184 4.523 3.952h-9.412c.624-2.652 2.236-3.952 4.888-3.952M180.04 177.51h8.268v-16.328c.52-.884 1.82-3.172 4.732-3.172 2.652 0 4.056 1.82 4.056 4.472v15.028h8.32v-15.392c0-7.956-4.576-11.856-10.14-11.856-3.068 0-5.252 1.04-6.968 2.496v-1.456h-8.268Zm48.462-11.388c0 2.756-1.404 4.68-4.368 4.68-3.066 0-4.42-1.924-4.42-4.68v-14.82h-8.32v14.352c0 7.852 4.524 12.896 12.688 12.896 8.06 0 12.74-5.044 12.74-12.896v-14.352h-8.32zm14.56 11.388h8.268v-16.328c.574-.884 1.614-3.172 4.214-3.172 2.338 0 3.534 1.612 3.534 3.952v15.548h8.32v-16.536c.416-.676 1.456-2.964 4.108-2.964 2.34 0 3.536 1.612 3.536 3.952v15.548h8.32v-15.912c0-7.592-4.368-11.336-9.62-11.336-4.316 0-6.706 1.768-8.424 3.796-1.768-2.548-4.472-3.796-7.54-3.796-2.808 0-4.888 1.04-6.448 2.392v-1.352h-8.266zm63.492-30.368 6.344-8.632h-8.84l-5.356 8.632zm8.112 26.156-5.824-4.628c-1.196 1.508-3.38 2.496-5.876 2.496-3.12 0-5.408-.936-6.186-4.472h16.95c.26-.936.52-2.6.52-4.368 0-7.124-4.888-12.064-12.324-12.064-8.892 0-13.624 6.552-13.624 14.144 0 7.644 5.096 14.144 14.716 14.144 5.044 0 9.152-1.976 11.648-5.252m-12.946-16.38c3.066 0 4.418 2.184 4.522 3.952h-9.412c.624-2.652 2.236-3.952 4.888-3.952m18.148 20.592h8.268v-15.912c.52-.884 2.496-2.652 5.512-2.652 1.352 0 2.34.156 3.224.364v-8.164a7.7 7.7 0 0 0-2.392-.364c-2.704 0-4.732 1.144-6.344 2.652v-2.132h-8.266zm25.636-29.068c2.756 0 5.147-2.444 5.147-5.252s-2.39-5.2-5.147-5.2c-2.86 0-5.253 2.392-5.253 5.2s2.393 5.252 5.253 5.252m-4.213 29.068h8.27v-26.208h-8.269zm13.417-13.104c0 7.644 4.888 14.144 13.208 14.144 3.224 0 5.512-.884 7.28-2.496v14.248h8.32v-39h-8.32v1.456c-1.768-1.612-4.056-2.496-7.28-2.496-8.32 0-13.208 6.5-13.208 14.144m8.528 0c0-3.848 2.236-6.396 5.876-6.396 2.547 0 4.524 1.092 6.084 3.068v6.656c-1.404 1.924-3.432 3.068-6.084 3.068-3.64 0-5.876-2.548-5.876-6.396m43.576 1.716c0 2.756-1.404 4.68-4.368 4.68-3.068 0-4.42-1.924-4.42-4.68v-14.82h-8.32v14.352c0 7.852 4.524 12.896 12.688 12.896 8.06 0 12.74-5.044 12.74-12.896v-14.352h-8.32zm39.364 7.176-5.824-4.628c-1.196 1.508-3.38 2.496-5.876 2.496-3.12 0-5.408-.936-6.188-4.472h16.952c.26-.936.52-2.6.52-4.368 0-7.124-4.888-12.064-12.324-12.064-8.893 0-13.624 6.552-13.624 14.144 0 7.644 5.096 14.144 14.716 14.144 5.044 0 9.152-1.976 11.648-5.252m-12.948-16.38c3.067 0 4.42 2.184 4.524 3.952h-9.413c.625-2.652 2.237-3.952 4.889-3.952" aria-label="société numérique" style="font-weight:800;font-size:39px;font-family:Marianne;-inkscape-font-specification:Marianne-ExtraBold;fill:#7d92cd"/></svg>