<svg width="16" height="16" viewBox="0 0 16 16" fill="none" xmlns="http://www.w3.org/2000/svg"><mask id="a" style="mask-type:alpha" maskUnits="userSpaceOnUse" x="0" y="0" width="16" height="16"><path fill="#D9D9D9" d="M0 0h16v16H0z"/></mask><g mask="url(#a)"><path d="M8 14.667a6.45 6.45 0 0 1-2.583-.525 6.8 6.8 0 0 1-2.125-1.434 6.8 6.8 0 0 1-1.433-2.125A6.45 6.45 0 0 1 1.333 8q0-1.383.526-2.592a6.8 6.8 0 0 1 1.433-2.116 6.8 6.8 0 0 1 2.125-1.434A6.45 6.45 0 0 1 8 1.333q.283 0 .475.192A.65.65 0 0 1 8.667 2a.65.65 0 0 1-.192.475.65.65 0 0 1-.475.192q-2.217 0-3.775 1.558T2.667 8t1.558 3.775T8 13.333t3.775-1.558q1.56-1.558 1.559-3.775 0-.283.191-.475A.65.65 0 0 1 14 7.333q.284 0 .475.192a.65.65 0 0 1 .192.475 6.45 6.45 0 0 1-.525 2.583 6.8 6.8 0 0 1-1.433 2.125 6.8 6.8 0 0 1-2.117 1.434q-1.209.525-2.592.525" fill="#1C1B1F"/></g></svg>