<svg id="Calque_1" viewBox="0 0 585.95 702.5" version="1.1" width="585.95" height="702.5" xmlns:xlink="http://www.w3.org/1999/xlink" xmlns="http://www.w3.org/2000/svg"><defs id="defs21"><linearGradient id="gradient_30" x1="374.11" y1="390.69" x2="844.81" y2="390.69" gradientUnits="userSpaceOnUse" gradientTransform="translate(-374.11 -.5)"><stop offset=".21" stop-color="#615feb" id="stop4"/><stop offset=".82" stop-color="#9b9aff" id="stop6"/></linearGradient><linearGradient id="gradient_6" x1="521.07" y1="102.83" x2="715.95" y2="102.83" gradientUnits="userSpaceOnUse"><stop offset="0" stop-color="#dc000f" id="stop9"/><stop offset="1" stop-color="#f4849a" id="stop11"/></linearGradient><linearGradient id="gradient_6-2" x1="566.01" y1="28.56" x2="678.25" y2="28.56" xlink:href="#gradient_6" gradientTransform="translate(-374.11 -.5)"/><linearGradient id="gradient_3" x1="673.65" y1="643.45" x2="960.05" y2="643.45" gradientUnits="userSpaceOnUse"><stop offset="0" stop-color="#0c008a" id="stop15"/><stop offset="1" stop-color="#615feb" id="stop17"/></linearGradient><linearGradient id="gradient_3-2" x1="749.14" y1="525.75" x2="898.92" y2="525.75" xlink:href="#gradient_3" gradientTransform="translate(-374.11 -.5)"/><linearGradient xlink:href="#gradient_6" id="linearGradient871" gradientUnits="userSpaceOnUse" x1="521.07" y1="102.83" x2="715.95" y2="102.83" gradientTransform="translate(-374.11 -.5)"/><linearGradient xlink:href="#gradient_3" id="linearGradient873" gradientUnits="userSpaceOnUse" x1="673.65" y1="643.45" x2="960.05" y2="643.45" gradientTransform="translate(-374.11 -.5)"/><style id="style2">.cls-1{fill:none;stroke:#000;stroke-linecap:round;stroke-linejoin:round;stroke-width:12.25px}</style></defs><rect x="0" y="77.9" width="470.7" height="624.59" rx="5.41" ry="5.41" id="rect23" style="stroke-width:0;fill:url(#gradient_30)"/><rect x="45.26" y="125" width="380.18" height="535.85" rx="5.41" ry="5.41" id="rect25" style="stroke-width:0;fill:#fff"/><rect x="146.96" y="54.37" width="194.87" height="95.94" rx="5.02" ry="5.02" id="rect27" style="stroke-width:0;fill:url(#linearGradient871)"/><path d="M191.9 56.12c0-31 25.13-56.12 56.12-56.12s56.12 25.13 56.12 56.12z" id="path29" style="stroke-width:0;fill:url(#gradient_6-2)"/><path class="cls-1" id="line31" d="M235.35 242.65h135.78"/><path class="cls-1" id="line33" d="M235.35 287.91h94.14"/><path class="cls-1" id="line35" d="M235.35 367.56h135.78"/><path class="cls-1" id="line37" d="M235.35 412.82h94.14"/><path class="cls-1" id="line39" d="M235.35 492.48h135.78"/><path class="cls-1" id="line41" d="M235.35 537.74h94.14"/><path class="cls-1" d="m110.43 269.8 14.12 15.68a3.13 3.13 0 0 0 4.51.15l40.76-39.72" id="path43"/><path class="cls-1" d="m110.43 393.09 14.12 15.68a3.13 3.13 0 0 0 4.51.15l40.76-39.72" id="path45"/><path class="cls-1" d="m110.43 516.37 14.12 15.68a3.13 3.13 0 0 0 4.51.15l40.76-39.72" id="path47"/><path d="M299.54 702.5s25.77-119.11 150.39-119.11S585.95 702.5 585.95 702.5z" id="path49" style="stroke-width:0;fill:url(#linearGradient873)"/><circle cx="449.92" cy="525.25" r="74.89" id="circle51" style="stroke-width:0;fill:url(#gradient_3-2)"/></svg>