<svg id="Calque_1" viewBox="0 0 689.17 702.51" version="1.1" width="689.17" height="702.51" xmlns="http://www.w3.org/2000/svg"><defs id="defs14"><linearGradient id="gradient_3" x1="659.56" y1="381.29" x2="1246.6" y2="566.88" gradientUnits="userSpaceOnUse" gradientTransform="translate(-615.29 -.5)"><stop offset="0" stop-color="#0c008a" id="stop4"/><stop offset="1" stop-color="#615feb" id="stop6"/></linearGradient><linearGradient id="gradient_6" x1="1021.6" y1="110.34" x2="1115.5" y2="110.34" gradientUnits="userSpaceOnUse" gradientTransform="translate(-615.29 -.5)"><stop offset="0" stop-color="#dc000f" id="stop9"/><stop offset="1" stop-color="#f4849a" id="stop11"/></linearGradient><style id="style2">.cls-4,.cls-5,.cls-6,.cls-8,.cls-9{stroke-width:0}.cls-4{fill:#615feb}.cls-5{fill:#9b9aff}.cls-6{fill:#0c008a}.cls-8{fill:#f49a01}.cls-9{fill:#fff}</style></defs><path id="rect16" style="stroke-width:0;fill:url(#gradient_3)" d="M41.92 295.61h612.04v362.36H41.92z"/><path class="cls-6" d="M9.5 653.88h670.17c5.24 0 9.5 4.26 9.5 9.5v39.13H0v-39.13c0-5.24 4.26-9.5 9.5-9.5" id="path18"/><rect class="cls-6" x="13.41" y="267.75" width="675.76" height="27.86" rx="2.72" ry="2.72" id="rect20"/><rect class="cls-6" x="13.41" y="353.87" width="675.76" height="27.86" rx="2.72" ry="2.72" id="rect22"/><path class="cls-5" id="rect24" d="M122.41 267.75h451.07v86.12H122.41z"/><path id="polygon26" transform="translate(-615.29 -.5)" style="stroke-width:0;fill:#dc000f" d="M1188.76 268.25H737.7l222.18-109.47z"/><path id="line28" style="fill:none;stroke:#000;stroke-linecap:round;stroke-linejoin:round;stroke-width:14.46px" d="M344.59 7.37v150.91"/><path class="cls-8" id="rect30" d="M41.92 612.7h127.44v45.27H41.92z"/><path class="cls-8" id="rect32" d="M526.52 612.7h127.44v45.27H526.52z"/><path class="cls-4" id="rect34" d="M169.36 426.57h85.52v231.4h-85.52z"/><path class="cls-4" id="rect36" d="M441 426.57h85.52v231.4H441z"/><path class="cls-6" id="rect38" d="M288.41 466.82h117.38v191.16H288.41z"/><path class="cls-5" id="rect40" d="M288.41 466.82h117.38v67.07H288.41z"/><path class="cls-9" d="M83.03 439.99h48.57c3.25 0 5.9 2.64 5.9 5.9V584.2H77.13V445.89c0-3.25 2.64-5.9 5.9-5.9" id="path42"/><path class="cls-9" d="M565.95 439.99h48.57c3.25 0 5.9 2.64 5.9 5.9V584.2h-60.37V445.89c0-3.25 2.64-5.9 5.9-5.9" id="path44"/><path d="M355.02 0h136.93c4.56 0 8.26 3.7 8.26 8.26v82.95H353.49V1.53c0-.84.69-1.53 1.53-1.53" id="path46" style="stroke-width:0;fill:#fcbcc1"/><path d="M406.31 91.21h93.9v29.99a7.28 7.28 0 0 1-7.28 7.28h-86.62z" id="path48" style="stroke-width:0;fill:url(#gradient_6)"/><path class="cls-5" d="M122.41 380.82h178.21v36.81c0 4.93-4.01 8.94-8.94 8.94H131.35c-4.93 0-8.94-4.01-8.94-8.94z" id="path50"/><path class="cls-5" d="M394.66 380.82h178.21v36.81c0 4.93-4.01 8.94-8.94 8.94H403.6c-4.93 0-8.94-4.01-8.94-8.94z" id="path52"/><path class="cls-6" d="M352.85 0h50.58v91.21h-52.02V1.45c0-.8.65-1.45 1.45-1.45z" id="path54"/><path class="cls-9" id="rect56" d="M403.33 0h49.93v91.21h-49.93z"/></svg>