<svg width="24" height="24" viewBox="0 0 24 24" fill="none" xmlns="http://www.w3.org/2000/svg"><path d="M15.535 1.115h-.024c-.024.024-.049.024-.097.073-.146.145-.657.824-.657.824L13.64 3.394 12.326 4.97 10.09 7.758s-1.021 1.284-.802 2.86 1.41 2.352 2.309 2.643c.9.315 2.31.412 3.452-.703 1.143-1.116 1.094-2.764 1.094-2.764l-.097-3.564-.073-2.06-.049-1.77s0-.848-.024-1.067c0-.048-.024-.072-.024-.097v-.024a.25.25 0 0 0-.146-.121c-.025 0-.049-.024-.098-.024-.024.024-.072.024-.097.048M11.89 0C6.929.048 2.31 3.2.633 8.145c-2.115 6.28 1.24 13.091 7.512 15.225 1.264.436 2.553.63 3.84.63h.025c5.008 0 9.651-3.151 11.353-8.145 1.726-5.091-.17-10.57-4.303-13.576l.122 2.545c2.066 2.279 2.893 5.503 1.847 8.558-1.531 4.533-6.588 6.909-11.304 5.333-4.716-1.6-7.293-6.57-5.737-11.103 1.021-3.054 3.646-5.115 6.685-5.673L12.326 0z" fill="#0058CC"/></svg>