<svg width="140" height="120" viewBox="0 0 140 120" fill="none" xmlns="http://www.w3.org/2000/svg">
<g clip-path="url(#clip0_35690_9816)">
<mask id="mask0_35690_9816" style="mask-type:luminance" maskUnits="userSpaceOnUse" x="0" y="0" width="140" height="120">
<path d="M140 0H0V120H140V0Z" fill="white"/>
</mask>
<g mask="url(#mask0_35690_9816)">
<mask id="mask1_35690_9816" style="mask-type:luminance" maskUnits="userSpaceOnUse" x="0" y="0" width="140" height="120">
<path d="M140 0H0V120H140V0Z" fill="white"/>
</mask>
<g mask="url(#mask1_35690_9816)">
<mask id="mask2_35690_9816" style="mask-type:luminance" maskUnits="userSpaceOnUse" x="13" y="0" width="104" height="120">
<path d="M116.668 0H13.418V119.914H116.668V0Z" fill="white"/>
</mask>
<g mask="url(#mask2_35690_9816)">
<mask id="mask3_35690_9816" style="mask-type:alpha" maskUnits="userSpaceOnUse" x="13" y="0" width="105" height="120">
<path fill-rule="evenodd" clip-rule="evenodd" d="M65.3074 0.212858C65.1022 0.0935456 64.8487 0.0930825 64.643 0.211642L13.6787 29.5952C13.4731 29.7138 13.3468 29.933 13.3477 30.1702L13.5657 89.3418C13.5667 89.5763 13.6917 89.7928 13.8948 89.9107L39.4999 104.799L65.1009 119.685C65.3063 119.804 65.5598 119.805 65.7653 119.686L91.2474 104.995L116.73 90.303C116.935 90.1845 117.062 89.9649 117.061 89.7276L116.843 30.5564C116.842 30.3216 116.717 30.1053 116.514 29.9872L65.3074 0.212858Z" fill="#CACAFB"/>
</mask>
<g mask="url(#mask3_35690_9816)">
<path fill-rule="evenodd" clip-rule="evenodd" d="M65.3074 0.212858C65.1022 0.0935456 64.8487 0.0930825 64.643 0.211642L13.6787 29.5952C13.4731 29.7138 13.3468 29.933 13.3477 30.1702L13.5657 89.3418C13.5667 89.5763 13.6917 89.7928 13.8948 89.9107L39.4999 104.799L65.1009 119.685C65.3063 119.804 65.5598 119.805 65.7653 119.686L91.2474 104.995L116.73 90.303C116.935 90.1845 117.062 89.9649 117.061 89.7276L116.843 30.5564C116.842 30.3216 116.717 30.1053 116.514 29.9872L65.3074 0.212858Z" fill="url(#paint0_linear_35690_9816)"/>
<path d="M91.0977 114.581V35.2309L117.166 20.2012" stroke="#FBB8F6" stroke-width="1.10972"/>
<path d="M28.3047 12.9297L130.098 114.582" stroke="#FBB8F6" stroke-width="1.10972"/>
<path d="M65.2031 49.776V-23.2715" stroke="#FBB8F6" stroke-width="1.10972"/>
<path d="M45.1367 69.9777L136.411 45.5547" stroke="#FBB8F6" stroke-width="1.10972"/>
<path d="M6.45703 47.6738L45.1391 69.9759V120.398" stroke="#FBB8F6" stroke-width="1.10972"/>
</g>
</g>
<mask id="mask4_35690_9816" style="mask-type:alpha" maskUnits="userSpaceOnUse" x="63" y="15" width="41" height="47">
<path d="M63.7656 15.1465V31.1924H67.034C68.0292 31.2037 68.9794 31.6066 69.6793 32.3134C70.3786 33.02 70.7707 33.9737 70.7707 34.9675C70.7707 35.9609 70.3786 36.9144 69.6793 37.6213C68.9794 38.328 68.0292 38.7309 67.034 38.7425H63.7656V54.788H80.6591V58.1773C80.6533 58.6765 80.7468 59.1722 80.934 59.6352C81.1214 60.0984 81.3989 60.5201 81.7505 60.8752C82.1022 61.2303 82.5207 61.5121 82.9821 61.7049C83.444 61.8969 83.9394 61.9965 84.4391 61.9965C84.9394 61.9965 85.4348 61.8969 85.8958 61.7049C86.3577 61.5121 86.7768 61.2303 87.1281 60.8752C87.4795 60.5201 87.7572 60.0984 87.9445 59.6352C88.1317 59.1722 88.2254 58.6765 88.2196 58.1773V54.788H103.461V15.1465H63.7656Z" fill="#FCEEAC"/>
</mask>
<g mask="url(#mask4_35690_9816)">
<path d="M63.7656 15.1465V31.1924H67.034C68.0292 31.2037 68.9794 31.6066 69.6793 32.3134C70.3786 33.02 70.7707 33.9737 70.7707 34.9675C70.7707 35.9609 70.3786 36.9144 69.6793 37.6213C68.9794 38.328 68.0292 38.7309 67.034 38.7425H63.7656V54.788H80.6591V58.1773C80.6533 58.6765 80.7468 59.1722 80.934 59.6352C81.1214 60.0984 81.3989 60.5201 81.7505 60.8752C82.1022 61.2303 82.5207 61.5121 82.9821 61.7049C83.444 61.8969 83.9394 61.9965 84.4391 61.9965C84.9394 61.9965 85.4348 61.8969 85.8958 61.7049C86.3577 61.5121 86.7768 61.2303 87.1281 60.8752C87.4795 60.5201 87.7572 60.0984 87.9445 59.6352C88.1317 59.1722 88.2254 58.6765 88.2196 58.1773V54.788H103.461V15.1465H63.7656Z" fill="#A558A0"/>
<path d="M79.3582 22.8184V28.2863H73.8828V22.8184H79.3582Z" fill="#FBB8F6" stroke="#FBB8F6" stroke-width="1.75946"/>
<path d="M79.6138 22.5625H73.625V28.5431H79.6138V22.5625Z" stroke="#FBB8F6" stroke-width="1.75946" stroke-linecap="round" stroke-linejoin="round"/>
<path d="M82.4258 24.4453H96.3555" stroke="#FBB8F6" stroke-width="1.75946" stroke-linecap="round" stroke-linejoin="round"/>
<path d="M82.4258 26.6328H93.4935" stroke="#FBB8F6" stroke-width="1.75946" stroke-linecap="round" stroke-linejoin="round"/>
<path d="M79.3582 32.1875V37.6554H73.8828V32.1875H79.3582Z" fill="#FBB8F6" stroke="#FBB8F6" stroke-width="1.75946"/>
<path d="M79.6138 31.9316H73.625V37.9122H79.6138V31.9316Z" stroke="#FBB8F6" stroke-width="1.75946" stroke-linecap="round" stroke-linejoin="round"/>
<path d="M82.4258 33.8164H96.3555" stroke="#FBB8F6" stroke-width="1.75946" stroke-linecap="round" stroke-linejoin="round"/>
<path d="M82.4258 36.002H93.4935" stroke="#FBB8F6" stroke-width="1.75946" stroke-linecap="round" stroke-linejoin="round"/>
<path d="M79.3582 41.5566V47.0246H73.8828V41.5566H79.3582Z" fill="#FBB8F6" stroke="#FBB8F6" stroke-width="1.75946"/>
<path d="M79.6138 41.3008H73.625V47.2812H79.6138V41.3008Z" stroke="#FBB8F6" stroke-width="1.75946" stroke-linecap="round" stroke-linejoin="round"/>
<path d="M82.4258 43.1855H96.3555" stroke="#FBB8F6" stroke-width="1.75946" stroke-linecap="round" stroke-linejoin="round"/>
<path d="M82.4258 45.3711H93.4935" stroke="#FBB8F6" stroke-width="1.75946" stroke-linecap="round" stroke-linejoin="round"/>
</g>
<path d="M67.0318 31.1924H63.7633V15.1465H24.0742V54.788H40.1332V51.3818C40.1141 50.3805 40.4949 49.4125 41.1905 48.6911C41.8864 47.9697 42.8406 47.5541 43.8435 47.5355C44.8462 47.5165 45.8154 47.8963 46.5379 48.5911C47.26 49.2858 47.6766 50.2388 47.6952 51.2403V54.788H63.7633V38.7425H67.0318C68.0267 38.7309 68.9773 38.328 69.6766 37.6213C70.376 36.9144 70.7681 35.9609 70.7681 34.9675C70.7681 33.9737 70.376 33.02 69.6766 32.3134C68.9773 31.6066 68.0267 31.2037 67.0318 31.1924Z" fill="white"/>
<mask id="mask5_35690_9816" style="mask-type:alpha" maskUnits="userSpaceOnUse" x="24" y="47" width="47" height="48">
<path d="M69.8493 72.012C69.4983 71.661 69.0815 71.3829 68.623 71.1927C68.1641 71.0032 67.6724 70.9059 67.1756 70.906H63.7628V54.7878H47.6646V51.2776C47.653 50.2879 47.2513 49.3424 46.5461 48.6468C45.8412 47.9508 44.8901 47.5605 43.8987 47.5605C42.9076 47.5605 41.9562 47.9508 41.2511 48.6468C40.5462 49.3424 40.1443 50.2879 40.1327 51.2776V54.7878H24.0703V94.4299H63.7628V78.4572H67.1756C67.9223 78.4548 68.6516 78.2325 69.2719 77.8169C69.8923 77.4015 70.3758 76.813 70.6617 76.1235C70.9476 75.4348 71.0231 74.6768 70.878 73.945C70.7334 73.2131 70.3758 72.541 69.8493 72.012Z" fill="#FBE769"/>
</mask>
<g mask="url(#mask5_35690_9816)">
<path d="M69.8493 72.012C69.4983 71.661 69.0815 71.3829 68.623 71.1927C68.1641 71.0032 67.6724 70.9059 67.1756 70.906H63.7628V54.7878H47.6646V51.2776C47.653 50.2879 47.2513 49.3424 46.5461 48.6468C45.8412 47.9508 44.8901 47.5605 43.8987 47.5605C42.9076 47.5605 41.9562 47.9508 41.2511 48.6468C40.5462 49.3424 40.1443 50.2879 40.1327 51.2776V54.7878H24.0703V94.4299H63.7628V78.4572H67.1756C67.9223 78.4548 68.6516 78.2325 69.2719 77.8169C69.8923 77.4015 70.3758 76.813 70.6617 76.1235C70.9476 75.4348 71.0231 74.6768 70.878 73.945C70.7334 73.2131 70.3758 72.541 69.8493 72.012Z" fill="#FDDBFA"/>
<path d="M69.8493 72.012C69.4983 71.661 69.0815 71.3829 68.623 71.1927C68.1641 71.0032 67.6724 70.9059 67.1756 70.906H63.7628V54.7878H47.6646V51.2776C47.653 50.2879 47.2513 49.3424 46.5461 48.6468C45.8412 47.9508 44.8901 47.5605 43.8987 47.5605C42.9076 47.5605 41.9562 47.9508 41.2511 48.6468C40.5462 49.3424 40.1443 50.2879 40.1327 51.2776V54.7878H24.0703V94.4299H63.7628V78.4572H67.1756C67.9223 78.4548 68.6516 78.2325 69.2719 77.8169C69.8923 77.4015 70.3758 76.813 70.6617 76.1235C70.9476 75.4348 71.0231 74.6768 70.878 73.945C70.7334 73.2131 70.3758 72.541 69.8493 72.012Z" fill="#FDDBFA"/>
</g>
<path d="M37.6676 63.9883H31.332V86.107H37.6676V63.9883Z" fill="#A558A0"/>
<path d="M47.4805 70.2949H41.1445V86.1049H47.4805V70.2949Z" fill="#A558A0"/>
<path d="M57.2926 73.3262H50.957V86.105H57.2926V73.3262Z" fill="#A558A0"/>
<path d="M111.057 58.543L122.793 96.3185L84.9433 108.045L80.2123 92.8173L83.4127 91.8254C83.8931 91.6906 84.3414 91.4617 84.7334 91.1524C85.1245 90.8434 85.4509 90.46 85.693 90.0246C85.9354 89.5889 86.0888 89.1098 86.145 88.6143C86.2007 88.1195 86.1584 87.6182 86.0194 87.1397C85.8802 86.6605 85.6481 86.2143 85.3357 85.8261C85.0231 85.4372 84.6369 85.1142 84.1984 84.876C83.7608 84.6372 83.28 84.4875 82.7832 84.4351C82.2873 84.383 81.7854 84.4295 81.3073 84.5715L77.9714 85.605L73.207 70.2698L89.3471 65.2692L90.3538 68.5102C90.6601 69.4556 91.3268 70.2431 92.21 70.7005C93.0932 71.1585 94.1209 71.2499 95.0715 70.9554C96.0218 70.6608 96.8177 70.0044 97.2865 69.128C97.7549 68.2514 97.8586 67.2256 97.5749 66.2731L96.5681 63.032L111.057 58.543Z" fill="white"/>
<path d="M93.0321 80.4342C93.6583 80.2398 94.0087 79.5756 93.8144 78.9502C93.6199 78.3245 92.9545 77.9748 92.3284 78.1688C91.7019 78.3629 91.3514 79.0274 91.5458 79.6527C91.7402 80.2783 92.4056 80.6282 93.0321 80.4342Z" fill="#A558A0"/>
<path d="M97.4459 83.0452C98.0724 82.8513 98.4227 82.1869 98.2281 81.5613C98.0339 80.9358 97.3687 80.5861 96.7422 80.7801C96.1159 80.9744 95.7656 81.6387 95.9599 82.2642C96.1541 82.8896 96.8198 83.2395 97.4459 83.0452Z" fill="#A558A0"/>
<path d="M103.079 77.3187C103.705 77.1247 104.055 76.4604 103.861 75.8347C103.667 75.2094 103.001 74.8596 102.375 75.0535C101.749 75.2475 101.398 75.9121 101.593 76.5374C101.787 77.1631 102.452 77.5129 103.079 77.3187Z" fill="#A558A0"/>
<path d="M112.165 75.6234C112.791 75.4294 113.141 74.7651 112.947 74.1395C112.753 73.5138 112.087 73.1643 111.461 73.3582C110.835 73.5522 110.484 74.2167 110.679 74.8423C110.873 75.4679 111.538 75.8175 112.165 75.6234Z" fill="#A558A0"/>
<path d="M86.9225 95.8186C87.549 95.6246 87.8992 94.9603 87.7047 94.3347C87.5104 93.709 86.8452 93.3595 86.2187 93.5536C85.5926 93.7474 85.2422 94.4119 85.4364 95.0374C85.631 95.6628 86.2963 96.0127 86.9225 95.8186Z" fill="#FEE7FC"/>
<path d="M96.817 90.3249C97.4434 90.1306 97.7939 89.4662 97.5993 88.8408C97.4051 88.2151 96.7397 87.8654 96.1132 88.0594C95.487 88.2537 95.1368 88.918 95.3309 89.5435C95.5253 90.1689 96.1908 90.5188 96.817 90.3249Z" fill="#FEE7FC"/>
<path d="M104.676 94.2797C105.303 94.0855 105.653 93.421 105.459 92.7957C105.264 92.1701 104.599 91.8202 103.973 92.0147C103.346 92.2086 102.996 92.873 103.19 93.4986C103.385 94.1239 104.05 94.4738 104.676 94.2797Z" fill="#FEE7FC"/>
<path d="M114.887 88.973C115.514 88.7789 115.864 88.1145 115.67 87.4889C115.475 86.8633 114.81 86.5139 114.184 86.7079C113.557 86.9018 113.207 87.5661 113.401 88.1918C113.596 88.8171 114.261 89.167 114.887 88.973Z" fill="#FEE7FC"/>
<path d="M86.5703 94.6854L96.4641 89.1922L104.325 93.1463L114.536 87.8398" stroke="#FEE7FC" stroke-width="1.75946" stroke-linecap="round" stroke-linejoin="round"/>
<path d="M111.812 74.4902L106.787 78.9097L102.73 76.1857L97.0965 81.9116L92.681 79.3017L87.6172 84.5289" stroke="#A558A0" stroke-width="1.75946" stroke-linecap="round" stroke-linejoin="round"/>
<mask id="mask6_35690_9816" style="mask-type:alpha" maskUnits="userSpaceOnUse" x="32" y="21" width="23" height="24">
<path d="M50.656 24.2734L47.0317 28.7503C48.1009 29.6122 48.8104 30.8409 49.0208 32.1972C49.2315 33.5529 48.9285 34.9387 48.171 36.0834C47.4135 37.2284 46.2559 38.0503 44.9242 38.3885C43.5926 38.727 42.1825 38.5574 40.9692 37.9133L38.2656 42.999C40.7451 44.312 43.625 44.656 46.3446 43.9632C49.0638 43.271 51.4274 41.5921 52.9744 39.2538C54.5218 36.9159 55.1413 34.086 54.7124 31.3164C54.2841 28.5467 52.8377 26.036 50.656 24.2734Z" fill="#FCEEAC"/>
<path d="M34.1055 26.8786L38.9328 30.0259C39.3549 29.3797 39.9079 28.8288 40.5564 28.4094C41.205 27.9901 41.9344 27.7111 42.6977 27.5909C43.4608 27.4708 44.2407 27.5119 44.9871 27.7117C45.7333 27.9116 46.4294 28.2655 47.0299 28.7511L50.6539 24.2742C49.4261 23.2829 48.004 22.5599 46.4789 22.1517C44.9538 21.7436 43.3598 21.6595 41.8002 21.9051C40.2408 22.1504 38.75 22.7199 37.4246 23.5767C36.0991 24.4334 34.9685 25.5583 34.1055 26.8786Z" fill="#FBE769"/>
<path d="M40.9684 37.9143C40.2903 37.5552 39.6947 37.0585 39.2196 36.4567C38.7444 35.8547 38.4002 35.1607 38.2089 34.4185C38.0176 33.6761 37.9831 32.9023 38.108 32.146C38.2329 31.3899 38.5142 30.668 38.9339 30.0263L34.1066 26.8789C33.2491 28.1903 32.6746 29.6658 32.4197 31.2108C32.1647 32.7563 32.235 34.3378 32.6262 35.8544C33.0173 37.3712 33.7204 38.7898 34.6911 40.0201C35.6618 41.2503 36.8783 42.2652 38.2635 43L40.9684 37.9143Z" fill="#B7A73F"/>
</mask>
<g mask="url(#mask6_35690_9816)">
<path d="M50.656 24.2734L47.0317 28.7505C48.1009 29.6124 48.8104 30.8413 49.0208 32.197C49.2315 33.5531 48.9285 34.9386 48.171 36.0836C47.4135 37.2285 46.2559 38.0503 44.9242 38.3885C43.5927 38.7268 42.1825 38.5574 40.9691 37.9133L38.2656 42.999C40.7451 44.312 43.625 44.6556 46.3446 43.9634C49.0638 43.2712 51.4274 41.592 52.9748 39.254C54.5218 36.9157 55.1413 34.0862 54.7128 31.3165C54.2841 28.5469 52.8377 26.036 50.656 24.2734Z" fill="#FBB8F6"/>
<path d="M34.1094 26.8786L38.937 30.0259C39.3588 29.3797 39.9118 28.8288 40.5605 28.4094C41.2087 27.9901 41.9383 27.7111 42.7015 27.5909C43.4649 27.4708 44.2448 27.5119 44.9911 27.7117C45.7372 27.9116 46.4331 28.2655 47.0336 28.7511L50.658 24.2742C49.43 23.2829 48.0079 22.5599 46.4828 22.1517C44.9575 21.7436 43.3639 21.6595 41.8043 21.9051C40.2445 22.1504 38.7542 22.7199 37.4285 23.5767C36.1032 24.4334 34.9724 25.5583 34.1094 26.8786Z" fill="#FDDBFA"/>
<path d="M40.9723 37.9125C40.2942 37.553 39.6986 37.0567 39.2235 36.4547C38.7485 35.853 38.4043 35.1586 38.213 34.4165C38.0212 33.6743 37.9872 32.9005 38.1119 32.1441C38.2368 31.388 38.5183 30.6662 38.938 30.0245L34.1107 26.877C33.2532 28.1883 32.6785 29.6637 32.4236 31.209C32.1686 32.7545 32.2389 34.3357 32.6301 35.8526C33.0212 37.3692 33.7245 38.7881 34.6952 40.0183C35.6654 41.2485 36.8824 42.2634 38.2674 42.9979L40.9723 37.9125Z" fill="#A558A0"/>
</g>
<path d="M137.23 33.7295V32.0391" stroke="#A558A0" stroke-width="1.75946" stroke-linecap="round" stroke-linejoin="round"/>
<path d="M137.23 37.7593V36.0684" stroke="#A558A0" stroke-width="1.75946" stroke-linecap="round" stroke-linejoin="round"/>
<path d="M136.216 35.4844L134.75 36.3298" stroke="#A558A0" stroke-width="1.75946" stroke-linecap="round" stroke-linejoin="round"/>
<path d="M139.712 33.4688L138.246 34.314" stroke="#A558A0" stroke-width="1.75946" stroke-linecap="round" stroke-linejoin="round"/>
<path d="M138.246 35.4844L139.712 36.3298" stroke="#A558A0" stroke-width="1.75946" stroke-linecap="round" stroke-linejoin="round"/>
<path d="M134.75 33.4688L136.216 34.314" stroke="#A558A0" stroke-width="1.75946" stroke-linecap="round" stroke-linejoin="round"/>
<path d="M2.77344 23.5344V21.8438" stroke="#A558A0" stroke-width="1.75946" stroke-linecap="round" stroke-linejoin="round"/>
<path d="M2.77344 27.5663V25.875" stroke="#A558A0" stroke-width="1.75946" stroke-linecap="round" stroke-linejoin="round"/>
<path d="M1.75912 25.2891L0.292969 26.1346" stroke="#A558A0" stroke-width="1.75946" stroke-linecap="round" stroke-linejoin="round"/>
<path d="M5.2513 23.2754L3.78516 24.1205" stroke="#A558A0" stroke-width="1.75946" stroke-linecap="round" stroke-linejoin="round"/>
<path d="M3.78516 25.2891L5.2513 26.1346" stroke="#A558A0" stroke-width="1.75946" stroke-linecap="round" stroke-linejoin="round"/>
<path d="M0.292969 23.2754L1.75912 24.1205" stroke="#A558A0" stroke-width="1.75946" stroke-linecap="round" stroke-linejoin="round"/>
<path d="M42.2885 114.46C42.931 114.46 43.4516 113.94 43.4516 113.299C43.4516 112.657 42.931 112.137 42.2885 112.137C41.646 112.137 41.125 112.657 41.125 113.299C41.125 113.94 41.646 114.46 42.2885 114.46Z" stroke="#A558A0" stroke-width="1.75946" stroke-linecap="round" stroke-linejoin="round"/>
</g>
</g>
</g>
<defs>
<linearGradient id="paint0_linear_35690_9816" x1="95.9589" y1="13.021" x2="69.5927" y2="156.115" gradientUnits="userSpaceOnUse">
<stop stop-color="#FDDBFA"/>
<stop offset="1" stop-color="#FEF7DA"/>
</linearGradient>
<clipPath id="clip0_35690_9816">
<rect width="140" height="120" fill="white"/>
</clipPath>
</defs>
</svg>
