<svg width="215" height="78" viewBox="0 0 215 78" xmlns="http://www.w3.org/2000/svg" xmlns:xlink="http://www.w3.org/1999/xlink"><title>Pix Orga Logo</title><defs><linearGradient x1="0%" y1="42.316%" x2="100%" y2="57.684%" id="b"><stop stop-color="#0df" offset="0%"/><stop stop-color="#0095c0" offset="100%"/></linearGradient><linearGradient x1="50%" y1="0%" x2="50%" y2="100%" id="d"><stop stop-color="#12a3ff" offset="0%"/><stop stop-color="#3d68ff" offset="100%"/></linearGradient><linearGradient x1="34.152%" y1="0%" x2="65.848%" y2="100%" id="e"><stop stop-color="#0df" offset="0%"/><stop stop-color="#0095c0" offset="100%"/></linearGradient><linearGradient x1="50%" y1="0%" x2="50%" y2="73.049%" id="f"><stop stop-color="#12a3ff" offset="0%"/><stop stop-color="#3d68ff" offset="100%"/></linearGradient><linearGradient x1="50%" y1="28.362%" x2="50%" y2="100%" id="g"><stop stop-color="#12a3ff" offset="0%"/><stop stop-color="#3d68ff" offset="100%"/></linearGradient><path d="M90.029 0c3.618 0 4.96.73 7.13 3.338l9.507 11.69c4.028 4.698 4.028 8.247 0 12.94l-9.506 11.69C94.99 42.268 93.647 43 90.029 43H19.658c-3.508 0-4.877-.688-6.935-3.109l-.195-.232-9.506-11.692c-3.956-4.606-4.028-8.112-.216-12.683l.216-.255 9.506-11.691C14.632.81 15.958.046 19.336.002L19.658 0H90.03" id="a"/></defs><g fill="none" fill-rule="evenodd"><g transform="translate(104.303 18.75)"><mask id="c" fill="#fff"><use xlink:href="#a"/></mask><use fill="url(#b)" xlink:href="#a"/><path d="M35.636 22.952c0 1.392-.264 2.4-.768 3.024s-1.536.936-3.048.936-2.544-.312-3.048-.936-.768-1.632-.768-3.024V19.52c0-1.416.264-2.424.768-3.024.504-.624 1.536-.936 3.048-.936s2.544.312 3.048.936c.504.6.768 1.608.768 3.024zm-3.816 6.336c2.376 0 4.008-.528 4.944-1.608s1.416-2.664 1.416-4.728V19.52c0-2.064-.456-3.624-1.392-4.704s-2.592-1.632-4.968-1.632-4.032.552-4.968 1.632-1.392 2.64-1.392 4.704v3.432c0 2.064.456 3.648 1.392 4.728s2.592 1.608 4.968 1.608m21.396-11.064c0-3.144-1.464-4.824-5.184-4.824H44.24c-1.92 0-2.736.816-2.736 2.736v11.76c0 .888.216 1.104 1.104 1.104h.312c.888 0 1.104-.216 1.104-1.104v-4.872h3.096l3.144 4.92c.552.84.936 1.056 1.92 1.056h.408l.248-.006c.756-.038.83-.286.328-1.05l-3.312-5.112c2.4-.504 3.36-2.04 3.36-4.608m-5.184-2.448c2.016 0 2.664.744 2.664 2.448 0 1.632-.648 2.424-2.664 2.424h-4.008v-3.96c0-.6.312-.912.936-.912zm17.388 9.936c0 .648-.288 1.032-.84 1.104-.264.048-.696.072-1.32.072-3.384 0-4.512-1.224-4.512-3.552v-3.84c0-2.856 1.2-3.96 4.44-3.96 1.176 0 2.304.192 3.384.6.768.264.96.048.96-.792v-.36l-.005-.253c-.028-.57-.19-.696-.931-.971-1.032-.384-2.184-.576-3.432-.576-4.8 0-7.008 2.28-7.008 6.144v3.84c0 4.344 2.112 6.096 7.128 6.096.696 0 1.368-.048 2.04-.168 1.896-.312 2.472-1.248 2.472-3.36v-4.392c0-.816-.193-1.054-.942-1.078l-.354-.002c-.864 0-1.08.216-1.08 1.08zm15.492-8.496q-.648-2.34-1.368-3.168c-.48-.576-1.296-.864-2.472-.864s-1.992.288-2.496.864q-.72.828-1.368 3.168l-2.952 10.728c-.216.84-.072 1.056.816 1.056h.336c.888 0 1.128-.216 1.392-1.056l.888-3.264h6.744l.888 3.264c.264.84.504 1.056 1.392 1.056h.336c.888 0 1.032-.216.816-1.056zM74.288 22.4l1.416-5.232.106-.375c.324-1.098.567-1.353 1.262-1.353.768 0 .96.312 1.344 1.728l1.416 5.232z" fill="#fff" fill-rule="nonzero" mask="url(#c)"/></g><path d="m26.024 24.443 11.908 14.54c2.16 2.769 2.058 3.281-1.544 3.281h-1.235c-3.602 0-4.94-.718-7.101-3.282l-6.56-7.96 1.565-1.897c1.392-1.605 2.38-3.155 2.967-4.682M36.6.006c3.393.02 3.45.567 1.332 3.281l-11.908 14.54c-.586-1.528-1.575-3.078-2.967-4.683l-1.565-1.898 6.56-7.959C30.148.801 31.469.05 34.832.007l.32-.002Z" fill="url(#d)" transform="translate(64.222 18.545)"/><path d="M21.144 42.264c3.602 0 3.705-.512 1.544-3.282l-12.35-15.078c-.926-1.128-1.44-2.051-1.44-2.77 0-.82.514-1.743 1.44-2.769l12.35-15.078C24.849.517 24.746.005 21.144.005H19.91c-3.602 0-4.94.718-7.1 3.282L3.34 14.775c-4.014 4.616-4.014 8.103 0 12.72l9.468 11.487c2.161 2.564 3.5 3.282 7.101 3.282z" fill="url(#e)" transform="matrix(-1 0 0 1 88.674 18.545)"/><path d="M.586 73.96c0 3.062.768 3.827 3.84 3.827h1.025c3.072 0 3.84-.765 3.84-3.828V56.181c2.305 3.657 6.487 5.529 12.547 5.529 11.864 0 17.753-6.21 17.753-18.545v-7.4c0-12.335-6.316-18.12-19.545-18.12-12.29 0-19.46 5.955-19.46 18.12zM30.8 43.335c0 7.145-2.39 10.122-10.669 10.122-8.45 0-10.84-3.062-10.84-10.122V36.02c0-7.146 2.561-10.208 10.84-10.208 8.45 0 10.669 3.062 10.669 10.208z" fill="url(#f)"/><path d="M47.8 56.88c0 3.062.769 3.828 3.842 3.828h1.11c3.072 0 3.84-.766 3.84-3.828V22.343c0-3.063-.768-3.828-3.84-3.828h-1.11c-3.073 0-3.841.765-3.841 3.828zm.598-47.552c2.134 2.041 5.548 2.041 7.597 0 2.133-2.127 2.133-5.53 0-7.571-2.049-2.127-5.463-2.127-7.597 0-2.133 2.041-2.133 5.444 0 7.57" fill="url(#g)"/></g></svg>