<svg width="185" height="64" viewBox="0 0 185 64" fill="none" xmlns="http://www.w3.org/2000/svg">
    <rect x="0.5" width="64" height="64" rx="8" fill="white"/>
    <path d="M17.0723 20.0003C17.0723 18.9353 17.0723 18.4028 17.2463 17.9828C17.4782 17.4227 17.9232 16.9778 18.4833 16.7458C18.9033 16.5718 19.4358 16.5718 20.5008 16.5718C23.6959 16.5718 25.2934 16.5718 26.5535 17.0937C28.2338 17.7897 29.5686 19.1246 30.2646 20.8048C30.7866 22.0649 30.7866 23.6625 30.7866 26.8575C30.7866 27.9225 30.7866 28.455 30.6126 28.875C30.3806 29.4352 29.9356 29.8801 29.3756 30.1121C28.9555 30.286 28.423 30.286 27.358 30.286C24.163 30.286 22.5654 30.286 21.3053 29.7641C19.6251 29.0682 18.2902 27.7332 17.5942 26.053C17.0723 24.7929 17.0723 23.1954 17.0723 20.0003Z" fill="#000091"/>
    <path d="M37.6434 30.286C36.5784 30.286 36.0459 30.286 35.6258 30.1121C35.0658 29.8801 34.6208 29.4352 34.3888 28.875C34.2148 28.455 34.2148 27.9225 34.2148 26.8575C34.2148 23.6625 34.2148 22.0649 34.7368 20.8048C35.4328 19.1246 36.7676 17.7897 38.4479 17.0937C39.708 16.5718 41.3056 16.5718 44.5006 16.5718C45.5656 16.5718 46.098 16.5718 46.5182 16.7458C47.0782 16.9778 47.5232 17.4227 47.7552 17.9828C47.9291 18.4028 47.9291 18.9353 47.9291 20.0004C47.9291 23.1954 47.9291 24.7929 47.4072 26.053C46.7112 27.7332 45.3763 29.0682 43.6961 29.7641C42.436 30.286 40.8384 30.286 37.6434 30.286Z" fill="#000091"/>
    <path d="M27.358 33.7146C28.423 33.7146 28.9555 33.7146 29.3756 33.8887C29.9356 34.1207 30.3806 34.5656 30.6126 35.1257C30.7866 35.5457 30.7866 36.0783 30.7866 37.1432C30.7866 40.3383 30.7866 41.9357 30.2646 43.1959C29.5686 44.8761 28.2338 46.2111 26.5535 46.9069C25.2934 47.4289 23.6959 47.4289 20.5008 47.4289C19.4358 47.4289 18.9033 47.4289 18.4833 47.2549C17.9232 47.0229 17.4782 46.578 17.2463 46.0179C17.0723 45.5979 17.0723 45.0653 17.0723 44.0003C17.0723 40.8053 17.0723 39.2079 17.5942 37.9476C18.2902 36.2675 19.6251 34.9325 21.3053 34.2367C22.5654 33.7146 24.163 33.7146 27.358 33.7146Z" fill="#000091"/>
    <path d="M47.9291 44.0003C47.9291 45.0653 47.9291 45.5979 47.7552 46.0179C47.5232 46.578 47.0782 47.0229 46.5182 47.2549C46.098 47.4289 45.5656 47.4289 44.5006 47.4289C41.3056 47.4289 39.708 47.4289 38.4479 46.9069C36.7676 46.2111 35.4328 44.8761 34.7368 43.1959C34.2148 41.9357 34.2148 40.3383 34.2148 37.1432C34.2148 36.0783 34.2148 35.5457 34.3888 35.1257C34.6208 34.5656 35.0658 34.1207 35.6258 33.8887C36.0459 33.7146 36.5784 33.7146 37.6434 33.7146C40.8385 33.7146 42.436 33.7146 43.6961 34.2367C45.3763 34.9325 46.7112 36.2675 47.4072 37.9476C47.9291 39.2079 47.9291 40.8053 47.9291 44.0003Z" fill="#000091"/>
    <path d="M96.5503 32.0498L101.5 36.9996L96.5503 41.9493L95.136 40.5351L97.672 37.9988L84.5 37.9996V35.9996L97.672 35.9988L95.136 33.464L96.5503 32.0498ZM88.4497 22.0498L89.864 23.464L87.328 25.9988L100.5 25.9996V27.9996L87.328 27.9988L89.864 30.5351L88.4497 31.9493L83.5 26.9996L88.4497 22.0498Z" fill="#000091"/>
    <rect x="120.5" width="64" height="64" rx="8" fill="white"/>
    <path d="M161.87 16.9315H161.48V14.8572H159.137V16.9315H153.668V14.8572H151.325V16.9315H145.856V14.8572H143.513V16.9315H143.123C139.061 16.9315 135.701 20.28 135.701 24.4257V41.7286C135.701 45.7943 139.061 49.1429 143.123 49.1429H161.87C165.933 49.1429 169.292 45.7943 169.292 41.6486V24.4257C169.292 20.28 165.933 16.9315 161.87 16.9315ZM143.123 19.3229H143.513V21.1572H145.856V19.3229H151.325V21.1572H153.668V19.3229H159.137V21.1572H161.48V19.3229H161.87C164.683 19.3229 166.949 21.6343 166.949 24.4257V26.9772H138.044V24.4257C138.044 21.6343 140.31 19.3229 143.123 19.3229ZM161.87 46.7515H143.123C140.31 46.7515 138.044 44.52 138.044 41.6486V29.3686H166.946V41.7286C166.946 44.52 164.68 46.7515 161.867 46.7515H161.87Z" fill="#000091"/>
    <path d="M152.486 39.9514C150.744 39.9514 149.178 38.8857 148.481 37.3743L146.041 38.5286C147.174 41.0171 149.699 42.6171 152.486 42.6171C155.274 42.6171 157.711 41.0171 158.932 38.5286L156.58 37.3743C155.797 38.9743 154.229 39.9514 152.486 39.9514Z" fill="#000091"/>
</svg>
