<svg width="40" height="40" viewBox="0 0 40 40" fill="none" xmlns="http://www.w3.org/2000/svg">
    <path d="M29.7593 4.30354H29.353V2.14282H26.9123V4.30354H21.2155V2.14282H18.7749V4.30354H13.0781V2.14282H10.6374V4.30354H10.2312C5.99934 4.30354 2.5 7.79163 2.5 12.1101V30.1339C2.5 34.369 5.99934 37.8571 10.2312 37.8571H29.7593C33.9911 37.8571 37.4904 34.369 37.4904 30.0506V12.1101C37.4904 7.79163 33.9911 4.30354 29.7593 4.30354ZM10.2312 6.79461H10.6374V8.70532H13.0781V6.79461H18.7749V8.70532H21.2155V6.79461H26.9123V8.70532H29.353V6.79461H29.7593C32.6892 6.79461 35.0498 9.20235 35.0498 12.1101V14.7678H4.94064V12.1101C4.94064 9.20235 7.30121 6.79461 10.2312 6.79461ZM29.7593 35.366H10.2312C7.30121 35.366 4.94064 33.0416 4.94064 30.0506V17.2589H35.0468V30.1339C35.0468 33.0416 32.6863 35.366 29.7563 35.366H29.7593Z" fill="#000091"/>
    <path d="M19.9855 28.2827C18.1706 28.2827 16.5395 27.1725 15.813 25.5981L13.2715 26.8005C14.4518 29.3928 17.0822 31.0595 19.9855 31.0595C22.8887 31.0595 25.4272 29.3928 26.6995 26.8005L24.2499 25.5981C23.4344 27.2648 21.8004 28.2827 19.9855 28.2827Z" fill="#000091"/>
</svg>
