<svg width="404" height="275" viewBox="0 0 404 275" fill="none" xmlns="http://www.w3.org/2000/svg"><g clip-path="url(#a)"><mask id="b" style="mask-type:luminance" maskUnits="userSpaceOnUse" x="0" y="52" width="404" height="162"><path d="M403.571 52.39H.429v161.387H403.57z" fill="#fff"/></mask><g mask="url(#b)"><path d="M127.765 52.533H9.098c-4.788 0-8.67 3.892-8.67 8.694v56.584c0 4.801 3.882 8.694 8.67 8.694h118.667c4.789 0 8.67-3.893 8.67-8.694V61.227c0-4.802-3.881-8.694-8.67-8.694" fill="#FBF5F2"/><path d="M18.63 80.816v-2.122l5.201-6.817h2.74v6.817h1.231v2.121h-1.231v3.235h-2.34v-3.234zm2.41-2.122h3.19v-4.156zm12.53-7.164c2.722 0 4.11 1.564 4.11 3.286 0 1.113-.538 2.07-1.596 2.644 1.388.573 2.133 1.703 2.133 3.182 0 2.12-1.63 3.755-4.647 3.755-3 0-4.647-1.635-4.647-3.755 0-1.479.746-2.61 2.15-3.182-1.075-.574-1.612-1.531-1.612-2.644 0-1.722 1.404-3.286 4.11-3.286m.035 5.042c1.006 0 1.665-.59 1.665-1.495 0-.921-.66-1.53-1.665-1.53-1.092 0-1.734.609-1.734 1.53 0 .904.659 1.495 1.734 1.495m-.017 5.791c1.37 0 2.219-.73 2.219-1.843 0-1.148-.85-1.93-2.22-1.93-1.387 0-2.254.782-2.254 1.93 0 1.13.867 1.843 2.255 1.843M43.764 71.53c3.19 0 4.682 2.782 4.682 6.433 0 3.652-1.492 6.435-4.682 6.435s-4.682-2.783-4.682-6.435 1.492-6.433 4.682-6.433m0 2.173c-1.543 0-2.289 1.705-2.289 4.26 0 2.574.746 4.26 2.289 4.26 1.526 0 2.271-1.703 2.271-4.26 0-2.573-.745-4.26-2.271-4.26" fill="#161616"/><path d="M104.041 70.987a4.685 4.685 0 0 1 6.385-.238 4.686 4.686 0 0 1 6.386.238 4.72 4.72 0 0 1 .245 6.394l-5.609 5.645a1.44 1.44 0 0 1-1.964.073l-.08-.073-5.609-5.645a4.72 4.72 0 0 1 .246-6.394m1.021 1.024a3.267 3.267 0 0 0-.106 4.5l.106.11 5.364 5.38 3.831-3.843-2.553-2.56-.767.767a2.16 2.16 0 0 1-3.065 0 2.176 2.176 0 0 1 0-3.073l1.518-1.523a3.244 3.244 0 0 0-4.217.136zm6.13 2.049a.723.723 0 0 1 1.022 0l3.065 3.073.511-.511a3.265 3.265 0 0 0 0-4.61 3.244 3.244 0 0 0-4.487-.107l-.111.106-2.299 2.306a.725.725 0 0 0-.055.961l.055.063a.72.72 0 0 0 .959.056l.063-.056z" fill="#BB8568"/><path d="m17.931 103.069 2.872-7.608h2.016l2.872 7.608h-1.637l-.726-1.979h-3.034l-.726 1.979zm2.84-3.293h2.08l-1.04-2.858zm8.636 2.205c.541 0 .975-.249 1.235-.629l1.073.825c-.51.674-1.311 1.109-2.308 1.109-1.886 0-3.013-1.359-3.013-2.956 0-1.598 1.127-2.956 3.013-2.956.997 0 1.799.434 2.308 1.108l-1.073.826c-.26-.38-.694-.63-1.257-.63-.9 0-1.56.695-1.56 1.652 0 .967.66 1.651 1.582 1.651m5.746 0c.542 0 .976-.249 1.236-.629l1.072.825c-.509.674-1.31 1.109-2.308 1.109-1.886 0-3.013-1.359-3.013-2.956 0-1.598 1.127-2.956 3.013-2.956.997 0 1.8.434 2.309 1.108l-1.073.826c-.26-.38-.694-.63-1.258-.63-.899 0-1.56.695-1.56 1.652 0 .967.661 1.651 1.582 1.651m5.725-4.607c1.777 0 2.99 1.314 2.99 2.956s-1.213 2.956-2.99 2.956-2.991-1.315-2.991-2.956 1.214-2.956 2.991-2.956m.022 4.607c.878 0 1.538-.706 1.538-1.651 0-.957-.66-1.652-1.538-1.652-.91 0-1.583.695-1.583 1.652 0 .956.672 1.651 1.583 1.651m4.224 1.088v-5.478h1.377v.413c.369-.358.834-.63 1.506-.63.694 0 1.3.304 1.658.89.39-.478.91-.89 1.831-.89 1.128 0 2.016.782 2.016 2.326v3.369h-1.386v-3.315c0-.663-.359-1.076-.976-1.076-.596 0-.921.413-1.138.782.01.077.01.152.01.24v3.369h-1.386v-3.315c0-.663-.358-1.076-.975-1.076-.629 0-.954.467-1.16.815v3.576zm9.96 2.673v-8.151h1.375v.446c.423-.424.954-.663 1.702-.663 1.734 0 2.775 1.358 2.775 2.956s-1.04 2.956-2.775 2.956c-.748 0-1.279-.239-1.702-.663v3.119zm2.882-7.064c-.64 0-1.16.282-1.507.794v1.716c.369.522.879.793 1.507.793.932 0 1.54-.695 1.54-1.651s-.608-1.652-1.54-1.652m5.64 4.554c-1.093 0-1.841-.631-1.841-1.641 0-.827.64-1.446 1.81-1.641l1.668-.284v-.14c0-.577-.433-.946-1.062-.946-.531 0-.943.25-1.235.653l-1.008-.773c.487-.674 1.29-1.086 2.286-1.086 1.583 0 2.395.946 2.395 2.152v3.543h-1.376v-.533c-.346.423-.997.696-1.636.696m-.476-1.707c0 .37.293.609.759.609.628 0 1.083-.293 1.354-.728v-.772l-1.3.217c-.574.098-.813.337-.813.674m4.524 2.5c0-.543.27-.978.758-1.337a1.14 1.14 0 0 1-.335-.793c0-.435.184-.783.595-1.087a1.85 1.85 0 0 1-.736-1.511c0-1.065.824-1.923 2.189-1.923.422 0 .79.076 1.105.217h1.995v1.174h-.965c.054.173.075.348.075.532 0 1.076-.802 1.946-2.21 1.946-.185 0-.358-.011-.52-.044-.12.108-.185.229-.185.348 0 .217.12.326.369.326h1.376c1.376 0 2.124.739 2.124 1.76 0 1.217-1.16 2.152-2.861 2.152-1.745 0-2.774-.608-2.774-1.76m2.493-3.825c.574 0 .942-.359.942-.903 0-.543-.368-.891-.942-.891-.596 0-.954.359-.954.89 0 .545.358.904.954.904m-1.193 3.629c0 .522.5.848 1.463.848.998 0 1.507-.37 1.507-.913 0-.413-.25-.706-.91-.706h-1.691c-.206.196-.369.435-.369.771m5.284-.76v-5.478h1.377v.434c.38-.37.889-.651 1.615-.651 1.181 0 2.124.815 2.124 2.434v3.261h-1.387v-3.207c0-.728-.412-1.184-1.084-1.184-.694 0-1.062.467-1.268.815v3.576zm11.708-.892c-.51.685-1.355 1.109-2.385 1.109-1.94 0-3.034-1.359-3.034-2.956 0-1.62 1.019-2.956 2.807-2.956 1.517 0 2.514 1.032 2.514 2.467 0 .304-.044.587-.087.771h-3.826c.13 1.022.76 1.435 1.615 1.435.597 0 1.117-.261 1.409-.652zm-2.644-3.673c-.705 0-1.17.391-1.323 1.108h2.514c-.021-.554-.422-1.108-1.191-1.108m3.891 4.565v-5.478h1.377v.413c.368-.358.834-.63 1.505-.63.694 0 1.301.304 1.659.89.39-.478.91-.89 1.83-.89 1.128 0 2.016.782 2.016 2.326v3.369h-1.386v-3.315c0-.663-.358-1.076-.976-1.076-.596 0-.921.413-1.138.782.011.077.011.152.011.24v3.369h-1.387v-3.315c0-.663-.358-1.076-.975-1.076-.629 0-.954.467-1.16.815v3.576zm14.987-.892c-.51.685-1.355 1.109-2.384 1.109-1.94 0-3.035-1.359-3.035-2.956 0-1.62 1.019-2.956 2.807-2.956 1.517 0 2.514 1.032 2.514 2.467 0 .304-.044.587-.087.771H98.17c.131 1.022.76 1.435 1.616 1.435.596 0 1.116-.261 1.408-.652zm-2.644-3.673c-.705 0-1.17.391-1.322 1.108h2.513c-.021-.554-.422-1.108-1.191-1.108m3.891 4.565v-5.478h1.377v.434c.379-.37.888-.651 1.615-.651 1.181 0 2.124.815 2.124 2.434v3.261h-1.387v-3.207c0-.728-.412-1.184-1.085-1.184-.693 0-1.062.467-1.267.815v3.576zm7.025-2.001V98.83h-1.018v-1.24h1.018v-1.368h1.387v1.369h1.669v1.239h-1.669v2.238c0 .609.325.848.867.848.38 0 .629-.043.813-.119v1.207c-.271.119-.596.173-1.051.173-1.366 0-2.016-.772-2.016-2.109m3.812 1.207.91-.826c.336.424.737.728 1.257.728.444 0 .672-.261.672-.586 0-.957-2.612-.598-2.612-2.522 0-.967.813-1.695 1.951-1.695.834 0 1.593.401 1.983.935l-.911.804c-.281-.348-.639-.63-1.062-.63-.432 0-.639.238-.639.52 0 .936 2.612.61 2.612 2.5-.021 1.152-.943 1.783-1.973 1.783-.974 0-1.668-.392-2.188-1.011" fill="#3A3A3A"/><path d="M127.765 139.547H9.098c-4.788 0-8.67 3.893-8.67 8.694v56.584c0 4.801 3.882 8.695 8.67 8.695h118.667c4.789 0 8.67-3.894 8.67-8.695v-56.584c0-4.801-3.881-8.694-8.67-8.694" fill="#FBF5F2"/><path d="M21.563 171.046v-9.754l-2.514 1.425-1.162-1.669 3.745-2.174h2.272v12.172zm5.22.018v-2.122l4.161-4.103c.936-.957 1.526-1.617 1.526-2.609 0-1.008-.694-1.599-1.647-1.599-1.162 0-1.873.713-2.515 1.791l-1.907-1.165c1.023-1.67 2.532-2.713 4.647-2.713s3.815 1.356 3.815 3.443c0 1.67-1.093 2.956-2.29 4.121l-2.93 2.834h5.532v2.122zm14.423-12.52c2.722 0 4.11 1.565 4.11 3.287 0 1.112-.537 2.069-1.595 2.643 1.387.574 2.132 1.703 2.132 3.182 0 2.121-1.63 3.756-4.647 3.756-3 0-4.647-1.635-4.647-3.756 0-1.479.746-2.608 2.15-3.182-1.075-.574-1.612-1.531-1.612-2.643 0-1.722 1.404-3.287 4.11-3.287m.035 5.043c1.005 0 1.664-.591 1.664-1.496 0-.921-.659-1.53-1.664-1.53-1.093 0-1.734.609-1.734 1.53 0 .905.66 1.496 1.734 1.496m-.017 5.79c1.37 0 2.219-.73 2.219-1.843 0-1.148-.85-1.93-2.219-1.93-1.387 0-2.255.782-2.255 1.93 0 1.13.868 1.843 2.255 1.843" fill="#161616"/><path fill-rule="evenodd" clip-rule="evenodd" d="m114.645 166.107.127.129.129-.129a1.624 1.624 0 0 1 2.719.732 1.63 1.63 0 0 1-.42 1.574l-2.428 2.433-2.426-2.433a1.634 1.634 0 0 1 0-2.306 1.624 1.624 0 0 1 2.299 0m-4.22-1.202v1.449a4.34 4.34 0 0 0-4.335 4.347h-1.445c0-3.13 2.479-5.695 5.599-5.792zm0-9.419a4.34 4.34 0 0 1 4.335 4.348 4.34 4.34 0 0 1-4.173 4.344l-.162.002a4.34 4.34 0 0 1-4.335-4.346 4.34 4.34 0 0 1 4.172-4.344zm0 1.45a2.893 2.893 0 0 0-2.89 2.898 2.893 2.893 0 0 0 2.89 2.898 2.893 2.893 0 0 0 2.89-2.898 2.893 2.893 0 0 0-2.89-2.898" fill="#BB8568"/><path d="M18.884 192.256v-7.607h2.233c1.582 0 2.546.782 2.546 2.065 0 .619-.281 1.152-.812 1.499.802.359 1.246 1.011 1.246 1.805 0 1.391-1.073 2.238-2.818 2.238zm2.265-6.325h-.726v1.717h.726c.585 0 .932-.315.932-.869 0-.533-.346-.848-.932-.848m.217 2.999h-.943v2.044h.943c.715 0 1.149-.381 1.149-1.022 0-.652-.434-1.022-1.149-1.022m7.343-3.021h-1.322l1.128-1.803h1.495zm1.854 5.456c-.51.684-1.355 1.108-2.384 1.108-1.94 0-3.035-1.359-3.035-2.955 0-1.62 1.019-2.957 2.807-2.957 1.517 0 2.514 1.032 2.514 2.467 0 .305-.043.587-.087.772h-3.825c.13 1.021.759 1.435 1.615 1.435.596 0 1.116-.261 1.409-.653zm-2.645-3.673c-.704 0-1.17.391-1.322 1.108h2.515c-.022-.554-.423-1.108-1.193-1.108m3.892 4.564v-5.477h1.376v.435c.38-.37.89-.653 1.615-.653 1.181 0 2.124.815 2.124 2.434v3.261h-1.387v-3.206c0-.728-.412-1.184-1.084-1.184-.693 0-1.062.467-1.268.814v3.576zm9.854-6.347h-1.322l1.126-1.803h1.496zm1.853 5.456c-.51.684-1.356 1.108-2.385 1.108-1.94 0-3.034-1.359-3.034-2.955 0-1.62 1.019-2.957 2.807-2.957 1.517 0 2.514 1.032 2.514 2.467 0 .305-.043.587-.087.772h-3.826c.13 1.021.76 1.435 1.615 1.435.597 0 1.117-.261 1.409-.653zm-2.645-3.673c-.704 0-1.17.391-1.322 1.108h2.514c-.021-.554-.422-1.108-1.191-1.108m3.22-.913h1.019v-.576c0-1.163.77-2.097 2.135-2.097.498 0 .921.119 1.268.304l-.586 1.152a1.1 1.1 0 0 0-.661-.218c-.466 0-.77.326-.77.826v.609h1.67v1.238h-1.67v4.239h-1.386v-4.239h-1.02zm5.8-.957a.913.913 0 0 1-.9-.902c0-.489.413-.902.9-.902s.889.413.889.902a.904.904 0 0 1-.89.902m-.694 6.434v-5.477h1.376v5.477zm5.65-1.086c.541 0 .975-.25 1.235-.631l1.073.826c-.51.673-1.311 1.108-2.308 1.108-1.886 0-3.013-1.359-3.013-2.955 0-1.598 1.127-2.957 3.013-2.957.997 0 1.799.435 2.308 1.109l-1.073.825c-.26-.379-.694-.629-1.257-.629-.9 0-1.56.695-1.56 1.652 0 .967.66 1.652 1.582 1.652m4.029-5.348a.913.913 0 0 1-.9-.902c0-.489.412-.902.9-.902a.903.903 0 0 1 0 1.804m-.694 6.434v-5.477h1.376v5.477zm4.566.163c-1.094 0-1.842-.631-1.842-1.641 0-.826.64-1.445 1.81-1.641l1.668-.282v-.142c0-.576-.433-.946-1.062-.946-.53 0-.943.25-1.236.653l-1.007-.772c.487-.674 1.29-1.087 2.286-1.087 1.582 0 2.395.946 2.395 2.152v3.543h-1.376v-.533c-.346.425-.997.696-1.636.696m-.477-1.706c0 .369.292.608.759.608.628 0 1.083-.293 1.354-.728v-.771l-1.3.217c-.575.098-.813.337-.813.674m5.76-4.891a.913.913 0 0 1-.9-.902c0-.489.411-.902.9-.902a.903.903 0 0 1 0 1.804m-.694 6.434v-5.477h1.376v5.477zm3.027 0v-5.477h1.376v.543c.357-.369.824-.652 1.441-.652.184 0 .347.033.477.076v1.359a2.3 2.3 0 0 0-.607-.077 1.49 1.49 0 0 0-1.311.717v3.511zm9.197-.891c-.509.684-1.354 1.108-2.384 1.108-1.94 0-3.034-1.359-3.034-2.955 0-1.62 1.018-2.957 2.807-2.957 1.517 0 2.514 1.032 2.514 2.467 0 .305-.043.587-.086.772h-3.826c.13 1.021.759 1.435 1.615 1.435.595 0 1.116-.261 1.408-.653zm-2.644-3.673c-.704 0-1.17.391-1.322 1.108h2.515c-.022-.554-.423-1.108-1.193-1.108m3.341 3.771.91-.827c.336.424.738.729 1.258.729.444 0 .671-.261.671-.587 0-.956-2.61-.598-2.61-2.522 0-.967.812-1.695 1.95-1.695.834 0 1.593.403 1.983.935l-.91.804c-.282-.348-.64-.63-1.062-.63-.434 0-.64.239-.64.521 0 .935 2.612.609 2.612 2.5-.022 1.152-.942 1.782-1.972 1.782-.976 0-1.67-.391-2.19-1.01" fill="#3A3A3A"/><path d="M394.902 52.805H158.11c-4.638 0-8.398 3.771-8.398 8.423v143.598c0 4.651 3.76 8.422 8.398 8.422h236.792c4.639 0 8.399-3.771 8.399-8.422V61.228c0-4.652-3.76-8.423-8.399-8.423" fill="#fff"/><path d="M394.902 52.805H158.11c-4.638 0-8.398 3.771-8.398 8.423v143.598c0 4.651 3.76 8.422 8.398 8.422h236.792c4.639 0 8.399-3.771 8.399-8.422V61.228c0-4.652-3.76-8.423-8.399-8.423Z" stroke="#DDD"/><path d="M167.784 77.53v-6.847h1.775l3.052 4.95v-4.95h1.385v6.846h-1.775l-3.053-4.948v4.948zm10.23-5.125c1.6 0 2.692 1.183 2.692 2.66s-1.092 2.66-2.692 2.66c-1.599 0-2.692-1.183-2.692-2.66s1.093-2.66 2.692-2.66m.019 4.147c.791 0 1.386-.637 1.386-1.487 0-.86-.595-1.486-1.386-1.486-.819 0-1.423.625-1.423 1.486 0 .86.604 1.487 1.423 1.487m3.803.977V72.6h1.238v.372c.332-.323.752-.567 1.356-.567.624 0 1.171.273 1.493.801.351-.43.819-.801 1.648-.801 1.014 0 1.814.704 1.814 2.092v3.032h-1.249v-2.983c0-.596-.321-.968-.877-.968-.537 0-.829.372-1.024.704.009.069.009.137.009.215v3.032h-1.248v-2.983c0-.596-.322-.968-.877-.968-.566 0-.859.42-1.045.734v3.217zm14.23-2.464c0 1.438-.936 2.66-2.497 2.66-.674 0-1.151-.215-1.532-.597v.401h-1.239v-7.335h1.239v2.807c.381-.381.858-.596 1.532-.596 1.561 0 2.497 1.222 2.497 2.66m-2.673-1.486c-.575 0-1.053.254-1.356.703v1.566c.332.459.8.704 1.356.704.839 0 1.385-.626 1.385-1.487 0-.86-.546-1.486-1.385-1.486m3.807 3.95V72.6h1.238v.49c.322-.334.741-.588 1.297-.588.166 0 .312.03.43.069v1.222a2.2 2.2 0 0 0-.547-.068 1.34 1.34 0 0 0-1.18.645v3.16zm8.278-.802c-.459.617-1.219.998-2.146.998-1.746 0-2.731-1.222-2.731-2.66 0-1.458.917-2.66 2.526-2.66 1.366 0 2.263.929 2.263 2.22 0 .273-.039.528-.078.695h-3.443c.117.918.682 1.29 1.453 1.29.537 0 1.005-.234 1.268-.587zm-2.38-3.305c-.634 0-1.053.352-1.19.997h2.263c-.02-.499-.381-.997-1.073-.997m5.781 1.643c0-1.438.946-2.66 2.497-2.66.663 0 1.14.205 1.521.586v-2.797h1.248v7.335h-1.248v-.39c-.381.38-.858.586-1.521.586-1.551 0-2.497-1.222-2.497-2.66m1.297 0c0 .86.536 1.487 1.375 1.487.556 0 1.015-.235 1.346-.685v-1.605a1.6 1.6 0 0 0-1.346-.683c-.839 0-1.375.625-1.375 1.486m6.115-1.565h-1.15l.878-2.817h1.404zm3.039 4.177c-.985 0-1.658-.568-1.658-1.478 0-.743.575-1.3 1.628-1.476l1.503-.254v-.128c0-.518-.391-.85-.956-.85-.478 0-.849.224-1.112.586l-.907-.694c.438-.607 1.161-.978 2.058-.978 1.423 0 2.155.85 2.155 1.936v3.188h-1.238v-.479c-.313.382-.898.627-1.473.627m-.429-1.536c0 .332.263.547.682.547.566 0 .976-.263 1.22-.655v-.694l-1.171.195c-.517.088-.731.303-.731.607m6.918.411c.488 0 .879-.226 1.112-.568l.966.743c-.458.607-1.18.998-2.078.998-1.696 0-2.711-1.222-2.711-2.66s1.015-2.66 2.711-2.66c.898 0 1.62.39 2.078.997l-.966.744c-.233-.343-.624-.567-1.131-.567-.809 0-1.404.625-1.404 1.486 0 .87.595 1.487 1.423 1.487m5.173 0c.487 0 .878-.226 1.112-.568l.965.743c-.458.607-1.18.998-2.077.998-1.698 0-2.711-1.222-2.711-2.66s1.013-2.66 2.711-2.66c.897 0 1.619.39 2.077.997l-.965.744c-.234-.343-.625-.567-1.132-.567-.81 0-1.404.625-1.404 1.486 0 .87.594 1.487 1.424 1.487m5.152-4.147c1.6 0 2.692 1.183 2.692 2.66s-1.092 2.66-2.692 2.66-2.692-1.183-2.692-2.66 1.092-2.66 2.692-2.66m.02 4.147c.79 0 1.385-.637 1.385-1.487 0-.86-.595-1.486-1.385-1.486-.819 0-1.424.625-1.424 1.486 0 .86.605 1.487 1.424 1.487m3.802.977V72.6h1.239v.372c.331-.323.751-.567 1.356-.567.624 0 1.17.273 1.492.801.351-.43.819-.801 1.648-.801 1.014 0 1.814.704 1.814 2.092v3.032h-1.248v-2.983c0-.596-.322-.968-.878-.968-.536 0-.829.372-1.024.704.01.069.01.137.01.215v3.032h-1.249v-2.983c0-.596-.322-.968-.878-.968-.566 0-.858.42-1.043.734v3.217zm8.963 2.407V72.6h1.239v.401c.38-.381.858-.596 1.531-.596 1.56 0 2.497 1.222 2.497 2.66s-.937 2.66-2.497 2.66c-.673 0-1.151-.215-1.531-.597v2.808zm2.594-6.358c-.575 0-1.043.255-1.355.714v1.545c.331.47.789.715 1.355.715.839 0 1.386-.626 1.386-1.487 0-.86-.547-1.486-1.386-1.486m5.077 4.099c-.985 0-1.658-.568-1.658-1.478 0-.743.576-1.3 1.629-1.476l1.502-.254v-.128c0-.518-.39-.85-.956-.85-.478 0-.849.224-1.111.586l-.907-.694c.439-.607 1.16-.978 2.057-.978 1.425 0 2.156.85 2.156 1.936v3.188h-1.239v-.479c-.312.382-.897.627-1.473.627m-.429-1.536c0 .332.263.547.683.547.565 0 .975-.263 1.219-.655v-.694l-1.17.195c-.517.088-.732.303-.732.607m4.072 2.25c0-.49.244-.881.683-1.203a1.03 1.03 0 0 1-.303-.715c0-.39.166-.704.537-.978a1.67 1.67 0 0 1-.664-1.36c0-.958.741-1.73 1.97-1.73.381 0 .713.068.996.195h1.794v1.056h-.868c.049.156.069.313.069.48 0 .968-.723 1.75-1.991 1.75q-.248.002-.467-.038c-.108.097-.166.205-.166.312 0 .196.107.294.331.294h1.239c1.238 0 1.912.665 1.912 1.585 0 1.095-1.044 1.936-2.575 1.936-1.57 0-2.497-.548-2.497-1.585m2.243-3.444c.517 0 .848-.323.848-.812s-.331-.802-.848-.802c-.536 0-.858.323-.858.802 0 .49.322.812.858.812m-1.072 3.267c0 .47.448.763 1.316.763.898 0 1.356-.332 1.356-.821 0-.372-.225-.636-.819-.636h-1.522c-.186.176-.331.39-.331.694m4.755-.685V72.6h1.239v.391c.342-.332.8-.586 1.453-.586 1.064 0 1.912.733 1.912 2.19v2.934h-1.248v-2.885c0-.655-.371-1.065-.976-1.065-.624 0-.956.42-1.141.733v3.217zm10.535-.802c-.458.617-1.218.998-2.145.998-1.746 0-2.731-1.222-2.731-2.66 0-1.458.917-2.66 2.526-2.66 1.365 0 2.263.929 2.263 2.22 0 .273-.039.528-.078.695h-3.444c.118.918.684 1.29 1.454 1.29.537 0 1.004-.234 1.268-.587zm-2.38-3.305c-.633 0-1.052.352-1.19.997h2.263c-.019-.499-.38-.997-1.073-.997m3.503 4.107V72.6h1.239v.372c.332-.323.751-.567 1.355-.567.625 0 1.171.273 1.493.801.351-.43.82-.801 1.648-.801 1.015 0 1.814.704 1.814 2.092v3.032h-1.248v-2.983c0-.596-.322-.968-.878-.968-.536 0-.829.372-1.024.704.01.069.01.137.01.215v3.032h-1.249v-2.983c0-.596-.322-.968-.877-.968-.566 0-.859.42-1.044.734v3.217zm13.489-.802c-.459.617-1.219.998-2.146.998-1.746 0-2.731-1.222-2.731-2.66 0-1.458.917-2.66 2.526-2.66 1.366 0 2.263.929 2.263 2.22 0 .273-.039.528-.078.695h-3.443c.117.918.682 1.29 1.453 1.29.536 0 1.005-.234 1.268-.587zm-2.38-3.305c-.634 0-1.054.352-1.19.997h2.263c-.02-.499-.38-.997-1.073-.997m3.503 4.107V72.6h1.238v.391c.341-.332.8-.586 1.453-.586 1.063 0 1.912.733 1.912 2.19v2.934h-1.249v-2.885c0-.655-.37-1.065-.974-1.065-.625 0-.957.42-1.142.733v3.217zm6.322-1.8v-2.014h-.917V72.6h.917v-1.232h1.248V72.6h1.502v1.115h-1.502v2.015c0 .547.293.763.781.763.341 0 .565-.04.731-.108v1.086c-.244.107-.537.157-.946.157-1.229 0-1.814-.695-1.814-1.898m3.43 1.087.82-.744c.302.382.663.655 1.132.655.399 0 .603-.234.603-.528 0-.86-2.35-.538-2.35-2.269 0-.87.732-1.525 1.756-1.525.751 0 1.434.361 1.784.84l-.819.724c-.253-.312-.575-.567-.955-.567-.39 0-.576.216-.576.47 0 .84 2.35.547 2.35 2.25-.019 1.036-.847 1.603-1.774 1.603-.878 0-1.502-.352-1.971-.91" fill="#161616"/><path fill-rule="evenodd" clip-rule="evenodd" d="M174.06 175.251h8.655v-17.373a4.334 4.334 0 0 0-4.328-4.339 4.333 4.333 0 0 0-4.327 4.339z" fill="#009099"/><path d="m171.077 195.793-1.936-4.514.58-.582 4.499 1.942-.459.461-1.319-.577-1.48 1.485.575 1.324zm-.345-2.301 1.195-1.199-2.119-.927zm1.236-3.241.423-.425 2.648 1.171-1.167-2.656.422-.425 1.411 3.234-.515.516zm5.122-.491-2.317-2.323.391-.393.29.291c-.033-.374.045-.72.339-1.015a1 1 0 0 1 .225-.171l.382.383a1.2 1.2 0 0 0-.257.204c-.303.304-.345.658-.253 1.036l1.59 1.596zm-.894-4.96a.39.39 0 0 1-.552 0 .393.393 0 0 1 .004-.549.388.388 0 0 1 .548.549m2.721 3.127-2.317-2.324.391-.392 2.316 2.325zm1.216-1.22-3.447-3.459.39-.392 3.447 3.458z" fill="#161616"/><path fill-rule="evenodd" clip-rule="evenodd" d="M198.402 175.251h8.656v-77.08a4.333 4.333 0 0 0-4.328-4.34 4.334 4.334 0 0 0-4.328 4.34z" fill="#009099"/><path d="m197.253 193.362-3.218-3.229.552-.553 2.606.641-.639-2.615.552-.553 3.217 3.228-.432.433-2.638-2.647.597 2.481-.33.333-2.473-.6 2.638 2.647zm4.665-4.551c-.456.457-1.016.512-1.412.115-.349-.35-.33-.867.079-1.444l.652-.913-.161-.161c-.321-.323-.735-.277-1.066.055a1.07 1.07 0 0 0-.304.951l-.519.068c-.073-.479.083-.977.487-1.383.589-.591 1.283-.595 1.792-.083l1.555 1.559-.391.391-.294-.295c.05.401-.12.84-.418 1.14m-1.03-.295c.197.198.501.179.772-.093a1.15 1.15 0 0 0 .317-1.111l-.455-.457-.57.803c-.261.374-.261.659-.064.858m.195-4.855a.39.39 0 0 1-.552 0 .393.393 0 0 1 .005-.548.387.387 0 0 1 .547.548m2.721 3.127-2.316-2.324.391-.392 2.316 2.325z" fill="#161616"/><path fill-rule="evenodd" clip-rule="evenodd" d="M223.288 175.25h8.656v-24.428a4.334 4.334 0 0 0-4.328-4.34 4.334 4.334 0 0 0-4.328 4.34z" fill="#009099"/><path d="M222.312 193.029c.695.697.634 1.328.069 1.895a1.4 1.4 0 0 1-.243.208l-.387-.387c.069-.042.133-.088.198-.153.308-.308.4-.658-.051-1.111l-3.006-3.016.432-.434zm1.752-3.289-1.323-1.329.39-.391 1.31 1.314c.694.696.699 1.504.07 2.135-.626.628-1.431.623-2.124-.073l-1.311-1.315.392-.392 1.324 1.329c.454.456.96.474 1.355.078.386-.388.372-.9-.083-1.356m-.567-3.296a.39.39 0 0 1-.552 0 .39.39 0 0 1 .005-.548.38.38 0 0 1 .542 0 .386.386 0 0 1 .005.548m2.721 3.128-2.317-2.325.391-.393 2.317 2.325zm1.216-1.222-2.316-2.324.39-.391.262.262c-.018-.396.074-.784.419-1.13.52-.521 1.255-.557 1.912.101l1.403 1.407-.392.392-1.388-1.393c-.414-.415-.888-.419-1.246-.059-.335.337-.353.742-.257 1.134l1.604 1.61z" fill="#161616"/><path fill-rule="evenodd" clip-rule="evenodd" d="M247.632 175.251h8.656v-63.509a4.334 4.334 0 0 0-4.328-4.341 4.335 4.335 0 0 0-4.328 4.341z" fill="#009099"/><path d="M241.831 197.209c.693.697.633 1.327.068 1.895a1.5 1.5 0 0 1-.244.208l-.386-.388a1 1 0 0 0 .198-.152c.308-.309.4-.66-.05-1.111l-3.007-3.017.433-.433zm1.752-3.29-1.325-1.328.392-.392 1.309 1.314c.695.697.7 1.504.07 2.135-.626.628-1.43.623-2.125-.073l-1.309-1.314.39-.393 1.324 1.329c.456.456.961.475 1.356.078.386-.387.372-.899-.082-1.356m-.568-3.295a.39.39 0 0 1-.552 0 .39.39 0 0 1 .005-.549.388.388 0 0 1 .547.549m2.721 3.127-2.316-2.325.39-.391 2.316 2.324zm1.216-1.221-3.447-3.458.391-.393 3.447 3.459zm1.217-1.221-3.448-3.458.392-.392 3.447 3.459zm2.894-3.669c.074.508-.087 1.038-.519 1.472-.782.784-1.839.691-2.515.013-.703-.705-.799-1.706-.083-2.426.631-.631 1.481-.599 2.051-.027.092.092.166.193.216.272l-1.779 1.784c.57.545 1.259.527 1.756.028.299-.3.413-.691.358-1.052zm-2.795-.599c-.381.382-.422.875-.105 1.36l1.388-1.393c-.354-.327-.873-.378-1.283.033m3.131-.531-1.185-1.19-.437.437-.354-.354.437-.439-.58-.581.396-.396.578.58.805-.807.354.357-.804.806 1.186 1.19c.362.364.648.281.928 0 .152-.152.239-.277.29-.401l.349.35c-.065.157-.17.3-.336.466-.514.516-1.062.549-1.627-.018" fill="#161616"/><path fill-rule="evenodd" clip-rule="evenodd" d="M272.246 175.38h8.656v-56.996a4.335 4.335 0 0 0-4.328-4.341 4.335 4.335 0 0 0-4.328 4.341z" fill="#009099"/><path d="m266.984 196.856-1.935-4.515.579-.581 4.5 1.941-.459.461-1.32-.576-1.48 1.485.575 1.324zm-.345-2.301 1.195-1.199-2.119-.927zm2.664-4.859c.744-.746 1.829-.682 2.504-.004.676.678.741 1.767-.004 2.513-.749.753-1.829.683-2.505.005s-.745-1.761.005-2.514m2.137 2.136c.482-.484.432-1.245-.046-1.725-.483-.484-1.237-.53-1.719-.045-.497.497-.451 1.253.032 1.737s1.236.531 1.733.033m2.774-4.223-1.323-1.328.391-.392 1.309 1.315c.695.695.699 1.502.07 2.135-.625.627-1.43.623-2.124-.074l-1.31-1.315.391-.391 1.323 1.328c.455.457.961.475 1.356.079.386-.388.373-.9-.083-1.357m1.529-1.099-1.187-1.19-.437.437-.353-.354.436-.439-.579-.581.396-.396.579.58.805-.807.354.357-.805.806 1.186 1.19c.363.364.648.281.929 0 .151-.152.239-.277.289-.401l.349.35c-.064.157-.17.3-.335.466-.515.516-1.062.549-1.627-.018" fill="#161616"/><path fill-rule="evenodd" clip-rule="evenodd" d="M297.267 175.38h8.657v-46.14a4.334 4.334 0 0 0-4.329-4.34 4.334 4.334 0 0 0-4.328 4.34z" fill="#009099"/><path d="m291.02 196.824.027-.618c.506.065.915-.042 1.214-.342.358-.359.349-.784.055-1.079-.726-.728-2.096.959-3.158-.105-.478-.48-.474-1.269.087-1.831.451-.453.988-.578 1.545-.499l-.042.613c-.459-.083-.837-.008-1.112.268-.317.319-.322.72-.046.997.721.724 2.078-.969 3.149.106.556.557.482 1.341-.088 1.913-.473.475-1.002.646-1.631.577m4.941-4.838c.074.507-.087 1.037-.519 1.471-.782.784-1.839.692-2.515.014-.703-.706-.8-1.706-.083-2.426.631-.632 1.481-.599 2.051-.028.091.092.166.194.216.272l-1.779 1.785c.57.544 1.259.526 1.756.028.299-.3.413-.692.358-1.052zm-2.795-.6c-.381.383-.422.876-.105 1.361l1.388-1.393c-.355-.328-.874-.379-1.283.032m4.919 1.503-3.448-3.459.392-.391.275.276c-.027-.443.11-.849.456-1.194.725-.729 1.765-.618 2.44.06s.786 1.72.06 2.449a1.49 1.49 0 0 1-1.191.456l1.407 1.411zm-2.004-4.354a1.29 1.29 0 0 0-.345 1.214l.901.903c.46.102.892-.028 1.209-.345.492-.495.437-1.223-.055-1.716-.493-.493-1.218-.549-1.71-.056m3.228-.703-1.186-1.189-.436.438-.354-.355.436-.438-.579-.581.396-.396.579.58.804-.807.354.355-.804.808 1.186 1.189c.363.365.648.281.928 0a1.2 1.2 0 0 0 .289-.401l.35.351c-.064.157-.17.3-.336.465-.514.517-1.061.549-1.627-.019m2.917-1.265a.414.414 0 0 1-.589.009.42.42 0 0 1 .005-.595.414.414 0 1 1 .584.586" fill="#161616"/><path fill-rule="evenodd" clip-rule="evenodd" d="M322.22 175.38h8.656v-67.309a4.335 4.335 0 0 0-4.328-4.341 4.335 4.335 0 0 0-4.328 4.341z" fill="#009099"/><path d="M316.604 190.367c1.001-1.005 2.468-.909 3.387.013.919.923 1.016 2.394.014 3.399-1.007 1.011-2.473.914-3.392-.009-.92-.921-1.016-2.393-.009-3.403m2.997 3.006c.721-.723.661-1.825-.056-2.545s-1.816-.779-2.537-.055c-.726.728-.667 1.831.05 2.55.718.72 1.816.779 2.543.05m3.464-3.401c.285-.287.382-.66.322-1.006l.543-.074c.073.508-.078 1.028-.502 1.453-.767.77-1.834.687-2.509.009-.676-.678-.759-1.748.008-2.518.419-.42.948-.572 1.449-.503l-.073.544a1.13 1.13 0 0 0-1.007.328c-.497.498-.46 1.245.032 1.739.496.497 1.236.53 1.737.028m1.13-2.139-1.187-1.19-.437.438-.353-.355.436-.438-.579-.581.395-.396.58.58.804-.807.354.356-.804.807 1.185 1.19c.364.364.648.28.929 0 .152-.152.239-.278.289-.402l.35.351c-.064.157-.17.3-.335.466-.515.516-1.062.548-1.627-.019m2.916-1.266a.414.414 0 0 1-.589.009.42.42 0 0 1 .005-.595.413.413 0 1 1 .584.586" fill="#161616"/><path fill-rule="evenodd" clip-rule="evenodd" d="M346.327 175.38h8.656V99.386a4.334 4.334 0 0 0-4.327-4.34 4.335 4.335 0 0 0-4.329 4.34z" fill="#009099"/><path d="m342.446 195.504-3.217-3.227.565-.568 4.51.872-2.69-2.698.432-.434 3.219 3.228-.566.568-4.509-.872 2.689 2.698zm2.372-7.213c.745-.747 1.83-.682 2.506-.004.676.677.74 1.765-.005 2.513-.749.752-1.829.682-2.505.005-.676-.678-.745-1.762.004-2.514m2.138 2.136c.483-.485.432-1.246-.046-1.726-.482-.484-1.236-.53-1.719-.045-.496.497-.45 1.254.032 1.738.483.485 1.237.531 1.733.033m-.548-3.546.423-.425 2.648 1.171-1.168-2.656.423-.424 1.412 3.233-.515.516zm5.047-.313a.414.414 0 0 1-.588.008.42.42 0 0 1 .005-.595.414.414 0 1 1 .583.587" fill="#161616"/><path fill-rule="evenodd" clip-rule="evenodd" d="M370.824 175.38h8.655v-65.139a4.333 4.333 0 0 0-4.327-4.339 4.334 4.334 0 0 0-4.328 4.339z" fill="#009099"/><path d="m366.705 195.591-3.217-3.23 1.236-1.24c1.007-1.01 2.432-.955 3.301-.083.868.871.924 2.301-.083 3.312zm-1.576-4.082-.814.816 2.426 2.435.814-.816c.718-.72.695-1.785.023-2.458-.676-.678-1.733-.697-2.449.023m6.861-1.986c.074.506-.087 1.037-.52 1.47-.781.784-1.839.692-2.514.015-.704-.706-.8-1.707-.083-2.427.63-.631 1.481-.599 2.051-.027.091.092.165.194.216.272l-1.78 1.785c.571.544 1.26.525 1.756.028.3-.3.414-.693.359-1.052zm-2.795-.601c-.382.384-.423.877-.106 1.361l1.388-1.393c-.354-.327-.873-.378-1.282.032m4.569-.968c.286-.286.381-.66.322-1.006l.542-.073c.074.507-.078 1.028-.5 1.452-.768.77-1.834.687-2.51.01-.676-.678-.759-1.748.009-2.519a1.69 1.69 0 0 1 1.448-.502l-.074.544a1.13 1.13 0 0 0-1.007.327c-.496.499-.459 1.245.033 1.739.497.498 1.237.53 1.737.028m2.035-1.386a.415.415 0 0 1-.588.009.423.423 0 0 1 .004-.595.413.413 0 1 1 .584.586" fill="#161616"/></g><mask id="c" style="mask-type:luminance" maskUnits="userSpaceOnUse" x="152" y="227" width="219" height="48"><path d="M370.399 227H152.031v47.467h218.368z" fill="#fff"/></mask><g mask="url(#c)"><path d="M358.556 227H163.874c-6.541 0-11.843 5.313-11.843 11.867V262.6c0 6.554 5.302 11.867 11.843 11.867h194.682c6.541 0 11.843-5.313 11.843-11.867v-23.733c0-6.554-5.302-11.867-11.843-11.867" fill="#fff"/><path d="M165.491 256.667v-9.345h5.196v1.294h-3.677v2.644h3.144v1.295h-3.144v2.816h3.677v1.296zm8.077 0h-1.598l2.425-3.471-2.266-3.258h1.587l1.585 2.309 1.586-2.309h1.585l-2.278 3.258 2.425 3.471h-1.572l-1.746-2.537zm6.462 3.283v-10.012h1.373v.694c.573-.614 1.293-.961 2.265-.961 2.106 0 3.424 1.668 3.424 3.631s-1.318 3.632-3.424 3.632c-.972 0-1.692-.348-2.265-.962v3.978zm3.465-8.984c-.88 0-1.612.414-2.092 1.148v2.376c.493.748 1.226 1.148 2.092 1.148 1.293 0 2.158-1.014 2.158-2.336s-.865-2.336-2.158-2.336m8.488-1.295c2.185 0 3.651 1.642 3.651 3.631s-1.466 3.632-3.651 3.632c-2.171 0-3.65-1.643-3.65-3.632s1.479-3.631 3.65-3.631m.014 5.967c1.266 0 2.199-1.054 2.199-2.336 0-1.308-.933-2.336-2.199-2.336-1.293 0-2.225 1.041-2.225 2.336s.932 2.336 2.225 2.336m5.353 1.029v-6.729h1.372v.761c.466-.521 1.052-.895 1.879-.895.213 0 .412.04.586.094v1.348a2.8 2.8 0 0 0-.706-.093c-.853 0-1.413.453-1.759 1.028v4.486zm6.111-2.337v-3.151h-1.265v-1.241h1.265v-1.682h1.386v1.682h2.225v1.241h-2.225v3.151c0 .908.48 1.202 1.226 1.202.453 0 .76-.054.999-.147v1.215c-.32.133-.692.2-1.212.2-1.572 0-2.399-.828-2.399-2.47m9.532-2.576a1 1 0 0 1-.999-1.002c0-.534.44-.974.999-.974.547 0 .986.44.986.974a.996.996 0 0 1-.986 1.002m0 5.073a.99.99 0 0 1-.999-.988.993.993 0 0 1 1.985 0 .985.985 0 0 1-.986.988" fill="#161616"/><path d="M264.546 239.238h-31.829c-6.337 0-11.474 5.147-11.474 11.495 0 6.349 5.137 11.496 11.474 11.496h31.829c6.337 0 11.475-5.147 11.475-11.496 0-6.348-5.138-11.495-11.475-11.495Z" stroke="#DDD"/><path d="M231.157 255.925v-8.307h2.546c1.741 0 2.807.926 2.807 2.397 0 1.472-1.066 2.397-2.807 2.397h-1.196v3.513zm2.605-7.156h-1.255v2.492h1.255c.841 0 1.339-.474 1.339-1.269 0-.748-.498-1.223-1.339-1.223m4.357 7.156v-8.307h3.221c2.606 0 4.371 1.911 4.371 4.154s-1.765 4.153-4.371 4.153zm3.233-7.061h-1.883v5.815h1.883c1.718 0 2.949-1.294 2.949-2.907 0-1.626-1.231-2.908-2.949-2.908m6.205 7.061v-8.307h4.619v1.151h-3.268v2.35h2.795v1.151h-2.795v3.655z" fill="#000091"/><path fill-rule="evenodd" clip-rule="evenodd" d="M266.522 250.733a1.977 1.977 0 0 1-1.975 1.979h-1.974v-3.956h1.974c1.09 0 1.975.886 1.975 1.977m-2.962.99v-1.978h.987a.988.988 0 0 1 0 1.978z" fill="#000091"/><path fill-rule="evenodd" clip-rule="evenodd" d="M260.598 245.789a.493.493 0 0 0-.494.491v8.908c.003.27.221.488.491.49h7.902a.5.5 0 0 0 .348-.147.5.5 0 0 0 .143-.351v-6.918l-2.467-2.473zm.494.989h4.935v1.978h1.974v5.933h-6.909z" fill="#000091"/><path d="M346.713 239.238h-52.557c-6.336 0-11.473 5.147-11.473 11.495 0 6.349 5.137 11.496 11.473 11.496h52.557c6.337 0 11.474-5.147 11.474-11.496 0-6.348-5.137-11.495-11.474-11.495Z" stroke="#DDD"/><path d="M291.944 248.864v-1.246h6.692v1.246h-2.665v7.061h-1.362v-7.061zm8.82 7.239c-1.184 0-1.989-.676-1.989-1.733 0-.901.698-1.554 1.965-1.768l1.931-.32v-.309c0-.735-.545-1.186-1.315-1.186-.651 0-1.16.296-1.504.783l-.911-.7c.532-.712 1.385-1.163 2.451-1.163 1.611 0 2.499.949 2.499 2.266v3.952h-1.22v-.676c-.426.522-1.173.854-1.907.854m-.758-1.78c0 .463.368.783.983.783.747 0 1.327-.356 1.682-.925v-1.033l-1.61.273c-.747.131-1.055.451-1.055.902m12.075-1.388c0 1.744-1.172 3.227-3.044 3.227-.865 0-1.504-.308-2.013-.854v.617h-1.221v-8.9h1.221v3.536c.509-.546 1.148-.854 2.013-.854 1.872 0 3.044 1.483 3.044 3.228m-3.198-2.077c-.782 0-1.445.368-1.859 1.009v2.136c.438.652 1.089 1.008 1.859 1.008 1.149 0 1.919-.902 1.919-2.076 0-1.175-.77-2.077-1.919-2.077m4.728 5.067v-8.9h1.22v8.9zm8.604-.973c-.557.748-1.469 1.21-2.582 1.21-2.061 0-3.281-1.483-3.281-3.227 0-1.792 1.137-3.228 3.032-3.228 1.647 0 2.712 1.127 2.712 2.646 0 .273-.036.546-.083.724h-4.406c.083 1.305.877 1.982 2.026 1.982.722 0 1.326-.321 1.693-.819zm-2.855-4.225c-.888 0-1.504.511-1.694 1.436h3.21c-.023-.747-.556-1.436-1.516-1.436m8.305 2.635v-3.418h1.233v3.358c0 1.792-1.031 2.86-2.701 2.86-1.681 0-2.712-1.068-2.712-2.86v-3.358h1.231v3.418c0 1.032.546 1.649 1.481 1.649.912 0 1.468-.617 1.468-1.649m3.087 2.563v-5.981h1.22v.677c.414-.463.935-.795 1.669-.795.19 0 .368.035.522.083v1.198a2.5 2.5 0 0 0-.628-.083c-.758 0-1.255.404-1.563.914v3.987z" fill="#000091"/><path fill-rule="evenodd" clip-rule="evenodd" d="M350.66 246.283c.273 0 .494.222.494.494v7.912a.494.494 0 0 1-.494.494h-7.895a.494.494 0 0 1-.494-.494v-7.912c0-.272.221-.494.494-.494zm-.493 6.428h-2.961v1.483h2.961zm-3.949 0h-2.96v1.483h2.96zm3.949-2.967h-2.961v1.978h2.961zm-3.949 0h-2.96v1.978h2.96zm3.949-2.472h-2.961v1.484h2.961zm-3.949 0h-2.96v1.484h2.96z" fill="#000091"/></g><path d="M215.798.686H4.224C2.128.686.429 2.393.429 4.5v30.514c0 2.107 1.699 3.814 3.795 3.814h211.574a3.803 3.803 0 0 0 3.795-3.814V4.5a3.803 3.803 0 0 0-3.795-3.814" fill="#000091"/><path fill-rule="evenodd" clip-rule="evenodd" d="M18.77 19.121v-3.814h1.265v3.814h3.796v1.272h-3.796v3.814H18.77v-3.814h-3.794V19.12z" fill="#F5F5FE"/><path d="M36.483 26.433v-10.68h5.92v1.48h-4.19v3.02h3.584v1.48h-3.583v3.22h4.19v1.48zm8.263 0v-7.69h1.564v.748c.577-.61 1.336-1.053 2.429-1.053 1.685 0 2.975 1.144 2.975 3.372v4.623h-1.579V21.87c0-1.22-.667-1.953-1.76-1.953-1.048 0-1.67.656-2.065 1.327v5.188zm9.399 0v-7.69h1.564v.87c.531-.595 1.2-1.023 2.14-1.023.243 0 .471.046.669.107v1.541a3 3 0 0 0-.805-.107c-.972 0-1.61.52-2.004 1.175v5.127zm12.6-1.251c-.713.96-1.882 1.556-3.31 1.556-2.64 0-4.204-1.907-4.204-4.15 0-2.304 1.457-4.15 3.886-4.15 2.11 0 3.476 1.45 3.476 3.402 0 .351-.046.702-.107.93H60.84c.106 1.68 1.123 2.549 2.596 2.549.926 0 1.7-.412 2.17-1.053zm-3.658-5.432c-1.14 0-1.929.656-2.172 1.846h4.115c-.03-.961-.714-1.846-1.943-1.846m4.693 8.056c0-.778.38-1.389 1.092-1.923a1.46 1.46 0 0 1-.5-1.098c0-.61.288-1.099.88-1.51a2.64 2.64 0 0 1-1.048-2.137c0-1.48 1.14-2.7 3.006-2.7.577 0 1.078.107 1.503.305h2.824v1.343h-1.504c.138.32.213.686.213 1.052 0 1.496-1.138 2.731-3.036 2.731a4.4 4.4 0 0 1-.926-.106c-.243.198-.38.427-.38.656 0 .32.168.503.577.503h2.08c1.974 0 2.96 1.022 2.96 2.41 0 1.664-1.609 2.915-3.932 2.915-2.353 0-3.81-.87-3.81-2.441m3.445-5.142c.987 0 1.564-.656 1.564-1.526 0-.854-.577-1.495-1.564-1.495s-1.563.641-1.563 1.495c0 .87.576 1.526 1.563 1.526m-1.958 4.928c0 .855.85 1.373 2.293 1.373 1.517 0 2.398-.595 2.398-1.495 0-.656-.38-1.175-1.549-1.175H69.98c-.425.336-.714.748-.714 1.297m8.513-10.558a1.08 1.08 0 0 1-1.063-1.068c0-.58.486-1.068 1.063-1.068.576 0 1.062.488 1.062 1.068s-.486 1.068-1.062 1.068m-.79 9.399v-7.69h1.564v7.69zm3.274-1.084 1.077-.946c.501.641 1.109 1.053 1.867 1.053.744 0 1.154-.458 1.154-1.037 0-1.557-3.75-.992-3.75-3.708 0-1.266 1.063-2.273 2.596-2.273 1.123 0 2.11.55 2.657 1.281l-1.063.931c-.41-.55-.94-.93-1.578-.93-.729 0-1.094.427-1.094.945 0 1.541 3.75 1.023 3.75 3.662-.015 1.51-1.23 2.41-2.656 2.41-1.291 0-2.247-.518-2.96-1.388m8.122-1.586v-3.601h-1.443v-1.419h1.443v-1.922h1.578v1.922H92.5v1.419h-2.535v3.6c0 1.038.547 1.374 1.397 1.374.517 0 .866-.061 1.138-.168v1.388c-.364.153-.789.23-1.381.23-1.791 0-2.732-.947-2.732-2.823m5.978 2.67v-7.69h1.564v.87c.53-.595 1.199-1.023 2.14-1.023.243 0 .47.046.668.107v1.541a3 3 0 0 0-.804-.107c-.972 0-1.61.52-2.004 1.175v5.127zm12.599-1.251c-.713.96-1.882 1.556-3.309 1.556-2.641 0-4.205-1.907-4.205-4.15 0-2.304 1.458-4.15 3.887-4.15 2.11 0 3.476 1.45 3.476 3.402 0 .351-.046.702-.106.93h-5.648c.106 1.68 1.124 2.549 2.596 2.549.926 0 1.7-.412 2.171-1.053zm-3.658-5.432c-1.139 0-1.928.656-2.17 1.846h4.113c-.03-.961-.713-1.846-1.943-1.846m5.557 6.683v-7.69h1.564v.87c.531-.595 1.199-1.023 2.14-1.023.243 0 .471.046.668.107v1.541a3 3 0 0 0-.805-.107c-.971 0-1.609.52-2.003 1.175v5.127zm15.376-3.296v-4.394h1.58v4.318c0 2.304-1.321 3.677-3.462 3.677-2.155 0-3.476-1.373-3.476-3.677v-4.318h1.578v4.394c0 1.327.699 2.12 1.898 2.12 1.169 0 1.882-.793 1.882-2.12m3.956 3.296v-7.69h1.563v.748c.577-.61 1.336-1.053 2.428-1.053 1.686 0 2.976 1.144 2.976 3.372v4.623h-1.579V21.87c0-1.22-.668-1.953-1.761-1.953-1.047 0-1.669.656-2.064 1.327v5.188zm16.306-1.251c-.713.96-1.883 1.556-3.309 1.556-2.642 0-4.205-1.907-4.205-4.15 0-2.304 1.456-4.15 3.885-4.15 2.111 0 3.477 1.45 3.477 3.402 0 .351-.046.702-.107.93h-5.646c.106 1.68 1.123 2.549 2.596 2.549.925 0 1.699-.412 2.17-1.053zm-3.659-5.432c-1.138 0-1.928.656-2.171 1.846h4.115c-.031-.961-.714-1.846-1.944-1.846m11.758 6.911c-1.518 0-2.55-.87-2.55-2.227 0-1.16.896-1.999 2.519-2.273l2.475-.412v-.397c0-.946-.698-1.526-1.684-1.526-.835 0-1.488.382-1.929 1.007l-1.169-.9c.684-.915 1.776-1.495 3.143-1.495 2.064 0 3.203 1.22 3.203 2.914v5.08h-1.564v-.87c-.546.672-1.502 1.1-2.444 1.1m-.972-2.288c0 .595.471 1.007 1.261 1.007.956 0 1.7-.458 2.155-1.19v-1.328l-2.065.351c-.956.168-1.351.58-1.351 1.16m11.014.885c.865 0 1.564-.427 1.989-1.022l1.229.945c-.698.946-1.821 1.557-3.233 1.557-2.566 0-4.175-1.907-4.175-4.15s1.609-4.15 4.175-4.15c1.396 0 2.535.61 3.233 1.556l-1.229.946a2.42 2.42 0 0 0-2.004-1.022c-1.473 0-2.535 1.16-2.535 2.67 0 1.525 1.062 2.67 2.55 2.67m5.322-1.495v-3.601h-1.441v-1.419h1.441v-1.922h1.579v1.922h2.536v1.419h-2.536v3.6c0 1.038.547 1.374 1.397 1.374.516 0 .865-.061 1.139-.168v1.388c-.365.153-.79.23-1.382.23-1.791 0-2.733-.947-2.733-2.823m6.768-6.729a1.08 1.08 0 0 1-1.063-1.068c0-.58.486-1.068 1.063-1.068s1.063.488 1.063 1.068-.486 1.068-1.063 1.068m-.789 9.399v-7.69h1.563v7.69zm2.998-7.69h1.685l2.246 5.98 2.232-5.98h1.7l-2.899 7.69h-2.08zm10.066-1.709a1.08 1.08 0 0 1-1.062-1.068c0-.58.485-1.068 1.062-1.068s1.063.488 1.063 1.068-.486 1.068-1.063 1.068m-.79 9.399v-7.69h1.565v7.69zm4.576-2.67v-3.601h-1.441v-1.419h1.441v-1.922h1.579v1.922h2.536v1.419h-2.536v3.6c0 1.038.547 1.374 1.397 1.374.516 0 .865-.061 1.139-.168v1.388c-.365.153-.789.23-1.381.23-1.792 0-2.734-.947-2.734-2.823m9.96-6.24h-1.518l1.579-2.533h1.73zm2.778 7.659c-.714.96-1.882 1.556-3.309 1.556-2.642 0-4.205-1.907-4.205-4.15 0-2.304 1.457-4.15 3.886-4.15 2.11 0 3.476 1.45 3.476 3.402 0 .351-.046.702-.106.93h-5.647c.106 1.68 1.123 2.549 2.596 2.549.925 0 1.699-.412 2.17-1.053zm-3.658-5.432c-1.139 0-1.929.656-2.171 1.846h4.114c-.031-.961-.714-1.846-1.943-1.846" fill="#F5F5FE"/><path d="M252.662 22.117c.338.382.656.738.968 1.103 1.624 1.892 3.242 3.784 4.866 5.676.187.216.385.419.57.636.746.879.681 2.125-.149 2.902q-1.54 1.438-3.083 2.869c-.917.85-2.055.78-2.885-.183-1.538-1.791-3.07-3.59-4.605-5.384-.53-.62-1.068-1.228-1.6-1.847-.107-.124-.163-.115-.242.028q-1.417 2.464-2.841 4.924c-.229.392-.525.708-.98.787-.61.106-1.143-.254-1.374-.928-.45-1.31-.89-2.624-1.329-3.94a3207 3207 0 0 1-1.688-5.042q-.812-2.442-1.628-4.882l-1.692-5.043q-.73-2.182-1.452-4.368c-.28-.846-.573-1.687-.828-2.541-.192-.656.079-1.231.654-1.49a.98.98 0 0 1 .809-.012q.695.299 1.374.636c2.533 1.261 5.065 2.53 7.599 3.79q4.373 2.175 8.747 4.343 2.975 1.471 5.956 2.93.55.268.829.826c.229.463.033 1.143-.479 1.486-.363.241-.76.43-1.153.62-1.41.681-2.82 1.352-4.233 2.027-.033.017-.067.04-.133.077z" fill="#fff"/></g><defs><clipPath id="a"><path fill="#fff" d="M0 0h404v275H0z"/></clipPath></defs></svg>