<svg width="64" height="62" viewBox="0 0 64 62" fill="none" xmlns="http://www.w3.org/2000/svg"><g clip-path="url(#a)"><path d="M16.031 56.788c0-9.073 7.363-16.428 16.444-16.428 9.082 0 16.445 7.355 16.445 16.428h15.05c0-17.645-14.319-31.95-31.981-31.95-17.663 0-31.98 14.305-31.98 31.95z" fill="#DC000F"/><path d="m9.904 33.682 10.865 11.57h.003a16.4 16.4 0 0 1 11.703-4.891L31.99 24.84a31.9 31.9 0 0 0-22.086 8.842" fill="#F4849A"/><path d="m43.67 44.758 10.6-10.885c-5.76-5.59-13.618-9.033-22.28-9.033l.486 15.52c4.325 0 8.258 1.671 11.194 4.399h.002z" fill="#FCBCC1"/><path d="M54.27 33.872 43.669 44.758c3.229 3 5.25 7.278 5.25 12.03h15.05c0-8.99-3.718-17.11-9.7-22.916" fill="#615FEB"/><path d="m32.475 53.335 18.254-5.528c.877-.265 1.43.92.662 1.419l-15.096 9.818-2.618-1.435z" fill="#0C008A"/><path d="M31.99 61.913a4.305 4.305 0 0 0 4.307-4.303 4.305 4.305 0 0 0-4.308-4.303 4.305 4.305 0 0 0-4.307 4.303 4.305 4.305 0 0 0 4.307 4.303" fill="#9B9AFF"/><path d="m13.098 9.283 1.604 3.248c.097.196.283.33.498.362l3.588.52c.543.08.76.746.367 1.129L16.56 17.07a.66.66 0 0 0-.19.586l.612 3.57a.663.663 0 0 1-.96.697l-3.21-1.686a.66.66 0 0 0-.616 0l-3.209 1.686a.662.662 0 0 1-.96-.698l.612-3.57a.66.66 0 0 0-.19-.585l-2.596-2.528a.661.661 0 0 1 .366-1.128l3.588-.52a.66.66 0 0 0 .498-.363l1.605-3.248a.662.662 0 0 1 1.187 0zm39.06 0 1.605 3.248c.096.196.283.33.498.362l3.588.52c.543.08.76.746.366 1.129L55.62 17.07a.66.66 0 0 0-.19.586l.612 3.57a.663.663 0 0 1-.96.697l-3.21-1.686a.66.66 0 0 0-.615 0l-3.21 1.686a.662.662 0 0 1-.96-.698l.613-3.57a.66.66 0 0 0-.19-.585l-2.597-2.528a.661.661 0 0 1 .367-1.128l3.588-.52a.66.66 0 0 0 .498-.363l1.604-3.248a.662.662 0 0 1 1.188 0M32.583.413l1.604 3.248c.096.195.283.33.498.362l3.588.52c.543.08.76.745.367 1.129L36.044 8.2a.66.66 0 0 0-.19.586l.612 3.569a.662.662 0 0 1-.961.697l-3.209-1.685a.66.66 0 0 0-.616 0l-3.209 1.685a.662.662 0 0 1-.96-.697l.612-3.57a.66.66 0 0 0-.19-.585l-2.597-2.528a.661.661 0 0 1 .367-1.129l3.588-.52a.66.66 0 0 0 .498-.362L31.393.413a.662.662 0 0 1 1.188 0z" fill="#F49A01"/></g><defs><clipPath id="a"><path fill="#fff" d="M0 0h64v62H0z"/></clipPath></defs></svg>