<svg width="100" height="100" viewBox="0 0 100 100" fill="none" xmlns="http://www.w3.org/2000/svg"><path fill-rule="evenodd" clip-rule="evenodd" d="M96.25 30a1.25 1.25 0 1 1 0-2.5 1.25 1.25 0 0 1 0 2.5m-60 70a1.25 1.25 0 1 1 0-2.5 1.25 1.25 0 0 1 0 2.5m-17.5-87.5a1.25 1.25 0 1 1 0-2.5 1.25 1.25 0 0 1 0 2.5" fill="#cacafb"/><path d="M86.94 86.657c-6.438 5.214-15.883 4.22-21.097-2.217-5.213-6.438-4.22-15.884 2.218-21.097s15.883-4.22 21.097 2.217a1.25 1.25 0 0 1-1.943 1.573c-4.345-5.365-12.216-6.192-17.581-1.847-5.365 4.344-6.192 12.215-1.848 17.58 4.345 5.366 12.216 6.193 17.581 1.848a12.49 12.49 0 0 0 4.532-11.316 1.25 1.25 0 1 1 2.48-.318 14.99 14.99 0 0 1-5.439 13.577" fill="#e1000f"/><path d="m72.552 74.82 2.912 3.444 7.585-8.878a1.34 1.34 0 0 1 1.947-.108c.509.48.586 1.272.17 1.87l-.068.086-8.21 9.612a1.875 1.875 0 0 1-2.857-.007l-3.537-4.18a1.43 1.43 0 0 1 .112-1.956c.528-.493 1.334-.483 1.872.037z" fill="#e1000f"/><path d="M28.75 12.5c.641 0 1.17.483 1.242 1.104l.008.146v3.75h40v-3.75a1.25 1.25 0 0 1 2.492-.146l.008.146v3.75h8.75a6.25 6.25 0 0 1 6.244 5.979l.006.271v32.5a1.25 1.25 0 0 1-2.492.146L85 56.25V35h-6.25a1.25 1.25 0 0 1-.146-2.492l.146-.008H85v-8.75a3.75 3.75 0 0 0-3.53-3.744L81.25 20H72.5v3.75a1.25 1.25 0 0 1-2.492.146L70 23.75V20H30v3.75a1.25 1.25 0 0 1-2.492.146l-.008-.146V20h-8.75a3.75 3.75 0 0 0-3.744 3.53l-.006.22v8.75h12.5v-1.25a1.25 1.25 0 0 1 2.492-.146l.008.146v1.25h41.25a1.25 1.25 0 0 1 .146 2.492L71.25 35H30v1.25a1.25 1.25 0 0 1-2.492.146l-.008-.146V35H15v41.25a3.75 3.75 0 0 0 3.53 3.744l.22.006h35a1.25 1.25 0 0 1 .146 2.492l-.146.008h-35a6.25 6.25 0 0 1-6.244-5.979l-.006-.271v-52.5a6.25 6.25 0 0 1 5.979-6.244l.271-.006h8.75v-3.75c0-.69.56-1.25 1.25-1.25m30 67.5a1.25 1.25 0 1 0 0 2.5 1.25 1.25 0 0 0 0-2.5" fill="#000091"/><path fill-rule="evenodd" clip-rule="evenodd" d="M37.5 46.25a3.75 3.75 0 0 0-3.75-3.75h-7.5a3.75 3.75 0 0 0-3.75 3.75v5A3.75 3.75 0 0 0 26.25 55h7.5a3.75 3.75 0 0 0 3.75-3.75zm-12.5 0c0-.69.56-1.25 1.25-1.25h7.5c.69 0 1.25.56 1.25 1.25v5c0 .69-.56 1.25-1.25 1.25h-7.5c-.69 0-1.25-.56-1.25-1.25zm48.75-3.75a3.75 3.75 0 0 1 3.75 3.75v5A3.75 3.75 0 0 1 73.75 55h-7.5a3.75 3.75 0 0 1-3.75-3.75v-5a3.75 3.75 0 0 1 3.75-3.75zm-7.5 2.5c-.69 0-1.25.56-1.25 1.25v5c0 .69.56 1.25 1.25 1.25h7.5c.69 0 1.25-.56 1.25-1.25v-5c0-.69-.56-1.25-1.25-1.25zm-12.5-2.5h-7.5a3.75 3.75 0 0 0-3.75 3.75v5A3.75 3.75 0 0 0 46.25 55h7.5a3.75 3.75 0 0 0 3.75-3.75v-5a3.75 3.75 0 0 0-3.75-3.75m-7.5 2.5h7.5c.69 0 1.25.56 1.25 1.25v5c0 .69-.56 1.25-1.25 1.25h-7.5c-.69 0-1.25-.56-1.25-1.25v-5c0-.69.56-1.25 1.25-1.25m-12.5 15a3.75 3.75 0 0 1 3.75 3.75v5a3.75 3.75 0 0 1-3.75 3.75h-7.5a3.75 3.75 0 0 1-3.75-3.75v-5A3.75 3.75 0 0 1 26.25 60zm-7.5 2.5c-.69 0-1.25.56-1.25 1.25v5c0 .69.56 1.25 1.25 1.25h7.5c.69 0 1.25-.56 1.25-1.25v-5c0-.69-.56-1.25-1.25-1.25zm27.5-2.5h-7.5a3.75 3.75 0 0 0-3.75 3.75v5a3.75 3.75 0 0 0 3.75 3.75h7.5a3.75 3.75 0 0 0 3.75-3.75v-5A3.75 3.75 0 0 0 53.75 60m-7.5 2.5h7.5c.69 0 1.25.56 1.25 1.25v5c0 .69-.56 1.25-1.25 1.25h-7.5c-.69 0-1.25-.56-1.25-1.25v-5c0-.69.56-1.25 1.25-1.25" fill="#000091"/></svg>