<svg width="386" height="394" viewBox="0 0 386 394" fill="none" xmlns="http://www.w3.org/2000/svg">
<g clip-path="url(#clip0_27637_81140)">
<path d="M372.954 234H59.0456C51.8407 234 46 239.848 46 247.061V380.939C46 388.152 51.8407 394 59.0456 394H372.954C380.159 394 386 388.152 386 380.939V247.061C386 239.848 380.159 234 372.954 234Z" fill="white"/>
<path d="M78.0182 264.531L83.3992 265.301L84.1679 270.688L79.1712 275.691C78.959 275.903 78.6148 275.903 78.4025 275.691L73.0215 270.303C72.8092 270.091 72.8092 269.746 73.0215 269.533L78.0182 264.531ZM78.4025 265.685L74.1746 269.918L78.7869 274.536L83.0149 270.303L82.4383 266.263L78.4025 265.685ZM79.5557 269.149C79.131 268.724 79.131 268.034 79.5557 267.609C79.9801 267.184 80.6684 267.184 81.0931 267.609C81.5175 268.034 81.5175 268.724 81.0931 269.149C80.6684 269.574 79.9801 269.574 79.5557 269.149Z" fill="#000091"/>
<path d="M92.0361 268.016V266.816H98.4855V268.016H95.9172V274.816H94.6045V268.016H92.0361ZM100.537 274.988C99.3951 274.988 98.6189 274.336 98.6189 273.319C98.6189 272.451 99.2924 271.822 100.514 271.616L102.374 271.308V271.011C102.374 270.302 101.849 269.868 101.107 269.868C100.48 269.868 99.9887 270.154 99.6577 270.622L98.7787 269.948C99.2924 269.262 100.114 268.828 101.142 268.828C102.694 268.828 103.55 269.742 103.55 271.011V274.816H102.374V274.165C101.963 274.668 101.244 274.988 100.537 274.988ZM99.8061 273.274C99.8061 273.719 100.16 274.028 100.754 274.028C101.473 274.028 102.032 273.685 102.374 273.136V272.142L100.822 272.405C100.103 272.531 99.8061 272.839 99.8061 273.274ZM104.777 275.845C104.777 275.262 105.062 274.805 105.599 274.405C105.347 274.188 105.222 273.879 105.222 273.582C105.222 273.125 105.439 272.759 105.884 272.451C105.382 272.074 105.096 271.491 105.096 270.851C105.096 269.742 105.952 268.828 107.357 268.828C107.79 268.828 108.167 268.908 108.487 269.056H110.61V270.062H109.48C109.582 270.302 109.639 270.576 109.639 270.851C109.639 271.971 108.783 272.896 107.357 272.896C107.105 272.896 106.877 272.862 106.66 272.816C106.478 272.965 106.375 273.136 106.375 273.308C106.375 273.548 106.5 273.685 106.809 273.685H108.372C109.856 273.685 110.598 274.451 110.598 275.491C110.598 276.736 109.388 277.674 107.642 277.674C105.873 277.674 104.777 277.022 104.777 275.845ZM107.368 271.994C108.11 271.994 108.544 271.502 108.544 270.851C108.544 270.211 108.11 269.731 107.368 269.731C106.626 269.731 106.192 270.211 106.192 270.851C106.192 271.502 106.626 271.994 107.368 271.994ZM105.895 275.685C105.895 276.325 106.535 276.714 107.619 276.714C108.761 276.714 109.423 276.268 109.423 275.594C109.423 275.102 109.137 274.714 108.258 274.714H106.432C106.112 274.965 105.895 275.274 105.895 275.685ZM114.287 271.754H115.463L115.965 269.879H114.287V268.919H116.239L116.81 266.816H117.883L117.312 268.919H119.184L119.755 266.816H120.828L120.257 268.919H121.159V269.879H119.983L119.481 271.754H121.159V272.714H119.207L118.636 274.816H117.563L118.134 272.714H116.262L115.691 274.816H114.618L115.189 272.714H114.287V271.754ZM116.536 271.754H118.408L118.91 269.879H117.038L116.536 271.754ZM124.17 274.805V268.085L122.264 269.148L121.625 268.256L124.193 266.805H125.414V274.805H124.17Z" fill="#3A3A3A"/>
<path d="M162.595 263.388H149.549C145.947 263.388 143.026 266.312 143.026 269.918C143.026 273.525 145.947 276.449 149.549 276.449H162.595C166.197 276.449 169.117 273.525 169.117 269.918C169.117 266.312 166.197 263.388 162.595 263.388Z" fill="#F6F6F6"/>
<path d="M178.334 266.565C179.476 266.565 180.263 267.422 180.263 268.474C180.263 269.525 179.476 270.382 178.334 270.382C177.17 270.382 176.394 269.525 176.394 268.474C176.394 267.422 177.17 266.565 178.334 266.565ZM177.158 274.805L183.014 266.805H184.236L178.38 274.805H177.158ZM178.334 269.571C178.928 269.571 179.361 269.091 179.361 268.474C179.361 267.845 178.928 267.376 178.334 267.376C177.729 267.376 177.295 267.845 177.295 268.474C177.295 269.102 177.729 269.571 178.334 269.571ZM183.083 271.216C184.224 271.216 185.012 272.074 185.012 273.125C185.012 274.176 184.224 275.034 183.083 275.034C181.918 275.034 181.142 274.176 181.142 273.125C181.142 272.074 181.918 271.216 183.083 271.216ZM183.083 274.222C183.676 274.222 184.11 273.742 184.11 273.125C184.11 272.496 183.676 272.028 183.083 272.028C182.478 272.028 182.044 272.496 182.044 273.125C182.044 273.754 182.478 274.222 183.083 274.222Z" fill="#666666"/>
<mask id="mask0_27637_81140" style="mask-type:luminance" maskUnits="userSpaceOnUse" x="198" y="263" width="162" height="14">
<path d="M353.386 263.388H204.993C201.39 263.388 198.47 266.312 198.47 269.918C198.47 273.525 201.39 276.449 204.993 276.449H353.386C356.988 276.449 359.909 273.525 359.909 269.918C359.909 266.312 356.988 263.388 353.386 263.388Z" fill="white"/>
</mask>
<g mask="url(#mask0_27637_81140)">
<path d="M353.386 263.388H204.993C201.39 263.388 198.47 266.312 198.47 269.918C198.47 273.525 201.39 276.449 204.993 276.449H353.386C356.988 276.449 359.909 273.525 359.909 269.918C359.909 266.312 356.988 263.388 353.386 263.388Z" fill="#E8EDFF"/>
<path d="M360.724 263.388H204.993C201.39 263.388 198.47 266.312 198.47 269.918C198.47 273.525 201.39 276.449 204.993 276.449H360.724C364.326 276.449 367.247 273.525 367.247 269.918C367.247 266.312 364.326 263.388 360.724 263.388Z" fill="#8BA7F8"/>
</g>
<path d="M78.0182 293.919L83.3992 294.688L84.1679 300.076L79.1712 305.078C78.959 305.291 78.6148 305.291 78.4025 305.078L73.0215 299.691C72.8092 299.478 72.8092 299.134 73.0215 298.921L78.0182 293.919ZM78.4025 295.073L74.1746 299.306L78.7869 303.924L83.0149 299.691L82.4383 295.65L78.4025 295.073ZM79.5557 298.536C79.131 298.111 79.131 297.422 79.5557 296.997C79.9801 296.572 80.6684 296.572 81.0931 296.997C81.5175 297.422 81.5175 298.111 81.0931 298.536C80.6684 298.962 79.9801 298.962 79.5557 298.536Z" fill="#000091"/>
<path d="M92.0361 297.404V296.204H98.4855V297.404H95.9172V304.204H94.6045V297.404H92.0361ZM100.537 304.375C99.3951 304.375 98.6189 303.724 98.6189 302.707C98.6189 301.838 99.2924 301.21 100.514 301.004L102.374 300.695V300.398C102.374 299.69 101.849 299.255 101.107 299.255C100.48 299.255 99.9887 299.541 99.6577 300.01L98.7787 299.335C99.2924 298.65 100.114 298.215 101.142 298.215C102.694 298.215 103.55 299.13 103.55 300.398V304.204H102.374V303.553C101.963 304.055 101.244 304.375 100.537 304.375ZM99.8061 302.661C99.8061 303.107 100.16 303.415 100.754 303.415C101.473 303.415 102.032 303.073 102.374 302.524V301.53L100.822 301.793C100.103 301.918 99.8061 302.227 99.8061 302.661ZM104.777 305.233C104.777 304.65 105.062 304.193 105.599 303.793C105.347 303.575 105.222 303.267 105.222 302.97C105.222 302.513 105.439 302.147 105.884 301.838C105.382 301.461 105.096 300.878 105.096 300.238C105.096 299.13 105.952 298.215 107.357 298.215C107.79 298.215 108.167 298.295 108.487 298.444H110.61V299.45H109.48C109.582 299.69 109.639 299.964 109.639 300.238C109.639 301.358 108.783 302.284 107.357 302.284C107.105 302.284 106.877 302.25 106.66 302.204C106.478 302.353 106.375 302.524 106.375 302.695C106.375 302.935 106.5 303.073 106.809 303.073H108.372C109.856 303.073 110.598 303.838 110.598 304.878C110.598 306.124 109.388 307.061 107.642 307.061C105.873 307.061 104.777 306.41 104.777 305.233ZM107.368 301.381C108.11 301.381 108.544 300.89 108.544 300.238C108.544 299.598 108.11 299.118 107.368 299.118C106.626 299.118 106.192 299.598 106.192 300.238C106.192 300.89 106.626 301.381 107.368 301.381ZM105.895 305.073C105.895 305.713 106.535 306.101 107.619 306.101C108.761 306.101 109.423 305.655 109.423 304.981C109.423 304.49 109.137 304.101 108.258 304.101H106.432C106.112 304.353 105.895 304.661 105.895 305.073ZM114.287 301.141H115.463L115.965 299.267H114.287V298.307H116.239L116.81 296.204H117.883L117.312 298.307H119.184L119.755 296.204H120.828L120.257 298.307H121.159V299.267H119.983L119.481 301.141H121.159V302.101H119.207L118.636 304.204H117.563L118.134 302.101H116.262L115.691 304.204H114.618L115.189 302.101H114.287V301.141ZM116.536 301.141H118.408L118.91 299.267H117.038L116.536 301.141ZM122.309 304.204V303.073L125.026 300.318C125.825 299.495 126.236 299.05 126.236 298.295C126.236 297.53 125.688 297.095 124.958 297.095C124.147 297.095 123.634 297.541 123.188 298.284L122.161 297.655C122.823 296.615 123.759 295.975 125.072 295.975C126.43 295.975 127.515 296.855 127.515 298.193C127.515 299.278 126.807 300.101 125.917 301.004L123.828 303.073H127.731V304.204H122.309Z" fill="#3A3A3A"/>
<path d="M162.595 292.776H149.549C145.947 292.776 143.026 295.699 143.026 299.306C143.026 302.913 145.947 305.837 149.549 305.837H162.595C166.197 305.837 169.117 302.913 169.117 299.306C169.117 295.699 166.197 292.776 162.595 292.776Z" fill="#F6F6F6"/>
<path d="M178.334 295.953C179.476 295.953 180.263 296.81 180.263 297.861C180.263 298.913 179.476 299.77 178.334 299.77C177.17 299.77 176.394 298.913 176.394 297.861C176.394 296.81 177.17 295.953 178.334 295.953ZM177.158 304.193L183.014 296.193H184.236L178.38 304.193H177.158ZM178.334 298.958C178.928 298.958 179.361 298.478 179.361 297.861C179.361 297.233 178.928 296.764 178.334 296.764C177.729 296.764 177.295 297.233 177.295 297.861C177.295 298.49 177.729 298.958 178.334 298.958ZM183.083 300.604C184.224 300.604 185.012 301.461 185.012 302.513C185.012 303.564 184.224 304.421 183.083 304.421C181.918 304.421 181.142 303.564 181.142 302.513C181.142 301.461 181.918 300.604 183.083 300.604ZM183.083 303.61C183.676 303.61 184.11 303.13 184.11 302.513C184.11 301.884 183.676 301.415 183.083 301.415C182.478 301.415 182.044 301.884 182.044 302.513C182.044 303.141 182.478 303.61 183.083 303.61Z" fill="#666666"/>
<path d="M353.386 292.776H204.993C201.39 292.776 198.47 295.699 198.47 299.306C198.47 302.913 201.39 305.837 204.993 305.837H353.386C356.988 305.837 359.909 302.913 359.909 299.306C359.909 295.699 356.988 292.776 353.386 292.776Z" fill="#E8EDFF"/>
<path d="M324.033 292.776H204.993C201.39 292.776 198.47 295.699 198.47 299.306C198.47 302.913 201.39 305.837 204.993 305.837H324.033C327.636 305.837 330.556 302.913 330.556 299.306C330.556 295.699 327.636 292.776 324.033 292.776Z" fill="#8BA7F8"/>
<path d="M78.0182 323.306L83.3992 324.076L84.1679 329.464L79.1712 334.466C78.959 334.678 78.6148 334.678 78.4025 334.466L73.0215 329.078C72.8092 328.866 72.8092 328.522 73.0215 328.309L78.0182 323.306ZM78.4025 324.461L74.1746 328.694L78.7869 333.312L83.0149 329.078L82.4383 325.038L78.4025 324.461ZM79.5557 327.924C79.131 327.5 79.131 326.81 79.5557 326.385C79.9801 325.96 80.6684 325.96 81.0931 326.385C81.5175 326.81 81.5175 327.5 81.0931 327.924C80.6684 328.349 79.9801 328.349 79.5557 327.924Z" fill="#000091"/>
<path d="M92.0361 326.792V325.592H98.4855V326.792H95.9172V333.592H94.6045V326.792H92.0361ZM100.537 333.763C99.3951 333.763 98.6189 333.112 98.6189 332.095C98.6189 331.226 99.2924 330.598 100.514 330.392L102.374 330.083V329.786C102.374 329.078 101.849 328.643 101.107 328.643C100.48 328.643 99.9887 328.929 99.6577 329.398L98.7787 328.723C99.2924 328.038 100.114 327.603 101.142 327.603C102.694 327.603 103.55 328.518 103.55 329.786V333.592H102.374V332.94C101.963 333.443 101.244 333.763 100.537 333.763ZM99.8061 332.049C99.8061 332.495 100.16 332.803 100.754 332.803C101.473 332.803 102.032 332.46 102.374 331.912V330.918L100.822 331.18C100.103 331.306 99.8061 331.615 99.8061 332.049ZM104.777 334.62C104.777 334.038 105.062 333.58 105.599 333.18C105.347 332.963 105.222 332.655 105.222 332.358C105.222 331.9 105.439 331.535 105.884 331.226C105.382 330.849 105.096 330.266 105.096 329.626C105.096 328.518 105.952 327.603 107.357 327.603C107.79 327.603 108.167 327.683 108.487 327.832H110.61V328.838H109.48C109.582 329.078 109.639 329.352 109.639 329.626C109.639 330.746 108.783 331.672 107.357 331.672C107.105 331.672 106.877 331.638 106.66 331.592C106.478 331.74 106.375 331.912 106.375 332.083C106.375 332.323 106.5 332.46 106.809 332.46H108.372C109.856 332.46 110.598 333.226 110.598 334.266C110.598 335.512 109.388 336.449 107.642 336.449C105.873 336.449 104.777 335.798 104.777 334.62ZM107.368 330.769C108.11 330.769 108.544 330.278 108.544 329.626C108.544 328.986 108.11 328.506 107.368 328.506C106.626 328.506 106.192 328.986 106.192 329.626C106.192 330.278 106.626 330.769 107.368 330.769ZM105.895 334.46C105.895 335.1 106.535 335.489 107.619 335.489C108.761 335.489 109.423 335.043 109.423 334.369C109.423 333.878 109.137 333.489 108.258 333.489H106.432C106.112 333.74 105.895 334.049 105.895 334.46ZM114.287 330.529H115.463L115.965 328.655H114.287V327.695H116.239L116.81 325.592H117.883L117.312 327.695H119.184L119.755 325.592H120.828L120.257 327.695H121.159V328.655H119.983L119.481 330.529H121.159V331.489H119.207L118.636 333.592H117.563L118.134 331.489H116.262L115.691 333.592H114.618L115.189 331.489H114.287V330.529ZM116.536 330.529H118.408L118.91 328.655H117.038L116.536 330.529ZM127.811 331.352C127.811 332.838 126.601 333.82 124.969 333.82C123.531 333.82 122.595 333.215 121.956 332.118L123.051 331.443C123.519 332.323 124.113 332.7 124.958 332.7C125.859 332.7 126.533 332.175 126.533 331.295C126.533 330.46 125.917 329.912 124.958 329.912H123.622V328.792H124.821C125.631 328.792 126.168 328.323 126.168 327.615C126.168 326.895 125.631 326.483 124.901 326.483C124.204 326.483 123.713 326.838 123.348 327.478L122.321 326.849C122.903 325.912 123.759 325.363 124.981 325.363C126.407 325.363 127.458 326.198 127.458 327.489C127.458 328.243 127.115 328.895 126.464 329.283C127.332 329.683 127.811 330.449 127.811 331.352Z" fill="#3A3A3A"/>
<path d="M162.595 322.163H149.549C145.947 322.163 143.026 325.087 143.026 328.694C143.026 332.301 145.947 335.225 149.549 335.225H162.595C166.197 335.225 169.117 332.301 169.117 328.694C169.117 325.087 166.197 322.163 162.595 322.163Z" fill="#F6F6F6"/>
<path d="M178.334 325.34C179.476 325.34 180.263 326.198 180.263 327.249C180.263 328.3 179.476 329.158 178.334 329.158C177.17 329.158 176.394 328.3 176.394 327.249C176.394 326.198 177.17 325.34 178.334 325.34ZM177.158 333.58L183.014 325.58H184.236L178.38 333.58H177.158ZM178.334 328.346C178.928 328.346 179.361 327.866 179.361 327.249C179.361 326.62 178.928 326.152 178.334 326.152C177.729 326.152 177.295 326.62 177.295 327.249C177.295 327.878 177.729 328.346 178.334 328.346ZM183.083 329.992C184.224 329.992 185.012 330.849 185.012 331.9C185.012 332.952 184.224 333.809 183.083 333.809C181.918 333.809 181.142 332.952 181.142 331.9C181.142 330.849 181.918 329.992 183.083 329.992ZM183.083 332.998C183.676 332.998 184.11 332.518 184.11 331.9C184.11 331.272 183.676 330.803 183.083 330.803C182.478 330.803 182.044 331.272 182.044 331.9C182.044 332.529 182.478 332.998 183.083 332.998Z" fill="#666666"/>
<path d="M353.386 322.163H204.993C201.39 322.163 198.47 325.087 198.47 328.694C198.47 332.301 201.39 335.225 204.993 335.225H353.386C356.988 335.225 359.909 332.301 359.909 328.694C359.909 325.087 356.988 322.163 353.386 322.163Z" fill="#E8EDFF"/>
<path d="M288.973 322.163H204.993C201.39 322.163 198.47 325.087 198.47 328.694C198.47 332.301 201.39 335.225 204.993 335.225H288.973C292.576 335.225 295.496 332.301 295.496 328.694C295.496 325.087 292.576 322.163 288.973 322.163Z" fill="#8BA7F8"/>
<path d="M78.0182 352.694L83.3992 353.464L84.1679 358.851L79.1712 363.854C78.959 364.066 78.6148 364.066 78.4025 363.854L73.0215 358.466C72.8092 358.254 72.8092 357.909 73.0215 357.697L78.0182 352.694ZM78.4025 353.849L74.1746 358.082L78.7869 362.7L83.0149 358.466L82.4383 354.426L78.4025 353.849ZM79.5557 357.312C79.131 356.887 79.131 356.198 79.5557 355.773C79.9801 355.348 80.6684 355.348 81.0931 355.773C81.5175 356.198 81.5175 356.887 81.0931 357.312C80.6684 357.737 79.9801 357.737 79.5557 357.312Z" fill="#000091"/>
<path d="M92.0361 356.18V354.98H98.4855V356.18H95.9172V362.98H94.6045V356.18H92.0361ZM100.537 363.151C99.3951 363.151 98.6189 362.5 98.6189 361.482C98.6189 360.614 99.2924 359.985 100.514 359.78L102.374 359.471V359.174C102.374 358.465 101.849 358.031 101.107 358.031C100.48 358.031 99.9887 358.317 99.6577 358.785L98.7787 358.111C99.2924 357.425 100.114 356.991 101.142 356.991C102.694 356.991 103.55 357.905 103.55 359.174V362.98H102.374V362.328C101.963 362.831 101.244 363.151 100.537 363.151ZM99.8061 361.437C99.8061 361.882 100.16 362.191 100.754 362.191C101.473 362.191 102.032 361.848 102.374 361.3V360.305L100.822 360.568C100.103 360.694 99.8061 361.002 99.8061 361.437ZM104.777 364.008C104.777 363.425 105.062 362.968 105.599 362.568C105.347 362.351 105.222 362.042 105.222 361.745C105.222 361.288 105.439 360.922 105.884 360.614C105.382 360.237 105.096 359.654 105.096 359.014C105.096 357.905 105.952 356.991 107.357 356.991C107.79 356.991 108.167 357.071 108.487 357.22H110.61V358.225H109.48C109.582 358.465 109.639 358.74 109.639 359.014C109.639 360.134 108.783 361.06 107.357 361.06C107.105 361.06 106.877 361.025 106.66 360.98C106.478 361.128 106.375 361.3 106.375 361.471C106.375 361.711 106.5 361.848 106.809 361.848H108.372C109.856 361.848 110.598 362.614 110.598 363.654C110.598 364.9 109.388 365.837 107.642 365.837C105.873 365.837 104.777 365.185 104.777 364.008ZM107.368 360.157C108.11 360.157 108.544 359.665 108.544 359.014C108.544 358.374 108.11 357.894 107.368 357.894C106.626 357.894 106.192 358.374 106.192 359.014C106.192 359.665 106.626 360.157 107.368 360.157ZM105.895 363.848C105.895 364.488 106.535 364.877 107.619 364.877C108.761 364.877 109.423 364.431 109.423 363.757C109.423 363.265 109.137 362.877 108.258 362.877H106.432C106.112 363.128 105.895 363.437 105.895 363.848ZM114.287 359.917H115.463L115.965 358.042H114.287V357.082H116.239L116.81 354.98H117.883L117.312 357.082H119.184L119.755 354.98H120.828L120.257 357.082H121.159V358.042H119.983L119.481 359.917H121.159V360.877H119.207L118.636 362.98H117.563L118.134 360.877H116.262L115.691 362.98H114.618L115.189 360.877H114.287V359.917ZM116.536 359.917H118.408L118.91 358.042H117.038L116.536 359.917ZM122.013 360.751V359.62L125.631 354.98H127.115V359.62H127.994V360.751H127.115V362.98H125.871V360.751H122.013ZM123.325 359.62H125.871V356.362L123.325 359.62Z" fill="#3A3A3A"/>
<path d="M162.595 351.551H149.549C145.947 351.551 143.026 354.475 143.026 358.082C143.026 361.688 145.947 364.612 149.549 364.612H162.595C166.197 364.612 169.117 361.688 169.117 358.082C169.117 354.475 166.197 351.551 162.595 351.551Z" fill="#F6F6F6"/>
<path d="M178.334 354.728C179.476 354.728 180.263 355.585 180.263 356.637C180.263 357.688 179.476 358.545 178.334 358.545C177.17 358.545 176.394 357.688 176.394 356.637C176.394 355.585 177.17 354.728 178.334 354.728ZM177.158 362.968L183.014 354.968H184.236L178.38 362.968H177.158ZM178.334 357.734C178.928 357.734 179.361 357.254 179.361 356.637C179.361 356.008 178.928 355.54 178.334 355.54C177.729 355.54 177.295 356.008 177.295 356.637C177.295 357.265 177.729 357.734 178.334 357.734ZM183.083 359.38C184.224 359.38 185.012 360.237 185.012 361.288C185.012 362.34 184.224 363.197 183.083 363.197C181.918 363.197 181.142 362.34 181.142 361.288C181.142 360.237 181.918 359.38 183.083 359.38ZM183.083 362.385C183.676 362.385 184.11 361.905 184.11 361.288C184.11 360.66 183.676 360.191 183.083 360.191C182.478 360.191 182.044 360.66 182.044 361.288C182.044 361.917 182.478 362.385 183.083 362.385Z" fill="#666666"/>
<path d="M353.386 351.551H204.993C201.39 351.551 198.47 354.475 198.47 358.082C198.47 361.688 201.39 364.612 204.993 364.612H353.386C356.988 364.612 359.909 361.688 359.909 358.082C359.909 354.475 356.988 351.551 353.386 351.551Z" fill="#E8EDFF"/>
<path d="M258.805 351.551H204.993C201.39 351.551 198.47 354.475 198.47 358.082C198.47 361.688 201.39 364.612 204.993 364.612H258.805C262.408 364.612 265.328 361.688 265.328 358.082C265.328 354.475 262.408 351.551 258.805 351.551Z" fill="#8BA7F8"/>
</g>
<g clip-path="url(#clip1_27637_81140)">
<path d="M315.456 0H10.2587C4.59298 0 0 4.58635 0 10.2439V199.756C0 205.414 4.59298 210 10.2587 210H315.456C321.121 210 325.714 205.414 325.714 199.756V10.2439C325.714 4.58635 321.121 0 315.456 0Z" fill="#F5F5FE"/>
<mask id="mask1_27637_81140" style="mask-type:luminance" maskUnits="userSpaceOnUse" x="20" y="20" width="286" height="37">
<path d="M302.632 20.4878H23.0823C21.6658 20.4878 20.5176 21.6344 20.5176 23.0488V53.7805C20.5176 55.1949 21.6658 56.3415 23.0823 56.3415H302.632C304.049 56.3415 305.197 55.1949 305.197 53.7805V23.0488C305.197 21.6344 304.049 20.4878 302.632 20.4878Z" fill="white"/>
</mask>
<g mask="url(#mask1_27637_81140)">
<path d="M302.632 20.4878H23.0823C21.6658 20.4878 20.5176 21.6344 20.5176 23.0488V53.7805C20.5176 55.1949 21.6658 56.3415 23.0823 56.3415H302.632C304.049 56.3415 305.197 55.1949 305.197 53.7805V23.0488C305.197 21.6344 304.049 20.4878 302.632 20.4878Z" fill="white"/>
<path d="M38.3271 37.4569C38.3271 38.932 40.9431 38.9218 40.9431 40.9705C40.9431 42.1691 40.0096 43.1013 38.6144 43.1013C37.5782 43.1013 36.8088 42.6915 36.2754 41.872L37.0243 41.2983C37.4654 41.9335 38.0091 42.2408 38.6349 42.2408C39.4351 42.2408 39.948 41.6978 39.948 41.0422C39.948 39.5466 37.3218 39.5466 37.3218 37.5183C37.3218 36.4427 38.2553 35.5208 39.5479 35.5208C40.6046 35.5208 41.2611 36.0125 41.6715 36.7193L40.9123 37.2827C40.6148 36.7398 40.1737 36.3813 39.5069 36.3813C38.8298 36.3813 38.3271 36.873 38.3271 37.4569ZM45.636 36.9139H44.7538L46.0977 35.2135H47.1132L45.636 36.9139ZM44.5691 43.1013C42.9789 43.1013 42.1173 42.0154 42.1173 40.6325C42.1173 38.9627 43.1739 37.5286 44.9795 37.5286C46.2105 37.5286 47.1132 38.3481 47.1132 39.4544C47.1132 39.731 47.0517 40.0691 46.9491 40.3252H43.0303C43.02 40.4276 43.02 40.53 43.02 40.6427C43.02 41.6466 43.5843 42.3125 44.6204 42.3125C45.3283 42.3125 45.9438 41.9949 46.3131 41.5135L46.8978 42.0769C46.3747 42.712 45.5437 43.1013 44.5691 43.1013ZM44.9589 38.2559C44.0151 38.2559 43.4201 38.8398 43.1637 39.6593H46.231C46.3336 38.9627 45.8822 38.2559 44.9589 38.2559ZM47.9183 42.8964L49.2725 35.2135H50.1445L48.7801 42.8964H47.9183ZM52.9945 43.1013C51.4044 43.1013 50.5426 42.0154 50.5426 40.6325C50.5426 38.9627 51.5993 37.5286 53.4048 37.5286C54.6359 37.5286 55.5386 38.3481 55.5386 39.4544C55.5386 39.731 55.4771 40.0691 55.3745 40.3252H51.4557C51.4454 40.4276 51.4454 40.53 51.4454 40.6427C51.4454 41.6466 52.0096 42.3125 53.0458 42.3125C53.7536 42.3125 54.3691 41.9949 54.7385 41.5135L55.3232 42.0769C54.8 42.712 53.9691 43.1013 52.9945 43.1013ZM53.3843 38.2559C52.4405 38.2559 51.8455 38.8398 51.589 39.6593H54.6564C54.759 38.9627 54.3076 38.2559 53.3843 38.2559ZM59.3803 37.5286C60.3754 37.5286 61.1242 37.9896 61.4628 38.6144L60.7242 39.1779C60.4779 38.7066 59.9958 38.3481 59.3085 38.3481C58.0877 38.3481 57.2362 39.4339 57.2362 40.6427C57.2362 41.5647 57.8517 42.2818 58.8366 42.2818C59.4931 42.2818 60.0061 41.9744 60.3446 41.5442L60.9396 42.1383C60.4574 42.7222 59.7188 43.1013 58.8263 43.1013C57.2362 43.1013 56.3129 42.0154 56.3129 40.6325C56.3129 38.9627 57.5953 37.5286 59.3803 37.5286ZM62.469 41.032L62.9204 38.5222H61.9766L62.1202 37.7335H63.064L63.2897 36.4427H64.1721L63.9463 37.7335H65.6698L65.5365 38.5222H63.8027L63.341 41.0935C63.1872 41.9744 63.5462 42.1998 64.1515 42.1998C64.4593 42.1998 64.7158 42.1383 64.9107 42.0666L64.7773 42.8452C64.5311 42.9374 64.2746 42.9988 63.936 42.9988C62.8178 42.9988 62.2228 42.4252 62.469 41.032ZM67.7338 36.3915C67.3952 36.3915 67.1182 36.1149 67.1182 35.7769C67.1182 35.4491 67.3952 35.1725 67.7338 35.1725C68.0723 35.1725 68.339 35.4491 68.339 35.7769C68.339 36.1149 68.0723 36.3915 67.7338 36.3915ZM66.0513 42.8964L66.9541 37.7335H67.8261L66.9131 42.8964H66.0513ZM71.7327 37.5286C73.2921 37.5286 74.2051 38.6144 74.2051 39.9974C74.2051 41.6261 72.9843 43.1013 71.1582 43.1013C69.5887 43.1013 68.6654 42.0154 68.6654 40.6325C68.6654 39.0037 69.8862 37.5286 71.7327 37.5286ZM71.1685 42.2818C72.4303 42.2818 73.2818 41.1959 73.2818 39.9871C73.2818 39.0652 72.656 38.3481 71.702 38.3481C70.4401 38.3481 69.5887 39.4339 69.5887 40.6427C69.5887 41.5647 70.2144 42.2818 71.1685 42.2818ZM75.0373 42.8964L75.9503 37.7335H76.8223L76.73 38.2764C77.1916 37.8154 77.7456 37.5286 78.4227 37.5286C79.6127 37.5286 80.3411 38.3071 80.0846 39.772L79.5306 42.8964H78.6586L79.2126 39.8027C79.3768 38.8808 78.9562 38.3481 78.1662 38.3481C77.4994 38.3481 76.9352 38.7374 76.5453 39.3213L75.9093 42.8964H75.0373ZM81.2086 42.8964L82.1216 37.7335H82.9936L82.9013 38.2764C83.3629 37.8154 83.9169 37.5286 84.594 37.5286C85.784 37.5286 86.5123 38.3071 86.2559 39.772L85.7019 42.8964H84.8299L85.3839 39.8027C85.548 38.8808 85.1274 38.3481 84.3375 38.3481C83.6707 38.3481 83.1064 38.7374 82.7166 39.3213L82.0806 42.8964H81.2086ZM89.8214 43.1013C88.2313 43.1013 87.3696 42.0154 87.3696 40.6325C87.3696 38.9627 88.4262 37.5286 90.2318 37.5286C91.4628 37.5286 92.3656 38.3481 92.3656 39.4544C92.3656 39.731 92.304 40.0691 92.2014 40.3252H88.2826C88.2723 40.4276 88.2723 40.53 88.2723 40.6427C88.2723 41.6466 88.8366 42.3125 89.8727 42.3125C90.5806 42.3125 91.1961 41.9949 91.5654 41.5135L92.1501 42.0769C91.6269 42.712 90.796 43.1013 89.8214 43.1013ZM90.2112 38.2559C89.2674 38.2559 88.6724 38.8398 88.416 39.6593H91.4833C91.5859 38.9627 91.1345 38.2559 90.2112 38.2559ZM92.731 42.8964L92.8747 42.1076L96.4139 38.5222H93.5723L93.7159 37.7335H97.6347L97.5013 38.5222L93.9518 42.1076H96.9371L96.7935 42.8964H92.731ZM104.792 40.6837L105.315 37.7335H106.198L105.664 40.6939C105.397 42.2305 104.587 43.1013 103.212 43.1013C101.786 43.1013 100.945 42.21 101.222 40.6018L101.735 37.7335H102.607L102.084 40.6837C101.899 41.7081 102.361 42.2818 103.274 42.2818C104.084 42.2818 104.607 41.7183 104.792 40.6837ZM106.936 42.8964L107.849 37.7335H108.721L108.628 38.2764C109.09 37.8154 109.644 37.5286 110.321 37.5286C111.511 37.5286 112.239 38.3071 111.983 39.772L111.429 42.8964H110.557L111.111 39.8027C111.275 38.8808 110.854 38.3481 110.064 38.3481C109.398 38.3481 108.833 38.7374 108.444 39.3213L107.808 42.8964H106.936ZM118.919 37.5286C120.478 37.5286 121.391 38.6144 121.391 39.9974C121.391 41.6261 120.171 43.1013 118.344 43.1013C116.775 43.1013 115.852 42.0154 115.852 40.6325C115.852 39.0037 117.072 37.5286 118.919 37.5286ZM118.355 42.2818C119.617 42.2818 120.468 41.1959 120.468 39.9871C120.468 39.0652 119.842 38.3481 118.888 38.3481C117.626 38.3481 116.775 39.4339 116.775 40.6427C116.775 41.5647 117.401 42.2818 118.355 42.2818ZM126.091 40.6837L126.614 37.7335H127.497L126.963 40.6939C126.696 42.2305 125.886 43.1013 124.511 43.1013C123.085 43.1013 122.244 42.21 122.521 40.6018L123.034 37.7335H123.906L123.383 40.6837C123.198 41.7081 123.66 42.2818 124.573 42.2818C125.383 42.2818 125.906 41.7183 126.091 40.6837ZM130.559 45.4164L131.913 37.7335H132.785L132.693 38.2457C133.195 37.7744 133.77 37.5286 134.416 37.5286C135.904 37.5286 136.724 38.5427 136.724 39.9461C136.724 41.6364 135.545 43.1013 133.831 43.1013C133.062 43.1013 132.405 42.7939 131.985 42.251L131.431 45.4164H130.559ZM134.18 38.3481C133.554 38.3481 132.949 38.6349 132.518 39.2188L132.169 41.2266C132.457 41.8822 133.021 42.2818 133.77 42.2818C134.96 42.2818 135.801 41.2779 135.801 39.9974C135.801 39.0549 135.196 38.3481 134.18 38.3481ZM137.572 42.8964L138.926 35.2135H139.798L138.434 42.8964H137.572ZM144.074 40.6837L144.597 37.7335H145.479L144.946 40.6939C144.679 42.2305 143.869 43.1013 142.494 43.1013C141.068 43.1013 140.227 42.21 140.504 40.6018L141.017 37.7335H141.889L141.366 40.6837C141.181 41.7081 141.643 42.2818 142.556 42.2818C143.366 42.2818 143.889 41.7183 144.074 40.6837ZM147.459 39.0242C147.459 40.0588 149.501 39.9359 149.501 41.4827C149.501 42.3125 148.824 43.1013 147.706 43.1013C146.905 43.1013 146.228 42.7427 145.828 42.0974L146.485 41.6057C146.813 42.1281 147.244 42.3739 147.747 42.3739C148.29 42.3739 148.649 42.0052 148.649 41.5237C148.649 40.4891 146.608 40.6222 146.608 39.0652C146.608 38.2354 147.326 37.5286 148.372 37.5286C149.142 37.5286 149.747 37.9281 150.034 38.471L149.368 38.9422C149.162 38.5325 148.824 38.2559 148.352 38.2559C147.829 38.2559 147.459 38.6247 147.459 39.0242ZM152.278 36.3915C151.94 36.3915 151.662 36.1149 151.662 35.7769C151.662 35.4491 151.94 35.1725 152.278 35.1725C152.617 35.1725 152.884 35.4491 152.884 35.7769C152.884 36.1149 152.617 36.3915 152.278 36.3915ZM150.596 42.8964L151.499 37.7335H152.371L151.458 42.8964H150.596ZM155.672 43.1013C154.081 43.1013 153.22 42.0154 153.22 40.6325C153.22 38.9627 154.277 37.5286 156.082 37.5286C157.314 37.5286 158.216 38.3481 158.216 39.4544C158.216 39.731 158.155 40.0691 158.052 40.3252H154.133C154.123 40.4276 154.123 40.53 154.123 40.6427C154.123 41.6466 154.687 42.3125 155.723 42.3125C156.431 42.3125 157.047 41.9949 157.416 41.5135L158.001 42.0769C157.478 42.712 156.647 43.1013 155.672 43.1013ZM156.062 38.2559C155.118 38.2559 154.523 38.8398 154.267 39.6593H157.334C157.437 38.9627 156.985 38.2559 156.062 38.2559ZM162.798 40.6837L163.321 37.7335H164.204L163.67 40.6939C163.403 42.2305 162.593 43.1013 161.218 43.1013C159.792 43.1013 158.951 42.21 159.228 40.6018L159.741 37.7335H160.613L160.09 40.6837C159.905 41.7081 160.367 42.2818 161.28 42.2818C162.09 42.2818 162.613 41.7183 162.798 40.6837ZM164.942 42.8964L165.855 37.7335H166.727L166.603 38.4198C167.024 37.9383 167.475 37.631 168.152 37.631C168.327 37.631 168.491 37.6515 168.624 37.6925L168.471 38.5427C168.327 38.512 168.194 38.4813 168.009 38.4813C167.332 38.4813 166.839 38.9013 166.429 39.4339L165.813 42.8964H164.942ZM170.161 39.0242C170.161 40.0588 172.202 39.9359 172.202 41.4827C172.202 42.3125 171.525 43.1013 170.407 43.1013C169.607 43.1013 168.93 42.7427 168.53 42.0974L169.186 41.6057C169.514 42.1281 169.945 42.3739 170.448 42.3739C170.992 42.3739 171.351 42.0052 171.351 41.5237C171.351 40.4891 169.309 40.6222 169.309 39.0652C169.309 38.2354 170.027 37.5286 171.074 37.5286C171.843 37.5286 172.448 37.9281 172.736 38.471L172.069 38.9422C171.864 38.5325 171.525 38.2559 171.053 38.2559C170.53 38.2559 170.161 38.6247 170.161 39.0242ZM176.667 41.032L177.119 38.5222H176.175L176.318 37.7335H177.262L177.488 36.4427H178.37L178.145 37.7335H179.868L179.735 38.5222H178.001L177.539 41.0935C177.385 41.9744 177.744 42.1998 178.35 42.1998C178.657 42.1998 178.914 42.1383 179.109 42.0666L178.975 42.8452C178.729 42.9374 178.473 42.9988 178.134 42.9988C177.016 42.9988 176.421 42.4252 176.667 41.032ZM181.707 43.0398C180.773 43.0398 180.127 42.5686 180.127 41.7183C180.127 40.8886 180.722 40.2944 181.953 40.0793L183.81 39.772L183.861 39.4749C183.984 38.7374 183.584 38.3071 182.856 38.3071C182.292 38.3071 181.779 38.5939 181.389 39.0344L180.763 38.512C181.235 37.9486 181.994 37.5286 182.907 37.5286C184.292 37.5286 184.928 38.3686 184.702 39.6388L184.118 42.8964H183.256L183.358 42.333C182.948 42.7837 182.394 43.0398 181.707 43.0398ZM181.03 41.6261C181.03 42.0461 181.338 42.3227 181.902 42.3227C182.569 42.3227 183.112 42.0052 183.502 41.4827L183.697 40.4276L182.138 40.6939C181.389 40.8169 181.03 41.1549 181.03 41.6261ZM185.061 43.9515C185.061 43.3266 185.451 42.8349 186.097 42.4866C185.933 42.3227 185.83 42.1076 185.83 41.8618C185.83 41.3905 186.148 41.032 186.671 40.7452C186.323 40.4378 186.138 40.0076 186.138 39.5159C186.138 38.4915 186.918 37.5183 188.292 37.5183C188.672 37.5183 189 37.6003 189.267 37.7335H191.237L191.093 38.4915H189.985C190.077 38.6964 190.118 38.9218 190.118 39.1676C190.118 40.2022 189.349 41.1754 187.985 41.1754C187.687 41.1754 187.42 41.1344 187.195 41.0422C186.856 41.2369 186.671 41.4622 186.671 41.6671C186.671 41.8515 186.774 41.9744 187.041 41.9744H188.313C189.616 41.9744 190.17 42.6096 190.17 43.47C190.17 44.5661 189.185 45.4574 187.379 45.4574C185.81 45.4574 185.061 44.8632 185.061 43.9515ZM189.298 39.1881C189.298 38.6554 188.918 38.2047 188.292 38.2047C187.431 38.2047 186.969 38.8296 186.969 39.5057C186.969 40.0486 187.328 40.4891 187.985 40.4891C188.815 40.4891 189.298 39.8642 189.298 39.1881ZM185.933 43.8388C185.933 44.3818 186.364 44.73 187.41 44.73C188.692 44.73 189.277 44.2076 189.277 43.5418C189.277 43.1013 189.031 42.7427 188.251 42.7427H186.764C186.2 43.0193 185.933 43.47 185.933 43.8388ZM194.776 35.7871C192.981 37.2827 192.15 38.973 192.15 40.95C192.15 42.4559 192.52 43.4188 193.299 44.4842L192.622 44.9452C191.842 44.0027 191.268 42.7632 191.268 40.95C191.268 38.6657 192.284 36.7296 194.243 35.2135L194.776 35.7871ZM195.557 39.0242C195.557 40.0588 197.598 39.9359 197.598 41.4827C197.598 42.3125 196.921 43.1013 195.803 43.1013C195.003 43.1013 194.326 42.7427 193.926 42.0974L194.582 41.6057C194.91 42.1281 195.341 42.3739 195.844 42.3739C196.388 42.3739 196.747 42.0052 196.747 41.5237C196.747 40.4891 194.705 40.6222 194.705 39.0652C194.705 38.2354 195.423 37.5286 196.47 37.5286C197.239 37.5286 197.844 37.9281 198.132 38.471L197.465 38.9422C197.26 38.5325 196.921 38.2559 196.449 38.2559C195.926 38.2559 195.557 38.6247 195.557 39.0242ZM197.398 44.3715C199.193 42.8759 200.024 41.1857 200.024 39.2086C200.024 37.7027 199.654 36.7398 198.875 35.6744L199.552 35.2135C200.332 36.1559 200.906 37.3954 200.906 39.2086C200.906 41.493 199.89 43.4291 197.921 44.9452L197.398 44.3715Z" fill="#666666"/>
<mask id="mask2_27637_81140" style="mask-type:luminance" maskUnits="userSpaceOnUse" x="274" y="20" width="32" height="37">
<path d="M274.421 20.4878H305.197V56.3415H274.421V20.4878Z" fill="white"/>
</mask>
<g mask="url(#mask2_27637_81140)">
<path d="M274.42 56.3415H275.062V20.4878H274.42H273.779V56.3415H274.42Z" fill="#DDDDDD"/>
</g>
<path fill-rule="evenodd" clip-rule="evenodd" d="M289.809 38.9149L291.925 36.8021L292.529 37.4057L289.809 40.122L287.089 37.4057L287.693 36.8021L289.809 38.9149Z" fill="#000091"/>
</g>
<path d="M302.632 20.808H23.082C21.8426 20.808 20.8379 21.8112 20.8379 23.0488V53.7805C20.8379 55.0181 21.8426 56.0214 23.082 56.0214H302.632C303.871 56.0214 304.876 55.0181 304.876 53.7805V23.0488C304.876 21.8112 303.871 20.808 302.632 20.808Z" stroke="#DDDDDD"/>
<mask id="mask3_27637_81140" style="mask-type:luminance" maskUnits="userSpaceOnUse" x="20" y="58" width="286" height="132">
<path d="M305.197 58.9025H20.5176V189.512H305.197V58.9025Z" fill="white"/>
</mask>
<g mask="url(#mask3_27637_81140)">
<path d="M305.197 58.9025H20.5176V189.512H305.197V58.9025Z" fill="white"/>
<path d="M305.197 58.9025H20.5176V102.439H305.197V58.9025Z" fill="white"/>
<path d="M31.0723 79.179V78.2378H36.1439V79.179H34.1242V84.5122H33.0919V79.179H31.0723ZM37.7568 84.6467C36.8592 84.6467 36.2488 84.1358 36.2488 83.338C36.2488 82.6568 36.7784 82.1638 37.7389 82.0025L39.202 81.7605V81.5274C39.202 80.9717 38.7891 80.6311 38.2057 80.6311C37.712 80.6311 37.326 80.8552 37.0657 81.2227L36.3745 80.6938C36.7784 80.156 37.4247 79.8154 38.2326 79.8154C39.4534 79.8154 40.1266 80.5325 40.1266 81.5274V84.5122H39.202V84.0013C38.8789 84.3957 38.3134 84.6467 37.7568 84.6467ZM37.1824 83.3022C37.1824 83.6517 37.4606 83.8938 37.9274 83.8938C38.4929 83.8938 38.9328 83.6249 39.202 83.1946V82.4148L37.9813 82.621C37.4157 82.7196 37.1824 82.9616 37.1824 83.3022ZM41.0912 85.3189C41.0912 84.8618 41.3156 84.5033 41.7375 84.1896C41.54 84.0193 41.4413 83.7772 41.4413 83.5442C41.4413 83.1857 41.6118 82.8988 41.9619 82.6568C41.5669 82.361 41.3425 81.9039 41.3425 81.4019C41.3425 80.5325 42.0158 79.8154 43.1198 79.8154C43.4609 79.8154 43.7572 79.8782 44.0085 79.9947H45.6781V80.7835H44.7895C44.8702 80.9717 44.9151 81.1868 44.9151 81.4019C44.9151 82.2803 44.2419 83.0064 43.1198 83.0064C42.9224 83.0064 42.7428 82.9795 42.5723 82.9436C42.4287 83.0602 42.3479 83.1946 42.3479 83.3291C42.3479 83.5173 42.4466 83.6249 42.689 83.6249H43.9187C45.0857 83.6249 45.6691 84.2254 45.6691 85.0411C45.6691 86.0181 44.7176 86.7531 43.3443 86.7531C41.9529 86.7531 41.0912 86.2422 41.0912 85.3189ZM43.1288 82.2983C43.7123 82.2983 44.0534 81.9128 44.0534 81.4019C44.0534 80.9 43.7123 80.5235 43.1288 80.5235C42.5454 80.5235 42.2043 80.9 42.2043 81.4019C42.2043 81.9128 42.5454 82.2983 43.1288 82.2983ZM41.9709 85.1935C41.9709 85.6954 42.4735 86.0002 43.3263 86.0002C44.2239 86.0002 44.7446 85.6506 44.7446 85.1217C44.7446 84.7363 44.5202 84.4316 43.829 84.4316H42.3928C42.1414 84.6288 41.9709 84.8708 41.9709 85.1935ZM48.5701 82.11H49.4946L49.8896 80.64H48.5701V79.8871H50.105L50.5538 78.2378H51.3976L50.9488 79.8871H52.4209L52.8697 78.2378H53.7135L53.2647 79.8871H53.9738V80.64H53.0493L52.6543 82.11H53.9738V82.863H52.4389L51.99 84.5122H51.1463L51.5951 82.863H50.123L49.6741 84.5122H48.8304L49.2792 82.863H48.5701V82.11ZM50.3384 82.11H51.8105L52.2055 80.64H50.7334L50.3384 82.11ZM56.3416 84.5033V79.2328L54.8425 80.0664L54.3399 79.3672L56.3596 78.2289H57.32V84.5033H56.3416Z" fill="#161616"/>
<path d="M292.373 72.9878H234.668C233.252 72.9878 232.104 74.1344 232.104 75.5488V85.7927C232.104 87.2071 233.252 88.3536 234.668 88.3536H292.373C293.79 88.3536 294.938 87.2071 294.938 85.7927V75.5488C294.938 74.1344 293.79 72.9878 292.373 72.9878Z" fill="#EEEEEE"/>
<path d="M237.472 79.485V78.4939H241.888V79.485H240.226V83.8719H239.134V79.485H237.472ZM243.238 83.9872C242.461 83.9872 241.93 83.5416 241.93 82.8271C241.93 82.2432 242.384 81.8052 243.215 81.6669L244.4 81.4672V81.3673C244.4 80.9601 244.092 80.6989 243.646 80.6989C243.269 80.6989 242.977 80.8756 242.769 81.1599L242.053 80.6144C242.4 80.138 242.969 79.8461 243.677 79.8461C244.8 79.8461 245.377 80.5145 245.377 81.3673V83.8719H244.4V83.4955C244.154 83.7951 243.692 83.9872 243.238 83.9872ZM242.9 82.781C242.9 83.0422 243.108 83.2112 243.438 83.2112C243.885 83.2112 244.208 83.0038 244.4 82.6964V82.151L243.477 82.3046C243.069 82.3738 242.9 82.5428 242.9 82.781ZM246.111 84.548C246.111 84.1639 246.304 83.8566 246.65 83.603C246.496 83.4494 246.412 83.2419 246.412 83.0422C246.412 82.7349 246.542 82.489 246.835 82.2739C246.496 82.0203 246.311 81.6362 246.311 81.206C246.311 80.453 246.896 79.8461 247.866 79.8461C248.166 79.8461 248.427 79.8999 248.65 79.9997H250.066V80.8295H249.381C249.42 80.9524 249.435 81.0754 249.435 81.206C249.435 81.9666 248.866 82.5812 247.866 82.5812C247.735 82.5812 247.612 82.5735 247.496 82.5505C247.412 82.6273 247.366 82.7118 247.366 82.7963C247.366 82.95 247.45 83.0268 247.627 83.0268H248.604C249.581 83.0268 250.112 83.5492 250.112 84.2714C250.112 85.1319 249.289 85.7927 248.081 85.7927C246.842 85.7927 246.111 85.3624 246.111 84.548ZM247.881 81.8436C248.289 81.8436 248.55 81.5901 248.55 81.206C248.55 80.8218 248.289 80.576 247.881 80.576C247.458 80.576 247.204 80.8295 247.204 81.206C247.204 81.5901 247.458 81.8436 247.881 81.8436ZM247.035 84.4097C247.035 84.7785 247.389 85.009 248.073 85.009C248.781 85.009 249.143 84.7478 249.143 84.3636C249.143 84.0717 248.966 83.8643 248.497 83.8643H247.296C247.15 84.0026 247.035 84.1716 247.035 84.4097ZM252.86 85.7619V79.9997H253.838V80.3147C254.138 80.0151 254.515 79.8461 255.046 79.8461C256.277 79.8461 257.015 80.8064 257.015 81.9358C257.015 83.0652 256.277 84.0256 255.046 84.0256C254.515 84.0256 254.138 83.8566 253.838 83.5569V85.7619H252.86ZM254.907 80.768C254.453 80.768 254.084 80.9678 253.838 81.3289V82.5428C254.099 82.9116 254.461 83.1036 254.907 83.1036C255.569 83.1036 256 82.6119 256 81.9358C256 81.2597 255.569 80.768 254.907 80.768ZM261.517 83.2419C261.156 83.726 260.556 84.0256 259.825 84.0256C258.448 84.0256 257.67 83.0652 257.67 81.9358C257.67 80.7911 258.394 79.8461 259.663 79.8461C260.74 79.8461 261.448 80.576 261.448 81.5901C261.448 81.8052 261.417 82.005 261.387 82.1356H258.671C258.763 82.8578 259.209 83.1497 259.817 83.1497C260.24 83.1497 260.61 82.9653 260.817 82.6888L261.517 83.2419ZM259.64 80.6451C259.14 80.6451 258.809 80.9217 258.701 81.4288H260.486C260.471 81.0369 260.186 80.6451 259.64 80.6451ZM262.403 83.8719V79.9997H263.38V80.3839C263.634 80.1227 263.965 79.9229 264.403 79.9229C264.534 79.9229 264.65 79.946 264.742 79.9767V80.9371C264.619 80.9063 264.488 80.8833 264.311 80.8833C263.834 80.8833 263.526 81.1445 263.38 81.3904V83.8719H262.403ZM265.19 83.3111L265.836 82.7272C266.075 83.0268 266.36 83.2419 266.729 83.2419C267.044 83.2419 267.206 83.0575 267.206 82.8271C267.206 82.151 265.352 82.4045 265.352 81.0446C265.352 80.3608 265.929 79.8461 266.737 79.8461C267.329 79.8461 267.868 80.1304 268.145 80.5068L267.498 81.0754C267.298 80.8295 267.044 80.6297 266.744 80.6297C266.437 80.6297 266.29 80.7988 266.29 80.9985C266.29 81.6593 268.145 81.4288 268.145 82.7656C268.129 83.58 267.475 84.0256 266.744 84.0256C266.052 84.0256 265.559 83.749 265.19 83.3111ZM270.877 79.8461C272.138 79.8461 273 80.7757 273 81.9358C273 83.096 272.138 84.0256 270.877 84.0256C269.615 84.0256 268.753 83.096 268.753 81.9358C268.753 80.7757 269.615 79.8461 270.877 79.8461ZM270.892 83.1036C271.515 83.1036 271.985 82.6043 271.985 81.9358C271.985 81.2597 271.515 80.768 270.892 80.768C270.246 80.768 269.769 81.2597 269.769 81.9358C269.769 82.6119 270.246 83.1036 270.892 83.1036ZM273.891 83.8719V79.9997H274.869V80.3071C275.138 80.0458 275.499 79.8461 276.015 79.8461C276.854 79.8461 277.523 80.4223 277.523 81.5671V83.8719H276.538V81.6055C276.538 81.0907 276.246 80.768 275.769 80.768C275.276 80.768 275.015 81.0984 274.869 81.3443V83.8719H273.891ZM278.632 83.8719V79.9997H279.609V80.3071C279.879 80.0458 280.24 79.8461 280.756 79.8461C281.594 79.8461 282.264 80.4223 282.264 81.5671V83.8719H281.279V81.6055C281.279 81.0907 280.987 80.768 280.51 80.768C280.017 80.768 279.756 81.0984 279.609 81.3443V83.8719H278.632ZM286.944 83.2419C286.582 83.726 285.982 84.0256 285.251 84.0256C283.874 84.0256 283.097 83.0652 283.097 81.9358C283.097 80.7911 283.82 79.8461 285.089 79.8461C286.167 79.8461 286.874 80.576 286.874 81.5901C286.874 81.8052 286.844 82.005 286.813 82.1356H284.097C284.189 82.8578 284.635 83.1497 285.243 83.1497C285.666 83.1497 286.036 82.9653 286.244 82.6888L286.944 83.2419ZM285.066 80.6451C284.566 80.6451 284.235 80.9217 284.128 81.4288H285.913C285.897 81.0369 285.613 80.6451 285.066 80.6451ZM287.829 83.8719V78.1097H288.806V83.8719H287.829Z" fill="#666666"/>
<path fill-rule="evenodd" clip-rule="evenodd" d="M294.938 102.439H30.7764V101.799H294.938V102.439Z" fill="#DDDDDD"/>
<path d="M31.0723 122.716V121.774H36.1439V122.716H34.1242V128.049H33.0919V122.716H31.0723ZM37.7568 128.183C36.8592 128.183 36.2488 127.672 36.2488 126.875C36.2488 126.193 36.7784 125.7 37.7389 125.539L39.202 125.297V125.064C39.202 124.508 38.7891 124.168 38.2057 124.168C37.712 124.168 37.326 124.392 37.0657 124.759L36.3745 124.23C36.7784 123.693 37.4247 123.352 38.2326 123.352C39.4534 123.352 40.1266 124.069 40.1266 125.064V128.049H39.202V127.538C38.8789 127.932 38.3134 128.183 37.7568 128.183ZM37.1824 126.839C37.1824 127.188 37.4606 127.43 37.9274 127.43C38.4929 127.43 38.9328 127.161 39.202 126.731V125.951L37.9813 126.157C37.4157 126.256 37.1824 126.498 37.1824 126.839ZM41.0912 128.855C41.0912 128.398 41.3156 128.04 41.7375 127.726C41.54 127.556 41.4413 127.314 41.4413 127.081C41.4413 126.722 41.6118 126.435 41.9619 126.193C41.5669 125.898 41.3425 125.44 41.3425 124.938C41.3425 124.069 42.0158 123.352 43.1198 123.352C43.4609 123.352 43.7572 123.415 44.0085 123.531H45.6781V124.32H44.7895C44.8702 124.508 44.9151 124.723 44.9151 124.938C44.9151 125.817 44.2419 126.543 43.1198 126.543C42.9224 126.543 42.7428 126.516 42.5723 126.48C42.4287 126.597 42.3479 126.731 42.3479 126.866C42.3479 127.054 42.4466 127.161 42.689 127.161H43.9187C45.0857 127.161 45.6691 127.762 45.6691 128.578C45.6691 129.555 44.7176 130.29 43.3443 130.29C41.9529 130.29 41.0912 129.779 41.0912 128.855ZM43.1288 125.835C43.7123 125.835 44.0534 125.449 44.0534 124.938C44.0534 124.436 43.7123 124.06 43.1288 124.06C42.5454 124.06 42.2043 124.436 42.2043 124.938C42.2043 125.449 42.5454 125.835 43.1288 125.835ZM41.9709 128.73C41.9709 129.232 42.4735 129.537 43.3263 129.537C44.2239 129.537 44.7446 129.187 44.7446 128.658C44.7446 128.273 44.5202 127.968 43.829 127.968H42.3928C42.1414 128.165 41.9709 128.407 41.9709 128.73ZM48.57 125.647H49.4946L49.8896 124.177H48.57V123.424H50.105L50.5538 121.774H51.3976L50.9488 123.424H52.4209L52.8697 121.774H53.7135L53.2647 123.424H53.9738V124.177H53.0493L52.6543 125.647H53.9738V126.399H52.4389L51.99 128.049H51.1463L51.5951 126.399H50.123L49.6741 128.049H48.8304L49.2792 126.399H48.57V125.647ZM50.3384 125.647H51.8105L52.2055 124.177H50.7334L50.3384 125.647ZM54.8785 128.049V127.161L57.0148 125.001C57.6432 124.356 57.9663 124.006 57.9663 123.415C57.9663 122.814 57.5355 122.474 56.961 122.474C56.3237 122.474 55.9197 122.823 55.5696 123.406L54.7618 122.913C55.2824 122.097 56.0185 121.595 57.0507 121.595C58.1189 121.595 58.9717 122.285 58.9717 123.334C58.9717 124.186 58.4151 124.831 57.715 125.539L56.0723 127.161H59.1422V128.049H54.8785Z" fill="#161616"/>
<path d="M292.374 116.524H216.074C214.658 116.524 213.51 117.671 213.51 119.085V129.329C213.51 130.744 214.658 131.89 216.074 131.89H292.374C293.79 131.89 294.938 130.744 294.938 129.329V119.085C294.938 117.671 293.79 116.524 292.374 116.524Z" fill="#E8EDFF"/>
<path d="M218.878 123.022V122.031H223.294V123.022H221.632V127.409H220.54V123.022H218.878ZM224.645 127.524C223.868 127.524 223.337 127.078 223.337 126.364C223.337 125.78 223.791 125.342 224.622 125.204L225.806 125.004V124.904C225.806 124.497 225.499 124.236 225.052 124.236C224.675 124.236 224.383 124.412 224.175 124.696L223.46 124.151C223.806 123.675 224.375 123.383 225.083 123.383C226.206 123.383 226.784 124.051 226.784 124.904V127.409H225.806V127.032C225.56 127.332 225.099 127.524 224.645 127.524ZM224.306 126.318C224.306 126.579 224.514 126.748 224.845 126.748C225.291 126.748 225.614 126.54 225.806 126.233V125.688L224.883 125.841C224.475 125.91 224.306 126.079 224.306 126.318ZM227.518 128.085C227.518 127.701 227.71 127.393 228.056 127.14C227.902 126.986 227.818 126.779 227.818 126.579C227.818 126.271 227.949 126.026 228.241 125.811C227.902 125.557 227.718 125.173 227.718 124.743C227.718 123.99 228.302 123.383 229.272 123.383C229.572 123.383 229.834 123.436 230.057 123.536H231.472V124.366H230.788C230.826 124.489 230.842 124.612 230.842 124.743C230.842 125.503 230.272 126.118 229.272 126.118C229.141 126.118 229.018 126.11 228.903 126.087C228.818 126.164 228.772 126.248 228.772 126.333C228.772 126.487 228.856 126.563 229.033 126.563H230.011C230.988 126.563 231.519 127.086 231.519 127.808C231.519 128.669 230.695 129.329 229.487 129.329C228.249 129.329 227.518 128.899 227.518 128.085ZM229.287 125.38C229.695 125.38 229.957 125.127 229.957 124.743C229.957 124.358 229.695 124.113 229.287 124.113C228.864 124.113 228.61 124.366 228.61 124.743C228.61 125.127 228.864 125.38 229.287 125.38ZM228.441 127.946C228.441 128.315 228.795 128.546 229.48 128.546C230.188 128.546 230.549 128.284 230.549 127.9C230.549 127.608 230.372 127.401 229.903 127.401H228.703C228.556 127.539 228.441 127.708 228.441 127.946ZM233.99 125.472C233.99 124.343 234.736 123.383 235.959 123.383C236.483 123.383 236.86 123.544 237.16 123.844V121.646H238.144V127.409H237.16V127.101C236.86 127.401 236.483 127.562 235.959 127.562C234.736 127.562 233.99 126.602 233.99 125.472ZM235.013 125.472C235.013 126.149 235.436 126.64 236.098 126.64C236.536 126.64 236.898 126.456 237.16 126.102V124.842C236.898 124.489 236.536 124.305 236.098 124.305C235.436 124.305 235.013 124.796 235.013 125.472ZM241.57 122.922H240.632L241.432 121.646H242.493L241.57 122.922ZM242.886 126.779C242.524 127.263 241.924 127.562 241.193 127.562C239.816 127.562 239.039 126.602 239.039 125.472C239.039 124.328 239.762 123.383 241.032 123.383C242.109 123.383 242.817 124.113 242.817 125.127C242.817 125.342 242.786 125.542 242.755 125.672H240.039C240.131 126.394 240.578 126.686 241.186 126.686C241.609 126.686 241.978 126.502 242.186 126.225L242.886 126.779ZM241.009 124.182C240.508 124.182 240.178 124.458 240.07 124.965H241.855C241.84 124.574 241.555 124.182 241.009 124.182ZM243.771 129.299V123.536H244.748V123.851C245.049 123.552 245.426 123.383 245.956 123.383C247.188 123.383 247.926 124.343 247.926 125.472C247.926 126.602 247.188 127.562 245.956 127.562C245.426 127.562 245.049 127.393 244.748 127.094V129.299H243.771ZM245.818 124.305C245.364 124.305 244.995 124.504 244.748 124.866V126.079C245.01 126.448 245.372 126.64 245.818 126.64C246.48 126.64 246.911 126.149 246.911 125.472C246.911 124.796 246.48 124.305 245.818 124.305ZM249.823 127.524C249.046 127.524 248.515 127.078 248.515 126.364C248.515 125.78 248.969 125.342 249.8 125.204L250.985 125.004V124.904C250.985 124.497 250.677 124.236 250.231 124.236C249.854 124.236 249.562 124.412 249.354 124.696L248.638 124.151C248.985 123.675 249.554 123.383 250.262 123.383C251.385 123.383 251.962 124.051 251.962 124.904V127.409H250.985V127.032C250.739 127.332 250.277 127.524 249.823 127.524ZM249.485 126.318C249.485 126.579 249.693 126.748 250.023 126.748C250.47 126.748 250.793 126.54 250.985 126.233V125.688L250.062 125.841C249.654 125.91 249.485 126.079 249.485 126.318ZM253.081 127.409V123.536H254.058V123.921C254.312 123.659 254.643 123.46 255.082 123.46C255.212 123.46 255.328 123.483 255.42 123.513V124.474C255.297 124.443 255.166 124.42 254.989 124.42C254.512 124.42 254.204 124.681 254.058 124.927V127.409H253.081ZM256.708 125.995V124.412H255.985V123.536H256.708V122.568H257.693V123.536H258.878V124.412H257.693V125.995C257.693 126.425 257.924 126.594 258.309 126.594C258.578 126.594 258.755 126.563 258.886 126.51V127.362C258.693 127.447 258.462 127.485 258.139 127.485C257.17 127.485 256.708 126.94 256.708 125.995ZM263.248 126.779C262.887 127.263 262.286 127.562 261.555 127.562C260.178 127.562 259.401 126.602 259.401 125.472C259.401 124.328 260.124 123.383 261.394 123.383C262.471 123.383 263.179 124.113 263.179 125.127C263.179 125.342 263.148 125.542 263.117 125.672H260.401C260.494 126.394 260.94 126.686 261.548 126.686C261.971 126.686 262.34 126.502 262.548 126.225L263.248 126.779ZM261.371 124.182C260.871 124.182 260.54 124.458 260.432 124.965H262.217C262.202 124.574 261.917 124.182 261.371 124.182ZM264.134 127.409V123.536H265.111V123.828C265.372 123.575 265.703 123.383 266.18 123.383C266.673 123.383 267.104 123.598 267.357 124.013C267.634 123.675 268.004 123.383 268.658 123.383C269.458 123.383 270.089 123.936 270.089 125.027V127.409H269.104V125.065C269.104 124.597 268.85 124.305 268.412 124.305C267.988 124.305 267.758 124.597 267.604 124.858C267.611 124.912 267.611 124.965 267.611 125.027V127.409H266.626V125.065C266.626 124.597 266.373 124.305 265.934 124.305C265.488 124.305 265.257 124.635 265.111 124.881V127.409H264.134ZM274.774 126.779C274.412 127.263 273.812 127.562 273.081 127.562C271.704 127.562 270.927 126.602 270.927 125.472C270.927 124.328 271.65 123.383 272.92 123.383C273.997 123.383 274.705 124.113 274.705 125.127C274.705 125.342 274.674 125.542 274.643 125.672H271.927C272.019 126.394 272.466 126.686 273.073 126.686C273.497 126.686 273.866 126.502 274.074 126.225L274.774 126.779ZM272.896 124.182C272.396 124.182 272.066 124.458 271.958 124.965H273.743C273.727 124.574 273.443 124.182 272.896 124.182ZM275.66 127.409V123.536H276.637V123.844C276.906 123.582 277.268 123.383 277.783 123.383C278.622 123.383 279.292 123.959 279.292 125.104V127.409H278.307V125.142C278.307 124.627 278.014 124.305 277.537 124.305C277.045 124.305 276.783 124.635 276.637 124.881V127.409H275.66ZM280.647 125.995V124.412H279.924V123.536H280.647V122.568H281.632V123.536H282.817V124.412H281.632V125.995C281.632 126.425 281.863 126.594 282.247 126.594C282.517 126.594 282.694 126.563 282.824 126.51V127.362C282.632 127.447 282.401 127.485 282.078 127.485C281.109 127.485 280.647 126.94 280.647 125.995ZM284.784 127.524C284.007 127.524 283.476 127.078 283.476 126.364C283.476 125.78 283.93 125.342 284.761 125.204L285.946 125.004V124.904C285.946 124.497 285.638 124.236 285.192 124.236C284.815 124.236 284.523 124.412 284.315 124.696L283.6 124.151C283.946 123.675 284.515 123.383 285.223 123.383C286.346 123.383 286.923 124.051 286.923 124.904V127.409H285.946V127.032C285.7 127.332 285.238 127.524 284.784 127.524ZM284.446 126.318C284.446 126.579 284.654 126.748 284.984 126.748C285.431 126.748 285.754 126.54 285.946 126.233V125.688L285.023 125.841C284.615 125.91 284.446 126.079 284.446 126.318ZM288.042 127.409V121.646H289.019V127.409H288.042Z" fill="#0063CB"/>
<path fill-rule="evenodd" clip-rule="evenodd" d="M294.938 145.976H30.7764V145.335H294.938V145.976Z" fill="#DDDDDD"/>
<path d="M31.0723 166.252V165.311H36.1439V166.252H34.1242V171.585H33.0919V166.252H31.0723ZM37.7568 171.72C36.8592 171.72 36.2488 171.209 36.2488 170.411C36.2488 169.73 36.7784 169.237 37.7389 169.076L39.202 168.834V168.601C39.202 168.045 38.7891 167.704 38.2057 167.704C37.712 167.704 37.326 167.928 37.0657 168.296L36.3745 167.767C36.7784 167.229 37.4247 166.889 38.2326 166.889C39.4534 166.889 40.1266 167.606 40.1266 168.601V171.585H39.202V171.074C38.8789 171.469 38.3134 171.72 37.7568 171.72ZM37.1824 170.375C37.1824 170.725 37.4606 170.967 37.9274 170.967C38.4929 170.967 38.9328 170.698 39.202 170.268V169.488L37.9813 169.694C37.4157 169.793 37.1824 170.035 37.1824 170.375ZM41.0912 172.392C41.0912 171.935 41.3156 171.576 41.7375 171.263C41.54 171.092 41.4413 170.85 41.4413 170.617C41.4413 170.259 41.6118 169.972 41.9619 169.73C41.5669 169.434 41.3425 168.977 41.3425 168.475C41.3425 167.606 42.0158 166.889 43.1198 166.889C43.4609 166.889 43.7572 166.951 44.0085 167.068H45.6781V167.857H44.7895C44.8702 168.045 44.9151 168.26 44.9151 168.475C44.9151 169.353 44.2419 170.08 43.1198 170.08C42.9224 170.08 42.7428 170.053 42.5723 170.017C42.4287 170.133 42.3479 170.268 42.3479 170.402C42.3479 170.59 42.4466 170.698 42.689 170.698H43.9187C45.0857 170.698 45.6691 171.299 45.6691 172.114C45.6691 173.091 44.7176 173.826 43.3443 173.826C41.9529 173.826 41.0912 173.315 41.0912 172.392ZM43.1288 169.371C43.7123 169.371 44.0534 168.986 44.0534 168.475C44.0534 167.973 43.7123 167.597 43.1288 167.597C42.5454 167.597 42.2043 167.973 42.2043 168.475C42.2043 168.986 42.5454 169.371 43.1288 169.371ZM41.9709 172.267C41.9709 172.769 42.4735 173.073 43.3263 173.073C44.2239 173.073 44.7446 172.724 44.7446 172.195C44.7446 171.809 44.5202 171.505 43.829 171.505H42.3928C42.1414 171.702 41.9709 171.944 41.9709 172.267ZM48.57 169.183H49.4946L49.8896 167.713H48.57V166.96H50.105L50.5538 165.311H51.3976L50.9488 166.96H52.4209L52.8697 165.311H53.7135L53.2647 166.96H53.9738V167.713H53.0493L52.6543 169.183H53.9738V169.936H52.4389L51.99 171.585H51.1463L51.5951 169.936H50.123L49.6741 171.585H48.8304L49.2792 169.936H48.57V169.183ZM50.3384 169.183H51.8105L52.2055 167.713H50.7334L50.3384 169.183ZM59.2051 169.829C59.2051 170.994 58.2536 171.765 56.9699 171.765C55.8389 171.765 55.1029 171.29 54.6002 170.429L55.4619 169.9C55.8299 170.59 56.2967 170.886 56.961 170.886C57.6701 170.886 58.1997 170.474 58.1997 169.784C58.1997 169.129 57.715 168.699 56.961 168.699H55.9107V167.821H56.8533C57.4906 167.821 57.9125 167.453 57.9125 166.898C57.9125 166.333 57.4906 166.01 56.9161 166.01C56.3685 166.01 55.9825 166.288 55.6953 166.79L54.8874 166.297C55.3452 165.562 56.0185 165.132 56.9789 165.132C58.101 165.132 58.9268 165.786 58.9268 166.799C58.9268 167.39 58.6575 167.901 58.1459 168.206C58.8281 168.52 59.2051 169.12 59.2051 169.829Z" fill="#161616"/>
<path d="M292.374 160.061H241.08C239.664 160.061 238.516 161.208 238.516 162.622V172.866C238.516 174.28 239.664 175.427 241.08 175.427H292.374C293.79 175.427 294.939 174.28 294.939 172.866V162.622C294.939 161.208 293.79 160.061 292.374 160.061Z" fill="#E8EDFF"/>
<path d="M243.883 166.558V165.567H248.299V166.558H246.637V170.945H245.545V166.558H243.883ZM249.649 171.06C248.872 171.06 248.341 170.615 248.341 169.9C248.341 169.316 248.795 168.878 249.626 168.74L250.811 168.54V168.44C250.811 168.033 250.504 167.772 250.057 167.772C249.68 167.772 249.388 167.949 249.18 168.233L248.465 167.688C248.811 167.211 249.38 166.919 250.088 166.919C251.211 166.919 251.788 167.588 251.788 168.44V170.945H250.811V170.569C250.565 170.868 250.103 171.06 249.649 171.06ZM249.311 169.854C249.311 170.115 249.519 170.284 249.85 170.284C250.296 170.284 250.619 170.077 250.811 169.77V169.224L249.888 169.378C249.48 169.447 249.311 169.616 249.311 169.854ZM252.523 171.621C252.523 171.237 252.715 170.93 253.061 170.676C252.907 170.523 252.823 170.315 252.823 170.115C252.823 169.808 252.953 169.562 253.246 169.347C252.907 169.094 252.723 168.709 252.723 168.279C252.723 167.526 253.307 166.919 254.277 166.919C254.577 166.919 254.838 166.973 255.062 167.073H256.477V167.903H255.793C255.831 168.026 255.846 168.149 255.846 168.279C255.846 169.04 255.277 169.654 254.277 169.654C254.146 169.654 254.023 169.647 253.907 169.624C253.823 169.7 253.777 169.785 253.777 169.87C253.777 170.023 253.861 170.1 254.038 170.1H255.015C255.993 170.1 256.523 170.622 256.523 171.345C256.523 172.205 255.7 172.866 254.492 172.866C253.254 172.866 252.523 172.436 252.523 171.621ZM254.292 168.917C254.7 168.917 254.962 168.663 254.962 168.279C254.962 167.895 254.7 167.649 254.292 167.649C253.869 167.649 253.615 167.903 253.615 168.279C253.615 168.663 253.869 168.917 254.292 168.917ZM253.446 171.483C253.446 171.852 253.8 172.082 254.485 172.082C255.192 172.082 255.554 171.821 255.554 171.437C255.554 171.145 255.377 170.937 254.908 170.937H253.707C253.561 171.076 253.446 171.245 253.446 171.483ZM259.272 170.945V167.073H260.249V167.38C260.518 167.119 260.88 166.919 261.395 166.919C262.234 166.919 262.903 167.495 262.903 168.64V170.945H261.918V168.679C261.918 168.164 261.626 167.841 261.149 167.841C260.656 167.841 260.395 168.172 260.249 168.417V170.945H259.272ZM265.105 171.06C264.328 171.06 263.797 170.615 263.797 169.9C263.797 169.316 264.251 168.878 265.082 168.74L266.267 168.54V168.44C266.267 168.033 265.959 167.772 265.513 167.772C265.136 167.772 264.843 167.949 264.636 168.233L263.92 167.688C264.266 167.211 264.836 166.919 265.543 166.919C266.667 166.919 267.244 167.588 267.244 168.44V170.945H266.267V170.569C266.02 170.868 265.559 171.06 265.105 171.06ZM264.766 169.854C264.766 170.115 264.974 170.284 265.305 170.284C265.751 170.284 266.074 170.077 266.267 169.77V169.224L265.343 169.378C264.936 169.447 264.766 169.616 264.766 169.854ZM268.61 169.531V167.949H267.886V167.073H268.61V166.105H269.594V167.073H270.779V167.949H269.594V169.531C269.594 169.962 269.825 170.131 270.21 170.131C270.479 170.131 270.656 170.1 270.787 170.046V170.899C270.595 170.984 270.364 171.022 270.041 171.022C269.071 171.022 268.61 170.476 268.61 169.531ZM272.146 166.397C271.8 166.397 271.508 166.105 271.508 165.759C271.508 165.413 271.8 165.121 272.146 165.121C272.492 165.121 272.777 165.413 272.777 165.759C272.777 166.105 272.492 166.397 272.146 166.397ZM271.654 170.945V167.073H272.631V170.945H271.654ZM275.65 166.919C276.911 166.919 277.773 167.849 277.773 169.009C277.773 170.169 276.911 171.099 275.65 171.099C274.388 171.099 273.526 170.169 273.526 169.009C273.526 167.849 274.388 166.919 275.65 166.919ZM275.665 170.177C276.288 170.177 276.758 169.677 276.758 169.009C276.758 168.333 276.288 167.841 275.665 167.841C275.019 167.841 274.542 168.333 274.542 169.009C274.542 169.685 275.019 170.177 275.665 170.177ZM278.664 170.945V167.073H279.641V167.38C279.911 167.119 280.272 166.919 280.788 166.919C281.627 166.919 282.296 167.495 282.296 168.64V170.945H281.311V168.679C281.311 168.164 281.019 167.841 280.542 167.841C280.049 167.841 279.788 168.172 279.641 168.417V170.945H278.664ZM284.498 171.06C283.721 171.06 283.19 170.615 283.19 169.9C283.19 169.316 283.644 168.878 284.475 168.74L285.66 168.54V168.44C285.66 168.033 285.352 167.772 284.906 167.772C284.529 167.772 284.237 167.949 284.029 168.233L283.313 167.688C283.66 167.211 284.229 166.919 284.937 166.919C286.06 166.919 286.637 167.588 286.637 168.44V170.945H285.66V170.569C285.414 170.868 284.952 171.06 284.498 171.06ZM284.16 169.854C284.16 170.115 284.368 170.284 284.698 170.284C285.145 170.284 285.468 170.077 285.66 169.77V169.224L284.737 169.378C284.329 169.447 284.16 169.616 284.16 169.854ZM287.756 170.945V165.183H288.733V170.945H287.756Z" fill="#0063CB"/>
<path fill-rule="evenodd" clip-rule="evenodd" d="M294.938 189.512H30.7764V188.872H294.938V189.512Z" fill="#DDDDDD"/>
</g>
<path d="M304.876 59.2225H20.8379V189.192H304.876V59.2225Z" stroke="#E3E3FD"/>
</g>
<path d="M367.653 56.1713C368.052 56.5845 368.427 56.9696 368.796 57.3633C370.713 59.4076 372.624 61.4526 374.541 63.497C374.762 63.7306 374.996 63.9498 375.214 64.1838C376.095 65.1341 376.018 66.4806 375.038 67.3208C373.827 68.3572 372.612 69.389 371.398 70.4206C370.315 71.3395 368.972 71.2643 367.992 70.2227C366.176 68.2874 364.367 66.3434 362.554 64.4051C361.929 63.7357 361.293 63.0779 360.665 62.4088C360.539 62.2746 360.473 62.2847 360.379 62.4394C359.265 64.2142 358.145 65.9871 357.025 67.76C356.755 68.184 356.405 68.5251 355.868 68.6104C355.148 68.7248 354.519 68.3357 354.246 67.6075C353.714 66.1931 353.195 64.7721 352.676 63.3512C352.011 61.5337 351.346 59.719 350.684 57.9013C350.043 56.1428 349.405 54.3839 348.761 52.6257C348.096 50.8083 347.428 48.9939 346.763 47.1765C346.188 45.6054 345.618 44.0311 345.049 42.4569C344.718 41.5429 344.372 40.6331 344.072 39.7104C343.845 39.0025 344.165 38.3801 344.844 38.1011C345.155 37.9753 345.486 37.9624 345.799 38.0878C346.345 38.3044 346.887 38.5315 347.421 38.7752C350.412 40.1377 353.402 41.5082 356.394 42.8708C359.836 44.4379 363.277 46.0024 366.721 47.5641C369.063 48.6246 371.407 49.6773 373.754 50.7297C374.187 50.9234 374.512 51.2193 374.732 51.6225C375.003 52.1225 374.771 52.8579 374.167 53.2284C373.738 53.4887 373.269 53.6919 372.805 53.8972C371.141 54.6344 369.476 55.3591 367.808 56.089C367.768 56.1066 367.728 56.1317 367.65 56.1715L367.653 56.1713Z" fill="white"/>
<defs>
<clipPath id="clip0_27637_81140">
<rect width="340" height="160" fill="white" transform="translate(46 234)"/>
</clipPath>
<clipPath id="clip1_27637_81140">
<rect width="325.714" height="210" fill="white"/>
</clipPath>
</defs>
</svg>
